<?xml version="1.0" encoding="utf-8"?>
<!-- Generator: Adobe Illustrator 20.1.0, SVG Export Plug-In . SVG Version: 6.00 Build 0)  -->
<svg version="1.1" id="Layer_1" xmlns="http://www.w3.org/2000/svg" xmlns:xlink="http://www.w3.org/1999/xlink" x="0px" y="0px"
	 viewBox="0 0 577 577" style="enable-background:new 0 0 577 577;" xml:space="preserve">
<style type="text/css">
	.st0{fill:#18607E;}
	.st1{fill:#0A2A49;}
	.st2{fill:#BBBF43;}
	.st3{fill:#82A73F;}
</style>
<g>
	<g>
		<path class="st0" d="M169.6,191.9c0,0,13.2-3.4,31.3-1.1c-20.4-26.1-40.2-49-61.2-68.1c-1.7,37.7,3.3,75.4,15.8,109.6
			C162.1,202.8,169.6,191.9,169.6,191.9z"/>
	</g>
	<g>
		<path class="st1" d="M263.8,170.2c0,0,12.5,7.4,24.3,22.8c4.3-35.1,6.7-67.2,5.2-97.4c-29.6,27.1-54.3,59.3-70.7,94.4
			C249.9,172.8,263.8,170.2,263.8,170.2z"/>
	</g>
	<g>
		<path class="st2" d="M231.3,414.9c0,0-9.1-5.4-17.7-16.6c-3.1,25.5-4.8,48.9-3.8,70.9c21.6-19.7,39.5-43.1,51.4-68.7
			C241.4,413,231.3,414.9,231.3,414.9z"/>
	</g>
	<g>
		<path class="st2" d="M146.9,368.7c0,0-2.6-10.3-0.8-24.2c-20.3,15.8-38,31.2-52.8,47.5c29.2,1.3,58.5-2.6,85-12.2
			C155.4,374.5,146.9,368.7,146.9,368.7z"/>
	</g>
	<g>
		<path class="st3" d="M119.8,276.1c0,0,6.3-10.7,19.4-20.8c-29.9-3.7-57.3-5.7-83-4.4c23.1,25.3,50.5,46.3,80.5,60.2
			C122,287.9,119.8,276.1,119.8,276.1z"/>
	</g>
</g>
<g>
	<path d="M225.4,339.4c0,4.3-1.4,7.9-4.2,10.9c-2.8,3-6.3,4.4-10.3,4.4c-4,0-7.5-1.5-10.3-4.5c-2.8-3-4.3-6.6-4.3-10.8
		c0-4.3,1.4-8,4.2-10.9c2.8-2.9,6.3-4.4,10.4-4.4c4.1,0,7.6,1.5,10.4,4.4C224,331.5,225.4,335.1,225.4,339.4z M221.9,339.4
		c0-3.3-1.1-6.1-3.2-8.4s-4.7-3.5-7.8-3.5c-3.3,0-6,1.2-8,3.5s-3,5.1-3,8.4c0,3.3,1.1,6.1,3.2,8.4c2.1,2.3,4.7,3.5,7.8,3.5
		c3.1,0,5.7-1.2,7.8-3.5C220.8,345.5,221.9,342.7,221.9,339.4z"/>
	<path d="M263.2,354.1h-4.5l-12.1-15.2v15.2h-3.6v-29.4h3.6v13.7l11.8-13.7h4.2l-12.1,13.7L263.2,354.1z"/>
	<path d="M290.9,354.1h-11.3v-29.4h3.6v26h7.8V354.1z"/>
	<path d="M332.6,354.1h-4l-3.7-8.5h-11.9l-3.6,8.5h-4l13.6-30.2L332.6,354.1z M323.7,342.5l-4.6-10.7l-4.6,10.7H323.7z"/>
	<path d="M369.1,354.1h-3.6v-13.9h-13.2v13.9h-3.6v-29.4h3.6v12h13.2v-12h3.6V354.1z"/>
	<path d="M415.7,339.4c0,4.3-1.4,7.9-4.2,10.9c-2.8,3-6.3,4.4-10.3,4.4c-4,0-7.5-1.5-10.3-4.5c-2.8-3-4.3-6.6-4.3-10.8
		c0-4.3,1.4-8,4.2-10.9c2.8-2.9,6.3-4.4,10.4-4.4c4.1,0,7.6,1.5,10.4,4.4C414.3,331.5,415.7,335.1,415.7,339.4z M412.1,339.4
		c0-3.3-1.1-6.1-3.2-8.4c-2.1-2.3-4.7-3.5-7.8-3.5c-3.3,0-6,1.2-8,3.5c-2,2.3-3,5.1-3,8.4c0,3.3,1.1,6.1,3.2,8.4
		c2.1,2.3,4.7,3.5,7.8,3.5c3.1,0,5.7-1.2,7.8-3.5C411.1,345.5,412.1,342.7,412.1,339.4z"/>
	<path d="M461.8,354.1h-3.6l-2.7-19l-9.1,19.9l-9-19.9l-2.7,19H431l4.8-30.2l10.6,23.3l10.6-23.3L461.8,354.1z"/>
	<path d="M503.1,354.1h-4l-3.7-8.5h-11.9l-3.6,8.5h-4l13.6-30.2L503.1,354.1z M494.2,342.5l-4.6-10.7l-4.6,10.7H494.2z"/>
</g>
<g>
	<path d="M304.6,311.6H289l-14.5-32.7h-47l-14.4,32.7h-15.6l53.6-116.6L304.6,311.6z M269.4,266.9l-18.2-41.2L233,266.9H269.4z"/>
	<path d="M398.2,311.6h-13.6v-11c-2.3,4.5-5.4,7.8-9.4,10.1c-4,2.2-8.7,3.4-14.3,3.4c-9.7,0-17.6-3.5-23.7-10.6
		c-6.1-7-9.1-16.2-9.1-27.4c0-11.1,3-20,9.1-26.9c6.1-6.8,14.1-10.3,24-10.3c5.2,0,9.8,1,13.7,3.1c3.9,2.1,7.1,5.2,9.7,9.4v-48.5
		h13.6V311.6z M384.6,275.8c0-7.5-1.9-13.3-5.7-17.6c-3.8-4.2-9-6.3-15.6-6.3c-6.6,0-11.8,2.2-15.7,6.6c-3.9,4.4-5.9,10.3-5.9,17.8
		c0,7.5,1.9,13.6,5.8,18.1c3.9,4.5,9,6.8,15.3,6.8c6.5,0,11.7-2.3,15.7-7C382.6,289.4,384.6,283.3,384.6,275.8z"/>
	<path d="M501.8,311.6h-13.6v-11c-2.3,4.5-5.4,7.8-9.4,10.1c-4,2.2-8.7,3.4-14.3,3.4c-9.7,0-17.6-3.5-23.7-10.6
		c-6.1-7-9.1-16.2-9.1-27.4c0-11.1,3-20,9.1-26.9c6.1-6.8,14.1-10.3,24-10.3c5.2,0,9.8,1,13.7,3.1c3.9,2.1,7.1,5.2,9.7,9.4v-10.1
		h13.6V311.6z M488.3,275.8c0-7.5-1.9-13.3-5.7-17.6c-3.8-4.2-9-6.3-15.6-6.3c-6.6,0-11.8,2.2-15.7,6.6c-3.9,4.4-5.9,10.3-5.9,17.8
		c0,7.5,1.9,13.6,5.8,18.1c3.9,4.5,9,6.8,15.3,6.8c6.5,0,11.7-2.3,15.7-7C486.3,289.4,488.3,283.3,488.3,275.8z"/>
</g>
<g>
	<path class="st3" d="M228.6,378.4c0,1.1-0.3,2-1,2.6c-0.7,0.6-1.6,1-2.8,1c-0.8,0-1.5-0.2-2.2-0.6c-0.6-0.4-1.1-0.9-1.3-1.6l1-0.8
		c0.2,0.5,0.5,0.9,1,1.2c0.5,0.3,1,0.4,1.6,0.4c0.8,0,1.3-0.2,1.8-0.6c0.4-0.4,0.6-0.9,0.6-1.6c0-0.6-0.2-1.1-0.6-1.5
		c-0.4-0.4-1.1-0.9-2-1.3c-1.1-0.5-1.9-1.1-2.3-1.6c-0.4-0.5-0.6-1.2-0.6-2c0-0.9,0.3-1.7,0.9-2.2c0.6-0.6,1.4-0.8,2.5-0.8
		c0.6,0,1.2,0.1,1.6,0.4c0.5,0.2,0.9,0.6,1.2,1.1l-0.9,0.9c-0.2-0.3-0.4-0.6-0.8-0.8c-0.3-0.2-0.7-0.3-1.2-0.3
		c-0.6,0-1.1,0.2-1.4,0.5c-0.3,0.3-0.5,0.7-0.5,1.2c0,0.5,0.1,0.9,0.4,1.2c0.3,0.3,0.8,0.7,1.6,1.1l0.1,0
		C227.4,375.6,228.6,376.9,228.6,378.4z"/>
	<path class="st3" d="M243.8,381.7h-1.4l-1.2-8.5l-4.1,8.8l-4.1-8.8l-1.2,8.5h-1.4l2-12.8l4.7,10.2l4.7-10.2L243.8,381.7z"/>
	<path class="st3" d="M255.9,381.7h-1.5l-1.6-3.8h-5.2l-1.6,3.8h-1.5l5.7-12.8L255.9,381.7z M252.2,376.7l-2.1-4.8l-2.1,4.8H252.2z"
		/>
	<path class="st3" d="M262,381.7h-4.7v-12.4h1.4v11.2h3.3V381.7z"/>
	<path class="st3" d="M268.2,381.7h-4.7v-12.4h1.4v11.2h3.3V381.7z"/>
	<path class="st3" d="M281,370.5H278v11.2h-1.4v-11.2h-2.9v-1.2h7.3V370.5z"/>
	<path class="st3" d="M294,375.5c0,1.8-0.6,3.4-1.9,4.6c-1.3,1.2-2.8,1.9-4.6,1.9c-1.8,0-3.4-0.6-4.6-1.9c-1.3-1.2-1.9-2.8-1.9-4.6
		c0-1.8,0.6-3.4,1.9-4.6c1.2-1.2,2.8-1.9,4.7-1.9c1.9,0,3.4,0.6,4.6,1.9C293.4,372.1,294,373.6,294,375.5z M292.6,375.5
		c0-1.5-0.5-2.7-1.5-3.7c-1-1-2.2-1.5-3.7-1.5c-1.5,0-2.8,0.5-3.7,1.5c-0.9,1-1.4,2.2-1.4,3.6c0,1.5,0.5,2.7,1.5,3.7
		c1,1,2.2,1.5,3.7,1.5c1.4,0,2.7-0.5,3.7-1.5C292.1,378.1,292.6,376.9,292.6,375.5z"/>
	<path class="st3" d="M312.1,369.2l-5.3,12.8l-3.8-9.8l-3.9,9.8l-5.2-12.8h1.5l3.7,9.4l3.9-9.8l3.8,9.8l3.7-9.4H312.1z"/>
	<path class="st3" d="M324.4,382l-9.6-9.8v9.5h-1.4v-12.8l9.6,9.8v-9.4h1.4V382z"/>
	<path class="st3" d="M334.1,377.9h-2.9v-1.3h2.9V377.9z"/>
	<path class="st3" d="M348,378.2c0,1.2-0.4,2.1-1.1,2.6s-1.8,0.9-3.3,0.9h-2.9v-12.4h2.5c1.2,0,2.1,0.3,2.7,0.9c0.6,0.6,1,1.4,1,2.3
		c0,0.7-0.2,1.3-0.5,1.7c-0.3,0.5-0.8,0.7-1.3,0.9c0.9,0.1,1.6,0.5,2.1,1C347.7,376.6,348,377.3,348,378.2z M345.5,372.6
		c0-0.7-0.2-1.2-0.6-1.5c-0.4-0.3-1-0.5-1.8-0.5h-1.1v4.1h0.8c0.9,0,1.5-0.2,1.9-0.5S345.5,373.2,345.5,372.6z M346.6,378.2
		c0-0.8-0.3-1.3-0.8-1.8c-0.6-0.4-1.4-0.6-2.4-0.6h-1.3v4.6h1.5c1,0,1.8-0.2,2.3-0.5C346.3,379.5,346.6,378.9,346.6,378.2z"/>
	<path class="st3" d="M351.5,381.7h-1.4v-12.4h1.4V381.7z"/>
	<path class="st3" d="M365.7,375.4c0,2-0.5,3.6-1.6,4.8c-1.1,1.2-2.6,1.8-4.4,1.8c-1.8,0-3.3-0.6-4.5-1.8c-1.2-1.2-1.8-2.8-1.8-4.6
		c0-1.8,0.6-3.4,1.8-4.6c1.2-1.2,2.7-1.8,4.5-1.8c1.1,0,2.2,0.2,3,0.6c0.9,0.4,1.6,1.1,2.2,1.9l-1,0.8c-0.4-0.7-1-1.2-1.7-1.5
		c-0.7-0.4-1.5-0.5-2.4-0.5c-1.4,0-2.6,0.5-3.5,1.5c-0.9,1-1.4,2.2-1.4,3.8c0,1.4,0.5,2.6,1.4,3.6c0.9,1,2.1,1.5,3.5,1.5
		c1.2,0,2.3-0.4,3.1-1.1c0.8-0.8,1.3-1.7,1.4-2.8h-3.9v-1.3H365.7z"/>
	<path class="st3" d="M385,375.5c0,1.8-0.6,3.4-1.9,4.6c-1.3,1.2-2.8,1.9-4.6,1.9c-1.8,0-3.4-0.6-4.6-1.9c-1.3-1.2-1.9-2.8-1.9-4.6
		c0-1.8,0.6-3.4,1.9-4.6c1.2-1.2,2.8-1.9,4.7-1.9c1.9,0,3.4,0.6,4.6,1.9C384.4,372.1,385,373.6,385,375.5z M383.7,375.5
		c0-1.5-0.5-2.7-1.5-3.7c-1-1-2.2-1.5-3.7-1.5c-1.5,0-2.8,0.5-3.7,1.5c-0.9,1-1.4,2.2-1.4,3.6c0,1.5,0.5,2.7,1.5,3.7
		c1,1,2.2,1.5,3.7,1.5c1.4,0,2.7-0.5,3.7-1.5C383.2,378.1,383.7,376.9,383.7,375.5z"/>
	<path class="st3" d="M393.3,372.7c0,1.1-0.4,2-1.1,2.6c-0.7,0.6-1.8,0.9-3.3,0.9h-0.6v5.5h-1.4v-12.4h2c1.5,0,2.6,0.3,3.3,0.9
		S393.3,371.6,393.3,372.7z M391.9,372.7c0-0.8-0.2-1.3-0.7-1.7c-0.5-0.3-1.2-0.5-2.3-0.5h-0.6v4.3h0.6c1.1,0,1.9-0.2,2.3-0.5
		C391.7,374,391.9,373.5,391.9,372.7z"/>
	<path class="st3" d="M401.3,372.7c0,1.1-0.4,2-1.1,2.6c-0.7,0.6-1.8,0.9-3.3,0.9h-0.6v5.5h-1.4v-12.4h2c1.5,0,2.6,0.3,3.3,0.9
		S401.3,371.6,401.3,372.7z M399.9,372.7c0-0.8-0.2-1.3-0.7-1.7c-0.5-0.3-1.2-0.5-2.3-0.5h-0.6v4.3h0.6c1.1,0,1.9-0.2,2.3-0.5
		C399.7,374,399.9,373.5,399.9,372.7z"/>
	<path class="st3" d="M415.2,375.5c0,1.8-0.6,3.4-1.9,4.6c-1.3,1.2-2.8,1.9-4.6,1.9c-1.8,0-3.4-0.6-4.6-1.9
		c-1.3-1.2-1.9-2.8-1.9-4.6c0-1.8,0.6-3.4,1.9-4.6c1.2-1.2,2.8-1.9,4.7-1.9c1.9,0,3.4,0.6,4.6,1.9
		C414.6,372.1,415.2,373.6,415.2,375.5z M413.8,375.5c0-1.5-0.5-2.7-1.5-3.7c-1-1-2.2-1.5-3.7-1.5c-1.5,0-2.8,0.5-3.7,1.5
		c-0.9,1-1.4,2.2-1.4,3.6c0,1.5,0.5,2.7,1.5,3.7c1,1,2.2,1.5,3.7,1.5c1.4,0,2.7-0.5,3.7-1.5C413.3,378.1,413.8,376.9,413.8,375.5z"
		/>
	<path class="st3" d="M424.4,381.7h-1.7l-3.8-5.9h-0.4v5.9h-1.4v-12.4h2.6c1.3,0,2.3,0.3,3,0.9c0.7,0.6,1,1.4,1,2.5
		c0,1-0.3,1.7-0.9,2.3c-0.6,0.6-1.4,0.9-2.5,0.9L424.4,381.7z M422.3,372.6c0-0.7-0.2-1.3-0.7-1.6c-0.5-0.3-1.2-0.5-2.1-0.5h-1.1
		v4.1h1.1c1,0,1.7-0.2,2.2-0.5C422.1,373.8,422.3,373.3,422.3,372.6z"/>
	<path class="st3" d="M431.8,370.5h-2.9v11.2h-1.4v-11.2h-2.9v-1.2h7.3V370.5z"/>
	<path class="st3" d="M442.1,377c0,1.7-0.4,2.9-1.1,3.7c-0.7,0.8-1.8,1.2-3.3,1.2c-1.5,0-2.5-0.4-3.3-1.2c-0.7-0.8-1.1-2-1.1-3.7
		v-7.8h1.4v8.1c0,1.1,0.2,2,0.7,2.5c0.5,0.5,1.2,0.8,2.2,0.8c1,0,1.8-0.3,2.2-0.8s0.7-1.4,0.7-2.5v-8.1h1.4V377z"/>
	<path class="st3" d="M455.7,382l-9.6-9.8v9.5h-1.4v-12.8l9.6,9.8v-9.4h1.4V382z"/>
	<path class="st3" d="M459.8,381.7h-1.4v-12.4h1.4V381.7z"/>
	<path class="st3" d="M468.2,370.5h-2.9v11.2h-1.4v-11.2H461v-1.2h7.3V370.5z"/>
	<path class="st3" d="M478.1,369.2l-3.9,6.7v5.7h-1.4V376l-4-6.7h1.5l3.1,5.5l3-5.5H478.1z"/>
</g>
<g>
</g>
<g>
</g>
<g>
</g>
<g>
</g>
<g>
</g>
<g>
</g>
</svg>
