<?xml version="1.0" encoding="utf-8"?>
<!-- Generator: Adobe Illustrator 20.1.0, SVG Export Plug-In . SVG Version: 6.00 Build 0)  -->
<svg version="1.1" xmlns="http://www.w3.org/2000/svg" xmlns:xlink="http://www.w3.org/1999/xlink" x="0px" y="0px"
	 viewBox="0 0 576 360.1" style="enable-background:new 0 0 576 360.1;" xml:space="preserve">
<style type="text/css">
	.st0{fill-rule:evenodd;clip-rule:evenodd;fill:#F3F3F3;}
	.st1{fill:none;stroke:#C0BFBF;stroke-width:0.72;stroke-linejoin:round;stroke-miterlimit:10;}
	.st2{clip-path:url(#SVGID_2_);fill:#B0ACAC;}
	.st3{clip-path:url(#SVGID_4_);fill:none;stroke:#010101;stroke-width:0.72;stroke-linejoin:round;stroke-miterlimit:10;}
	.st4{clip-path:url(#SVGID_6_);fill:none;stroke:#010101;stroke-width:0.72;stroke-linejoin:round;stroke-miterlimit:10;}
	
		.st5{clip-path:url(#SVGID_8_);fill:none;stroke:#344051;stroke-width:2.16;stroke-linecap:round;stroke-linejoin:round;stroke-miterlimit:10;}
	
		.st6{clip-path:url(#SVGID_10_);fill:none;stroke:#414141;stroke-width:2.28;stroke-linecap:round;stroke-linejoin:round;stroke-miterlimit:10;stroke-dasharray:0,57912;}
	.st7{clip-path:url(#SVGID_12_);fill:#010101;}
	.st8{clip-path:url(#SVGID_12_);fill:none;stroke:#010101;stroke-width:2.28;stroke-linejoin:round;stroke-miterlimit:10;}
	.st9{clip-path:url(#SVGID_14_);}
	.st10{fill:#010101;}
	.st11{font-family:'FuturaStd-Book';}
	.st12{font-size:9px;}
	.st13{clip-path:url(#SVGID_16_);}
	.st14{clip-path:url(#SVGID_18_);}
	.st15{clip-path:url(#SVGID_20_);}
	.st16{clip-path:url(#SVGID_22_);}
	.st17{clip-path:url(#SVGID_24_);}
	.st18{clip-path:url(#SVGID_26_);}
	.st19{clip-path:url(#SVGID_28_);}
	.st20{clip-path:url(#SVGID_30_);}
	.st21{clip-path:url(#SVGID_32_);}
	.st22{clip-path:url(#SVGID_34_);}
	.st23{clip-path:url(#SVGID_36_);}
	.st24{fill:#010101;stroke:#010101;stroke-width:0.4011;stroke-miterlimit:10;}
	.st25{font-size:14.04px;}
	.st26{clip-path:url(#SVGID_38_);fill-rule:evenodd;clip-rule:evenodd;fill:#B0ACAC;}
	.st27{clip-path:url(#SVGID_40_);}
	.st28{fill:#595A5A;}
	
		.st29{clip-path:url(#SVGID_42_);fill:none;stroke:#344051;stroke-width:2.16;stroke-linecap:round;stroke-linejoin:round;stroke-miterlimit:10;}
	.st30{clip-path:url(#SVGID_44_);}
	.st31{clip-path:url(#SVGID_48_);}
	.st32{fill:none;stroke:#D9D9D8;stroke-width:0.72;stroke-linejoin:round;stroke-miterlimit:10;}
	.st33{fill:none;stroke:#000000;stroke-width:2;stroke-miterlimit:10;}
	.st34{fill:none;stroke:#000000;stroke-width:2;stroke-miterlimit:10;stroke-dasharray:2.9781,2.9781;}
	.st35{fill:none;stroke:#000000;stroke-miterlimit:10;}
</style>
<g id="Layer_1">
	<g>
		<polygon class="st0" points="0,0.1 576,0.1 576,360.1 0,360.1 0,0.1 		"/>
		<path class="st1" d="M46,241.6h508 M46,173.8h508 M46,106.1h508 M46,38.3h508"/>
		<g>
			<defs>
				<polygon id="SVGID_1_" points="45.8,310 554.6,310 554.6,38.3 45.8,38.3 45.8,310 				"/>
			</defs>
			<clipPath id="SVGID_2_">
				<use xlink:href="#SVGID_1_"  style="overflow:visible;"/>
			</clipPath>
			<path class="st2" d="M238.9,38.3h20.4v271.1h-20.4V38.3L238.9,38.3z M401.5,38.3h40.7v271.1h-40.7V38.3L401.5,38.3z"/>
		</g>
		<g>
			<defs>
				<polygon id="SVGID_3_" points="0,360 576,360 576,0 0,0 0,360 				"/>
			</defs>
			<clipPath id="SVGID_4_">
				<use xlink:href="#SVGID_3_"  style="overflow:visible;"/>
			</clipPath>
			<line class="st3" x1="46" y1="309.4" x2="553.9" y2="309.4"/>
		</g>
		<g>
			<defs>
				<polygon id="SVGID_5_" points="0,360 576,360 576,0 0,0 0,360 				"/>
			</defs>
			<clipPath id="SVGID_6_">
				<use xlink:href="#SVGID_5_"  style="overflow:visible;"/>
			</clipPath>
			<path class="st4" d="M46,306.2v6.1 M147.5,306.2v6.1 M249.1,306.2v6.1 M350.8,306.2v6.1 M452.4,306.2v6.1 M553.9,306.2v6.1"/>
		</g>
		<g>
			<defs>
				<polygon id="SVGID_7_" points="45.8,310 554.6,310 554.6,38.3 45.8,38.3 45.8,310 				"/>
			</defs>
			<clipPath id="SVGID_8_">
				<use xlink:href="#SVGID_7_"  style="overflow:visible;"/>
			</clipPath>
			<polyline class="st5" points="46,266.5 66.2,280 86.5,283.1 106.9,281.2 127.2,284.6 147.5,286.6 167.9,285.8 188.2,276.5 
				208.4,276.4 228.8,262.6 249.1,258.4 269.4,267 289.8,247.1 310.1,254.2 330.4,238.1 350.8,235 371,222.4 391.4,205.8 
				411.7,174.2 432,167.6 452.4,142.6 472.7,123.8 493,133.6 513.4,125.8 533.6,100 553.9,78.2 			"/>
		</g>
		<g>
			<defs>
				<polygon id="SVGID_9_" points="45.8,310 554.6,310 554.6,38.3 45.8,38.3 45.8,310 				"/>
			</defs>
			<clipPath id="SVGID_10_">
				<use xlink:href="#SVGID_9_"  style="overflow:visible;"/>
			</clipPath>
			<polyline class="st6" points="208.5,276.4 228.8,276.4 249.2,276.4 269.5,276.4 289.7,276.4 310.1,276.4 330.4,276.4 
				350.7,276.4 371.1,276.4 391.4,276.4 411.7,276.4 432.1,276.4 452.3,276.4 472.6,276.4 493,276.4 513.3,276.4 533.6,276.4 
				554,276.4 			"/>
		</g>
		<g>
			<defs>
				<polygon id="SVGID_11_" points="0,360 576,360 576,0 0,0 0,360 				"/>
			</defs>
			<clipPath id="SVGID_12_">
				<use xlink:href="#SVGID_11_"  style="overflow:visible;"/>
			</clipPath>
			<polygon class="st7" points="208.5,272.5 212.5,276.4 208.5,280.4 204.5,276.4 208.5,272.5 			"/>
			<polygon class="st8" points="208.5,272.5 212.5,276.4 208.5,280.4 204.5,276.4 208.5,272.5 			"/>
		</g>
		<g>
			<defs>
				<rect id="SVGID_13_" x="0" width="576" height="360"/>
			</defs>
			<clipPath id="SVGID_14_">
				<use xlink:href="#SVGID_13_"  style="overflow:visible;"/>
			</clipPath>
			<g class="st9">
				<text transform="matrix(1 0 0 1 6.5473 311.7795)"><tspan x="0" y="0" class="st10 st11 st12">28</tspan><tspan x="11.1" y="0" class="st10 st11 st12">,</tspan><tspan x="13.9" y="0" class="st10 st11 st12">00</tspan><tspan x="25" y="0" class="st10 st11 st12">0</tspan></text>
			</g>
		</g>
		<g>
			<defs>
				<rect id="SVGID_15_" x="0" width="576" height="360"/>
			</defs>
			<clipPath id="SVGID_16_">
				<use xlink:href="#SVGID_15_"  style="overflow:visible;"/>
			</clipPath>
			<g class="st13">
				<text transform="matrix(1 0 0 1 6.5473 244.0295)"><tspan x="0" y="0" class="st10 st11 st12">31</tspan><tspan x="11.1" y="0" class="st10 st11 st12">,</tspan><tspan x="13.9" y="0" class="st10 st11 st12">00</tspan><tspan x="25" y="0" class="st10 st11 st12">0</tspan></text>
			</g>
		</g>
		<g>
			<defs>
				<rect id="SVGID_17_" x="0" width="576" height="360"/>
			</defs>
			<clipPath id="SVGID_18_">
				<use xlink:href="#SVGID_17_"  style="overflow:visible;"/>
			</clipPath>
			<g class="st14">
				<text transform="matrix(1 0 0 1 6.5473 176.2795)"><tspan x="0" y="0" class="st10 st11 st12">34</tspan><tspan x="11.1" y="0" class="st10 st11 st12">,</tspan><tspan x="13.9" y="0" class="st10 st11 st12">00</tspan><tspan x="25" y="0" class="st10 st11 st12">0</tspan></text>
			</g>
		</g>
		<g>
			<defs>
				<rect id="SVGID_19_" x="0" width="576" height="360"/>
			</defs>
			<clipPath id="SVGID_20_">
				<use xlink:href="#SVGID_19_"  style="overflow:visible;"/>
			</clipPath>
			<g class="st15">
				<text transform="matrix(1 0 0 1 6.5473 108.5217)"><tspan x="0" y="0" class="st10 st11 st12">37</tspan><tspan x="11.1" y="0" class="st10 st11 st12">,</tspan><tspan x="13.9" y="0" class="st10 st11 st12">00</tspan><tspan x="25" y="0" class="st10 st11 st12">0</tspan></text>
			</g>
		</g>
		<g>
			<defs>
				<rect id="SVGID_21_" x="0" width="576" height="360"/>
			</defs>
			<clipPath id="SVGID_22_">
				<use xlink:href="#SVGID_21_"  style="overflow:visible;"/>
			</clipPath>
			<g class="st16">
				<text transform="matrix(1 0 0 1 6.5473 40.7639)"><tspan x="0" y="0" class="st10 st11 st12">40</tspan><tspan x="11.1" y="0" class="st10 st11 st12">,</tspan><tspan x="13.9" y="0" class="st10 st11 st12">00</tspan><tspan x="25" y="0" class="st10 st11 st12">0</tspan></text>
			</g>
		</g>
		<g>
			<defs>
				<rect id="SVGID_23_" x="0" width="576" height="360"/>
			</defs>
			<clipPath id="SVGID_24_">
				<use xlink:href="#SVGID_23_"  style="overflow:visible;"/>
			</clipPath>
			<g class="st17">
				<text transform="matrix(1 0 0 1 34.8208 327.342)"><tspan x="0" y="0" class="st10 st11 st12">19</tspan><tspan x="11.1" y="0" class="st10 st11 st12">9</tspan><tspan x="16.7" y="0" class="st10 st11 st12">0</tspan></text>
			</g>
		</g>
		<g>
			<defs>
				<rect id="SVGID_25_" x="0" width="576" height="360"/>
			</defs>
			<clipPath id="SVGID_26_">
				<use xlink:href="#SVGID_25_"  style="overflow:visible;"/>
			</clipPath>
			<g class="st18">
				<text transform="matrix(1 0 0 1 136.4223 327.342)"><tspan x="0" y="0" class="st10 st11 st12">19</tspan><tspan x="11.1" y="0" class="st10 st11 st12">9</tspan><tspan x="16.7" y="0" class="st10 st11 st12">5</tspan></text>
			</g>
		</g>
		<g>
			<defs>
				<rect id="SVGID_27_" x="0" width="576" height="360"/>
			</defs>
			<clipPath id="SVGID_28_">
				<use xlink:href="#SVGID_27_"  style="overflow:visible;"/>
			</clipPath>
			<g class="st19">
				<text transform="matrix(1 0 0 1 238.0317 327.342)"><tspan x="0" y="0" class="st10 st11 st12">20</tspan><tspan x="11.1" y="0" class="st10 st11 st12">0</tspan><tspan x="16.7" y="0" class="st10 st11 st12">0</tspan></text>
			</g>
		</g>
		<g>
			<defs>
				<rect id="SVGID_29_" x="0" width="576" height="360"/>
			</defs>
			<clipPath id="SVGID_30_">
				<use xlink:href="#SVGID_29_"  style="overflow:visible;"/>
			</clipPath>
			<g class="st20">
				<text transform="matrix(1 0 0 1 339.6489 327.342)"><tspan x="0" y="0" class="st10 st11 st12">20</tspan><tspan x="11.1" y="0" class="st10 st11 st12">0</tspan><tspan x="16.7" y="0" class="st10 st11 st12">5</tspan></text>
			</g>
		</g>
		<g>
			<defs>
				<rect id="SVGID_31_" x="0" width="576" height="360"/>
			</defs>
			<clipPath id="SVGID_32_">
				<use xlink:href="#SVGID_31_"  style="overflow:visible;"/>
			</clipPath>
			<g class="st21">
				<text transform="matrix(1 0 0 1 441.2583 327.342)"><tspan x="0" y="0" class="st10 st11 st12">20</tspan><tspan x="11.1" y="0" class="st10 st11 st12">1</tspan><tspan x="16.7" y="0" class="st10 st11 st12">0</tspan></text>
			</g>
		</g>
		<g>
			<defs>
				<rect id="SVGID_33_" x="0" width="576" height="360"/>
			</defs>
			<clipPath id="SVGID_34_">
				<use xlink:href="#SVGID_33_"  style="overflow:visible;"/>
			</clipPath>
			<g class="st22">
				<text transform="matrix(1 0 0 1 542.8677 327.342)"><tspan x="0" y="0" class="st10 st11 st12">20</tspan><tspan x="11.1" y="0" class="st10 st11 st12">1</tspan><tspan x="16.7" y="0" class="st10 st11 st12">5</tspan></text>
			</g>
		</g>
		<g>
			<defs>
				<rect id="SVGID_35_" x="0" y="6.1" width="576" height="180"/>
			</defs>
			<clipPath id="SVGID_36_">
				<use xlink:href="#SVGID_35_"  style="overflow:visible;"/>
			</clipPath>
			<g class="st23">
				<text transform="matrix(1 0 0 1 82.0161 21.6467)"><tspan x="0" y="0" class="st24 st11 st25">A</tspan><tspan x="10.2" y="0" class="st24 st11 st25">d</tspan><tspan x="18.7" y="0" class="st24 st11 st25">j</tspan><tspan x="22.8" y="0" class="st24 st11 st25">u</tspan><tspan x="30.3" y="0" class="st24 st11 st25">s</tspan><tspan x="36.3" y="0" class="st24 st11 st25">t</tspan><tspan x="40" y="0" class="st24 st11 st25">e</tspan><tspan x="47.7" y="0" class="st24 st11 st25">d</tspan><tspan x="56.2" y="0" class="st24 st11 st25"> </tspan><tspan x="60.7" y="0" class="st24 st11 st25">A</tspan><tspan x="70.3" y="0" class="st24 st11 st25">v</tspan><tspan x="77.1" y="0" class="st24 st11 st25">e</tspan><tspan x="84.8" y="0" class="st24 st11 st25">r</tspan><tspan x="89.8" y="0" class="st24 st11 st25">a</tspan><tspan x="98.3" y="0" class="st24 st11 st25">g</tspan><tspan x="106.8" y="0" class="st24 st11 st25">e</tspan><tspan x="114.5" y="0" class="st24 st11 st25"> </tspan><tspan x="119" y="0" class="st24 st11 st25">Ann</tspan><tspan x="144.8" y="0" class="st24 st11 st25">u</tspan><tspan x="152.4" y="0" class="st24 st11 st25">al</tspan><tspan x="164.5" y="0" class="st24 st11 st25"> </tspan><tspan x="168.9" y="0" class="st24 st11 st25">W</tspan><tspan x="183.6" y="0" class="st24 st11 st25">a</tspan><tspan x="192.1" y="0" class="st24 st11 st25">g</tspan><tspan x="200.6" y="0" class="st24 st11 st25">es</tspan><tspan x="214.2" y="0" class="st24 st11 st25"> </tspan><tspan x="218.7" y="0" class="st24 st11 st25">f</tspan><tspan x="222.9" y="0" class="st24 st11 st25">o</tspan><tspan x="231.2" y="0" class="st24 st11 st25">r</tspan><tspan x="236.2" y="0" class="st24 st11 st25"> </tspan><tspan x="240.9" y="0" class="st24 st11 st25">P</tspan><tspan x="248.3" y="0" class="st24 st11 st25">on</tspan><tspan x="264.3" y="0" class="st24 st11 st25">t</tspan><tspan x="268" y="0" class="st24 st11 st25">o</tspan><tspan x="276.3" y="0" class="st24 st11 st25">t</tspan><tspan x="280" y="0" class="st24 st11 st25">o</tspan><tspan x="288.3" y="0" class="st24 st11 st25">c</tspan><tspan x="295.4" y="0" class="st24 st11 st25"> </tspan><tspan x="299.9" y="0" class="st24 st11 st25">C</tspan><tspan x="310.4" y="0" class="st24 st11 st25">o</tspan><tspan x="318.6" y="0" class="st24 st11 st25">u</tspan><tspan x="326.2" y="0" class="st24 st11 st25">n</tspan><tspan x="334" y="0" class="st24 st11 st25">t</tspan><tspan x="337.7" y="0" class="st24 st11 st25">y</tspan><tspan x="343.9" y="0" class="st24 st11 st25">, </tspan><tspan x="353.3" y="0" class="st24 st11 st25">(</tspan><tspan x="357.7" y="0" class="st24 st11 st25">2016</tspan><tspan x="393.7" y="0" class="st24 st11 st25"> </tspan><tspan x="398.3" y="0" class="st24 st11 st25">$</tspan><tspan x="407.3" y="0" class="st24 st11 st25">)</tspan></text>
			</g>
			<g class="st23">
			</g>
		</g>
		<g>
			<defs>
				<polygon id="SVGID_37_" points="0,360 576,360 576,0 0,0 0,360 				"/>
			</defs>
			<clipPath id="SVGID_38_">
				<use xlink:href="#SVGID_37_"  style="overflow:visible;"/>
			</clipPath>
			<polygon class="st26" points="153,342.7 178.2,342.7 178.2,348 153,348 153,342.7 			"/>
		</g>
		<g>
			<defs>
				<rect id="SVGID_39_" x="0" width="576" height="360"/>
			</defs>
			<clipPath id="SVGID_40_">
				<use xlink:href="#SVGID_39_"  style="overflow:visible;"/>
			</clipPath>
			<g class="st27">
				<text transform="matrix(1 0 0 1 181.0239 347.7952)"><tspan x="0" y="0" class="st28 st11 st12">R</tspan><tspan x="4.9" y="0" class="st28 st11 st12">e</tspan><tspan x="9.6" y="0" class="st28 st11 st12">c</tspan><tspan x="13.8" y="0" class="st28 st11 st12">ess</tspan><tspan x="25.7" y="0" class="st28 st11 st12">i</tspan><tspan x="28.1" y="0" class="st28 st11 st12">o</tspan><tspan x="33.1" y="0" class="st28 st11 st12">n</tspan></text>
			</g>
		</g>
		<g>
			<defs>
				<polygon id="SVGID_41_" points="0,360 576,360 576,0 0,0 0,360 				"/>
			</defs>
			<clipPath id="SVGID_42_">
				<use xlink:href="#SVGID_41_"  style="overflow:visible;"/>
			</clipPath>
			<line class="st29" x1="235.1" y1="345.4" x2="260.3" y2="345.4"/>
		</g>
		<g>
			<defs>
				<rect id="SVGID_43_" x="0" width="576" height="360"/>
			</defs>
			<clipPath id="SVGID_44_">
				<use xlink:href="#SVGID_43_"  style="overflow:visible;"/>
			</clipPath>
			<g class="st30">
				<text transform="matrix(1 0 0 1 263.0083 347.7952)"><tspan x="0" y="0" class="st28 st11 st12">A</tspan><tspan x="6.2" y="0" class="st28 st11 st12">v</tspan><tspan x="10.4" y="0" class="st28 st11 st12">e</tspan><tspan x="15.1" y="0" class="st28 st11 st12">r</tspan><tspan x="18.1" y="0" class="st28 st11 st12">a</tspan><tspan x="23.3" y="0" class="st28 st11 st12">g</tspan><tspan x="28.6" y="0" class="st28 st11 st12">e</tspan><tspan x="33.2" y="0" class="st28 st11 st12"> </tspan><tspan x="36" y="0" class="st28 st11 st12">A</tspan><tspan x="42.3" y="0" class="st28 st11 st12">nn</tspan><tspan x="51.8" y="0" class="st28 st11 st12">u</tspan><tspan x="56.4" y="0" class="st28 st11 st12">a</tspan><tspan x="61.6" y="0" class="st28 st11 st12">l</tspan><tspan x="63.6" y="0" class="st28 st11 st12"> </tspan><tspan x="66.4" y="0" class="st28 st11 st12">W</tspan><tspan x="76.2" y="0" class="st28 st11 st12">a</tspan><tspan x="81.5" y="0" class="st28 st11 st12">g</tspan><tspan x="86.7" y="0" class="st28 st11 st12">e</tspan></text>
			</g>
		</g>
		<g>
			<defs>
				<polygon id="SVGID_45_" points="0,360 576,360 576,0 0,0 0,360 				"/>
			</defs>
			<clipPath id="SVGID_46_">
				<use xlink:href="#SVGID_45_"  style="overflow:visible;"/>
			</clipPath>
		</g>
		<g>
			<defs>
				<rect id="SVGID_47_" x="0" width="576" height="360"/>
			</defs>
			<clipPath id="SVGID_48_">
				<use xlink:href="#SVGID_47_"  style="overflow:visible;"/>
			</clipPath>
			<g class="st31">
			</g>
		</g>
		<polygon class="st32" points="0,0.1 576,0.1 576,360.1 0,360.1 0,0.1 		"/>
	</g>
	<g>
		<g>
			<line class="st33" x1="208.5" y1="276.4" x2="210" y2="276.4"/>
			<line class="st34" x1="213" y1="276.4" x2="551" y2="276.4"/>
			<line class="st33" x1="552.5" y1="276.4" x2="554" y2="276.4"/>
		</g>
	</g>
	<text transform="matrix(1 0 0 1 133.9458 227.7278)" class="st11 st25">Prop 2 Goes into Effect</text>
	<text transform="matrix(1 0 0 1 303.9451 301.0611)" class="st11 st25">1998 Adjusted Average Wage: $29,457</text>
	<g>
		<g>
			<line class="st35" x1="208.5" y1="232.4" x2="208.5" y2="265.4"/>
			<g>
				<polygon points="208.5,272.5 204.4,262.5 208.5,264.9 212.6,262.5 				"/>
			</g>
		</g>
	</g>
	<text transform="matrix(1 0 0 1 307.9455 58.3941)" class="st11 st25">2015 Adjusted Average Wage: $38,231</text>
	<g>
		<g>
			<line class="st35" x1="553.9" y1="61.7" x2="553.9" y2="71.2"/>
			<g>
				<polygon points="553.9,78.2 549.9,68.3 553.9,70.7 558,68.3 				"/>
			</g>
		</g>
	</g>
	<g>
		<g>
			<line class="st35" x1="553.9" y1="288.4" x2="554" y2="283.5"/>
			<g>
				<polygon points="554,276.4 558,286.4 554,284 549.9,286.4 				"/>
			</g>
		</g>
	</g>
</g>
<g id="Workspace">
</g>
</svg>
