<svg id="Layer_1" data-name="Layer 1" xmlns="http://www.w3.org/2000/svg" xmlns:xlink="http://www.w3.org/1999/xlink" viewBox="0 0 576.72 360.72"><defs><style>.cls-1,.cls-10,.cls-11,.cls-13,.cls-19,.cls-2,.cls-20,.cls-21,.cls-23,.cls-3,.cls-5,.cls-9{fill:none;}.cls-1{clip-rule:evenodd;}.cls-17,.cls-3,.cls-4{fill-rule:evenodd;}.cls-4{fill:#f3f3f3;}.cls-5{stroke:#c0bfbf;}.cls-10,.cls-11,.cls-13,.cls-19,.cls-5,.cls-9{stroke-linejoin:round;}.cls-5,.cls-9{stroke-width:0.72px;}.cls-6{clip-path:url(#clip-path);}.cls-17,.cls-7{fill:#b0acac;}.cls-8{clip-path:url(#clip-path-2);}.cls-13,.cls-16,.cls-9{stroke:#010101;}.cls-10{stroke:#344051;stroke-width:2.16px;}.cls-10,.cls-11{stroke-linecap:round;}.cls-11{stroke:#414141;stroke-dasharray:0 57912;}.cls-11,.cls-13{stroke-width:2.28px;}.cls-12,.cls-16{fill:#010101;}.cls-14{clip-path:url(#clip-path-7);}.cls-15{clip-path:url(#clip-path-18);}.cls-16,.cls-20,.cls-21,.cls-23{stroke-miterlimit:10;}.cls-16{stroke-width:0.4px;}.cls-18{fill:#595a5a;}.cls-19{stroke:#d9d9d8;stroke-width:0.72px;}.cls-20,.cls-21,.cls-23{stroke:#231f20;}.cls-20,.cls-21{stroke-width:2px;}.cls-21{stroke-dasharray:2.98 2.98;}.cls-22{fill:#231f20;}</style><clipPath id="clip-path" transform="translate(0.36 0.24)"><polygon class="cls-1" points="45.84 309.96 554.64 309.96 554.64 38.28 45.84 38.28 45.84 309.96 45.84 309.96"/></clipPath><clipPath id="clip-path-2" transform="translate(0.36 0.24)"><polygon class="cls-1" points="0 360 576 360 576 0 0 0 0 360 0 360"/></clipPath><clipPath id="clip-path-7" transform="translate(0.36 0.24)"><rect class="cls-2" width="576" height="360"/></clipPath><clipPath id="clip-path-18" transform="translate(0.36 0.24)"><rect class="cls-2" y="6.12" width="576" height="180"/></clipPath></defs><title>avgwage</title><polygon class="cls-4" points="0.36 0.36 576.36 0.36 576.36 360.36 0.36 360.36 0.36 0.36 0.36 0.36"/><path class="cls-5" d="M46,241.56h508M46,173.76h508M46,106.08h508M46,38.28h508" transform="translate(0.36 0.24)"/><g class="cls-6"><path class="cls-7" d="M238.92,38.28h20.4V309.36h-20.4V38.28Zm162.6,0H442.2V309.36H401.52V38.28Z" transform="translate(0.36 0.24)"/></g><g class="cls-8"><line class="cls-9" x1="46.32" y1="309.6" x2="554.28" y2="309.6"/></g><g class="cls-8"><path class="cls-9" d="M46,306.24v6.12m101.52-6.12v6.12m101.64-6.12v6.12m101.64-6.12v6.12m101.64-6.12v6.12m101.52-6.12v6.12" transform="translate(0.36 0.24)"/></g><g class="cls-6"><polyline class="cls-10" points="46.32 266.76 66.6 280.2 86.88 283.32 107.28 281.4 127.56 284.88 147.84 286.8 168.24 286.08 188.52 276.72 208.8 276.6 229.2 262.8 249.48 258.6 269.76 267.24 290.16 247.32 310.44 254.4 330.72 238.32 351.12 235.2 371.4 222.6 391.8 206.04 412.08 174.48 432.36 167.88 452.76 142.8 473.04 124.08 493.32 133.8 513.72 126 534 100.2 554.28 78.48"/></g><g class="cls-6"><polyline class="cls-11" points="208.86 276.66 229.14 276.66 249.54 276.66 269.82 276.66 290.1 276.66 310.5 276.66 330.78 276.66 351.06 276.66 371.46 276.66 391.74 276.66 412.02 276.66 432.42 276.66 452.7 276.66 472.98 276.66 493.38 276.66 513.66 276.66 533.94 276.66 554.34 276.66"/></g><g class="cls-8"><polygon class="cls-12" points="208.86 272.7 212.82 276.66 208.86 280.62 204.9 276.66 208.86 272.7 208.86 272.7"/><polygon class="cls-13" points="208.86 272.7 212.82 276.66 208.86 280.62 204.9 276.66 208.86 272.7 208.86 272.7"/></g><g class="cls-14"><path class="cls-12" d="M11.31,311.08v.7H6.92L10.09,308a1.75,1.75,0,0,0,.46-1.13,1.32,1.32,0,0,0-1.35-1.31A1.34,1.34,0,0,0,7.83,307H7.08a2.07,2.07,0,0,1,2.1-2.1,2.05,2.05,0,0,1,2.13,2,2.1,2.1,0,0,1-.51,1.43l-2.35,2.76Z" transform="translate(0.36 0.24)"/><path class="cls-12" d="M16.75,306.76a1.72,1.72,0,0,1-.83,1.49,1.75,1.75,0,0,1,1,1.63,2,2,0,0,1-2.07,2,2,2,0,0,1-2.07-2,1.75,1.75,0,0,1,1-1.63,1.72,1.72,0,0,1-.83-1.49,1.9,1.9,0,0,1,3.8,0Zm-3.21,3.12a1.31,1.31,0,1,0,1.31-1.31A1.3,1.3,0,0,0,13.53,309.89Zm.13-3.14a1.18,1.18,0,1,0,1.18-1.17A1.19,1.19,0,0,0,13.67,306.75Z" transform="translate(0.36 0.24)"/><path class="cls-12" d="M19.62,311l-1,2.3-.49-.2.84-2.34Z" transform="translate(0.36 0.24)"/><path class="cls-12" d="M25.68,308.39c0,1.67-.88,3.5-2.43,3.5s-2.43-1.83-2.43-3.5c0-1.4.71-3.52,2.43-3.52S25.68,307,25.68,308.39Zm-4.11,0c0,1,.42,2.76,1.67,2.76s1.66-1.81,1.67-2.76-.4-2.85-1.67-2.85S21.56,307.47,21.58,308.43Z" transform="translate(0.36 0.24)"/><path class="cls-12" d="M31.21,308.39c0,1.67-.88,3.5-2.43,3.5s-2.43-1.83-2.43-3.5c0-1.4.71-3.52,2.43-3.52S31.21,307,31.21,308.39Zm-4.11,0c0,1,.42,2.76,1.67,2.76s1.66-1.81,1.67-2.76-.4-2.85-1.67-2.85S27.09,307.47,27.1,308.43Z" transform="translate(0.36 0.24)"/><path class="cls-12" d="M36.73,308.39c0,1.67-.88,3.5-2.43,3.5s-2.43-1.83-2.43-3.5c0-1.4.71-3.52,2.43-3.52S36.73,307,36.73,308.39Zm-4.11,0c0,1,.42,2.76,1.67,2.76S36,309.39,36,308.43s-.4-2.85-1.67-2.85S32.61,307.47,32.63,308.43Z" transform="translate(0.36 0.24)"/></g><g class="cls-14"><path class="cls-12" d="M9,240.11c.72,0,1.34-.24,1.34-1.1a1.12,1.12,0,0,0-1.19-1.19A1.08,1.08,0,0,0,8,238.92H7.28a1.8,1.8,0,0,1,1.88-1.79A1.82,1.82,0,0,1,11.08,239a1.67,1.67,0,0,1-.87,1.49,1.76,1.76,0,0,1,1,1.67,2,2,0,0,1-2.11,2,1.91,1.91,0,0,1-2-1.88H7.8a1.27,1.27,0,0,0,1.31,1.18,1.33,1.33,0,0,0,1.32-1.36A1.24,1.24,0,0,0,9,240.82Z" transform="translate(0.36 0.24)"/><path class="cls-12" d="M13.5,237.94l.4-.7h1.49V244h-.76v-6.09Z" transform="translate(0.36 0.24)"/><path class="cls-12" d="M19.62,243.27l-1,2.3-.49-.2L19,243Z" transform="translate(0.36 0.24)"/><path class="cls-12" d="M25.68,240.64c0,1.67-.88,3.5-2.43,3.5s-2.43-1.83-2.43-3.5c0-1.4.71-3.52,2.43-3.52S25.68,239.25,25.68,240.64Zm-4.11,0c0,1,.42,2.76,1.67,2.76s1.66-1.81,1.67-2.76-.4-2.85-1.67-2.85S21.56,239.72,21.58,240.68Z" transform="translate(0.36 0.24)"/><path class="cls-12" d="M31.21,240.64c0,1.67-.88,3.5-2.43,3.5s-2.43-1.83-2.43-3.5c0-1.4.71-3.52,2.43-3.52S31.21,239.25,31.21,240.64Zm-4.11,0c0,1,.42,2.76,1.67,2.76s1.66-1.81,1.67-2.76-.4-2.85-1.67-2.85S27.09,239.72,27.1,240.68Z" transform="translate(0.36 0.24)"/><path class="cls-12" d="M36.73,240.64c0,1.67-.88,3.5-2.43,3.5s-2.43-1.83-2.43-3.5c0-1.4.71-3.52,2.43-3.52S36.73,239.25,36.73,240.64Zm-4.11,0c0,1,.42,2.76,1.67,2.76S36,241.64,36,240.68s-.4-2.85-1.67-2.85S32.61,239.72,32.63,240.68Z" transform="translate(0.36 0.24)"/></g><g class="cls-14"><path class="cls-12" d="M9,172.36c.72,0,1.34-.24,1.34-1.1a1.12,1.12,0,0,0-1.19-1.19A1.08,1.08,0,0,0,8,171.17H7.28a1.8,1.8,0,0,1,1.88-1.79,1.82,1.82,0,0,1,1.93,1.85,1.67,1.67,0,0,1-.87,1.49,1.76,1.76,0,0,1,1,1.67,2,2,0,0,1-2.11,2,1.91,1.91,0,0,1-2-1.88H7.8a1.27,1.27,0,0,0,1.31,1.18,1.33,1.33,0,0,0,1.32-1.36A1.24,1.24,0,0,0,9,173.07Z" transform="translate(0.36 0.24)"/><path class="cls-12" d="M17.2,174.48v.7h-.84v1.1H15.6v-1.1H12.13l4.21-6.07h0v5.37Zm-1.59-3.07h0l-2.13,3.07H15.6Z" transform="translate(0.36 0.24)"/><path class="cls-12" d="M19.62,175.52l-1,2.3-.49-.2.84-2.34Z" transform="translate(0.36 0.24)"/><path class="cls-12" d="M25.68,172.89c0,1.67-.88,3.5-2.43,3.5s-2.43-1.83-2.43-3.5c0-1.4.71-3.52,2.43-3.52S25.68,171.5,25.68,172.89Zm-4.11,0c0,1,.42,2.76,1.67,2.76s1.66-1.81,1.67-2.76-.4-2.85-1.67-2.85S21.56,172,21.58,172.93Z" transform="translate(0.36 0.24)"/><path class="cls-12" d="M31.21,172.89c0,1.67-.88,3.5-2.43,3.5s-2.43-1.83-2.43-3.5c0-1.4.71-3.52,2.43-3.52S31.21,171.5,31.21,172.89Zm-4.11,0c0,1,.42,2.76,1.67,2.76s1.66-1.81,1.67-2.76-.4-2.85-1.67-2.85S27.09,172,27.1,172.93Z" transform="translate(0.36 0.24)"/><path class="cls-12" d="M36.73,172.89c0,1.67-.88,3.5-2.43,3.5s-2.43-1.83-2.43-3.5c0-1.4.71-3.52,2.43-3.52S36.73,171.5,36.73,172.89Zm-4.11,0c0,1,.42,2.76,1.67,2.76S36,173.89,36,172.93s-.4-2.85-1.67-2.85S32.61,172,32.63,172.93Z" transform="translate(0.36 0.24)"/></g><g class="cls-14"><path class="cls-12" d="M9,104.61c.72,0,1.34-.24,1.34-1.1a1.12,1.12,0,0,0-1.19-1.19A1.08,1.08,0,0,0,8,103.41H7.28a1.8,1.8,0,0,1,1.88-1.79,1.82,1.82,0,0,1,1.93,1.85,1.67,1.67,0,0,1-.87,1.49,1.76,1.76,0,0,1,1,1.67,2,2,0,0,1-2.11,2,1.91,1.91,0,0,1-2-1.88H7.8a1.27,1.27,0,0,0,1.31,1.18,1.33,1.33,0,0,0,1.32-1.36A1.24,1.24,0,0,0,9,105.31Z" transform="translate(0.36 0.24)"/><path class="cls-12" d="M12.53,102.44v-.7h5L13,108.64l-.59-.35,3.85-5.85Z" transform="translate(0.36 0.24)"/><path class="cls-12" d="M19.62,107.77l-1,2.3-.49-.2.84-2.34Z" transform="translate(0.36 0.24)"/><path class="cls-12" d="M25.68,105.14c0,1.67-.88,3.5-2.43,3.5s-2.43-1.83-2.43-3.5c0-1.4.71-3.52,2.43-3.52S25.68,103.74,25.68,105.14Zm-4.11,0c0,1,.42,2.76,1.67,2.76s1.66-1.81,1.67-2.76-.4-2.85-1.67-2.85S21.56,104.21,21.58,105.17Z" transform="translate(0.36 0.24)"/><path class="cls-12" d="M31.21,105.14c0,1.67-.88,3.5-2.43,3.5s-2.43-1.83-2.43-3.5c0-1.4.71-3.52,2.43-3.52S31.21,103.74,31.21,105.14Zm-4.11,0c0,1,.42,2.76,1.67,2.76s1.66-1.81,1.67-2.76-.4-2.85-1.67-2.85S27.09,104.21,27.1,105.17Z" transform="translate(0.36 0.24)"/><path class="cls-12" d="M36.73,105.14c0,1.67-.88,3.5-2.43,3.5s-2.43-1.83-2.43-3.5c0-1.4.71-3.52,2.43-3.52S36.73,103.74,36.73,105.14Zm-4.11,0c0,1,.42,2.76,1.67,2.76S36,106.13,36,105.17s-.4-2.85-1.67-2.85S32.61,104.21,32.63,105.17Z" transform="translate(0.36 0.24)"/></g><g class="cls-14"><path class="cls-12" d="M11.67,39v.7h-.84v1.1h-.76v-1.1H6.6l4.21-6.07h0V39Zm-1.59-3.07h0L7.92,39h2.15Z" transform="translate(0.36 0.24)"/><path class="cls-12" d="M17.28,37.38c0,1.67-.88,3.5-2.43,3.5s-2.43-1.83-2.43-3.5c0-1.4.71-3.52,2.43-3.52S17.28,36,17.28,37.38Zm-4.11,0c0,1,.42,2.76,1.67,2.76s1.66-1.81,1.67-2.76-.4-2.85-1.67-2.85S13.15,36.45,13.17,37.41Z" transform="translate(0.36 0.24)"/><path class="cls-12" d="M19.62,40l-1,2.3-.49-.2L19,39.77Z" transform="translate(0.36 0.24)"/><path class="cls-12" d="M25.68,37.38c0,1.67-.88,3.5-2.43,3.5s-2.43-1.83-2.43-3.5c0-1.4.71-3.52,2.43-3.52S25.68,36,25.68,37.38Zm-4.11,0c0,1,.42,2.76,1.67,2.76s1.66-1.81,1.67-2.76-.4-2.85-1.67-2.85S21.56,36.45,21.58,37.41Z" transform="translate(0.36 0.24)"/><path class="cls-12" d="M31.21,37.38c0,1.67-.88,3.5-2.43,3.5s-2.43-1.83-2.43-3.5c0-1.4.71-3.52,2.43-3.52S31.21,36,31.21,37.38Zm-4.11,0c0,1,.42,2.76,1.67,2.76s1.66-1.81,1.67-2.76-.4-2.85-1.67-2.85S27.09,36.45,27.1,37.41Z" transform="translate(0.36 0.24)"/><path class="cls-12" d="M36.73,37.38c0,1.67-.88,3.5-2.43,3.5s-2.43-1.83-2.43-3.5c0-1.4.71-3.52,2.43-3.52S36.73,36,36.73,37.38Zm-4.11,0c0,1,.42,2.76,1.67,2.76S36,38.37,36,37.41s-.4-2.85-1.67-2.85S32.61,36.45,32.63,37.41Z" transform="translate(0.36 0.24)"/></g><g class="cls-14"><path class="cls-12" d="M36.24,321.26l.4-.7h1.49v6.79h-.76v-6.09Z" transform="translate(0.36 0.24)"/><path class="cls-12" d="M42,327.07l1.57-2.15,0,0a2.05,2.05,0,0,1-.59.09,2.2,2.2,0,0,1-2.2-2.24,2.34,2.34,0,0,1,4.68,0,2.8,2.8,0,0,1-.63,1.63l-2.25,3.08Zm-.48-4.35a1.58,1.58,0,0,0,3.17,0,1.58,1.58,0,1,0-3.17,0Z" transform="translate(0.36 0.24)"/><path class="cls-12" d="M47.51,327.07l1.57-2.15,0,0a2.06,2.06,0,0,1-.59.09,2.2,2.2,0,0,1-2.2-2.24,2.34,2.34,0,0,1,4.68,0,2.8,2.8,0,0,1-.63,1.63l-2.25,3.08ZM47,322.72a1.58,1.58,0,0,0,3.17,0,1.58,1.58,0,1,0-3.17,0Z" transform="translate(0.36 0.24)"/><path class="cls-12" d="M56.71,324c0,1.67-.88,3.5-2.43,3.5s-2.43-1.83-2.43-3.5c0-1.4.71-3.52,2.43-3.52S56.71,322.56,56.71,324Zm-4.11,0c0,1,.42,2.76,1.67,2.76S55.94,324.95,56,324s-.4-2.85-1.67-2.85S52.59,323,52.6,324Z" transform="translate(0.36 0.24)"/></g><g class="cls-14"><path class="cls-12" d="M137.84,321.26l.4-.7h1.49v6.79H139v-6.09Z" transform="translate(0.36 0.24)"/><path class="cls-12" d="M143.59,327.07l1.57-2.15,0,0a2.05,2.05,0,0,1-.59.09,2.2,2.2,0,0,1-2.2-2.24,2.34,2.34,0,0,1,4.68,0,2.8,2.8,0,0,1-.63,1.63l-2.25,3.08Zm-.48-4.35a1.58,1.58,0,0,0,3.17,0,1.58,1.58,0,1,0-3.17,0Z" transform="translate(0.36 0.24)"/><path class="cls-12" d="M149.11,327.07l1.57-2.15,0,0a2.06,2.06,0,0,1-.59.09,2.2,2.2,0,0,1-2.2-2.24,2.34,2.34,0,0,1,4.68,0,2.8,2.8,0,0,1-.63,1.63l-2.25,3.08Zm-.48-4.35a1.58,1.58,0,0,0,3.17,0,1.58,1.58,0,1,0-3.17,0Z" transform="translate(0.36 0.24)"/><path class="cls-12" d="M155.65,321.26l-.44,1.45.41,0a2.25,2.25,0,0,1,2.26,2.37,2.41,2.41,0,0,1-2.49,2.42,2.36,2.36,0,0,1-2.08-1.22l.6-.43a1.75,1.75,0,0,0,1.5.95,1.67,1.67,0,0,0,1.71-1.74,1.63,1.63,0,0,0-1.69-1.65,2.37,2.37,0,0,0-1.29.43l1-3.25h2.7v.7Z" transform="translate(0.36 0.24)"/></g><g class="cls-14"><path class="cls-12" d="M242.79,326.64v.7H238.4l3.18-3.75a1.75,1.75,0,0,0,.46-1.13,1.32,1.32,0,0,0-1.35-1.31,1.34,1.34,0,0,0-1.37,1.4h-.76a2.12,2.12,0,0,1,4.23-.09,2.1,2.1,0,0,1-.51,1.43l-2.35,2.76Z" transform="translate(0.36 0.24)"/><path class="cls-12" d="M248.76,324c0,1.67-.88,3.5-2.43,3.5s-2.43-1.83-2.43-3.5c0-1.4.71-3.52,2.43-3.52S248.76,322.56,248.76,324Zm-4.11,0c0,1,.42,2.76,1.67,2.76S248,324.95,248,324s-.4-2.85-1.67-2.85S244.64,323,244.66,324Z" transform="translate(0.36 0.24)"/><path class="cls-12" d="M254.29,324c0,1.67-.88,3.5-2.43,3.5s-2.43-1.83-2.43-3.5c0-1.4.71-3.52,2.43-3.52S254.29,322.56,254.29,324Zm-4.11,0c0,1,.42,2.76,1.67,2.76s1.66-1.81,1.67-2.76-.4-2.85-1.67-2.85S250.16,323,250.18,324Z" transform="translate(0.36 0.24)"/><path class="cls-12" d="M259.92,324c0,1.67-.88,3.5-2.43,3.5s-2.43-1.83-2.43-3.5c0-1.4.71-3.52,2.43-3.52S259.92,322.56,259.92,324Zm-4.11,0c0,1,.42,2.76,1.67,2.76s1.66-1.81,1.67-2.76-.4-2.85-1.67-2.85S255.8,323,255.82,324Z" transform="translate(0.36 0.24)"/></g><g class="cls-14"><path class="cls-12" d="M344.41,326.64v.7H340l3.18-3.75a1.75,1.75,0,0,0,.46-1.13,1.32,1.32,0,0,0-1.35-1.31,1.34,1.34,0,0,0-1.37,1.4h-.76a2.12,2.12,0,0,1,4.23-.09,2.1,2.1,0,0,1-.51,1.43l-2.35,2.76Z" transform="translate(0.36 0.24)"/><path class="cls-12" d="M350.38,324c0,1.67-.88,3.5-2.43,3.5s-2.43-1.83-2.43-3.5c0-1.4.71-3.52,2.43-3.52S350.38,322.56,350.38,324Zm-4.1,0c0,1,.42,2.76,1.67,2.76s1.66-1.81,1.67-2.76-.4-2.85-1.67-2.85S346.26,323,346.27,324Z" transform="translate(0.36 0.24)"/><path class="cls-12" d="M355.9,324c0,1.67-.88,3.5-2.43,3.5S351,325.63,351,324c0-1.4.71-3.52,2.43-3.52S355.9,322.56,355.9,324Zm-4.1,0c0,1,.42,2.76,1.67,2.76s1.66-1.81,1.67-2.76-.4-2.85-1.67-2.85S351.78,323,351.8,324Z" transform="translate(0.36 0.24)"/><path class="cls-12" d="M358.87,321.26l-.44,1.45.41,0A2.25,2.25,0,0,1,361.1,325a2.41,2.41,0,0,1-2.49,2.42,2.35,2.35,0,0,1-2.08-1.22l.6-.43a1.75,1.75,0,0,0,1.5.95,1.67,1.67,0,0,0,1.71-1.74,1.63,1.63,0,0,0-1.69-1.65,2.37,2.37,0,0,0-1.29.43l1-3.25H361v.7Z" transform="translate(0.36 0.24)"/></g><g class="cls-14"><path class="cls-12" d="M446,326.64v.7h-4.39l3.18-3.75a1.75,1.75,0,0,0,.46-1.13,1.32,1.32,0,0,0-1.35-1.31,1.34,1.34,0,0,0-1.37,1.4h-.76a2.12,2.12,0,0,1,4.23-.09,2.1,2.1,0,0,1-.51,1.43l-2.35,2.76Z" transform="translate(0.36 0.24)"/><path class="cls-12" d="M452,324c0,1.67-.88,3.5-2.43,3.5s-2.43-1.83-2.43-3.5c0-1.4.71-3.52,2.43-3.52S452,322.56,452,324Zm-4.1,0c0,1,.42,2.76,1.67,2.76s1.66-1.81,1.67-2.76-.4-2.85-1.67-2.85S447.86,323,447.88,324Z" transform="translate(0.36 0.24)"/><path class="cls-12" d="M453.73,321.26l.4-.7h1.49v6.79h-.76v-6.09Z" transform="translate(0.36 0.24)"/><path class="cls-12" d="M463.15,324c0,1.67-.88,3.5-2.43,3.5s-2.43-1.83-2.43-3.5c0-1.4.71-3.52,2.43-3.52S463.15,322.56,463.15,324Zm-4.1,0c0,1,.42,2.76,1.67,2.76s1.66-1.81,1.67-2.76-.4-2.85-1.67-2.85S459,323,459,324Z" transform="translate(0.36 0.24)"/></g><g class="cls-14"><path class="cls-12" d="M547.63,326.64v.7h-4.39l3.18-3.75a1.75,1.75,0,0,0,.46-1.13,1.32,1.32,0,0,0-1.35-1.31,1.34,1.34,0,0,0-1.37,1.4h-.76a2.12,2.12,0,0,1,4.23-.09,2.1,2.1,0,0,1-.51,1.43l-2.35,2.76Z" transform="translate(0.36 0.24)"/><path class="cls-12" d="M553.6,324c0,1.67-.88,3.5-2.43,3.5s-2.43-1.83-2.43-3.5c0-1.4.71-3.52,2.43-3.52S553.6,322.56,553.6,324Zm-4.1,0c0,1,.42,2.76,1.67,2.76s1.66-1.81,1.67-2.76-.4-2.85-1.67-2.85S549.47,323,549.49,324Z" transform="translate(0.36 0.24)"/><path class="cls-12" d="M555.34,321.26l.4-.7h1.49v6.79h-.76v-6.09Z" transform="translate(0.36 0.24)"/><path class="cls-12" d="M562.09,321.26l-.44,1.45.41,0a2.25,2.25,0,0,1,2.26,2.37,2.41,2.41,0,0,1-2.49,2.42,2.35,2.35,0,0,1-2.08-1.22l.6-.43a1.75,1.75,0,0,0,1.5.95,1.67,1.67,0,0,0,1.71-1.74,1.63,1.63,0,0,0-1.69-1.65,2.37,2.37,0,0,0-1.29.43l1-3.25h2.7v.7Z" transform="translate(0.36 0.24)"/></g><g class="cls-15"><path class="cls-16" d="M84.67,18.64l-1.28,3H82.1L87,10.56l4.76,11.09H90.44l-1.25-3ZM87,13.31l-1.81,4.24h3.58Z" transform="translate(0.36 0.24)"/><path class="cls-16" d="M98.18,20.73h0a2.81,2.81,0,0,1-2.27,1.1,3.25,3.25,0,0,1-3.16-3.47,3.23,3.23,0,0,1,3.17-3.5A2.85,2.85,0,0,1,98.15,16h0V10.07H99.3V21.65H98.18Zm-4.31-2.46A2.28,2.28,0,0,0,96,20.79a2.25,2.25,0,0,0,2.2-2.5A2.21,2.21,0,0,0,96,15.91,2.24,2.24,0,0,0,93.87,18.28Z" transform="translate(0.36 0.24)"/><path class="cls-16" d="M103.36,12.56a.8.8,0,1,1-1.6,0,.8.8,0,1,1,1.6,0Zm-.24,12.79H102V15h1.12Z" transform="translate(0.36 0.24)"/><path class="cls-16" d="M106.89,18.73c0,1.11.13,2.06,1.49,2.06s1.49-1,1.49-2.06V15H111v3.8c0,1.75-.66,3-2.61,3s-2.61-1.22-2.61-3V15h1.12Z" transform="translate(0.36 0.24)"/><path class="cls-16" d="M116.08,16.58a1.05,1.05,0,0,0-.9-.67.8.8,0,0,0-.81.73c0,.6.76.83,1.53,1.15a2,2,0,0,1,1.53,1.9,2.16,2.16,0,0,1-2.23,2.15,2.37,2.37,0,0,1-2.33-1.67l1-.42c.28.62.6,1.05,1.35,1.05a1,1,0,0,0,1.07-1c0-1.47-3-1-3-3a1.88,1.88,0,0,1,2-1.87A2,2,0,0,1,117,16.09Z" transform="translate(0.36 0.24)"/><path class="cls-16" d="M120.58,21.65h-1.12V16.09h-.69V15h.69V12.68h1.12V15h1.18v1h-1.18Z" transform="translate(0.36 0.24)"/><path class="cls-16" d="M123.67,18.59a2.14,2.14,0,0,0,2.16,2.2,2.26,2.26,0,0,0,2-1.36l1,.55a3.33,3.33,0,0,1-3,1.85,3.19,3.19,0,0,1-3.23-3.4c0-2,1.14-3.57,3.2-3.57s3.24,1.75,3.13,3.72Zm4-1a2,2,0,0,0-1.94-1.73,2.09,2.09,0,0,0-2,1.73Z" transform="translate(0.36 0.24)"/><path class="cls-16" d="M135.69,20.73h0a2.81,2.81,0,0,1-2.27,1.1,3.25,3.25,0,0,1-3.16-3.47,3.23,3.23,0,0,1,3.17-3.5A2.85,2.85,0,0,1,135.66,16h0V10.07h1.12V21.65h-1.12Zm-4.31-2.46a2.28,2.28,0,0,0,2.16,2.51,2.25,2.25,0,0,0,2.2-2.5,2.21,2.21,0,0,0-2.22-2.39A2.24,2.24,0,0,0,131.38,18.28Z" transform="translate(0.36 0.24)"/><path class="cls-16" d="M145.32,18.64l-1.28,3h-1.29l4.88-11.09,4.76,11.09h-1.31l-1.25-3Zm2.29-5.33-1.81,4.24h3.58Z" transform="translate(0.36 0.24)"/><path class="cls-16" d="M155.53,19.48l2-4.44h1.26l-3.23,7-3.24-7h1.28Z" transform="translate(0.36 0.24)"/><path class="cls-16" d="M160.74,18.59a2.14,2.14,0,0,0,2.16,2.2,2.26,2.26,0,0,0,2-1.36l1,.55a3.33,3.33,0,0,1-3,1.85,3.19,3.19,0,0,1-3.23-3.4c0-2,1.14-3.57,3.2-3.57s3.24,1.75,3.13,3.72Zm4-1a2,2,0,0,0-1.94-1.73,2.09,2.09,0,0,0-2,1.73Z" transform="translate(0.36 0.24)"/><path class="cls-16" d="M168.92,15.76h0a1.7,1.7,0,0,1,1.46-.9,2,2,0,0,1,1,.31l-.53,1a1.1,1.1,0,0,0-.67-.29c-1.24,0-1.29,1.59-1.29,2.44v3.3H167.8V15h1.12Z" transform="translate(0.36 0.24)"/><path class="cls-16" d="M178.9,21.65h-1.12v-.91h0a2.77,2.77,0,0,1-2.27,1.1,3.25,3.25,0,0,1-3.16-3.47,3.23,3.23,0,0,1,3.17-3.5A2.85,2.85,0,0,1,177.75,16h0V15h1.12Zm-5.43-3.37a2.28,2.28,0,0,0,2.16,2.51,2.25,2.25,0,0,0,2.2-2.5,2.21,2.21,0,0,0-2.22-2.39A2.24,2.24,0,0,0,173.47,18.28Z" transform="translate(0.36 0.24)"/><path class="cls-16" d="M187.34,21.32a4.19,4.19,0,0,1-.67,2.84,3.2,3.2,0,0,1-2.56,1.17,3,3,0,0,1-3.24-3H182a2,2,0,0,0,2.11,2c1.74,0,2.12-1.28,2.12-2.77v-.79h0a2.92,2.92,0,0,1-2.29,1.1,3.23,3.23,0,0,1-3.14-3.45,3.29,3.29,0,0,1,3.19-3.51A2.75,2.75,0,0,1,186.19,16h0V15h1.12Zm-5.43-3a2.28,2.28,0,0,0,2.16,2.51,2.25,2.25,0,0,0,2.2-2.5,2.21,2.21,0,0,0-2.22-2.39A2.24,2.24,0,0,0,181.91,18.28Z" transform="translate(0.36 0.24)"/><path class="cls-16" d="M190.46,18.59a2.14,2.14,0,0,0,2.16,2.2,2.26,2.26,0,0,0,2-1.36l1,.55a3.33,3.33,0,0,1-3,1.85,3.19,3.19,0,0,1-3.23-3.4c0-2,1.14-3.57,3.2-3.57s3.24,1.75,3.13,3.72Zm4-1a2,2,0,0,0-1.94-1.73,2.09,2.09,0,0,0-2,1.73Z" transform="translate(0.36 0.24)"/><path class="cls-16" d="M203.71,18.64l-1.28,3h-1.29L206,10.56l4.76,11.09h-1.31l-1.25-3ZM206,13.31l-1.81,4.24h3.58Z" transform="translate(0.36 0.24)"/><path class="cls-16" d="M213.44,15.85h0a2.21,2.21,0,0,1,1.88-1c1.82,0,2.25,1.32,2.25,2.86v3.92h-1.12V17.93c0-1.07-.08-2-1.39-2-1.54,0-1.64,1.43-1.64,2.61v3.13h-1.12V15h1.12Z" transform="translate(0.36 0.24)"/><path class="cls-16" d="M221.23,15.85h0a2.21,2.21,0,0,1,1.88-1c1.83,0,2.25,1.32,2.25,2.86v3.92h-1.12V17.93c0-1.07-.08-2-1.39-2-1.54,0-1.64,1.43-1.64,2.61v3.13h-1.12V15h1.12Z" transform="translate(0.36 0.24)"/><path class="cls-16" d="M228.94,18.73c0,1.11.13,2.06,1.49,2.06s1.49-1,1.49-2.06V15H233v3.8c0,1.75-.66,3-2.61,3s-2.61-1.22-2.61-3V15h1.12Z" transform="translate(0.36 0.24)"/><path class="cls-16" d="M241.48,21.65h-1.12v-.91h0a2.77,2.77,0,0,1-2.27,1.1,3.25,3.25,0,0,1-3.16-3.47,3.23,3.23,0,0,1,3.17-3.5A2.85,2.85,0,0,1,240.33,16h0V15h1.12ZM236,18.28a2.28,2.28,0,0,0,2.16,2.51,2.25,2.25,0,0,0,2.2-2.5,2.21,2.21,0,0,0-2.22-2.39A2.24,2.24,0,0,0,236,18.28Z" transform="translate(0.36 0.24)"/><path class="cls-16" d="M245.06,21.65h-1.12V10.07h1.12Z" transform="translate(0.36 0.24)"/><path class="cls-16" d="M255.17,19l3.43-8.48L262,19l2.78-7.93h1.28L262,22.19l-3.42-8.52-3.43,8.52-4.06-11.13h1.28Z" transform="translate(0.36 0.24)"/><path class="cls-16" d="M272.66,21.65h-1.12v-.91h0a2.77,2.77,0,0,1-2.27,1.1,3.25,3.25,0,0,1-3.16-3.47,3.23,3.23,0,0,1,3.17-3.5A2.85,2.85,0,0,1,271.51,16h0V15h1.12Zm-5.43-3.37a2.28,2.28,0,0,0,2.16,2.51,2.25,2.25,0,0,0,2.2-2.5,2.21,2.21,0,0,0-2.22-2.39A2.24,2.24,0,0,0,267.23,18.28Z" transform="translate(0.36 0.24)"/><path class="cls-16" d="M281.1,21.32a4.19,4.19,0,0,1-.67,2.84,3.19,3.19,0,0,1-2.55,1.17,3,3,0,0,1-3.24-3h1.12a2,2,0,0,0,2.11,2c1.74,0,2.12-1.28,2.12-2.77v-.79h0a2.92,2.92,0,0,1-2.29,1.1,3.23,3.23,0,0,1-3.14-3.45,3.29,3.29,0,0,1,3.19-3.51A2.75,2.75,0,0,1,279.95,16h0V15h1.12Zm-5.43-3a2.28,2.28,0,0,0,2.16,2.51,2.25,2.25,0,0,0,2.2-2.5,2.21,2.21,0,0,0-2.22-2.39A2.24,2.24,0,0,0,275.67,18.28Z" transform="translate(0.36 0.24)"/><path class="cls-16" d="M284.22,18.59a2.14,2.14,0,0,0,2.16,2.2,2.26,2.26,0,0,0,2-1.36l1,.55a3.33,3.33,0,0,1-3,1.85,3.19,3.19,0,0,1-3.23-3.4c0-2,1.14-3.57,3.2-3.57s3.24,1.75,3.13,3.72Zm4-1a2,2,0,0,0-1.94-1.73,2.09,2.09,0,0,0-2,1.73Z" transform="translate(0.36 0.24)"/><path class="cls-16" d="M294,16.58a1.05,1.05,0,0,0-.9-.67.8.8,0,0,0-.81.73c0,.6.76.83,1.53,1.15a2,2,0,0,1,1.53,1.9,2.16,2.16,0,0,1-2.23,2.15,2.37,2.37,0,0,1-2.33-1.67l1-.42c.28.62.6,1.05,1.35,1.05a1,1,0,0,0,1.07-1c0-1.47-3-1-3-3a1.88,1.88,0,0,1,2-1.87,2,2,0,0,1,1.75,1.22Z" transform="translate(0.36 0.24)"/><path class="cls-16" d="M303,21.65h-1.12V16.09h-.62V15h.62V12.42a3.38,3.38,0,0,1,.29-1.71,1.91,1.91,0,0,1,1.7-.83,2.66,2.66,0,0,1,.8.14v1.14a2.28,2.28,0,0,0-.76-.15c-.91,0-.91.65-.91,1.81V15h1.67v1H303Z" transform="translate(0.36 0.24)"/><path class="cls-16" d="M305.38,18.36a3.47,3.47,0,1,1,3.47,3.47A3.46,3.46,0,0,1,305.38,18.36Zm1.12,0a2.35,2.35,0,1,0,4.69,0,2.35,2.35,0,1,0-4.69,0Z" transform="translate(0.36 0.24)"/><path class="cls-16" d="M315.3,15.76h0a1.7,1.7,0,0,1,1.46-.9,2,2,0,0,1,1,.31l-.53,1a1.1,1.1,0,0,0-.67-.29c-1.23,0-1.29,1.59-1.29,2.44v3.3h-1.12V15h1.12Z" transform="translate(0.36 0.24)"/><path class="cls-16" d="M325.11,21.65h-1.18V11.06h1.74a4.46,4.46,0,0,1,2.63.56A2.92,2.92,0,0,1,329.49,14a3,3,0,0,1-1,2.27A3.82,3.82,0,0,1,326,17h-.86Zm0-5.73h.79c1.31,0,2.41-.39,2.41-1.91,0-1.73-1.39-1.85-2.76-1.85h-.44Z" transform="translate(0.36 0.24)"/><path class="cls-16" d="M330.77,18.36a3.47,3.47,0,1,1,3.47,3.47A3.46,3.46,0,0,1,330.77,18.36Zm1.12,0a2.35,2.35,0,1,0,4.69,0,2.35,2.35,0,1,0-4.69,0Z" transform="translate(0.36 0.24)"/><path class="cls-16" d="M340.76,15.85h0a2.21,2.21,0,0,1,1.88-1c1.83,0,2.25,1.32,2.25,2.86v3.92h-1.12V17.93c0-1.07-.08-2-1.39-2-1.54,0-1.64,1.43-1.64,2.61v3.13h-1.12V15h1.12Z" transform="translate(0.36 0.24)"/><path class="cls-16" d="M348.6,21.65h-1.12V16.09h-.69V15h.69V12.68h1.12V15h1.18v1H348.6Z" transform="translate(0.36 0.24)"/><path class="cls-16" d="M350.54,18.36A3.47,3.47,0,1,1,354,21.83,3.46,3.46,0,0,1,350.54,18.36Zm1.12,0a2.35,2.35,0,1,0,4.69,0,2.35,2.35,0,1,0-4.69,0Z" transform="translate(0.36 0.24)"/><path class="cls-16" d="M360.58,21.65h-1.12V16.09h-.69V15h.69V12.68h1.12V15h1.18v1h-1.18Z" transform="translate(0.36 0.24)"/><path class="cls-16" d="M362.52,18.36A3.47,3.47,0,1,1,366,21.83,3.46,3.46,0,0,1,362.52,18.36Zm1.12,0a2.35,2.35,0,1,0,4.69,0,2.35,2.35,0,1,0-4.69,0Z" transform="translate(0.36 0.24)"/><path class="cls-16" d="M376.28,17h0a2.54,2.54,0,0,0-2-1.11,2.36,2.36,0,0,0-2.33,2.44,2.31,2.31,0,0,0,2.27,2.44,2.57,2.57,0,0,0,2.15-1.14h0v1.5a3.61,3.61,0,0,1-2.09.67,3.42,3.42,0,0,1-3.51-3.48,3.48,3.48,0,0,1,3.52-3.48,3.55,3.55,0,0,1,2,.66Z" transform="translate(0.36 0.24)"/><path class="cls-16" d="M391.07,13.38a4.53,4.53,0,0,0-3.23-1.4,4.38,4.38,0,0,0,0,8.76,4.63,4.63,0,0,0,3.2-1.4v1.46a5.45,5.45,0,0,1-3.16,1,5.48,5.48,0,1,1,0-10.95,5.11,5.11,0,0,1,3.16,1Z" transform="translate(0.36 0.24)"/><path class="cls-16" d="M392.84,18.36a3.47,3.47,0,1,1,3.47,3.47A3.46,3.46,0,0,1,392.84,18.36Zm1.12,0a2.35,2.35,0,1,0,4.69,0,2.35,2.35,0,1,0-4.69,0Z" transform="translate(0.36 0.24)"/><path class="cls-16" d="M402.74,18.73c0,1.11.13,2.06,1.49,2.06s1.49-1,1.49-2.06V15h1.12v3.8c0,1.75-.66,3-2.61,3s-2.61-1.22-2.61-3V15h1.12Z" transform="translate(0.36 0.24)"/><path class="cls-16" d="M410.38,15.85h0a2.21,2.21,0,0,1,1.88-1c1.83,0,2.25,1.32,2.25,2.86v3.92h-1.12V17.93c0-1.07-.08-2-1.39-2-1.54,0-1.64,1.43-1.64,2.61v3.13h-1.12V15h1.12Z" transform="translate(0.36 0.24)"/><path class="cls-16" d="M418.23,21.65H417.1V16.09h-.69V15h.69V12.68h1.12V15h1.18v1h-1.18Z" transform="translate(0.36 0.24)"/><path class="cls-16" d="M419.66,15H421l2.33,4.73L425.43,15h1.28l-4.87,10.3h-1.28L422.69,21Z" transform="translate(0.36 0.24)"/><path class="cls-16" d="M429.09,20.47l-1.59,3.59-.76-.31,1.31-3.65Z" transform="translate(0.36 0.24)"/><path class="cls-16" d="M438.87,11.06a19.13,19.13,0,0,0-1.12,6.74,19.12,19.12,0,0,0,1.12,6.74l-1,.48a18.1,18.1,0,0,1-1.28-7.22,18.1,18.1,0,0,1,1.28-7.22Z" transform="translate(0.36 0.24)"/><path class="cls-16" d="M447.15,20.55v1.09H440.3l5-5.85A2.73,2.73,0,0,0,446,14a2.06,2.06,0,0,0-2.11-2,2.09,2.09,0,0,0-2.13,2.18h-1.18a3.3,3.3,0,0,1,6.6-.14,3.28,3.28,0,0,1-.8,2.23l-3.66,4.31Z" transform="translate(0.36 0.24)"/><path class="cls-16" d="M456.84,16.37c0,2.61-1.38,5.46-3.79,5.46s-3.79-2.85-3.79-5.46c0-2.18,1.11-5.49,3.79-5.49S456.84,14.19,456.84,16.37Zm-6.4.06c0,1.49.66,4.31,2.61,4.31s2.58-2.82,2.61-4.31S455,12,453,12,450.41,14.92,450.44,16.42Z" transform="translate(0.36 0.24)"/><path class="cls-16" d="M459.94,12.16l.62-1.1h2.32V21.65h-1.18V12.16Z" transform="translate(0.36 0.24)"/><path class="cls-16" d="M472.7,11.54l-2.44,3.29,0,0a2.33,2.33,0,0,1,.45-.11,2.77,2.77,0,0,1,.48,0,3.45,3.45,0,0,1,3.43,3.5,3.65,3.65,0,0,1-7.3,0,4.37,4.37,0,0,1,1-2.54l3.51-4.79Zm.76,6.7a2.47,2.47,0,0,0-4.94,0,2.47,2.47,0,1,0,4.94,0Z" transform="translate(0.36 0.24)"/><path class="cls-16" d="M484.34,16.4c-1.28-.53-2.49-1.22-2.49-2.78A2.7,2.7,0,0,1,484.34,11V9.52h.93V11a3,3,0,0,1,2.22,1.6l-.93.6a2,2,0,0,0-1.29-1.08v3.47c1.39.59,2.61,1.31,2.61,3a3.23,3.23,0,0,1-2.61,3.17v1.54h-.93V21.8a3.3,3.3,0,0,1-3-2.72l1.14-.32a2.18,2.18,0,0,0,1.9,1.92Zm0-4.32A1.63,1.63,0,0,0,483,13.66c0,.77.69,1.21,1.31,1.49Zm.93,8.51a2.07,2.07,0,0,0,1.43-2c0-.9-.7-1.4-1.43-1.75Z" transform="translate(0.36 0.24)"/><path class="cls-16" d="M490.72,10.58A18.1,18.1,0,0,1,492,17.8,18.1,18.1,0,0,1,490.72,25l-1-.48a19.15,19.15,0,0,0,1.12-6.74,19.15,19.15,0,0,0-1.12-6.74Z" transform="translate(0.36 0.24)"/></g><g class="cls-8"><polygon class="cls-17" points="153.36 342.96 178.56 342.96 178.56 348.24 153.36 348.24 153.36 342.96 153.36 342.96"/></g><g class="cls-14"><path class="cls-18" d="M182.46,347.8h-.76V341h1c1.29,0,2.48.34,2.48,1.87a1.77,1.77,0,0,1-1.7,1.87l2.16,3h-.93l-2.05-3h-.19Zm0-3.65h.23c.86,0,1.72-.16,1.72-1.21s-.82-1.22-1.73-1.22h-.23Z" transform="translate(0.36 0.24)"/><path class="cls-18" d="M187,345.83a1.37,1.37,0,0,0,1.39,1.41,1.45,1.45,0,0,0,1.29-.87l.61.35a2.14,2.14,0,0,1-2,1.19,2,2,0,0,1-2.07-2.18,2.05,2.05,0,1,1,4.06.1Zm2.57-.61a1.29,1.29,0,0,0-1.24-1.11,1.34,1.34,0,0,0-1.29,1.11Z" transform="translate(0.36 0.24)"/><path class="cls-18" d="M194.44,344.82h0a1.63,1.63,0,0,0-1.31-.71,1.51,1.51,0,0,0-1.49,1.57,1.48,1.48,0,0,0,1.46,1.57,1.64,1.64,0,0,0,1.38-.73h0v1a2.31,2.31,0,0,1-1.34.43,2.19,2.19,0,0,1-2.25-2.23,2.23,2.23,0,0,1,2.26-2.23,2.28,2.28,0,0,1,1.31.42Z" transform="translate(0.36 0.24)"/><path class="cls-18" d="M195.87,345.83a1.37,1.37,0,0,0,1.39,1.41,1.45,1.45,0,0,0,1.29-.87l.61.35a2.14,2.14,0,0,1-2,1.19,2,2,0,0,1-2.07-2.18,2.05,2.05,0,1,1,4.06.1Zm2.57-.61a1.29,1.29,0,0,0-1.24-1.11,1.34,1.34,0,0,0-1.29,1.11Z" transform="translate(0.36 0.24)"/><path class="cls-18" d="M201.9,344.55a.68.68,0,0,0-.58-.43.51.51,0,0,0-.52.47c0,.39.49.53,1,.74a1.29,1.29,0,0,1,1,1.21,1.38,1.38,0,0,1-1.43,1.38,1.52,1.52,0,0,1-1.49-1.07l.64-.27c.18.4.39.68.86.68a.64.64,0,0,0,.68-.65c0-.95-1.91-.62-1.91-2a1.21,1.21,0,0,1,1.26-1.2,1.28,1.28,0,0,1,1.13.78Z" transform="translate(0.36 0.24)"/><path class="cls-18" d="M205.5,344.55a.68.68,0,0,0-.58-.43.51.51,0,0,0-.52.47c0,.39.49.53,1,.74a1.29,1.29,0,0,1,1,1.21,1.38,1.38,0,0,1-1.43,1.38,1.52,1.52,0,0,1-1.49-1.07l.64-.27c.18.4.39.68.86.68a.64.64,0,0,0,.68-.65c0-.95-1.91-.62-1.91-2a1.21,1.21,0,0,1,1.26-1.2,1.28,1.28,0,0,1,1.13.78Z" transform="translate(0.36 0.24)"/><path class="cls-18" d="M208.39,342a.51.51,0,1,1-1,0,.51.51,0,0,1,1,0Zm-.15,5.83h-.72v-4.23h.72Z" transform="translate(0.36 0.24)"/><path class="cls-18" d="M209.4,345.69a2.22,2.22,0,1,1,2.22,2.22A2.22,2.22,0,0,1,209.4,345.69Zm.72,0a1.5,1.5,0,1,0,1.5-1.57A1.5,1.5,0,0,0,210.12,345.68Z" transform="translate(0.36 0.24)"/><path class="cls-18" d="M215.55,344.08h0a1.42,1.42,0,0,1,1.21-.63c1.17,0,1.44.85,1.44,1.84v2.51h-.72v-2.39c0-.68-.05-1.3-.89-1.3-1,0-1.05.92-1.05,1.67v2h-.72v-4.23h.72Z" transform="translate(0.36 0.24)"/></g><g class="cls-8"><line class="cls-10" x1="235.44" y1="345.6" x2="260.64" y2="345.6"/></g><g class="cls-14"><path class="cls-18" d="M264.71,345.87l-.82,1.93h-.83l3.13-7.11,3.05,7.11h-.84l-.8-1.93Zm1.47-3.42L265,345.17h2.3Z" transform="translate(0.36 0.24)"/><path class="cls-18" d="M271.34,346.41l1.26-2.84h.81l-2.07,4.51-2.08-4.51h.82Z" transform="translate(0.36 0.24)"/><path class="cls-18" d="M274.49,345.83a1.37,1.37,0,0,0,1.39,1.41,1.45,1.45,0,0,0,1.29-.87l.61.35a2.14,2.14,0,0,1-2,1.19,2,2,0,0,1-2.07-2.18,2.05,2.05,0,1,1,4.06.1Zm2.57-.61a1.29,1.29,0,0,0-1.24-1.11,1.34,1.34,0,0,0-1.29,1.11Z" transform="translate(0.36 0.24)"/><path class="cls-18" d="M279.5,344h0a1.09,1.09,0,0,1,.94-.58,1.27,1.27,0,0,1,.65.2l-.34.66a.7.7,0,0,0-.43-.19c-.79,0-.83,1-.83,1.57v2.12h-.72v-4.23h.72Z" transform="translate(0.36 0.24)"/><path class="cls-18" d="M285.68,347.8H285v-.58h0a1.78,1.78,0,0,1-1.46.7,2.24,2.24,0,0,1,0-4.47,1.83,1.83,0,0,1,1.45.72h0v-.6h.72Zm-3.48-2.16a1.46,1.46,0,0,0,1.39,1.61,1.44,1.44,0,0,0,1.41-1.6,1.41,1.41,0,0,0-1.42-1.53A1.43,1.43,0,0,0,282.2,345.64Z" transform="translate(0.36 0.24)"/><path class="cls-18" d="M290.8,347.59a2.68,2.68,0,0,1-.43,1.82,2,2,0,0,1-1.64.75,1.94,1.94,0,0,1-2.08-1.94h.72a1.26,1.26,0,0,0,1.35,1.28c1.12,0,1.36-.82,1.36-1.77v-.5h0a1.88,1.88,0,0,1-1.47.7,2.07,2.07,0,0,1-2-2.21,2.11,2.11,0,0,1,2-2.25,1.76,1.76,0,0,1,1.44.72h0v-.6h.72Zm-3.48-2a1.46,1.46,0,0,0,1.39,1.61,1.44,1.44,0,0,0,1.41-1.6,1.41,1.41,0,0,0-1.42-1.53A1.43,1.43,0,0,0,287.32,345.64Z" transform="translate(0.36 0.24)"/><path class="cls-18" d="M292.62,345.83a1.37,1.37,0,0,0,1.39,1.41,1.45,1.45,0,0,0,1.29-.87l.61.35a2.14,2.14,0,0,1-2,1.19,2,2,0,0,1-2.07-2.18,2.05,2.05,0,1,1,4.06.1Zm2.57-.61a1.29,1.29,0,0,0-1.24-1.11,1.34,1.34,0,0,0-1.29,1.11Z" transform="translate(0.36 0.24)"/><path class="cls-18" d="M300.72,345.87l-.82,1.93h-.83l3.13-7.11,3.05,7.11h-.84l-.8-1.93Zm1.47-3.42L301,345.17h2.3Z" transform="translate(0.36 0.24)"/><path class="cls-18" d="M306.67,344.08h0a1.42,1.42,0,0,1,1.21-.63c1.17,0,1.44.85,1.44,1.84v2.51h-.72v-2.39c0-.68-.05-1.3-.89-1.3-1,0-1.05.92-1.05,1.67v2h-.72v-4.23h.72Z" transform="translate(0.36 0.24)"/><path class="cls-18" d="M311.46,344.08h0a1.42,1.42,0,0,1,1.21-.63c1.17,0,1.44.85,1.44,1.84v2.51h-.72v-2.39c0-.68-.05-1.3-.89-1.3-1,0-1.05.92-1.05,1.67v2h-.72v-4.23h.72Z" transform="translate(0.36 0.24)"/><path class="cls-18" d="M316.21,345.92c0,.71.08,1.32,1,1.32s1-.61,1-1.32v-2.36h.72V346c0,1.13-.42,1.91-1.67,1.91s-1.67-.78-1.67-1.91v-2.44h.72Z" transform="translate(0.36 0.24)"/><path class="cls-18" d="M324,347.8h-.72v-.58h0a1.78,1.78,0,0,1-1.46.7,2.24,2.24,0,0,1,0-4.47,1.83,1.83,0,0,1,1.45.72h0v-.6H324Zm-3.48-2.16a1.46,1.46,0,0,0,1.39,1.61,1.44,1.44,0,0,0,1.41-1.6,1.41,1.41,0,0,0-1.42-1.53A1.43,1.43,0,0,0,320.48,345.64Z" transform="translate(0.36 0.24)"/><path class="cls-18" d="M326,347.8h-.72v-7.43H326Z" transform="translate(0.36 0.24)"/><path class="cls-18" d="M332.11,346.09l2.2-5.44,2.2,5.44,1.78-5.09h.82l-2.6,7.14-2.2-5.46-2.2,5.46-2.6-7.14h.82Z" transform="translate(0.36 0.24)"/><path class="cls-18" d="M343.77,347.8h-.72v-.58h0a1.78,1.78,0,0,1-1.46.7,2.24,2.24,0,0,1,0-4.47,1.83,1.83,0,0,1,1.45.72h0v-.6h.72Zm-3.48-2.16a1.46,1.46,0,0,0,1.39,1.61,1.44,1.44,0,0,0,1.41-1.6,1.41,1.41,0,0,0-1.42-1.53A1.43,1.43,0,0,0,340.29,345.64Z" transform="translate(0.36 0.24)"/><path class="cls-18" d="M349,347.59a2.69,2.69,0,0,1-.43,1.82,2.05,2.05,0,0,1-1.64.75,1.94,1.94,0,0,1-2.08-1.94h.72a1.26,1.26,0,0,0,1.35,1.28c1.12,0,1.36-.82,1.36-1.77v-.5h0a1.87,1.87,0,0,1-1.47.7,2.07,2.07,0,0,1-2-2.21,2.11,2.11,0,0,1,2-2.25,1.76,1.76,0,0,1,1.44.72h0v-.6H349Zm-3.48-2a1.46,1.46,0,0,0,1.39,1.61,1.44,1.44,0,0,0,1.41-1.6,1.41,1.41,0,0,0-1.42-1.53A1.43,1.43,0,0,0,345.52,345.64Z" transform="translate(0.36 0.24)"/><path class="cls-18" d="M350.71,345.83a1.37,1.37,0,0,0,1.39,1.41,1.45,1.45,0,0,0,1.29-.87l.61.35a2.14,2.14,0,0,1-2,1.19,2,2,0,0,1-2.07-2.18,2.05,2.05,0,1,1,4.06.1Zm2.57-.61a1.29,1.29,0,0,0-1.24-1.11,1.34,1.34,0,0,0-1.29,1.11Z" transform="translate(0.36 0.24)"/></g><polygon class="cls-19" points="0.36 0.36 576.36 0.36 576.36 360.36 0.36 360.36 0.36 0.36 0.36 0.36"/><line class="cls-20" x1="208.86" y1="276.66" x2="210.36" y2="276.66"/><line class="cls-21" x1="213.34" y1="276.66" x2="551.35" y2="276.66"/><line class="cls-20" x1="552.84" y1="276.66" x2="554.34" y2="276.66"/><path class="cls-22" d="M136.19,227.73H135V217.14h1.74a4.46,4.46,0,0,1,2.63.56,2.92,2.92,0,0,1,1.19,2.42,3,3,0,0,1-1,2.27,3.81,3.81,0,0,1-2.51.7h-.86Zm0-5.73H137c1.31,0,2.41-.39,2.41-1.91,0-1.73-1.39-1.85-2.77-1.85h-.44Z" transform="translate(0.36 0.24)"/><path class="cls-22" d="M143.14,221.85h0a1.7,1.7,0,0,1,1.46-.9,2,2,0,0,1,1,.31l-.53,1a1.09,1.09,0,0,0-.67-.29c-1.24,0-1.29,1.59-1.29,2.44v3.3H142v-6.6h1.12Z" transform="translate(0.36 0.24)"/><path class="cls-22" d="M146.19,224.44a3.47,3.47,0,1,1,3.47,3.47A3.46,3.46,0,0,1,146.19,224.44Zm1.12,0a2.35,2.35,0,1,0,2.34-2.44A2.34,2.34,0,0,0,147.31,224.43Z" transform="translate(0.36 0.24)"/><path class="cls-22" d="M155.74,222.07h0a2.78,2.78,0,0,1,2.27-1.12,3.28,3.28,0,0,1,3.16,3.5,3.21,3.21,0,0,1-3.17,3.47,2.78,2.78,0,0,1-2.26-1.11h0v4.63h-1.12v-10.3h1.12Zm-.06,2.29a2.28,2.28,0,0,0,2.16,2.51,2.25,2.25,0,0,0,2.2-2.5,2.21,2.21,0,0,0-2.22-2.39A2.24,2.24,0,0,0,155.68,224.36Z" transform="translate(0.36 0.24)"/><path class="cls-22" d="M173.45,226.63v1.09H166.6l5-5.85a2.73,2.73,0,0,0,.72-1.77,2.06,2.06,0,0,0-2.11-2,2.09,2.09,0,0,0-2.13,2.18h-1.18a3.3,3.3,0,0,1,6.6-.14,3.28,3.28,0,0,1-.8,2.23L169,226.63Z" transform="translate(0.36 0.24)"/><path class="cls-22" d="M189.91,222.41a5,5,0,0,1-1.1,3.73,5.23,5.23,0,0,1-3.92,1.77,5.48,5.48,0,1,1,4.55-8.66l-.86.8a4.3,4.3,0,0,0-3.64-2,4.39,4.39,0,0,0-4.32,4.42,4.27,4.27,0,0,0,1.24,3,4.45,4.45,0,0,0,3,1.35c1.84,0,3.78-1.35,3.78-3.31H185.5v-1.09Z" transform="translate(0.36 0.24)"/><path class="cls-22" d="M191,224.44a3.47,3.47,0,1,1,3.47,3.47A3.46,3.46,0,0,1,191,224.44Zm1.12,0a2.35,2.35,0,1,0,2.34-2.44A2.34,2.34,0,0,0,192.11,224.43Z" transform="translate(0.36 0.24)"/><path class="cls-22" d="M200,224.67a2.14,2.14,0,0,0,2.16,2.2,2.26,2.26,0,0,0,2-1.36l1,.55a3.33,3.33,0,0,1-3,1.85,3.19,3.19,0,0,1-3.23-3.4c0-2,1.14-3.57,3.2-3.57s3.24,1.75,3.13,3.72Zm4-1a2,2,0,0,0-1.94-1.73,2.09,2.09,0,0,0-2,1.73Z" transform="translate(0.36 0.24)"/><path class="cls-22" d="M209.42,222.66a1.05,1.05,0,0,0-.9-.67.8.8,0,0,0-.81.73c0,.6.76.83,1.53,1.15a2,2,0,0,1,1.53,1.89,2.16,2.16,0,0,1-2.23,2.15,2.37,2.37,0,0,1-2.33-1.67l1-.42c.28.62.6,1.05,1.35,1.05a1,1,0,0,0,1.07-1c0-1.47-3-1-3-3a1.88,1.88,0,0,1,2-1.87,2,2,0,0,1,1.75,1.22Z" transform="translate(0.36 0.24)"/><path class="cls-22" d="M218.25,218.64a.8.8,0,1,1-1.6,0,.8.8,0,0,1,1.6,0Zm-.24,9.08h-1.12v-6.6H218Z" transform="translate(0.36 0.24)"/><path class="cls-22" d="M221.48,221.93h0a2.21,2.21,0,0,1,1.88-1c1.83,0,2.25,1.32,2.25,2.86v3.92h-1.12V224c0-1.07-.08-2-1.39-2-1.54,0-1.64,1.43-1.64,2.61v3.13h-1.12v-6.6h1.12Z" transform="translate(0.36 0.24)"/><path class="cls-22" d="M229,227.73h-1.12v-5.56h-.69v-1h.69v-2.37H229v2.37h1.18v1H229Z" transform="translate(0.36 0.24)"/><path class="cls-22" d="M230.55,224.44a3.47,3.47,0,1,1,3.47,3.47A3.46,3.46,0,0,1,230.55,224.44Zm1.12,0A2.35,2.35,0,1,0,234,222,2.34,2.34,0,0,0,231.68,224.43Z" transform="translate(0.36 0.24)"/><path class="cls-22" d="M243.36,217.14h5.49v1.1h-4.31v3.14h4.18v1.09h-4.18v4.16h4.31v1.09h-5.49Z" transform="translate(0.36 0.24)"/><path class="cls-22" d="M252.08,227.73H251v-5.56h-.62v-1H251v-2.62a3.38,3.38,0,0,1,.29-1.71,1.91,1.91,0,0,1,1.7-.83,2.68,2.68,0,0,1,.8.14v1.14a2.29,2.29,0,0,0-.76-.15c-.91,0-.91.65-.91,1.81v2.23h1.67v1h-1.67Z" transform="translate(0.36 0.24)"/><path class="cls-22" d="M255.92,227.73H254.8v-5.56h-.62v-1h.62v-2.62a3.38,3.38,0,0,1,.29-1.71,1.91,1.91,0,0,1,1.7-.83,2.68,2.68,0,0,1,.8.14v1.14a2.29,2.29,0,0,0-.76-.15c-.91,0-.91.65-.91,1.81v2.23h1.67v1h-1.67Z" transform="translate(0.36 0.24)"/><path class="cls-22" d="M259.11,224.67a2.14,2.14,0,0,0,2.16,2.2,2.26,2.26,0,0,0,2-1.36l1,.55a3.33,3.33,0,0,1-3,1.85,3.19,3.19,0,0,1-3.23-3.4c0-2,1.14-3.57,3.2-3.57s3.24,1.75,3.13,3.72Zm4-1a2,2,0,0,0-1.94-1.73,2.09,2.09,0,0,0-2,1.73Z" transform="translate(0.36 0.24)"/><path class="cls-22" d="M270.73,223.09h0a2.54,2.54,0,0,0-2-1.11,2.36,2.36,0,0,0-2.33,2.44,2.31,2.31,0,0,0,2.27,2.44,2.56,2.56,0,0,0,2.15-1.14h0v1.5a3.6,3.6,0,0,1-2.09.67,3.42,3.42,0,0,1-3.51-3.48,3.48,3.48,0,0,1,3.52-3.48,3.55,3.55,0,0,1,2,.66Z" transform="translate(0.36 0.24)"/><path class="cls-22" d="M273.7,227.73h-1.12v-5.56h-.69v-1h.69v-2.37h1.12v2.37h1.18v1H273.7Z" transform="translate(0.36 0.24)"/><path class="cls-22" d="M306.16,291.57l.62-1.1h2.32v10.58h-1.18v-9.49Z" transform="translate(0.36 0.24)"/><path class="cls-22" d="M315.15,300.64l2.44-3.36,0,0a3.16,3.16,0,0,1-.91.14,3.44,3.44,0,0,1-3.42-3.5,3.65,3.65,0,0,1,7.3,0,4.37,4.37,0,0,1-1,2.54l-3.51,4.8Zm-.74-6.78a2.47,2.47,0,0,0,4.94,0,2.47,2.47,0,0,0-4.94,0Z" transform="translate(0.36 0.24)"/><path class="cls-22" d="M323.8,300.64l2.44-3.36,0,0a3.16,3.16,0,0,1-.91.14,3.44,3.44,0,0,1-3.42-3.5,3.65,3.65,0,0,1,7.3,0,4.37,4.37,0,0,1-1,2.54l-3.51,4.8Zm-.74-6.78a2.47,2.47,0,0,0,4.94,0,2.47,2.47,0,0,0-4.94,0Z" transform="translate(0.36 0.24)"/><path class="cls-22" d="M337.18,293.24a2.68,2.68,0,0,1-1.29,2.32,2.73,2.73,0,0,1,1.56,2.54,3.23,3.23,0,0,1-6.46,0,2.73,2.73,0,0,1,1.56-2.54,2.68,2.68,0,0,1-1.29-2.32,3,3,0,0,1,5.92,0Zm-5,4.87a2,2,0,1,0,2-2A2,2,0,0,0,332.16,298.11Zm.21-4.9a1.84,1.84,0,1,0,1.84-1.82A1.85,1.85,0,0,0,332.37,293.21Z" transform="translate(0.36 0.24)"/><path class="cls-22" d="M345.52,298.06l-1.28,3h-1.29L347.83,290l4.76,11.09h-1.31l-1.25-3Zm2.29-5.33L346,297h3.58Z" transform="translate(0.36 0.24)"/><path class="cls-22" d="M358.64,300.15h0a2.81,2.81,0,0,1-2.27,1.09,3.5,3.5,0,0,1,0-7,2.85,2.85,0,0,1,2.26,1.12h0v-5.92h1.12v11.58h-1.12Zm-4.31-2.46a2.28,2.28,0,0,0,2.16,2.51,2.25,2.25,0,0,0,2.2-2.5,2.21,2.21,0,0,0-2.22-2.39A2.24,2.24,0,0,0,354.33,297.69Z" transform="translate(0.36 0.24)"/><path class="cls-22" d="M363.42,292a.8.8,0,1,1-1.6,0,.8.8,0,0,1,1.6,0Zm-.24,12.79h-1.12v-10.3h1.12Z" transform="translate(0.36 0.24)"/><path class="cls-22" d="M366.56,298.14c0,1.11.13,2.06,1.49,2.06s1.49-1,1.49-2.06v-3.68h1.12v3.8c0,1.75-.66,3-2.61,3s-2.61-1.22-2.61-3v-3.8h1.12Z" transform="translate(0.36 0.24)"/><path class="cls-22" d="M375.38,296a1.05,1.05,0,0,0-.9-.67.8.8,0,0,0-.81.73c0,.6.76.83,1.53,1.15a2,2,0,0,1,1.53,1.89,2.16,2.16,0,0,1-2.23,2.15,2.37,2.37,0,0,1-2.33-1.67l1-.42c.28.62.6,1.05,1.35,1.05a1,1,0,0,0,1.07-1c0-1.47-3-1-3-3a1.88,1.88,0,0,1,2-1.87,2,2,0,0,1,1.75,1.22Z" transform="translate(0.36 0.24)"/><path class="cls-22" d="M379.49,301.06h-1.12V295.5h-.69v-1h.69v-2.37h1.12v2.37h1.18v1h-1.18Z" transform="translate(0.36 0.24)"/><path class="cls-22" d="M382.24,298a2.14,2.14,0,0,0,2.16,2.2,2.26,2.26,0,0,0,2-1.36l1,.55a3.33,3.33,0,0,1-3,1.85,3.19,3.19,0,0,1-3.23-3.4c0-2,1.14-3.57,3.2-3.57s3.24,1.75,3.13,3.72Zm4-1a2,2,0,0,0-1.94-1.73,2.09,2.09,0,0,0-2,1.73Z" transform="translate(0.36 0.24)"/><path class="cls-22" d="M393.87,300.15h0a2.81,2.81,0,0,1-2.27,1.09,3.5,3.5,0,0,1,0-7,2.85,2.85,0,0,1,2.26,1.12h0v-5.92H395v11.58h-1.12Zm-4.31-2.46a2.28,2.28,0,0,0,2.16,2.51,2.25,2.25,0,0,0,2.2-2.5,2.21,2.21,0,0,0-2.22-2.39A2.24,2.24,0,0,0,389.56,297.69Z" transform="translate(0.36 0.24)"/><path class="cls-22" d="M403,298.06l-1.28,3h-1.29L405.3,290l4.76,11.09h-1.31l-1.25-3Zm2.29-5.33L403.46,297H407Z" transform="translate(0.36 0.24)"/><path class="cls-22" d="M412.84,298.9l2-4.44h1.26l-3.23,7-3.24-7h1.28Z" transform="translate(0.36 0.24)"/><path class="cls-22" d="M417.71,298a2.14,2.14,0,0,0,2.16,2.2,2.26,2.26,0,0,0,2-1.36l1,.55a3.33,3.33,0,0,1-3,1.85,3.19,3.19,0,0,1-3.23-3.4c0-2,1.14-3.57,3.2-3.57S423,296,422.89,298Zm4-1a2,2,0,0,0-1.94-1.73,2.09,2.09,0,0,0-2,1.73Z" transform="translate(0.36 0.24)"/><path class="cls-22" d="M425.5,295.18h0a1.7,1.7,0,0,1,1.46-.9,2,2,0,0,1,1,.31l-.53,1a1.09,1.09,0,0,0-.67-.29c-1.24,0-1.29,1.59-1.29,2.44v3.3h-1.12v-6.6h1.12Z" transform="translate(0.36 0.24)"/><path class="cls-22" d="M435.16,301.06H434v-.91h0a2.78,2.78,0,0,1-2.27,1.09,3.5,3.5,0,0,1,0-7A2.85,2.85,0,0,1,434,295.4h0v-.94h1.12Zm-5.43-3.37a2.28,2.28,0,0,0,2.16,2.51,2.25,2.25,0,0,0,2.2-2.5,2.21,2.21,0,0,0-2.22-2.39A2.24,2.24,0,0,0,429.73,297.69Z" transform="translate(0.36 0.24)"/><path class="cls-22" d="M443.19,300.74a4.19,4.19,0,0,1-.67,2.84,3.2,3.2,0,0,1-2.56,1.17,3,3,0,0,1-3.24-3h1.12a2,2,0,0,0,2.11,2c1.74,0,2.12-1.28,2.12-2.77v-.79h0a2.93,2.93,0,0,1-2.29,1.09,3.23,3.23,0,0,1-3.14-3.45,3.29,3.29,0,0,1,3.19-3.51A2.75,2.75,0,0,1,442,295.4h0v-.94h1.12Zm-5.43-3a2.28,2.28,0,0,0,2.16,2.51,2.25,2.25,0,0,0,2.2-2.5,2.21,2.21,0,0,0-2.22-2.39A2.24,2.24,0,0,0,437.76,297.69Z" transform="translate(0.36 0.24)"/><path class="cls-22" d="M445.94,298a2.14,2.14,0,0,0,2.16,2.2,2.26,2.26,0,0,0,2-1.36l1,.55a3.33,3.33,0,0,1-3,1.85,3.19,3.19,0,0,1-3.23-3.4c0-2,1.14-3.57,3.2-3.57s3.24,1.75,3.13,3.72Zm4-1a2,2,0,0,0-1.94-1.73,2.09,2.09,0,0,0-2,1.73Z" transform="translate(0.36 0.24)"/><path class="cls-22" d="M460.17,298.41l3.43-8.48,3.42,8.48,2.78-7.93h1.28L467,301.61l-3.42-8.52-3.43,8.52-4.06-11.13h1.28Z" transform="translate(0.36 0.24)"/><path class="cls-22" d="M477.21,301.06h-1.12v-.91h0a2.78,2.78,0,0,1-2.27,1.09,3.5,3.5,0,0,1,0-7,2.85,2.85,0,0,1,2.26,1.12h0v-.94h1.12Zm-5.43-3.37a2.28,2.28,0,0,0,2.16,2.51,2.25,2.25,0,0,0,2.2-2.5,2.21,2.21,0,0,0-2.22-2.39A2.24,2.24,0,0,0,471.78,297.69Z" transform="translate(0.36 0.24)"/><path class="cls-22" d="M485.24,300.74a4.19,4.19,0,0,1-.67,2.84,3.2,3.2,0,0,1-2.56,1.17,3,3,0,0,1-3.24-3h1.12a2,2,0,0,0,2.11,2c1.74,0,2.12-1.28,2.12-2.77v-.79h0a2.93,2.93,0,0,1-2.29,1.09,3.23,3.23,0,0,1-3.14-3.45,3.29,3.29,0,0,1,3.19-3.51,2.75,2.75,0,0,1,2.25,1.12h0v-.94h1.12Zm-5.43-3A2.28,2.28,0,0,0,482,300.2a2.25,2.25,0,0,0,2.2-2.5,2.21,2.21,0,0,0-2.22-2.39A2.24,2.24,0,0,0,479.81,297.69Z" transform="translate(0.36 0.24)"/><path class="cls-22" d="M488,298a2.14,2.14,0,0,0,2.16,2.2,2.26,2.26,0,0,0,2-1.36l1,.55a3.33,3.33,0,0,1-3,1.85,3.19,3.19,0,0,1-3.23-3.4c0-2,1.14-3.57,3.2-3.57s3.24,1.75,3.13,3.72Zm4-1a2,2,0,0,0-1.94-1.73,2.09,2.09,0,0,0-2,1.73Z" transform="translate(0.36 0.24)"/><path class="cls-22" d="M496.6,295.05a.79.79,0,1,1-1.57,0,.79.79,0,0,1,1.57,0Zm0,5.39a.79.79,0,1,1-1.57,0,.79.79,0,0,1,1.57,0Z" transform="translate(0.36 0.24)"/><path class="cls-22" d="M506.37,295.81c-1.28-.53-2.49-1.22-2.49-2.78a2.7,2.7,0,0,1,2.49-2.65v-1.45h.93v1.45a3,3,0,0,1,2.22,1.6l-.93.6a2,2,0,0,0-1.29-1.08V295c1.39.59,2.61,1.31,2.61,3a3.23,3.23,0,0,1-2.61,3.17v1.54h-.93v-1.46a3.3,3.3,0,0,1-3-2.72l1.14-.32a2.18,2.18,0,0,0,1.9,1.92Zm0-4.32a1.63,1.63,0,0,0-1.31,1.59c0,.77.69,1.21,1.31,1.49Zm.93,8.51a2.07,2.07,0,0,0,1.43-2c0-.9-.7-1.4-1.43-1.75Z" transform="translate(0.36 0.24)"/><path class="cls-22" d="M518.37,300v1.09h-6.85l5-5.85a2.73,2.73,0,0,0,.72-1.77,2.06,2.06,0,0,0-2.11-2,2.09,2.09,0,0,0-2.13,2.18h-1.18a3.3,3.3,0,0,1,6.6-.14,3.28,3.28,0,0,1-.8,2.23L513.91,300Z" transform="translate(0.36 0.24)"/><path class="cls-22" d="M522.15,300.64l2.44-3.36,0,0a3.16,3.16,0,0,1-.91.14,3.44,3.44,0,0,1-3.42-3.5,3.65,3.65,0,0,1,7.3,0,4.37,4.37,0,0,1-1,2.54l-3.51,4.8Zm-.74-6.78a2.47,2.47,0,0,0,4.94,0,2.47,2.47,0,0,0-4.94,0Z" transform="translate(0.36 0.24)"/><path class="cls-22" d="M531.4,299.88l-1.59,3.59-.76-.31,1.31-3.65Z" transform="translate(0.36 0.24)"/><path class="cls-22" d="M540.56,298.25v1.09h-1.3v1.71h-1.18v-1.71h-5.42l6.57-9.46h0v8.37Zm-2.48-4.79h0l-3.33,4.79h3.36Z" transform="translate(0.36 0.24)"/><path class="cls-22" d="M545.18,291.57l-.69,2.26.63-.06a3.51,3.51,0,0,1,3.52,3.69,3.76,3.76,0,0,1-3.89,3.78,3.67,3.67,0,0,1-3.24-1.9l.94-.67a2.72,2.72,0,0,0,2.34,1.47,2.61,2.61,0,0,0,2.67-2.71,2.54,2.54,0,0,0-2.64-2.57,3.69,3.69,0,0,0-2,.67l1.53-5.07h4.21v1.1Z" transform="translate(0.36 0.24)"/><path class="cls-22" d="M550.58,291.57v-1.1h7.81l-7.1,10.77-.93-.55,6-9.12Z" transform="translate(0.36 0.24)"/><line class="cls-23" x1="208.86" y1="232.63" x2="208.86" y2="265.64"/><polygon class="cls-22" points="208.86 272.7 204.79 262.75 208.86 265.11 212.92 262.75 208.86 272.7"/><path class="cls-22" d="M315.37,57.3v1.09h-6.85l5-5.85a2.73,2.73,0,0,0,.72-1.77,2.06,2.06,0,0,0-2.11-2A2.09,2.09,0,0,0,310,50.9h-1.18a3.3,3.3,0,0,1,6.6-.14,3.28,3.28,0,0,1-.8,2.23l-3.66,4.31Z" transform="translate(0.36 0.24)"/><path class="cls-22" d="M324.71,53.12c0,2.61-1.38,5.46-3.79,5.46s-3.79-2.85-3.79-5.46c0-2.18,1.11-5.49,3.79-5.49S324.71,50.94,324.71,53.12Zm-6.4.06c0,1.49.66,4.31,2.61,4.31s2.58-2.82,2.61-4.31-.62-4.45-2.61-4.45S318.28,51.67,318.31,53.17Z" transform="translate(0.36 0.24)"/><path class="cls-22" d="M327.46,48.9l.62-1.1h2.32V58.39h-1.18V48.9Z" transform="translate(0.36 0.24)"/><path class="cls-22" d="M337.85,48.9l-.69,2.26.63-.06a3.51,3.51,0,0,1,3.52,3.69,3.76,3.76,0,0,1-3.89,3.78,3.67,3.67,0,0,1-3.24-1.9l.94-.67a2.72,2.72,0,0,0,2.34,1.47,2.61,2.61,0,0,0,2.67-2.71,2.54,2.54,0,0,0-2.64-2.57,3.7,3.7,0,0,0-2,.67L337,47.81h4.21v1.1Z" transform="translate(0.36 0.24)"/><path class="cls-22" d="M349.52,55.39l-1.28,3h-1.29l4.89-11.09,4.76,11.09h-1.31l-1.25-3Zm2.29-5.33L350,54.3h3.58Z" transform="translate(0.36 0.24)"/><path class="cls-22" d="M362.64,57.48h0a2.81,2.81,0,0,1-2.27,1.1,3.5,3.5,0,0,1,0-7,2.85,2.85,0,0,1,2.26,1.12h0V46.81h1.12V58.39h-1.12ZM358.33,55a2.28,2.28,0,0,0,2.16,2.51,2.25,2.25,0,0,0,2.2-2.5,2.21,2.21,0,0,0-2.22-2.39A2.24,2.24,0,0,0,358.33,55Z" transform="translate(0.36 0.24)"/><path class="cls-22" d="M367.42,49.31a.8.8,0,1,1-1.6,0,.8.8,0,1,1,1.6,0Zm-.24,12.79h-1.12V51.8h1.12Z" transform="translate(0.36 0.24)"/><path class="cls-22" d="M370.56,55.47c0,1.11.13,2.06,1.49,2.06s1.49-1,1.49-2.06V51.8h1.12v3.8c0,1.75-.66,3-2.61,3s-2.61-1.22-2.61-3V51.8h1.12Z" transform="translate(0.36 0.24)"/><path class="cls-22" d="M379.38,53.33a1.05,1.05,0,0,0-.9-.67.8.8,0,0,0-.81.73c0,.6.76.83,1.53,1.15a2,2,0,0,1,1.53,1.9,2.16,2.16,0,0,1-2.23,2.15,2.37,2.37,0,0,1-2.33-1.67l1-.42c.28.62.6,1.05,1.35,1.05a1,1,0,0,0,1.07-1c0-1.47-3-1-3-3a1.88,1.88,0,0,1,2-1.87,2,2,0,0,1,1.75,1.22Z" transform="translate(0.36 0.24)"/><path class="cls-22" d="M383.49,58.39h-1.12V52.84h-.69v-1h.69V49.42h1.12V51.8h1.18v1h-1.18Z" transform="translate(0.36 0.24)"/><path class="cls-22" d="M386.25,55.33a2.14,2.14,0,0,0,2.16,2.2,2.26,2.26,0,0,0,2-1.36l1,.55a3.33,3.33,0,0,1-3,1.85,3.19,3.19,0,0,1-3.23-3.4c0-2,1.14-3.57,3.2-3.57s3.24,1.75,3.13,3.72Zm4-1a2,2,0,0,0-1.94-1.73,2.09,2.09,0,0,0-2,1.73Z" transform="translate(0.36 0.24)"/><path class="cls-22" d="M397.87,57.48h0a2.81,2.81,0,0,1-2.27,1.1,3.5,3.5,0,0,1,0-7,2.85,2.85,0,0,1,2.26,1.12h0V46.81H399V58.39h-1.12ZM393.56,55a2.28,2.28,0,0,0,2.16,2.51,2.25,2.25,0,0,0,2.2-2.5,2.21,2.21,0,0,0-2.22-2.39A2.24,2.24,0,0,0,393.56,55Z" transform="translate(0.36 0.24)"/><path class="cls-22" d="M407,55.39l-1.28,3h-1.29L409.3,47.3l4.76,11.09h-1.31l-1.25-3Zm2.29-5.33-1.81,4.24H411Z" transform="translate(0.36 0.24)"/><path class="cls-22" d="M416.84,56.23l2-4.44h1.26l-3.23,7-3.24-7h1.28Z" transform="translate(0.36 0.24)"/><path class="cls-22" d="M421.71,55.33a2.14,2.14,0,0,0,2.16,2.2,2.26,2.26,0,0,0,2-1.36l1,.55a3.33,3.33,0,0,1-3,1.85,3.19,3.19,0,0,1-3.23-3.4c0-2,1.14-3.57,3.2-3.57s3.24,1.75,3.13,3.72Zm4-1a2,2,0,0,0-1.94-1.73,2.09,2.09,0,0,0-2,1.73Z" transform="translate(0.36 0.24)"/><path class="cls-22" d="M429.5,52.51h0a1.7,1.7,0,0,1,1.46-.9,2,2,0,0,1,1,.31l-.53,1a1.1,1.1,0,0,0-.67-.29c-1.24,0-1.29,1.59-1.29,2.44v3.3h-1.12V51.8h1.12Z" transform="translate(0.36 0.24)"/><path class="cls-22" d="M439.16,58.39H438v-.91h0a2.77,2.77,0,0,1-2.27,1.1,3.5,3.5,0,0,1,0-7A2.85,2.85,0,0,1,438,52.74h0V51.8h1.12ZM433.73,55a2.28,2.28,0,0,0,2.16,2.51,2.25,2.25,0,0,0,2.2-2.5,2.21,2.21,0,0,0-2.22-2.39A2.24,2.24,0,0,0,433.73,55Z" transform="translate(0.36 0.24)"/><path class="cls-22" d="M447.19,58.07a4.19,4.19,0,0,1-.67,2.84A3.2,3.2,0,0,1,444,62.07a3,3,0,0,1-3.24-3h1.12a2,2,0,0,0,2.11,2c1.74,0,2.12-1.28,2.12-2.77v-.79h0a2.92,2.92,0,0,1-2.29,1.1,3.23,3.23,0,0,1-3.14-3.45,3.29,3.29,0,0,1,3.19-3.51A2.75,2.75,0,0,1,446,52.74h0V51.8h1.12Zm-5.43-3a2.28,2.28,0,0,0,2.16,2.51,2.25,2.25,0,0,0,2.2-2.5,2.21,2.21,0,0,0-2.22-2.39A2.24,2.24,0,0,0,441.76,55Z" transform="translate(0.36 0.24)"/><path class="cls-22" d="M449.94,55.33a2.14,2.14,0,0,0,2.16,2.2,2.26,2.26,0,0,0,2-1.36l1,.55a3.33,3.33,0,0,1-3,1.85,3.19,3.19,0,0,1-3.23-3.4c0-2,1.14-3.57,3.2-3.57s3.24,1.75,3.13,3.72Zm4-1A2,2,0,0,0,452,52.65a2.09,2.09,0,0,0-2,1.73Z" transform="translate(0.36 0.24)"/><path class="cls-22" d="M464.17,55.74l3.43-8.48L471,55.74l2.78-7.93h1.28L471,58.94l-3.42-8.52-3.43,8.52-4.06-11.13h1.28Z" transform="translate(0.36 0.24)"/><path class="cls-22" d="M481.21,58.39h-1.12v-.91h0a2.77,2.77,0,0,1-2.27,1.1,3.5,3.5,0,0,1,0-7,2.85,2.85,0,0,1,2.26,1.12h0V51.8h1.12ZM475.78,55a2.28,2.28,0,0,0,2.16,2.51,2.25,2.25,0,0,0,2.2-2.5,2.21,2.21,0,0,0-2.22-2.39A2.24,2.24,0,0,0,475.78,55Z" transform="translate(0.36 0.24)"/><path class="cls-22" d="M489.24,58.07a4.19,4.19,0,0,1-.67,2.84A3.2,3.2,0,0,1,486,62.07a3,3,0,0,1-3.24-3h1.12A2,2,0,0,0,486,61c1.74,0,2.12-1.28,2.12-2.77v-.79h0a2.92,2.92,0,0,1-2.29,1.1,3.23,3.23,0,0,1-3.14-3.45,3.29,3.29,0,0,1,3.19-3.51,2.75,2.75,0,0,1,2.25,1.12h0V51.8h1.12Zm-5.43-3A2.28,2.28,0,0,0,486,57.54a2.25,2.25,0,0,0,2.2-2.5A2.21,2.21,0,0,0,486,52.65,2.24,2.24,0,0,0,483.81,55Z" transform="translate(0.36 0.24)"/><path class="cls-22" d="M492,55.33a2.14,2.14,0,0,0,2.16,2.2,2.26,2.26,0,0,0,2-1.36l1,.55a3.33,3.33,0,0,1-3,1.85,3.19,3.19,0,0,1-3.23-3.4c0-2,1.14-3.57,3.2-3.57s3.24,1.75,3.13,3.72Zm4-1a2,2,0,0,0-1.94-1.73,2.09,2.09,0,0,0-2,1.73Z" transform="translate(0.36 0.24)"/><path class="cls-22" d="M500.6,52.39a.79.79,0,1,1-1.57,0,.79.79,0,0,1,1.57,0Zm0,5.39a.79.79,0,1,1-1.57,0,.79.79,0,0,1,1.57,0Z" transform="translate(0.36 0.24)"/><path class="cls-22" d="M510.37,53.14c-1.28-.53-2.49-1.22-2.49-2.78a2.7,2.7,0,0,1,2.49-2.65V46.27h.93v1.45a3,3,0,0,1,2.22,1.6l-.93.6a2,2,0,0,0-1.29-1.08V52.3c1.39.59,2.61,1.31,2.61,3a3.23,3.23,0,0,1-2.61,3.17V60h-.93V58.55a3.3,3.3,0,0,1-3-2.72l1.14-.32a2.18,2.18,0,0,0,1.9,1.92Zm0-4.32a1.63,1.63,0,0,0-1.31,1.59c0,.77.69,1.21,1.31,1.49Zm.93,8.51a2.07,2.07,0,0,0,1.43-2c0-.9-.7-1.4-1.43-1.75Z" transform="translate(0.36 0.24)"/><path class="cls-22" d="M518.75,52.29c1.12,0,2.09-.38,2.09-1.71A1.75,1.75,0,0,0,519,48.72a1.69,1.69,0,0,0-1.74,1.7h-1.17A2.81,2.81,0,0,1,519,47.63a2.84,2.84,0,0,1,3,2.89,2.61,2.61,0,0,1-1.36,2.32,2.74,2.74,0,0,1,1.52,2.6,3.15,3.15,0,0,1-3.29,3.14,3,3,0,0,1-3.14-2.93h1.15a2,2,0,0,0,2,1.84A2.07,2.07,0,0,0,521,55.36a1.93,1.93,0,0,0-2.25-2Z" transform="translate(0.36 0.24)"/><path class="cls-22" d="M530.88,50.57a2.68,2.68,0,0,1-1.29,2.32,2.73,2.73,0,0,1,1.56,2.54,3.23,3.23,0,0,1-6.46,0,2.73,2.73,0,0,1,1.56-2.54A2.68,2.68,0,0,1,525,50.57a3,3,0,0,1,5.92,0Zm-5,4.87a2,2,0,1,0,2-2A2,2,0,0,0,525.87,55.45Zm.21-4.9a1.84,1.84,0,1,0,1.84-1.83A1.85,1.85,0,0,0,526.08,50.55Z" transform="translate(0.36 0.24)"/><path class="cls-22" d="M535.4,57.22l-1.59,3.59-.76-.31,1.31-3.65Z" transform="translate(0.36 0.24)"/><path class="cls-22" d="M544,57.3v1.09h-6.85l5-5.85a2.73,2.73,0,0,0,.72-1.77,2.06,2.06,0,0,0-2.11-2,2.09,2.09,0,0,0-2.13,2.18H537.4a3.3,3.3,0,0,1,6.6-.14,3.28,3.28,0,0,1-.8,2.23l-3.66,4.31Z" transform="translate(0.36 0.24)"/><path class="cls-22" d="M549,52.29c1.12,0,2.09-.38,2.09-1.71a1.75,1.75,0,0,0-1.85-1.85,1.69,1.69,0,0,0-1.74,1.7h-1.17a2.81,2.81,0,0,1,2.93-2.79,2.84,2.84,0,0,1,3,2.89,2.61,2.61,0,0,1-1.36,2.32,2.74,2.74,0,0,1,1.52,2.6,3.15,3.15,0,0,1-3.29,3.14A3,3,0,0,1,546,55.64h1.15a2,2,0,0,0,2,1.84,2.07,2.07,0,0,0,2.06-2.12,1.93,1.93,0,0,0-2.25-2Z" transform="translate(0.36 0.24)"/><path class="cls-22" d="M556.09,48.9l.62-1.1H559V58.39h-1.18V48.9Z" transform="translate(0.36 0.24)"/><line class="cls-23" x1="554.28" y1="61.97" x2="554.28" y2="71.42"/><polygon class="cls-22" points="554.28 78.48 550.22 68.53 554.28 70.89 558.34 68.53 554.28 78.48"/><line class="cls-23" x1="554.3" y1="288.63" x2="554.31" y2="283.72"/><polygon class="cls-22" points="554.34 276.66 558.37 286.63 554.31 284.25 550.24 286.59 554.34 276.66"/></svg>