<?xml version="1.0" encoding="utf-8"?>
<!-- Generator: Adobe Illustrator 20.1.0, SVG Export Plug-In . SVG Version: 6.00 Build 0)  -->
<svg version="1.1" xmlns="http://www.w3.org/2000/svg" xmlns:xlink="http://www.w3.org/1999/xlink" x="0px" y="0px"
	 viewBox="0 0 576 360.1" style="enable-background:new 0 0 576 360.1;" xml:space="preserve">
<style type="text/css">
	.st0{fill-rule:evenodd;clip-rule:evenodd;fill:#F3F3F3;}
	.st1{fill:none;stroke:#C0BFBF;stroke-width:0.72;stroke-linejoin:round;stroke-miterlimit:10;}
	.st2{clip-path:url(#SVGID_2_);fill:#B0ACAC;}
	.st3{clip-path:url(#SVGID_4_);fill:none;stroke:#010101;stroke-width:0.72;stroke-linejoin:round;stroke-miterlimit:10;}
	.st4{clip-path:url(#SVGID_6_);fill:none;stroke:#010101;stroke-width:0.72;stroke-linejoin:round;stroke-miterlimit:10;}
	
		.st5{clip-path:url(#SVGID_8_);fill:none;stroke:#344051;stroke-width:2.16;stroke-linecap:round;stroke-linejoin:round;stroke-miterlimit:10;}
	
		.st6{clip-path:url(#SVGID_10_);fill:none;stroke:#414141;stroke-width:2.28;stroke-linecap:round;stroke-linejoin:round;stroke-miterlimit:10;stroke-dasharray:0,57912;}
	.st7{clip-path:url(#SVGID_12_);fill:#010101;}
	.st8{clip-path:url(#SVGID_12_);fill:none;stroke:#010101;stroke-width:2.28;stroke-linejoin:round;stroke-miterlimit:10;}
	.st9{clip-path:url(#SVGID_14_);}
	.st10{fill:#010101;}
	.st11{clip-path:url(#SVGID_16_);}
	.st12{clip-path:url(#SVGID_18_);}
	.st13{clip-path:url(#SVGID_20_);}
	.st14{clip-path:url(#SVGID_22_);}
	.st15{clip-path:url(#SVGID_24_);}
	.st16{clip-path:url(#SVGID_26_);}
	.st17{clip-path:url(#SVGID_28_);}
	.st18{clip-path:url(#SVGID_30_);}
	.st19{clip-path:url(#SVGID_32_);}
	.st20{clip-path:url(#SVGID_34_);}
	.st21{clip-path:url(#SVGID_36_);}
	.st22{fill:#010101;stroke:#010101;stroke-width:0.4011;stroke-miterlimit:10;}
	.st23{clip-path:url(#SVGID_38_);fill-rule:evenodd;clip-rule:evenodd;fill:#B0ACAC;}
	.st24{clip-path:url(#SVGID_40_);}
	.st25{fill:#595A5A;}
	
		.st26{clip-path:url(#SVGID_42_);fill:none;stroke:#344051;stroke-width:2.16;stroke-linecap:round;stroke-linejoin:round;stroke-miterlimit:10;}
	.st27{clip-path:url(#SVGID_44_);}
	.st28{clip-path:url(#SVGID_48_);}
	.st29{fill:none;stroke:#D9D9D8;stroke-width:0.72;stroke-linejoin:round;stroke-miterlimit:10;}
	.st30{fill:none;stroke:#000000;stroke-width:2;stroke-miterlimit:10;}
	.st31{fill:none;stroke:#000000;stroke-width:2;stroke-miterlimit:10;stroke-dasharray:2.9781,2.9781;}
	.st32{fill:none;stroke:#000000;stroke-miterlimit:10;}
</style>
<g id="Layer_1">
	<g>
		<polygon class="st0" points="0,0.1 576,0.1 576,360.1 0,360.1 0,0.1 		"/>
		<path class="st1" d="M46,241.6h508 M46,173.8h508 M46,106.1h508 M46,38.3h508"/>
		<g>
			<defs>
				<polygon id="SVGID_1_" points="55.9,310 564.7,310 564.7,38.3 55.9,38.3 55.9,310 				"/>
			</defs>
			<clipPath id="SVGID_2_">
				<use xlink:href="#SVGID_1_"  style="overflow:visible;"/>
			</clipPath>
			<path class="st2" d="M272.4,38.2H288v271.1h-15.6V38.2L272.4,38.2z M409.4,38.3h37.5v271.1h-37.5V38.3L409.4,38.3z M68.8,38.2
				h16.2v271.4H68.8V38.2L68.8,38.2z"/>
		</g>
		<g>
			<defs>
				<polygon id="SVGID_3_" points="0,360 576,360 576,0 0,0 0,360 				"/>
			</defs>
			<clipPath id="SVGID_4_">
				<use xlink:href="#SVGID_3_"  style="overflow:visible;"/>
			</clipPath>
			<line class="st3" x1="46" y1="309.4" x2="553.9" y2="309.4"/>
		</g>
		<g>
			<defs>
				<polygon id="SVGID_5_" points="0,360 576,360 576,0 0,0 0,360 				"/>
			</defs>
			<clipPath id="SVGID_6_">
				<use xlink:href="#SVGID_5_"  style="overflow:visible;"/>
			</clipPath>
			<path class="st4" d="M46,306.2v6.1 M147.5,306.2v6.1 M249.1,306.2v6.1 M350.8,306.2v6.1 M452.4,306.2v6.1 M553.9,306.2v6.1"/>
		</g>
		<g>
			<defs>
				<polygon id="SVGID_7_" points="45.8,310 554.6,310 554.6,38.3 45.8,38.3 45.8,310 				"/>
			</defs>
			<clipPath id="SVGID_8_">
				<use xlink:href="#SVGID_7_"  style="overflow:visible;"/>
			</clipPath>
			<polyline class="st5" points="46,266.5 66.2,280 86.5,283.1 106.9,281.2 127.2,284.6 147.5,286.6 167.9,285.8 188.2,276.5 
				208.4,276.4 228.8,262.6 249.1,258.4 269.4,267 289.8,247.1 310.1,254.2 330.4,238.1 350.8,235 371,222.4 391.4,205.8 
				411.7,174.2 432,167.6 452.4,142.6 472.7,123.8 493,133.6 513.4,125.8 533.6,100 553.9,78.2 			"/>
		</g>
		<g>
			<defs>
				<polygon id="SVGID_9_" points="45.8,310 554.6,310 554.6,38.3 45.8,38.3 45.8,310 				"/>
			</defs>
			<clipPath id="SVGID_10_">
				<use xlink:href="#SVGID_9_"  style="overflow:visible;"/>
			</clipPath>
			<polyline class="st6" points="208.5,276.4 228.8,276.4 249.2,276.4 269.5,276.4 289.7,276.4 310.1,276.4 330.4,276.4 
				350.7,276.4 371.1,276.4 391.4,276.4 411.7,276.4 432.1,276.4 452.3,276.4 472.6,276.4 493,276.4 513.3,276.4 533.6,276.4 
				554,276.4 			"/>
		</g>
		<g>
			<defs>
				<polygon id="SVGID_11_" points="0,360 576,360 576,0 0,0 0,360 				"/>
			</defs>
			<clipPath id="SVGID_12_">
				<use xlink:href="#SVGID_11_"  style="overflow:visible;"/>
			</clipPath>
			<polygon class="st7" points="208.5,272.5 212.5,276.4 208.5,280.4 204.5,276.4 208.5,272.5 			"/>
			<polygon class="st8" points="208.5,272.5 212.5,276.4 208.5,280.4 204.5,276.4 208.5,272.5 			"/>
		</g>
		<g>
			<defs>
				<rect id="SVGID_13_" x="0" width="576" height="360"/>
			</defs>
			<clipPath id="SVGID_14_">
				<use xlink:href="#SVGID_13_"  style="overflow:visible;"/>
			</clipPath>
			<g class="st9">
				<path class="st10" d="M9.2,308.4c-0.8-0.3-1.6-0.8-1.6-1.8c0-0.9,0.7-1.6,1.6-1.7V304h0.6v0.9c0.6,0.1,1.2,0.5,1.4,1l-0.6,0.4
					c-0.2-0.3-0.5-0.6-0.8-0.7v2.2c0.9,0.4,1.7,0.8,1.7,1.9c0,1-0.7,1.8-1.7,2v1H9.2v-0.9c-1,0-1.8-0.8-1.9-1.7l0.7-0.2
					c0.1,0.6,0.6,1.2,1.2,1.2V308.4z M9.2,305.6c-0.5,0.1-0.8,0.5-0.8,1s0.4,0.8,0.8,1V305.6z M9.8,311.1c0.6-0.2,0.9-0.7,0.9-1.3
					c0-0.6-0.5-0.9-0.9-1.1V311.1z"/>
				<path class="st10" d="M16.9,311.1v0.7h-4.4l3.2-3.8c0.3-0.3,0.5-0.7,0.5-1.1c0-0.8-0.6-1.3-1.4-1.3c-0.8,0-1.4,0.6-1.4,1.4h-0.8
					c0-1.2,0.9-2.1,2.1-2.1c1.1,0,2.1,0.8,2.1,2c0,0.5-0.2,1-0.5,1.4l-2.3,2.8H16.9z"/>
				<path class="st10" d="M22.3,306.8c0,0.6-0.3,1.2-0.8,1.5c0.6,0.3,1,0.9,1,1.6c0,1.2-0.9,2-2.1,2s-2.1-0.8-2.1-2
					c0-0.7,0.4-1.3,1-1.6c-0.5-0.3-0.8-0.9-0.8-1.5c0-1.1,0.8-1.9,1.9-1.9C21.5,304.9,22.3,305.7,22.3,306.8z M19.1,309.9
					c0,0.7,0.6,1.3,1.3,1.3s1.3-0.6,1.3-1.3c0-0.7-0.6-1.3-1.3-1.3S19.1,309.2,19.1,309.9z M19.2,306.7c0,0.7,0.5,1.2,1.2,1.2
					c0.6,0,1.2-0.5,1.2-1.2c0-0.6-0.5-1.2-1.2-1.2C19.7,305.6,19.2,306.1,19.2,306.7z"/>
				<path class="st10" d="M25.2,311l-1,2.3l-0.5-0.2l0.8-2.3L25.2,311z"/>
				<path class="st10" d="M31.2,308.4c0,1.7-0.9,3.5-2.4,3.5c-1.5,0-2.4-1.8-2.4-3.5c0-1.4,0.7-3.5,2.4-3.5
					C30.5,304.9,31.2,307,31.2,308.4z M27.1,308.4c0,1,0.4,2.8,1.7,2.8s1.7-1.8,1.7-2.8c0-1-0.4-2.9-1.7-2.9S27.1,307.5,27.1,308.4z
					"/>
				<path class="st10" d="M36.8,308.4c0,1.7-0.9,3.5-2.4,3.5s-2.4-1.8-2.4-3.5c0-1.4,0.7-3.5,2.4-3.5C36,304.9,36.8,307,36.8,308.4z
					 M32.6,308.4c0,1,0.4,2.8,1.7,2.8s1.7-1.8,1.7-2.8c0-1-0.4-2.9-1.7-2.9S32.6,307.5,32.6,308.4z"/>
				<path class="st10" d="M42.3,308.4c0,1.7-0.9,3.5-2.4,3.5c-1.5,0-2.4-1.8-2.4-3.5c0-1.4,0.7-3.5,2.4-3.5
					C41.6,304.9,42.3,307,42.3,308.4z M38.2,308.4c0,1,0.4,2.8,1.7,2.8s1.7-1.8,1.7-2.8c0-1-0.4-2.9-1.7-2.9S38.2,307.5,38.2,308.4z
					"/>
			</g>
		</g>
		<g>
			<defs>
				<rect id="SVGID_15_" x="0" width="576" height="360"/>
			</defs>
			<clipPath id="SVGID_16_">
				<use xlink:href="#SVGID_15_"  style="overflow:visible;"/>
			</clipPath>
			<g class="st11">
				<path class="st10" d="M9.2,240.7c-0.8-0.3-1.6-0.8-1.6-1.8c0-0.9,0.7-1.6,1.6-1.7v-0.9h0.6v0.9c0.6,0.1,1.2,0.5,1.4,1l-0.6,0.4
					c-0.2-0.3-0.5-0.6-0.8-0.7v2.2c0.9,0.4,1.7,0.8,1.7,1.9c0,1-0.7,1.8-1.7,2v1H9.2v-0.9c-1,0-1.8-0.8-1.9-1.7l0.7-0.2
					c0.1,0.6,0.6,1.2,1.2,1.2V240.7z M9.2,237.9c-0.5,0.1-0.8,0.5-0.8,1s0.4,0.8,0.8,1V237.9z M9.8,243.3c0.6-0.2,0.9-0.7,0.9-1.3
					c0-0.6-0.5-0.9-0.9-1.1V243.3z"/>
				<path class="st10" d="M14.5,240.1c0.7,0,1.3-0.2,1.3-1.1c0-0.7-0.5-1.2-1.2-1.2c-0.7,0-1.1,0.5-1.1,1.1h-0.7
					c0.1-1.1,0.8-1.8,1.9-1.8c1.1,0,1.9,0.7,1.9,1.9c0,0.6-0.3,1.2-0.9,1.5c0.7,0.3,1,1,1,1.7c0,1.2-0.9,2-2.1,2c-1.1,0-2-0.7-2-1.9
					h0.7c0,0.7,0.6,1.2,1.3,1.2c0.8,0,1.3-0.6,1.3-1.4c0-0.9-0.6-1.3-1.4-1.3V240.1z"/>
				<path class="st10" d="M19,237.9l0.4-0.7h1.5v6.8h-0.8v-6.1H19z"/>
				<path class="st10" d="M25.2,243.3l-1,2.3l-0.5-0.2l0.8-2.3L25.2,243.3z"/>
				<path class="st10" d="M31.2,240.6c0,1.7-0.9,3.5-2.4,3.5c-1.5,0-2.4-1.8-2.4-3.5c0-1.4,0.7-3.5,2.4-3.5
					C30.5,237.1,31.2,239.2,31.2,240.6z M27.1,240.7c0,1,0.4,2.8,1.7,2.8s1.7-1.8,1.7-2.8c0-1-0.4-2.9-1.7-2.9
					S27.1,239.7,27.1,240.7z"/>
				<path class="st10" d="M36.8,240.6c0,1.7-0.9,3.5-2.4,3.5s-2.4-1.8-2.4-3.5c0-1.4,0.7-3.5,2.4-3.5
					C36,237.1,36.8,239.2,36.8,240.6z M32.6,240.7c0,1,0.4,2.8,1.7,2.8s1.7-1.8,1.7-2.8c0-1-0.4-2.9-1.7-2.9S32.6,239.7,32.6,240.7z
					"/>
				<path class="st10" d="M42.3,240.6c0,1.7-0.9,3.5-2.4,3.5c-1.5,0-2.4-1.8-2.4-3.5c0-1.4,0.7-3.5,2.4-3.5
					C41.6,237.1,42.3,239.2,42.3,240.6z M38.2,240.7c0,1,0.4,2.8,1.7,2.8s1.7-1.8,1.7-2.8c0-1-0.4-2.9-1.7-2.9
					S38.2,239.7,38.2,240.7z"/>
			</g>
		</g>
		<g>
			<defs>
				<rect id="SVGID_17_" x="0" width="576" height="360"/>
			</defs>
			<clipPath id="SVGID_18_">
				<use xlink:href="#SVGID_17_"  style="overflow:visible;"/>
			</clipPath>
			<g class="st12">
				<path class="st10" d="M9.2,172.9c-0.8-0.3-1.6-0.8-1.6-1.8c0-0.9,0.7-1.6,1.6-1.7v-0.9h0.6v0.9c0.6,0.1,1.2,0.5,1.4,1l-0.6,0.4
					c-0.2-0.3-0.5-0.6-0.8-0.7v2.2c0.9,0.4,1.7,0.8,1.7,1.9c0,1-0.7,1.8-1.7,2v1H9.2v-0.9c-1,0-1.8-0.8-1.9-1.7l0.7-0.2
					c0.1,0.6,0.6,1.2,1.2,1.2V172.9z M9.2,170.1c-0.5,0.1-0.8,0.5-0.8,1s0.4,0.8,0.8,1V170.1z M9.8,175.6c0.6-0.2,0.9-0.7,0.9-1.3
					c0-0.6-0.5-0.9-0.9-1.1V175.6z"/>
				<path class="st10" d="M14.5,172.4c0.7,0,1.3-0.2,1.3-1.1c0-0.7-0.5-1.2-1.2-1.2c-0.7,0-1.1,0.4-1.1,1.1h-0.7
					c0.1-1.1,0.8-1.8,1.9-1.8c1.1,0,1.9,0.7,1.9,1.9c0,0.6-0.3,1.2-0.9,1.5c0.7,0.3,1,1,1,1.7c0,1.2-0.9,2-2.1,2c-1.1,0-2-0.7-2-1.9
					h0.7c0,0.7,0.6,1.2,1.3,1.2c0.8,0,1.3-0.6,1.3-1.4c0-0.9-0.6-1.3-1.4-1.3V172.4z"/>
				<path class="st10" d="M22.7,174.5v0.7h-0.8v1.1h-0.8v-1.1h-3.5l4.2-6.1h0v5.4H22.7z M21.1,171.4L21.1,171.4l-2.2,3.1h2.2V171.4z
					"/>
				<path class="st10" d="M25.2,175.5l-1,2.3l-0.5-0.2l0.8-2.3L25.2,175.5z"/>
				<path class="st10" d="M31.2,172.9c0,1.7-0.9,3.5-2.4,3.5c-1.5,0-2.4-1.8-2.4-3.5c0-1.4,0.7-3.5,2.4-3.5
					C30.5,169.4,31.2,171.5,31.2,172.9z M27.1,172.9c0,1,0.4,2.8,1.7,2.8s1.7-1.8,1.7-2.8c0-1-0.4-2.9-1.7-2.9S27.1,172,27.1,172.9z
					"/>
				<path class="st10" d="M36.8,172.9c0,1.7-0.9,3.5-2.4,3.5s-2.4-1.8-2.4-3.5c0-1.4,0.7-3.5,2.4-3.5
					C36,169.4,36.8,171.5,36.8,172.9z M32.6,172.9c0,1,0.4,2.8,1.7,2.8s1.7-1.8,1.7-2.8c0-1-0.4-2.9-1.7-2.9S32.6,172,32.6,172.9z"
					/>
				<path class="st10" d="M42.3,172.9c0,1.7-0.9,3.5-2.4,3.5c-1.5,0-2.4-1.8-2.4-3.5c0-1.4,0.7-3.5,2.4-3.5
					C41.6,169.4,42.3,171.5,42.3,172.9z M38.2,172.9c0,1,0.4,2.8,1.7,2.8s1.7-1.8,1.7-2.8c0-1-0.4-2.9-1.7-2.9S38.2,172,38.2,172.9z
					"/>
			</g>
		</g>
		<g>
			<defs>
				<rect id="SVGID_19_" x="0" width="576" height="360"/>
			</defs>
			<clipPath id="SVGID_20_">
				<use xlink:href="#SVGID_19_"  style="overflow:visible;"/>
			</clipPath>
			<g class="st13">
				<path class="st10" d="M9.2,105.2c-0.8-0.3-1.6-0.8-1.6-1.8c0-0.9,0.7-1.6,1.6-1.7v-0.9h0.6v0.9c0.6,0.1,1.2,0.5,1.4,1l-0.6,0.4
					c-0.2-0.3-0.5-0.6-0.8-0.7v2.2c0.9,0.4,1.7,0.8,1.7,1.9c0,1-0.7,1.8-1.7,2v1H9.2v-0.9c-1,0-1.8-0.8-1.9-1.7l0.7-0.2
					c0.1,0.6,0.6,1.2,1.2,1.2V105.2z M9.2,102.4c-0.5,0.1-0.8,0.5-0.8,1s0.4,0.8,0.8,1V102.4z M9.8,107.8c0.6-0.2,0.9-0.7,0.9-1.3
					c0-0.6-0.5-0.9-0.9-1.1V107.8z"/>
				<path class="st10" d="M14.5,104.6c0.7,0,1.3-0.2,1.3-1.1c0-0.7-0.5-1.2-1.2-1.2c-0.7,0-1.1,0.4-1.1,1.1h-0.7
					c0.1-1.1,0.8-1.8,1.9-1.8c1.1,0,1.9,0.7,1.9,1.9c0,0.6-0.3,1.2-0.9,1.5c0.7,0.3,1,1,1,1.7c0,1.2-0.9,2-2.1,2c-1.1,0-2-0.7-2-1.9
					h0.7c0,0.7,0.6,1.2,1.3,1.2c0.8,0,1.3-0.6,1.3-1.4c0-0.9-0.6-1.3-1.4-1.3V104.6z"/>
				<path class="st10" d="M18.1,102.4v-0.7h5l-4.6,6.9l-0.6-0.4l3.9-5.9H18.1z"/>
				<path class="st10" d="M25.2,107.8l-1,2.3l-0.5-0.2l0.8-2.3L25.2,107.8z"/>
				<path class="st10" d="M31.2,105.1c0,1.7-0.9,3.5-2.4,3.5c-1.5,0-2.4-1.8-2.4-3.5c0-1.4,0.7-3.5,2.4-3.5
					C30.5,101.6,31.2,103.7,31.2,105.1z M27.1,105.2c0,1,0.4,2.8,1.7,2.8s1.7-1.8,1.7-2.8c0-1-0.4-2.9-1.7-2.9
					S27.1,104.2,27.1,105.2z"/>
				<path class="st10" d="M36.8,105.1c0,1.7-0.9,3.5-2.4,3.5s-2.4-1.8-2.4-3.5c0-1.4,0.7-3.5,2.4-3.5
					C36,101.6,36.8,103.7,36.8,105.1z M32.6,105.2c0,1,0.4,2.8,1.7,2.8s1.7-1.8,1.7-2.8c0-1-0.4-2.9-1.7-2.9S32.6,104.2,32.6,105.2z
					"/>
				<path class="st10" d="M42.3,105.1c0,1.7-0.9,3.5-2.4,3.5c-1.5,0-2.4-1.8-2.4-3.5c0-1.4,0.7-3.5,2.4-3.5
					C41.6,101.6,42.3,103.7,42.3,105.1z M38.2,105.2c0,1,0.4,2.8,1.7,2.8s1.7-1.8,1.7-2.8c0-1-0.4-2.9-1.7-2.9
					S38.2,104.2,38.2,105.2z"/>
			</g>
		</g>
		<g>
			<defs>
				<rect id="SVGID_21_" x="0" width="576" height="360"/>
			</defs>
			<clipPath id="SVGID_22_">
				<use xlink:href="#SVGID_21_"  style="overflow:visible;"/>
			</clipPath>
			<g class="st14">
				<path class="st10" d="M9.2,37.4c-0.8-0.3-1.6-0.8-1.6-1.8c0-0.9,0.7-1.6,1.6-1.7V33h0.6v0.9c0.6,0.1,1.2,0.5,1.4,1l-0.6,0.4
					c-0.2-0.3-0.5-0.6-0.8-0.7v2.2c0.9,0.4,1.7,0.8,1.7,1.9c0,1-0.7,1.8-1.7,2v1H9.2v-0.9c-1,0-1.8-0.8-1.9-1.7l0.7-0.2
					c0.1,0.6,0.6,1.2,1.2,1.2V37.4z M9.2,34.6c-0.5,0.1-0.8,0.5-0.8,1s0.4,0.8,0.8,1V34.6z M9.8,40.1c0.6-0.2,0.9-0.7,0.9-1.3
					c0-0.6-0.5-0.9-0.9-1.1V40.1z"/>
				<path class="st10" d="M17.2,39v0.7h-0.8v1.1h-0.8v-1.1h-3.5l4.2-6.1h0V39H17.2z M15.6,35.9L15.6,35.9L13.5,39h2.2V35.9z"/>
				<path class="st10" d="M22.8,37.4c0,1.7-0.9,3.5-2.4,3.5c-1.5,0-2.4-1.8-2.4-3.5c0-1.4,0.7-3.5,2.4-3.5
					C22.1,33.9,22.8,36,22.8,37.4z M18.7,37.4c0,1,0.4,2.8,1.7,2.8s1.7-1.8,1.7-2.8c0-1-0.4-2.9-1.7-2.9S18.7,36.5,18.7,37.4z"/>
				<path class="st10" d="M25.2,40l-1,2.3l-0.5-0.2l0.8-2.3L25.2,40z"/>
				<path class="st10" d="M31.2,37.4c0,1.7-0.9,3.5-2.4,3.5c-1.5,0-2.4-1.8-2.4-3.5c0-1.4,0.7-3.5,2.4-3.5
					C30.5,33.9,31.2,36,31.2,37.4z M27.1,37.4c0,1,0.4,2.8,1.7,2.8s1.7-1.8,1.7-2.8c0-1-0.4-2.9-1.7-2.9S27.1,36.5,27.1,37.4z"/>
				<path class="st10" d="M36.8,37.4c0,1.7-0.9,3.5-2.4,3.5s-2.4-1.8-2.4-3.5c0-1.4,0.7-3.5,2.4-3.5C36,33.9,36.8,36,36.8,37.4z
					 M32.6,37.4c0,1,0.4,2.8,1.7,2.8s1.7-1.8,1.7-2.8c0-1-0.4-2.9-1.7-2.9S32.6,36.5,32.6,37.4z"/>
				<path class="st10" d="M42.3,37.4c0,1.7-0.9,3.5-2.4,3.5c-1.5,0-2.4-1.8-2.4-3.5c0-1.4,0.7-3.5,2.4-3.5
					C41.6,33.9,42.3,36,42.3,37.4z M38.2,37.4c0,1,0.4,2.8,1.7,2.8s1.7-1.8,1.7-2.8c0-1-0.4-2.9-1.7-2.9S38.2,36.5,38.2,37.4z"/>
			</g>
		</g>
		<g>
			<defs>
				<rect id="SVGID_23_" x="0" width="576" height="360"/>
			</defs>
			<clipPath id="SVGID_24_">
				<use xlink:href="#SVGID_23_"  style="overflow:visible;"/>
			</clipPath>
			<g class="st15">
				<path class="st10" d="M36.2,321.3l0.4-0.7h1.5v6.8h-0.8v-6.1H36.2z"/>
				<path class="st10" d="M42,327.1l1.6-2.2l0,0c-0.2,0.1-0.4,0.1-0.6,0.1c-1.2,0-2.2-1-2.2-2.2c0-1.3,1.1-2.3,2.3-2.3
					c1.3,0,2.3,1,2.3,2.3c0,0.6-0.3,1.1-0.6,1.6l-2.3,3.1L42,327.1z M41.5,322.7c0,0.9,0.7,1.6,1.6,1.6c0.9,0,1.6-0.7,1.6-1.6
					c0-0.9-0.7-1.6-1.6-1.6C42.2,321.1,41.5,321.9,41.5,322.7z"/>
				<path class="st10" d="M47.5,327.1l1.6-2.2l0,0c-0.2,0.1-0.4,0.1-0.6,0.1c-1.2,0-2.2-1-2.2-2.2c0-1.3,1.1-2.3,2.3-2.3
					c1.3,0,2.3,1,2.3,2.3c0,0.6-0.3,1.1-0.6,1.6l-2.3,3.1L47.5,327.1z M47,322.7c0,0.9,0.7,1.6,1.6,1.6c0.9,0,1.6-0.7,1.6-1.6
					c0-0.9-0.7-1.6-1.6-1.6C47.7,321.1,47,321.9,47,322.7z"/>
				<path class="st10" d="M56.7,324c0,1.7-0.9,3.5-2.4,3.5c-1.5,0-2.4-1.8-2.4-3.5c0-1.4,0.7-3.5,2.4-3.5
					C56,320.4,56.7,322.6,56.7,324z M52.6,324c0,1,0.4,2.8,1.7,2.8s1.7-1.8,1.7-2.8c0-1-0.4-2.9-1.7-2.9S52.6,323,52.6,324z"/>
			</g>
		</g>
		<g>
			<defs>
				<rect id="SVGID_25_" x="0" width="576" height="360"/>
			</defs>
			<clipPath id="SVGID_26_">
				<use xlink:href="#SVGID_25_"  style="overflow:visible;"/>
			</clipPath>
			<g class="st16">
				<path class="st10" d="M137.8,321.3l0.4-0.7h1.5v6.8H139v-6.1H137.8z"/>
				<path class="st10" d="M143.6,327.1l1.6-2.2l0,0c-0.2,0.1-0.4,0.1-0.6,0.1c-1.2,0-2.2-1-2.2-2.2c0-1.3,1.1-2.3,2.3-2.3
					c1.3,0,2.3,1,2.3,2.3c0,0.6-0.3,1.1-0.6,1.6l-2.3,3.1L143.6,327.1z M143.1,322.7c0,0.9,0.7,1.6,1.6,1.6c0.9,0,1.6-0.7,1.6-1.6
					c0-0.9-0.7-1.6-1.6-1.6C143.8,321.1,143.1,321.9,143.1,322.7z"/>
				<path class="st10" d="M149.1,327.1l1.6-2.2l0,0c-0.2,0.1-0.4,0.1-0.6,0.1c-1.2,0-2.2-1-2.2-2.2c0-1.3,1.1-2.3,2.3-2.3
					c1.3,0,2.3,1,2.3,2.3c0,0.6-0.3,1.1-0.6,1.6l-2.3,3.1L149.1,327.1z M148.6,322.7c0,0.9,0.7,1.6,1.6,1.6c0.9,0,1.6-0.7,1.6-1.6
					c0-0.9-0.7-1.6-1.6-1.6C149.3,321.1,148.6,321.9,148.6,322.7z"/>
				<path class="st10" d="M155.6,321.3l-0.4,1.4l0.4,0c1.3,0,2.3,1.1,2.3,2.4c0,1.4-1.1,2.4-2.5,2.4c-0.9,0-1.6-0.5-2.1-1.2l0.6-0.4
					c0.3,0.5,0.9,0.9,1.5,0.9c1,0,1.7-0.7,1.7-1.7c0-1-0.7-1.6-1.7-1.6c-0.5,0-0.9,0.2-1.3,0.4l1-3.3h2.7v0.7H155.6z"/>
			</g>
		</g>
		<g>
			<defs>
				<rect id="SVGID_27_" x="0" width="576" height="360"/>
			</defs>
			<clipPath id="SVGID_28_">
				<use xlink:href="#SVGID_27_"  style="overflow:visible;"/>
			</clipPath>
			<g class="st17">
				<path class="st10" d="M242.8,326.6v0.7h-4.4l3.2-3.8c0.3-0.3,0.5-0.7,0.5-1.1c0-0.8-0.6-1.3-1.4-1.3c-0.8,0-1.4,0.6-1.4,1.4
					h-0.8c0-1.2,0.9-2.1,2.1-2.1c1.1,0,2.1,0.8,2.1,2c0,0.5-0.2,1-0.5,1.4l-2.3,2.8H242.8z"/>
				<path class="st10" d="M248.8,324c0,1.7-0.9,3.5-2.4,3.5c-1.5,0-2.4-1.8-2.4-3.5c0-1.4,0.7-3.5,2.4-3.5
					C248,320.4,248.8,322.6,248.8,324z M244.7,324c0,1,0.4,2.8,1.7,2.8s1.7-1.8,1.7-2.8c0-1-0.4-2.9-1.7-2.9S244.6,323,244.7,324z"
					/>
				<path class="st10" d="M254.3,324c0,1.7-0.9,3.5-2.4,3.5s-2.4-1.8-2.4-3.5c0-1.4,0.7-3.5,2.4-3.5
					C253.6,320.4,254.3,322.6,254.3,324z M250.2,324c0,1,0.4,2.8,1.7,2.8s1.7-1.8,1.7-2.8c0-1-0.4-2.9-1.7-2.9S250.2,323,250.2,324z
					"/>
				<path class="st10" d="M259.9,324c0,1.7-0.9,3.5-2.4,3.5c-1.5,0-2.4-1.8-2.4-3.5c0-1.4,0.7-3.5,2.4-3.5
					C259.2,320.4,259.9,322.6,259.9,324z M255.8,324c0,1,0.4,2.8,1.7,2.8s1.7-1.8,1.7-2.8c0-1-0.4-2.9-1.7-2.9S255.8,323,255.8,324z
					"/>
			</g>
		</g>
		<g>
			<defs>
				<rect id="SVGID_29_" x="0" width="576" height="360"/>
			</defs>
			<clipPath id="SVGID_30_">
				<use xlink:href="#SVGID_29_"  style="overflow:visible;"/>
			</clipPath>
			<g class="st18">
				<path class="st10" d="M344.4,326.6v0.7H340l3.2-3.8c0.3-0.3,0.5-0.7,0.5-1.1c0-0.8-0.6-1.3-1.3-1.3c-0.8,0-1.4,0.6-1.4,1.4h-0.8
					c0-1.2,0.9-2.1,2.1-2.1c1.1,0,2.1,0.8,2.1,2c0,0.5-0.2,1-0.5,1.4l-2.3,2.8H344.4z"/>
				<path class="st10" d="M350.4,324c0,1.7-0.9,3.5-2.4,3.5c-1.5,0-2.4-1.8-2.4-3.5c0-1.4,0.7-3.5,2.4-3.5
					C349.7,320.4,350.4,322.6,350.4,324z M346.3,324c0,1,0.4,2.8,1.7,2.8c1.3,0,1.7-1.8,1.7-2.8c0-1-0.4-2.9-1.7-2.9
					S346.3,323,346.3,324z"/>
				<path class="st10" d="M355.9,324c0,1.7-0.9,3.5-2.4,3.5c-1.5,0-2.4-1.8-2.4-3.5c0-1.4,0.7-3.5,2.4-3.5
					C355.2,320.4,355.9,322.6,355.9,324z M351.8,324c0,1,0.4,2.8,1.7,2.8c1.3,0,1.7-1.8,1.7-2.8c0-1-0.4-2.9-1.7-2.9
					S351.8,323,351.8,324z"/>
				<path class="st10" d="M358.9,321.3l-0.4,1.4l0.4,0c1.3,0,2.3,1.1,2.3,2.4c0,1.4-1.1,2.4-2.5,2.4c-0.9,0-1.6-0.5-2.1-1.2l0.6-0.4
					c0.3,0.5,0.9,0.9,1.5,0.9c1,0,1.7-0.7,1.7-1.7c0-1-0.7-1.6-1.7-1.6c-0.5,0-0.9,0.2-1.3,0.4l1-3.3h2.7v0.7H358.9z"/>
			</g>
		</g>
		<g>
			<defs>
				<rect id="SVGID_31_" x="0" width="576" height="360"/>
			</defs>
			<clipPath id="SVGID_32_">
				<use xlink:href="#SVGID_31_"  style="overflow:visible;"/>
			</clipPath>
			<g class="st19">
				<path class="st10" d="M446,326.6v0.7h-4.4l3.2-3.8c0.3-0.3,0.5-0.7,0.5-1.1c0-0.8-0.6-1.3-1.3-1.3c-0.8,0-1.4,0.6-1.4,1.4h-0.8
					c0-1.2,0.9-2.1,2.1-2.1c1.1,0,2.1,0.8,2.1,2c0,0.5-0.2,1-0.5,1.4l-2.3,2.8H446z"/>
				<path class="st10" d="M452,324c0,1.7-0.9,3.5-2.4,3.5c-1.5,0-2.4-1.8-2.4-3.5c0-1.4,0.7-3.5,2.4-3.5
					C451.3,320.4,452,322.6,452,324z M447.9,324c0,1,0.4,2.8,1.7,2.8c1.3,0,1.7-1.8,1.7-2.8c0-1-0.4-2.9-1.7-2.9
					S447.9,323,447.9,324z"/>
				<path class="st10" d="M453.7,321.3l0.4-0.7h1.5v6.8h-0.8v-6.1H453.7z"/>
				<path class="st10" d="M463.1,324c0,1.7-0.9,3.5-2.4,3.5c-1.5,0-2.4-1.8-2.4-3.5c0-1.4,0.7-3.5,2.4-3.5
					C462.4,320.4,463.1,322.6,463.1,324z M459,324c0,1,0.4,2.8,1.7,2.8c1.3,0,1.7-1.8,1.7-2.8c0-1-0.4-2.9-1.7-2.9S459,323,459,324z
					"/>
			</g>
		</g>
		<g>
			<defs>
				<rect id="SVGID_33_" x="0" width="576" height="360"/>
			</defs>
			<clipPath id="SVGID_34_">
				<use xlink:href="#SVGID_33_"  style="overflow:visible;"/>
			</clipPath>
			<g class="st20">
				<path class="st10" d="M547.6,326.6v0.7h-4.4l3.2-3.8c0.3-0.3,0.5-0.7,0.5-1.1c0-0.8-0.6-1.3-1.3-1.3c-0.8,0-1.4,0.6-1.4,1.4
					h-0.8c0-1.2,0.9-2.1,2.1-2.1c1.1,0,2.1,0.8,2.1,2c0,0.5-0.2,1-0.5,1.4l-2.3,2.8H547.6z"/>
				<path class="st10" d="M553.6,324c0,1.7-0.9,3.5-2.4,3.5c-1.5,0-2.4-1.8-2.4-3.5c0-1.4,0.7-3.5,2.4-3.5
					C552.9,320.4,553.6,322.6,553.6,324z M549.5,324c0,1,0.4,2.8,1.7,2.8c1.3,0,1.7-1.8,1.7-2.8c0-1-0.4-2.9-1.7-2.9
					S549.5,323,549.5,324z"/>
				<path class="st10" d="M555.3,321.3l0.4-0.7h1.5v6.8h-0.8v-6.1H555.3z"/>
				<path class="st10" d="M562.1,321.3l-0.4,1.4l0.4,0c1.3,0,2.3,1.1,2.3,2.4c0,1.4-1.1,2.4-2.5,2.4c-0.9,0-1.6-0.5-2.1-1.2l0.6-0.4
					c0.3,0.5,0.9,0.9,1.5,0.9c1,0,1.7-0.7,1.7-1.7c0-1-0.7-1.6-1.7-1.6c-0.5,0-0.9,0.2-1.3,0.4l1-3.3h2.7v0.7H562.1z"/>
			</g>
		</g>
		<g>
			<defs>
				<rect id="SVGID_35_" x="0" y="6.1" width="576" height="180"/>
			</defs>
			<clipPath id="SVGID_36_">
				<use xlink:href="#SVGID_35_"  style="overflow:visible;"/>
			</clipPath>
			<g class="st21">
				<path class="st22" d="M84.7,18.6l-1.3,3h-1.3L87,10.6l4.8,11.1h-1.3l-1.2-3H84.7z M87,13.3l-1.8,4.2h3.6L87,13.3z"/>
				<path class="st22" d="M98.2,20.7L98.2,20.7c-0.6,0.7-1.4,1.1-2.3,1.1c-1.9,0-3.2-1.6-3.2-3.5c0-1.9,1.2-3.5,3.2-3.5
					c0.9,0,1.7,0.4,2.3,1.1h0v-5.9h1.1v11.6h-1.1V20.7z M93.9,18.3c0,1.3,0.8,2.5,2.2,2.5c1.4,0,2.2-1.2,2.2-2.5
					c0-1.3-0.8-2.4-2.2-2.4C94.7,15.9,93.9,17,93.9,18.3z"/>
				<path class="st22" d="M103.4,12.6c0,0.4-0.4,0.8-0.8,0.8c-0.4,0-0.8-0.4-0.8-0.8c0-0.4,0.4-0.8,0.8-0.8
					C103,11.8,103.4,12.1,103.4,12.6z M103.1,25.4H102V15h1.1V25.4z"/>
				<path class="st22" d="M106.9,18.7c0,1.1,0.1,2.1,1.5,2.1s1.5-1,1.5-2.1V15h1.1v3.8c0,1.8-0.7,3-2.6,3s-2.6-1.2-2.6-3V15h1.1
					V18.7z"/>
				<path class="st22" d="M116.1,16.6c-0.2-0.4-0.5-0.7-0.9-0.7c-0.4,0-0.8,0.3-0.8,0.7c0,0.6,0.8,0.8,1.5,1.2
					c0.8,0.3,1.5,0.8,1.5,1.9c0,1.2-1,2.1-2.2,2.1c-1.1,0-2-0.6-2.3-1.7l1-0.4c0.3,0.6,0.6,1.1,1.3,1.1c0.6,0,1.1-0.4,1.1-1
					c0-1.5-3-1-3-3c0-1.1,0.9-1.9,2-1.9c0.8,0,1.5,0.5,1.8,1.2L116.1,16.6z"/>
				<path class="st22" d="M120.6,21.6h-1.1v-5.6h-0.7v-1h0.7v-2.4h1.1V15h1.2v1h-1.2V21.6z"/>
				<path class="st22" d="M123.7,18.6c0,1.2,0.9,2.2,2.2,2.2c1,0,1.6-0.6,2-1.4l1,0.5c-0.6,1.2-1.7,1.9-3,1.9c-2,0-3.2-1.5-3.2-3.4
					c0-2,1.1-3.6,3.2-3.6c2.1,0,3.2,1.8,3.1,3.7H123.7z M127.7,17.6c-0.2-1-1-1.7-1.9-1.7c-1,0-1.9,0.8-2,1.7H127.7z"/>
				<path class="st22" d="M135.7,20.7L135.7,20.7c-0.6,0.7-1.4,1.1-2.3,1.1c-1.9,0-3.2-1.6-3.2-3.5c0-1.9,1.2-3.5,3.2-3.5
					c0.9,0,1.7,0.4,2.3,1.1h0v-5.9h1.1v11.6h-1.1V20.7z M131.4,18.3c0,1.3,0.8,2.5,2.2,2.5c1.4,0,2.2-1.2,2.2-2.5
					c0-1.3-0.8-2.4-2.2-2.4C132.2,15.9,131.4,17,131.4,18.3z"/>
				<path class="st22" d="M145.3,18.6l-1.3,3h-1.3l4.9-11.1l4.8,11.1h-1.3l-1.2-3H145.3z M147.6,13.3l-1.8,4.2h3.6L147.6,13.3z"/>
				<path class="st22" d="M155.5,19.5l2-4.4h1.3l-3.2,7l-3.2-7h1.3L155.5,19.5z"/>
				<path class="st22" d="M160.7,18.6c0,1.2,0.9,2.2,2.2,2.2c1,0,1.6-0.6,2-1.4l1,0.5c-0.6,1.2-1.7,1.9-3,1.9c-2,0-3.2-1.5-3.2-3.4
					c0-2,1.1-3.6,3.2-3.6c2.1,0,3.2,1.8,3.1,3.7H160.7z M164.7,17.6c-0.2-1-1-1.7-1.9-1.7c-1,0-1.9,0.8-2,1.7H164.7z"/>
				<path class="st22" d="M168.9,15.8L168.9,15.8c0.4-0.5,0.8-0.9,1.5-0.9c0.4,0,0.7,0.1,1,0.3l-0.5,1c-0.2-0.2-0.4-0.3-0.7-0.3
					c-1.2,0-1.3,1.6-1.3,2.4v3.3h-1.1V15h1.1V15.8z"/>
				<path class="st22" d="M178.9,21.6h-1.1v-0.9h0c-0.6,0.7-1.3,1.1-2.3,1.1c-1.9,0-3.2-1.6-3.2-3.5c0-1.9,1.2-3.5,3.2-3.5
					c0.9,0,1.7,0.4,2.3,1.1h0V15h1.1V21.6z M173.5,18.3c0,1.3,0.8,2.5,2.2,2.5c1.4,0,2.2-1.2,2.2-2.5c0-1.3-0.8-2.4-2.2-2.4
					C174.3,15.9,173.5,17,173.5,18.3z"/>
				<path class="st22" d="M187.3,21.3c0,1.1,0,2-0.7,2.8c-0.6,0.8-1.6,1.2-2.6,1.2c-1.8,0-3.2-1.2-3.2-3h1.1c0,1.2,0.9,2,2.1,2
					c1.7,0,2.1-1.3,2.1-2.8v-0.8h0c-0.5,0.7-1.4,1.1-2.3,1.1c-1.9,0-3.1-1.6-3.1-3.5c0-1.9,1.2-3.5,3.2-3.5c0.9,0,1.7,0.4,2.2,1.1h0
					V15h1.1V21.3z M181.9,18.3c0,1.3,0.8,2.5,2.2,2.5c1.4,0,2.2-1.2,2.2-2.5c0-1.3-0.8-2.4-2.2-2.4C182.8,15.9,181.9,17,181.9,18.3z
					"/>
				<path class="st22" d="M190.5,18.6c0,1.2,0.9,2.2,2.2,2.2c1,0,1.6-0.6,2-1.4l1,0.5c-0.6,1.2-1.7,1.9-3,1.9c-2,0-3.2-1.5-3.2-3.4
					c0-2,1.1-3.6,3.2-3.6c2.1,0,3.2,1.8,3.1,3.7H190.5z M194.5,17.6c-0.2-1-1-1.7-1.9-1.7c-1,0-1.9,0.8-2,1.7H194.5z"/>
				<path class="st22" d="M203.7,18.6l-1.3,3h-1.3l4.9-11.1l4.8,11.1h-1.3l-1.2-3H203.7z M206,13.3l-1.8,4.2h3.6L206,13.3z"/>
				<path class="st22" d="M213.4,15.8L213.4,15.8c0.5-0.6,1.1-1,1.9-1c1.8,0,2.2,1.3,2.2,2.9v3.9h-1.1v-3.7c0-1.1-0.1-2-1.4-2
					c-1.5,0-1.6,1.4-1.6,2.6v3.1h-1.1V15h1.1V15.8z"/>
				<path class="st22" d="M221.2,15.8L221.2,15.8c0.5-0.6,1.1-1,1.9-1c1.8,0,2.2,1.3,2.2,2.9v3.9h-1.1v-3.7c0-1.1-0.1-2-1.4-2
					c-1.5,0-1.6,1.4-1.6,2.6v3.1h-1.1V15h1.1V15.8z"/>
				<path class="st22" d="M228.9,18.7c0,1.1,0.1,2.1,1.5,2.1s1.5-1,1.5-2.1V15h1.1v3.8c0,1.8-0.7,3-2.6,3s-2.6-1.2-2.6-3V15h1.1
					V18.7z"/>
				<path class="st22" d="M241.5,21.6h-1.1v-0.9h0c-0.6,0.7-1.3,1.1-2.3,1.1c-1.9,0-3.2-1.6-3.2-3.5c0-1.9,1.2-3.5,3.2-3.5
					c0.9,0,1.7,0.4,2.3,1.1h0V15h1.1V21.6z M236,18.3c0,1.3,0.8,2.5,2.2,2.5c1.4,0,2.2-1.2,2.2-2.5c0-1.3-0.8-2.4-2.2-2.4
					C236.9,15.9,236,17,236,18.3z"/>
				<path class="st22" d="M245.1,21.6h-1.1V10.1h1.1V21.6z"/>
				<path class="st22" d="M255.2,19l3.4-8.5L262,19l2.8-7.9h1.3L262,22.2l-3.4-8.5l-3.4,8.5l-4.1-11.1h1.3L255.2,19z"/>
				<path class="st22" d="M272.7,21.6h-1.1v-0.9h0c-0.6,0.7-1.3,1.1-2.3,1.1c-1.9,0-3.2-1.6-3.2-3.5c0-1.9,1.2-3.5,3.2-3.5
					c0.9,0,1.7,0.4,2.3,1.1h0V15h1.1V21.6z M267.2,18.3c0,1.3,0.8,2.5,2.2,2.5c1.4,0,2.2-1.2,2.2-2.5c0-1.3-0.8-2.4-2.2-2.4
					C268.1,15.9,267.2,17,267.2,18.3z"/>
				<path class="st22" d="M281.1,21.3c0,1.1,0,2-0.7,2.8c-0.6,0.8-1.6,1.2-2.6,1.2c-1.8,0-3.2-1.2-3.2-3h1.1c0,1.2,0.9,2,2.1,2
					c1.7,0,2.1-1.3,2.1-2.8v-0.8h0c-0.5,0.7-1.4,1.1-2.3,1.1c-1.9,0-3.1-1.6-3.1-3.5c0-1.9,1.2-3.5,3.2-3.5c0.9,0,1.7,0.4,2.2,1.1h0
					V15h1.1V21.3z M275.7,18.3c0,1.3,0.8,2.5,2.2,2.5c1.4,0,2.2-1.2,2.2-2.5c0-1.3-0.8-2.4-2.2-2.4C276.5,15.9,275.7,17,275.7,18.3z
					"/>
				<path class="st22" d="M284.2,18.6c0,1.2,0.9,2.2,2.2,2.2c1,0,1.6-0.6,2-1.4l1,0.5c-0.6,1.2-1.7,1.9-3,1.9c-2,0-3.2-1.5-3.2-3.4
					c0-2,1.1-3.6,3.2-3.6c2.1,0,3.2,1.8,3.1,3.7H284.2z M288.2,17.6c-0.2-1-1-1.7-1.9-1.7c-1,0-1.9,0.8-2,1.7H288.2z"/>
				<path class="st22" d="M294,16.6c-0.2-0.4-0.5-0.7-0.9-0.7c-0.4,0-0.8,0.3-0.8,0.7c0,0.6,0.8,0.8,1.5,1.2
					c0.8,0.3,1.5,0.8,1.5,1.9c0,1.2-1,2.1-2.2,2.1c-1.1,0-2-0.6-2.3-1.7l1-0.4c0.3,0.6,0.6,1.1,1.3,1.1c0.6,0,1.1-0.4,1.1-1
					c0-1.5-3-1-3-3c0-1.1,0.9-1.9,2-1.9c0.8,0,1.5,0.5,1.8,1.2L294,16.6z"/>
				<path class="st22" d="M303,21.6h-1.1v-5.6h-0.6v-1h0.6v-2.6c0-0.5,0-1.2,0.3-1.7c0.4-0.6,1-0.8,1.7-0.8c0.3,0,0.5,0.1,0.8,0.1
					v1.1c-0.3-0.1-0.5-0.2-0.8-0.2c-0.9,0-0.9,0.6-0.9,1.8V15h1.7v1H303V21.6z"/>
				<path class="st22" d="M305.4,18.4c0-1.9,1.5-3.5,3.5-3.5c1.9,0,3.5,1.6,3.5,3.5c0,1.9-1.5,3.5-3.5,3.5
					C306.9,21.8,305.4,20.3,305.4,18.4z M306.5,18.3c0,1.3,1,2.4,2.3,2.4c1.4,0,2.3-1.1,2.3-2.4c0-1.3-1-2.4-2.3-2.4
					C307.5,15.9,306.5,17,306.5,18.3z"/>
				<path class="st22" d="M315.3,15.8L315.3,15.8c0.4-0.5,0.8-0.9,1.5-0.9c0.4,0,0.7,0.1,1,0.3l-0.5,1c-0.2-0.2-0.4-0.3-0.7-0.3
					c-1.2,0-1.3,1.6-1.3,2.4v3.3h-1.1V15h1.1V15.8z"/>
				<path class="st22" d="M325.1,21.6h-1.2V11.1h1.7c0.9,0,1.9,0,2.6,0.6c0.8,0.5,1.2,1.5,1.2,2.4c0,0.9-0.4,1.7-1,2.3
					c-0.7,0.6-1.6,0.7-2.5,0.7h-0.9V21.6z M325.1,15.9h0.8c1.3,0,2.4-0.4,2.4-1.9c0-1.7-1.4-1.9-2.8-1.9h-0.4V15.9z"/>
				<path class="st22" d="M330.8,18.4c0-1.9,1.5-3.5,3.5-3.5c1.9,0,3.5,1.6,3.5,3.5c0,1.9-1.5,3.5-3.5,3.5
					C332.3,21.8,330.8,20.3,330.8,18.4z M331.9,18.3c0,1.3,1,2.4,2.3,2.4s2.3-1.1,2.3-2.4c0-1.3-1-2.4-2.3-2.4S331.9,17,331.9,18.3z
					"/>
				<path class="st22" d="M340.8,15.8L340.8,15.8c0.5-0.6,1.1-1,1.9-1c1.8,0,2.2,1.3,2.2,2.9v3.9h-1.1v-3.7c0-1.1-0.1-2-1.4-2
					c-1.5,0-1.6,1.4-1.6,2.6v3.1h-1.1V15h1.1V15.8z"/>
				<path class="st22" d="M348.6,21.6h-1.1v-5.6h-0.7v-1h0.7v-2.4h1.1V15h1.2v1h-1.2V21.6z"/>
				<path class="st22" d="M350.5,18.4c0-1.9,1.5-3.5,3.5-3.5c1.9,0,3.5,1.6,3.5,3.5c0,1.9-1.5,3.5-3.5,3.5
					C352.1,21.8,350.5,20.3,350.5,18.4z M351.7,18.3c0,1.3,1,2.4,2.3,2.4s2.3-1.1,2.3-2.4c0-1.3-1-2.4-2.3-2.4S351.7,17,351.7,18.3z
					"/>
				<path class="st22" d="M360.6,21.6h-1.1v-5.6h-0.7v-1h0.7v-2.4h1.1V15h1.2v1h-1.2V21.6z"/>
				<path class="st22" d="M362.5,18.4c0-1.9,1.5-3.5,3.5-3.5c1.9,0,3.5,1.6,3.5,3.5c0,1.9-1.5,3.5-3.5,3.5
					C364.1,21.8,362.5,20.3,362.5,18.4z M363.6,18.3c0,1.3,1,2.4,2.3,2.4s2.3-1.1,2.3-2.4c0-1.3-1-2.4-2.3-2.4S363.6,17,363.6,18.3z
					"/>
				<path class="st22" d="M376.3,17L376.3,17c-0.5-0.7-1.2-1.1-2.1-1.1c-1.4,0-2.3,1.1-2.3,2.4c0,1.3,0.9,2.4,2.3,2.4
					c0.9,0,1.6-0.4,2.1-1.1h0v1.5c-0.6,0.4-1.3,0.7-2.1,0.7c-2,0-3.5-1.5-3.5-3.5c0-2,1.6-3.5,3.5-3.5c0.7,0,1.4,0.2,2,0.7V17z"/>
				<path class="st22" d="M391.1,13.4c-0.8-0.9-2-1.4-3.2-1.4c-2.4,0-4.3,2-4.3,4.4c0,2.3,1.9,4.4,4.3,4.4c1.2,0,2.4-0.6,3.2-1.4
					v1.5c-0.9,0.7-2,1-3.2,1c-3,0-5.5-2.4-5.5-5.4c0-3,2.5-5.5,5.5-5.5c1.2,0,2.2,0.3,3.2,1V13.4z"/>
				<path class="st22" d="M392.8,18.4c0-1.9,1.5-3.5,3.5-3.5c1.9,0,3.5,1.6,3.5,3.5c0,1.9-1.5,3.5-3.5,3.5
					C394.4,21.8,392.8,20.3,392.8,18.4z M394,18.3c0,1.3,1,2.4,2.3,2.4c1.4,0,2.3-1.1,2.3-2.4c0-1.3-1-2.4-2.3-2.4
					C394.9,15.9,394,17,394,18.3z"/>
				<path class="st22" d="M402.7,18.7c0,1.1,0.1,2.1,1.5,2.1s1.5-1,1.5-2.1V15h1.1v3.8c0,1.8-0.7,3-2.6,3s-2.6-1.2-2.6-3V15h1.1
					V18.7z"/>
				<path class="st22" d="M410.4,15.8L410.4,15.8c0.5-0.6,1.1-1,1.9-1c1.8,0,2.2,1.3,2.2,2.9v3.9h-1.1v-3.7c0-1.1-0.1-2-1.4-2
					c-1.5,0-1.6,1.4-1.6,2.6v3.1h-1.1V15h1.1V15.8z"/>
				<path class="st22" d="M418.2,21.6h-1.1v-5.6h-0.7v-1h0.7v-2.4h1.1V15h1.2v1h-1.2V21.6z"/>
				<path class="st22" d="M419.7,15h1.3l2.3,4.7l2.1-4.7h1.3l-4.9,10.3h-1.3l2.1-4.3L419.7,15z"/>
				<path class="st22" d="M429.1,20.5l-1.6,3.6l-0.8-0.3l1.3-3.6L429.1,20.5z"/>
				<path class="st22" d="M438.9,11.1c-0.8,2.1-1.1,4.4-1.1,6.7c0,2.3,0.3,4.6,1.1,6.7l-1,0.5c-1-2.1-1.3-4.9-1.3-7.2
					c0-2.3,0.3-5.1,1.3-7.2L438.9,11.1z"/>
				<path class="st22" d="M447.1,20.6v1.1h-6.9l5-5.9c0.4-0.5,0.7-1.1,0.7-1.8c0-1.2-1-2-2.1-2c-1.3,0-2.1,0.9-2.1,2.2h-1.2
					c0-1.9,1.4-3.3,3.3-3.3c1.8,0,3.3,1.3,3.3,3.1c0,0.9-0.3,1.6-0.8,2.2l-3.7,4.3H447.1z"/>
				<path class="st22" d="M456.8,16.4c0,2.6-1.4,5.5-3.8,5.5c-2.4,0-3.8-2.8-3.8-5.5c0-2.2,1.1-5.5,3.8-5.5
					C455.7,10.9,456.8,14.2,456.8,16.4z M450.4,16.4c0,1.5,0.7,4.3,2.6,4.3c2,0,2.6-2.8,2.6-4.3c0-1.5-0.6-4.5-2.6-4.5
					C451.1,12,450.4,14.9,450.4,16.4z"/>
				<path class="st22" d="M459.9,12.2l0.6-1.1h2.3v10.6h-1.2v-9.5H459.9z"/>
				<path class="st22" d="M472.7,11.5l-2.4,3.3l0,0c0.1-0.1,0.3-0.1,0.4-0.1s0.3,0,0.5,0c1.9,0,3.4,1.6,3.4,3.5c0,2-1.7,3.6-3.7,3.6
					c-2,0-3.7-1.6-3.7-3.6c0-1,0.4-1.8,1-2.5l3.5-4.8L472.7,11.5z M473.5,18.2c0-1.4-1.1-2.4-2.5-2.4c-1.4,0-2.5,1.1-2.5,2.4
					c0,1.4,1.1,2.5,2.5,2.5S473.5,19.6,473.5,18.2z"/>
				<path class="st22" d="M484.3,16.4c-1.3-0.5-2.5-1.2-2.5-2.8c0-1.5,1.1-2.5,2.5-2.7V9.5h0.9V11c1,0.1,1.8,0.8,2.2,1.6l-0.9,0.6
					c-0.3-0.5-0.7-1-1.3-1.1v3.5c1.4,0.6,2.6,1.3,2.6,3c0,1.6-1.1,2.9-2.6,3.2v1.5h-0.9v-1.5c-1.5-0.1-2.8-1.2-3-2.7l1.1-0.3
					c0.1,1,0.9,1.9,1.9,1.9V16.4z M484.3,12.1c-0.7,0.1-1.3,0.8-1.3,1.6s0.7,1.2,1.3,1.5V12.1z M485.3,20.6c0.9-0.3,1.4-1.1,1.4-2
					c0-0.9-0.7-1.4-1.4-1.8V20.6z"/>
				<path class="st22" d="M490.7,10.6c1,2.1,1.3,4.9,1.3,7.2c0,2.3-0.3,5.1-1.3,7.2l-1-0.5c0.8-2.1,1.1-4.4,1.1-6.7
					c0-2.3-0.3-4.6-1.1-6.7L490.7,10.6z"/>
			</g>
			<g class="st21">
			</g>
		</g>
		<g>
			<defs>
				<polygon id="SVGID_37_" points="0,360 576,360 576,0 0,0 0,360 				"/>
			</defs>
			<clipPath id="SVGID_38_">
				<use xlink:href="#SVGID_37_"  style="overflow:visible;"/>
			</clipPath>
			<polygon class="st23" points="153,342.7 178.2,342.7 178.2,348 153,348 153,342.7 			"/>
		</g>
		<g>
			<defs>
				<rect id="SVGID_39_" x="0" width="576" height="360"/>
			</defs>
			<clipPath id="SVGID_40_">
				<use xlink:href="#SVGID_39_"  style="overflow:visible;"/>
			</clipPath>
			<g class="st24">
				<path class="st25" d="M182.5,347.8h-0.8V341h1c1.3,0,2.5,0.3,2.5,1.9c0,1-0.7,1.8-1.7,1.9l2.2,3h-0.9l-2.1-3h-0.2V347.8z
					 M182.5,344.1h0.2c0.9,0,1.7-0.2,1.7-1.2c0-1.1-0.8-1.2-1.7-1.2h-0.2V344.1z"/>
				<path class="st25" d="M187,345.8c0,0.8,0.6,1.4,1.4,1.4c0.6,0,1-0.4,1.3-0.9l0.6,0.4c-0.4,0.8-1.1,1.2-2,1.2
					c-1.3,0-2.1-1-2.1-2.2c0-1.3,0.7-2.3,2.1-2.3c1.4,0,2.1,1.1,2,2.4H187z M189.5,345.2c-0.1-0.6-0.6-1.1-1.2-1.1
					c-0.6,0-1.2,0.5-1.3,1.1H189.5z"/>
				<path class="st25" d="M194.4,344.8L194.4,344.8c-0.4-0.4-0.8-0.7-1.3-0.7c-0.9,0-1.5,0.7-1.5,1.6c0,0.8,0.6,1.6,1.5,1.6
					c0.6,0,1-0.3,1.4-0.7h0v1c-0.4,0.3-0.8,0.4-1.3,0.4c-1.3,0-2.3-1-2.3-2.2c0-1.3,1-2.2,2.3-2.2c0.5,0,0.9,0.2,1.3,0.4V344.8z"/>
				<path class="st25" d="M195.9,345.8c0,0.8,0.6,1.4,1.4,1.4c0.6,0,1-0.4,1.3-0.9l0.6,0.4c-0.4,0.8-1.1,1.2-2,1.2
					c-1.3,0-2.1-1-2.1-2.2c0-1.3,0.7-2.3,2.1-2.3c1.4,0,2.1,1.1,2,2.4H195.9z M198.4,345.2c-0.1-0.6-0.6-1.1-1.2-1.1
					c-0.6,0-1.2,0.5-1.3,1.1H198.4z"/>
				<path class="st25" d="M201.9,344.5c-0.1-0.2-0.3-0.4-0.6-0.4c-0.3,0-0.5,0.2-0.5,0.5c0,0.4,0.5,0.5,1,0.7s1,0.5,1,1.2
					c0,0.8-0.6,1.4-1.4,1.4c-0.7,0-1.3-0.4-1.5-1.1l0.6-0.3c0.2,0.4,0.4,0.7,0.9,0.7c0.4,0,0.7-0.3,0.7-0.6c0-0.9-1.9-0.6-1.9-2
					c0-0.7,0.6-1.2,1.3-1.2c0.5,0,0.9,0.3,1.1,0.8L201.9,344.5z"/>
				<path class="st25" d="M205.5,344.5c-0.1-0.2-0.3-0.4-0.6-0.4c-0.3,0-0.5,0.2-0.5,0.5c0,0.4,0.5,0.5,1,0.7s1,0.5,1,1.2
					c0,0.8-0.6,1.4-1.4,1.4c-0.7,0-1.3-0.4-1.5-1.1l0.6-0.3c0.2,0.4,0.4,0.7,0.9,0.7c0.4,0,0.7-0.3,0.7-0.6c0-0.9-1.9-0.6-1.9-2
					c0-0.7,0.6-1.2,1.3-1.2c0.5,0,0.9,0.3,1.1,0.8L205.5,344.5z"/>
				<path class="st25" d="M208.4,342c0,0.3-0.2,0.5-0.5,0.5c-0.3,0-0.5-0.2-0.5-0.5c0-0.3,0.2-0.5,0.5-0.5
					C208.2,341.5,208.4,341.7,208.4,342z M208.2,347.8h-0.7v-4.2h0.7V347.8z"/>
				<path class="st25" d="M209.4,345.7c0-1.2,1-2.2,2.2-2.2s2.2,1,2.2,2.2s-1,2.2-2.2,2.2S209.4,346.9,209.4,345.7z M210.1,345.7
					c0,0.9,0.6,1.6,1.5,1.6s1.5-0.7,1.5-1.6c0-0.9-0.6-1.6-1.5-1.6S210.1,344.8,210.1,345.7z"/>
				<path class="st25" d="M215.5,344.1L215.5,344.1c0.3-0.4,0.7-0.6,1.2-0.6c1.2,0,1.4,0.8,1.4,1.8v2.5h-0.7v-2.4
					c0-0.7-0.1-1.3-0.9-1.3c-1,0-1.1,0.9-1.1,1.7v2h-0.7v-4.2h0.7V344.1z"/>
			</g>
		</g>
		<g>
			<defs>
				<polygon id="SVGID_41_" points="0,360 576,360 576,0 0,0 0,360 				"/>
			</defs>
			<clipPath id="SVGID_42_">
				<use xlink:href="#SVGID_41_"  style="overflow:visible;"/>
			</clipPath>
			<line class="st26" x1="235.1" y1="345.4" x2="260.3" y2="345.4"/>
		</g>
		<g>
			<defs>
				<rect id="SVGID_43_" x="0" width="576" height="360"/>
			</defs>
			<clipPath id="SVGID_44_">
				<use xlink:href="#SVGID_43_"  style="overflow:visible;"/>
			</clipPath>
			<g class="st27">
				<path class="st25" d="M264.7,345.9l-0.8,1.9h-0.8l3.1-7.1l3.1,7.1h-0.8l-0.8-1.9H264.7z M266.2,342.4l-1.2,2.7h2.3L266.2,342.4z
					"/>
				<path class="st25" d="M271.3,346.4l1.3-2.8h0.8l-2.1,4.5l-2.1-4.5h0.8L271.3,346.4z"/>
				<path class="st25" d="M274.5,345.8c0,0.8,0.6,1.4,1.4,1.4c0.6,0,1-0.4,1.3-0.9l0.6,0.4c-0.4,0.8-1.1,1.2-2,1.2
					c-1.3,0-2.1-1-2.1-2.2c0-1.3,0.7-2.3,2.1-2.3c1.4,0,2.1,1.1,2,2.4H274.5z M277.1,345.2c-0.1-0.6-0.6-1.1-1.2-1.1
					c-0.6,0-1.2,0.5-1.3,1.1H277.1z"/>
				<path class="st25" d="M279.5,344L279.5,344c0.3-0.3,0.5-0.6,1-0.6c0.2,0,0.4,0.1,0.6,0.2l-0.3,0.7c-0.1-0.1-0.2-0.2-0.4-0.2
					c-0.8,0-0.8,1-0.8,1.6v2.1h-0.7v-4.2h0.7V344z"/>
				<path class="st25" d="M285.7,347.8H285v-0.6h0c-0.4,0.5-0.9,0.7-1.5,0.7c-1.2,0-2-1.1-2-2.2c0-1.2,0.8-2.2,2-2.2
					c0.6,0,1.1,0.3,1.4,0.7h0v-0.6h0.7V347.8z M282.2,345.6c0,0.8,0.5,1.6,1.4,1.6c0.9,0,1.4-0.7,1.4-1.6c0-0.8-0.5-1.5-1.4-1.5
					C282.7,344.1,282.2,344.8,282.2,345.6z"/>
				<path class="st25" d="M290.8,347.6c0,0.7,0,1.3-0.4,1.8c-0.4,0.5-1,0.7-1.6,0.7c-1.2,0-2.1-0.7-2.1-1.9h0.7
					c0,0.8,0.6,1.3,1.4,1.3c1.1,0,1.4-0.8,1.4-1.8v-0.5h0c-0.3,0.4-0.9,0.7-1.5,0.7c-1.2,0-2-1-2-2.2c0-1.2,0.8-2.3,2-2.3
					c0.6,0,1.1,0.3,1.4,0.7h0v-0.6h0.7V347.6z M287.3,345.6c0,0.8,0.5,1.6,1.4,1.6c0.9,0,1.4-0.7,1.4-1.6c0-0.8-0.5-1.5-1.4-1.5
					C287.9,344.1,287.3,344.8,287.3,345.6z"/>
				<path class="st25" d="M292.6,345.8c0,0.8,0.6,1.4,1.4,1.4c0.6,0,1-0.4,1.3-0.9l0.6,0.4c-0.4,0.8-1.1,1.2-2,1.2
					c-1.3,0-2.1-1-2.1-2.2c0-1.3,0.7-2.3,2.1-2.3c1.4,0,2.1,1.1,2,2.4H292.6z M295.2,345.2c-0.1-0.6-0.6-1.1-1.2-1.1
					c-0.6,0-1.2,0.5-1.3,1.1H295.2z"/>
				<path class="st25" d="M300.7,345.9l-0.8,1.9h-0.8l3.1-7.1l3.1,7.1h-0.8l-0.8-1.9H300.7z M302.2,342.4l-1.2,2.7h2.3L302.2,342.4z
					"/>
				<path class="st25" d="M306.7,344.1L306.7,344.1c0.3-0.4,0.7-0.6,1.2-0.6c1.2,0,1.4,0.8,1.4,1.8v2.5h-0.7v-2.4
					c0-0.7-0.1-1.3-0.9-1.3c-1,0-1.1,0.9-1.1,1.7v2h-0.7v-4.2h0.7V344.1z"/>
				<path class="st25" d="M311.5,344.1L311.5,344.1c0.3-0.4,0.7-0.6,1.2-0.6c1.2,0,1.4,0.8,1.4,1.8v2.5h-0.7v-2.4
					c0-0.7-0.1-1.3-0.9-1.3c-1,0-1.1,0.9-1.1,1.7v2h-0.7v-4.2h0.7V344.1z"/>
				<path class="st25" d="M316.2,345.9c0,0.7,0.1,1.3,1,1.3s1-0.6,1-1.3v-2.4h0.7v2.4c0,1.1-0.4,1.9-1.7,1.9s-1.7-0.8-1.7-1.9v-2.4
					h0.7V345.9z"/>
				<path class="st25" d="M324,347.8h-0.7v-0.6h0c-0.4,0.5-0.9,0.7-1.5,0.7c-1.2,0-2-1.1-2-2.2c0-1.2,0.8-2.2,2-2.2
					c0.6,0,1.1,0.3,1.5,0.7h0v-0.6h0.7V347.8z M320.5,345.6c0,0.8,0.5,1.6,1.4,1.6c0.9,0,1.4-0.7,1.4-1.6c0-0.8-0.5-1.5-1.4-1.5
					C321,344.1,320.5,344.8,320.5,345.6z"/>
				<path class="st25" d="M326,347.8h-0.7v-7.4h0.7V347.8z"/>
				<path class="st25" d="M332.1,346.1l2.2-5.4l2.2,5.4l1.8-5.1h0.8l-2.6,7.1l-2.2-5.5l-2.2,5.5l-2.6-7.1h0.8L332.1,346.1z"/>
				<path class="st25" d="M343.8,347.8h-0.7v-0.6h0c-0.4,0.5-0.9,0.7-1.5,0.7c-1.2,0-2-1.1-2-2.2c0-1.2,0.8-2.2,2-2.2
					c0.6,0,1.1,0.3,1.5,0.7h0v-0.6h0.7V347.8z M340.3,345.6c0,0.8,0.5,1.6,1.4,1.6c0.9,0,1.4-0.7,1.4-1.6c0-0.8-0.5-1.5-1.4-1.5
					C340.8,344.1,340.3,344.8,340.3,345.6z"/>
				<path class="st25" d="M349,347.6c0,0.7,0,1.3-0.4,1.8c-0.4,0.5-1,0.7-1.6,0.7c-1.2,0-2.1-0.7-2.1-1.9h0.7c0,0.8,0.6,1.3,1.4,1.3
					c1.1,0,1.4-0.8,1.4-1.8v-0.5h0c-0.3,0.4-0.9,0.7-1.5,0.7c-1.2,0-2-1-2-2.2c0-1.2,0.8-2.3,2-2.3c0.6,0,1.1,0.3,1.4,0.7h0v-0.6
					h0.7V347.6z M345.5,345.6c0,0.8,0.5,1.6,1.4,1.6c0.9,0,1.4-0.7,1.4-1.6c0-0.8-0.5-1.5-1.4-1.5
					C346.1,344.1,345.5,344.8,345.5,345.6z"/>
				<path class="st25" d="M350.7,345.8c0,0.8,0.6,1.4,1.4,1.4c0.6,0,1-0.4,1.3-0.9l0.6,0.4c-0.4,0.8-1.1,1.2-2,1.2
					c-1.3,0-2.1-1-2.1-2.2c0-1.3,0.7-2.3,2.1-2.3c1.4,0,2.1,1.1,2,2.4H350.7z M353.3,345.2c-0.1-0.6-0.6-1.1-1.2-1.1
					c-0.6,0-1.2,0.5-1.3,1.1H353.3z"/>
			</g>
		</g>
		<g>
			<defs>
				<polygon id="SVGID_45_" points="0,360 576,360 576,0 0,0 0,360 				"/>
			</defs>
			<clipPath id="SVGID_46_">
				<use xlink:href="#SVGID_45_"  style="overflow:visible;"/>
			</clipPath>
		</g>
		<g>
			<defs>
				<rect id="SVGID_47_" x="0" width="576" height="360"/>
			</defs>
			<clipPath id="SVGID_48_">
				<use xlink:href="#SVGID_47_"  style="overflow:visible;"/>
			</clipPath>
			<g class="st28">
			</g>
		</g>
		<polygon class="st29" points="0,0.1 576,0.1 576,360.1 0,360.1 0,0.1 		"/>
	</g>
	<g>
		<g>
			<line class="st30" x1="208.5" y1="276.4" x2="210" y2="276.4"/>
			<line class="st31" x1="213" y1="276.4" x2="551" y2="276.4"/>
			<line class="st30" x1="552.5" y1="276.4" x2="554" y2="276.4"/>
		</g>
	</g>
	<g>
		<path d="M136.2,227.7H135v-10.6h1.7c0.9,0,1.9,0,2.6,0.6c0.8,0.5,1.2,1.5,1.2,2.4c0,0.9-0.4,1.7-1,2.3c-0.7,0.6-1.6,0.7-2.5,0.7
			h-0.9V227.7z M136.2,222h0.8c1.3,0,2.4-0.4,2.4-1.9c0-1.7-1.4-1.9-2.8-1.9h-0.4V222z"/>
		<path d="M143.1,221.8L143.1,221.8c0.4-0.5,0.8-0.9,1.5-0.9c0.4,0,0.7,0.1,1,0.3l-0.5,1c-0.2-0.2-0.4-0.3-0.7-0.3
			c-1.2,0-1.3,1.6-1.3,2.4v3.3H142v-6.6h1.1V221.8z"/>
		<path d="M146.2,224.4c0-1.9,1.5-3.5,3.5-3.5c1.9,0,3.5,1.6,3.5,3.5c0,1.9-1.5,3.5-3.5,3.5C147.7,227.9,146.2,226.4,146.2,224.4z
			 M147.3,224.4c0,1.3,1,2.4,2.3,2.4s2.3-1.1,2.3-2.4c0-1.3-1-2.4-2.3-2.4S147.3,223.1,147.3,224.4z"/>
		<path d="M155.7,222.1L155.7,222.1c0.6-0.7,1.4-1.1,2.3-1.1c1.9,0,3.2,1.7,3.2,3.5c0,1.9-1.2,3.5-3.2,3.5c-0.9,0-1.7-0.4-2.3-1.1h0
			v4.6h-1.1v-10.3h1.1V222.1z M155.7,224.4c0,1.3,0.8,2.5,2.2,2.5c1.4,0,2.2-1.2,2.2-2.5c0-1.3-0.8-2.4-2.2-2.4
			C156.5,222,155.7,223.1,155.7,224.4z"/>
		<path d="M173.5,226.6v1.1h-6.9l5-5.9c0.4-0.5,0.7-1.1,0.7-1.8c0-1.2-1-2-2.1-2c-1.3,0-2.1,0.9-2.1,2.2h-1.2c0-1.9,1.4-3.3,3.3-3.3
			c1.8,0,3.3,1.3,3.3,3.1c0,0.9-0.3,1.6-0.8,2.2l-3.7,4.3H173.5z"/>
		<path d="M189.9,222.4c0,1.4-0.1,2.6-1.1,3.7s-2.4,1.8-3.9,1.8c-3,0-5.4-2.5-5.4-5.4c0-3,2.5-5.5,5.5-5.5c1.9,0,3.4,0.8,4.5,2.3
			l-0.9,0.8c-0.9-1.3-2.1-2-3.6-2c-2.4,0-4.3,2-4.3,4.4c0,1.1,0.4,2.2,1.2,3c0.8,0.8,1.9,1.3,3,1.3c1.8,0,3.8-1.3,3.8-3.3h-3.1v-1.1
			H189.9z"/>
		<path d="M191,224.4c0-1.9,1.5-3.5,3.5-3.5c1.9,0,3.5,1.6,3.5,3.5c0,1.9-1.5,3.5-3.5,3.5S191,226.4,191,224.4z M192.1,224.4
			c0,1.3,1,2.4,2.3,2.4c1.4,0,2.3-1.1,2.3-2.4c0-1.3-1-2.4-2.3-2.4C193.1,222,192.1,223.1,192.1,224.4z"/>
		<path d="M200,224.7c0,1.2,0.9,2.2,2.2,2.2c1,0,1.6-0.6,2-1.4l1,0.5c-0.6,1.2-1.7,1.9-3,1.9c-2,0-3.2-1.5-3.2-3.4
			c0-2,1.1-3.6,3.2-3.6c2.1,0,3.2,1.8,3.1,3.7H200z M204,223.7c-0.2-1-1-1.7-1.9-1.7c-1,0-1.9,0.8-2,1.7H204z"/>
		<path d="M209.4,222.7c-0.2-0.4-0.5-0.7-0.9-0.7c-0.4,0-0.8,0.3-0.8,0.7c0,0.6,0.8,0.8,1.5,1.2c0.8,0.3,1.5,0.8,1.5,1.9
			c0,1.3-1,2.1-2.2,2.1c-1.1,0-2-0.6-2.3-1.7l1-0.4c0.3,0.6,0.6,1.1,1.3,1.1c0.6,0,1.1-0.4,1.1-1c0-1.5-3-1-3-3c0-1.1,0.9-1.9,2-1.9
			c0.8,0,1.5,0.5,1.8,1.2L209.4,222.7z"/>
		<path d="M218.3,218.6c0,0.4-0.4,0.8-0.8,0.8s-0.8-0.4-0.8-0.8c0-0.4,0.4-0.8,0.8-0.8S218.3,218.2,218.3,218.6z M218,227.7h-1.1
			v-6.6h1.1V227.7z"/>
		<path d="M221.5,221.9L221.5,221.9c0.5-0.6,1.1-1,1.9-1c1.8,0,2.2,1.3,2.2,2.9v3.9h-1.1V224c0-1.1-0.1-2-1.4-2
			c-1.5,0-1.6,1.4-1.6,2.6v3.1h-1.1v-6.6h1.1V221.9z"/>
		<path d="M229,227.7h-1.1v-5.6h-0.7v-1h0.7v-2.4h1.1v2.4h1.2v1H229V227.7z"/>
		<path d="M230.6,224.4c0-1.9,1.5-3.5,3.5-3.5c1.9,0,3.5,1.6,3.5,3.5c0,1.9-1.5,3.5-3.5,3.5C232.1,227.9,230.6,226.4,230.6,224.4z
			 M231.7,224.4c0,1.3,1,2.4,2.3,2.4s2.3-1.1,2.3-2.4c0-1.3-1-2.4-2.3-2.4S231.7,223.1,231.7,224.4z"/>
		<path d="M243.4,217.1h5.5v1.1h-4.3v3.1h4.2v1.1h-4.2v4.2h4.3v1.1h-5.5V217.1z"/>
		<path d="M252.1,227.7H251v-5.6h-0.6v-1h0.6v-2.6c0-0.5,0-1.2,0.3-1.7c0.4-0.6,1-0.8,1.7-0.8c0.3,0,0.5,0.1,0.8,0.1v1.1
			c-0.3-0.1-0.5-0.2-0.8-0.2c-0.9,0-0.9,0.6-0.9,1.8v2.2h1.7v1h-1.7V227.7z"/>
		<path d="M255.9,227.7h-1.1v-5.6h-0.6v-1h0.6v-2.6c0-0.5,0-1.2,0.3-1.7c0.4-0.6,1-0.8,1.7-0.8c0.3,0,0.5,0.1,0.8,0.1v1.1
			c-0.3-0.1-0.5-0.2-0.8-0.2c-0.9,0-0.9,0.6-0.9,1.8v2.2h1.7v1h-1.7V227.7z"/>
		<path d="M259.1,224.7c0,1.2,0.9,2.2,2.2,2.2c1,0,1.6-0.6,2-1.4l1,0.5c-0.6,1.2-1.7,1.9-3,1.9c-2,0-3.2-1.5-3.2-3.4
			c0-2,1.1-3.6,3.2-3.6c2.1,0,3.2,1.8,3.1,3.7H259.1z M263.1,223.7c-0.2-1-1-1.7-1.9-1.7c-1,0-1.9,0.8-2,1.7H263.1z"/>
		<path d="M270.7,223.1L270.7,223.1c-0.5-0.7-1.2-1.1-2.1-1.1c-1.4,0-2.3,1.1-2.3,2.4c0,1.3,0.9,2.4,2.3,2.4c0.9,0,1.6-0.4,2.1-1.1
			h0v1.5c-0.6,0.4-1.3,0.7-2.1,0.7c-2,0-3.5-1.5-3.5-3.5c0-2,1.6-3.5,3.5-3.5c0.7,0,1.4,0.2,2,0.7V223.1z"/>
		<path d="M273.7,227.7h-1.1v-5.6h-0.7v-1h0.7v-2.4h1.1v2.4h1.2v1h-1.2V227.7z"/>
	</g>
	<g>
		<path d="M306.2,291.6l0.6-1.1h2.3v10.6h-1.2v-9.5H306.2z"/>
		<path d="M315.1,300.6l2.4-3.4l0,0c-0.3,0.1-0.6,0.1-0.9,0.1c-1.9,0-3.4-1.6-3.4-3.5c0-2,1.7-3.6,3.6-3.6c2,0,3.7,1.6,3.7,3.6
			c0,1-0.4,1.8-1,2.5l-3.5,4.8L315.1,300.6z M314.4,293.9c0,1.4,1.1,2.4,2.5,2.4c1.4,0,2.5-1.1,2.5-2.4c0-1.4-1.1-2.5-2.5-2.5
			C315.5,291.4,314.4,292.5,314.4,293.9z"/>
		<path d="M323.8,300.6l2.4-3.4l0,0c-0.3,0.1-0.6,0.1-0.9,0.1c-1.9,0-3.4-1.6-3.4-3.5c0-2,1.7-3.6,3.6-3.6c2,0,3.7,1.6,3.7,3.6
			c0,1-0.4,1.8-1,2.5l-3.5,4.8L323.8,300.6z M323.1,293.9c0,1.4,1.1,2.4,2.5,2.4c1.4,0,2.5-1.1,2.5-2.4c0-1.4-1.1-2.5-2.5-2.5
			C324.1,291.4,323.1,292.5,323.1,293.9z"/>
		<path d="M337.2,293.2c0,0.9-0.5,1.9-1.3,2.3c1,0.4,1.6,1.5,1.6,2.5c0,1.8-1.4,3.1-3.2,3.1c-1.8,0-3.2-1.3-3.2-3.1
			c0-1.1,0.6-2.1,1.6-2.5c-0.8-0.5-1.3-1.4-1.3-2.3c0-1.7,1.3-2.9,3-2.9C335.9,290.3,337.2,291.5,337.2,293.2z M332.2,298.1
			c0,1.1,0.9,2,2,2c1.2,0,2-0.9,2-2s-0.9-2-2-2C333.1,296.1,332.2,297,332.2,298.1z M332.4,293.2c0,1,0.8,1.9,1.8,1.9
			c1,0,1.8-0.8,1.8-1.9c0-1-0.8-1.8-1.8-1.8C333.2,291.4,332.4,292.2,332.4,293.2z"/>
		<path d="M345.5,298.1l-1.3,3h-1.3l4.9-11.1l4.8,11.1h-1.3l-1.2-3H345.5z M347.8,292.7L346,297h3.6L347.8,292.7z"/>
		<path d="M358.6,300.1L358.6,300.1c-0.6,0.7-1.4,1.1-2.3,1.1c-1.9,0-3.2-1.6-3.2-3.5c0-1.9,1.2-3.5,3.2-3.5c0.9,0,1.7,0.4,2.3,1.1
			h0v-5.9h1.1v11.6h-1.1V300.1z M354.3,297.7c0,1.3,0.8,2.5,2.2,2.5c1.4,0,2.2-1.2,2.2-2.5c0-1.3-0.8-2.4-2.2-2.4
			C355.2,295.3,354.3,296.5,354.3,297.7z"/>
		<path d="M363.4,292c0,0.4-0.4,0.8-0.8,0.8s-0.8-0.4-0.8-0.8c0-0.4,0.4-0.8,0.8-0.8S363.4,291.5,363.4,292z M363.2,304.8h-1.1
			v-10.3h1.1V304.8z"/>
		<path d="M366.6,298.1c0,1.1,0.1,2.1,1.5,2.1s1.5-1,1.5-2.1v-3.7h1.1v3.8c0,1.8-0.7,3-2.6,3s-2.6-1.2-2.6-3v-3.8h1.1V298.1z"/>
		<path d="M375.4,296c-0.2-0.4-0.5-0.7-0.9-0.7c-0.4,0-0.8,0.3-0.8,0.7c0,0.6,0.8,0.8,1.5,1.2c0.8,0.3,1.5,0.8,1.5,1.9
			c0,1.3-1,2.1-2.2,2.1c-1.1,0-2-0.6-2.3-1.7l1-0.4c0.3,0.6,0.6,1.1,1.3,1.1c0.6,0,1.1-0.4,1.1-1c0-1.5-3-1-3-3c0-1.1,0.9-1.9,2-1.9
			c0.8,0,1.5,0.5,1.8,1.2L375.4,296z"/>
		<path d="M379.5,301.1h-1.1v-5.6h-0.7v-1h0.7v-2.4h1.1v2.4h1.2v1h-1.2V301.1z"/>
		<path d="M382.2,298c0,1.2,0.9,2.2,2.2,2.2c1,0,1.6-0.6,2-1.4l1,0.5c-0.6,1.2-1.7,1.9-3,1.9c-2,0-3.2-1.5-3.2-3.4
			c0-2,1.1-3.6,3.2-3.6c2.1,0,3.2,1.8,3.1,3.7H382.2z M386.2,297c-0.2-1-1-1.7-1.9-1.7c-1,0-1.9,0.8-2,1.7H386.2z"/>
		<path d="M393.9,300.1L393.9,300.1c-0.6,0.7-1.4,1.1-2.3,1.1c-1.9,0-3.2-1.6-3.2-3.5c0-1.9,1.2-3.5,3.2-3.5c0.9,0,1.7,0.4,2.3,1.1
			h0v-5.9h1.1v11.6h-1.1V300.1z M389.6,297.7c0,1.3,0.8,2.5,2.2,2.5c1.4,0,2.2-1.2,2.2-2.5c0-1.3-0.8-2.4-2.2-2.4
			C390.4,295.3,389.6,296.5,389.6,297.7z"/>
		<path d="M403,298.1l-1.3,3h-1.3l4.9-11.1l4.8,11.1h-1.3l-1.2-3H403z M405.3,292.7l-1.8,4.2h3.6L405.3,292.7z"/>
		<path d="M412.8,298.9l2-4.4h1.3l-3.2,7l-3.2-7h1.3L412.8,298.9z"/>
		<path d="M417.7,298c0,1.2,0.9,2.2,2.2,2.2c1,0,1.6-0.6,2-1.4l1,0.5c-0.6,1.2-1.7,1.9-3,1.9c-2,0-3.2-1.5-3.2-3.4
			c0-2,1.1-3.6,3.2-3.6c2.1,0,3.2,1.8,3.1,3.7H417.7z M421.7,297c-0.2-1-1-1.7-1.9-1.7c-1,0-1.9,0.8-2,1.7H421.7z"/>
		<path d="M425.5,295.2L425.5,295.2c0.4-0.5,0.8-0.9,1.5-0.9c0.4,0,0.7,0.1,1,0.3l-0.5,1c-0.2-0.2-0.4-0.3-0.7-0.3
			c-1.2,0-1.3,1.6-1.3,2.4v3.3h-1.1v-6.6h1.1V295.2z"/>
		<path d="M435.2,301.1H434v-0.9h0c-0.6,0.7-1.3,1.1-2.3,1.1c-1.9,0-3.2-1.6-3.2-3.5c0-1.9,1.2-3.5,3.2-3.5c0.9,0,1.7,0.4,2.3,1.1h0
			v-0.9h1.1V301.1z M429.7,297.7c0,1.3,0.8,2.5,2.2,2.5c1.4,0,2.2-1.2,2.2-2.5c0-1.3-0.8-2.4-2.2-2.4
			C430.6,295.3,429.7,296.5,429.7,297.7z"/>
		<path d="M443.2,300.7c0,1.1,0,2-0.7,2.8c-0.6,0.8-1.6,1.2-2.6,1.2c-1.8,0-3.2-1.2-3.2-3h1.1c0,1.2,0.9,2,2.1,2
			c1.7,0,2.1-1.3,2.1-2.8v-0.8h0c-0.5,0.7-1.4,1.1-2.3,1.1c-1.9,0-3.1-1.6-3.1-3.5c0-1.9,1.2-3.5,3.2-3.5c0.9,0,1.7,0.4,2.2,1.1h0
			v-0.9h1.1V300.7z M437.8,297.7c0,1.3,0.8,2.5,2.2,2.5c1.4,0,2.2-1.2,2.2-2.5c0-1.3-0.8-2.4-2.2-2.4
			C438.6,295.3,437.8,296.5,437.8,297.7z"/>
		<path d="M445.9,298c0,1.2,0.9,2.2,2.2,2.2c1,0,1.6-0.6,2-1.4l1,0.5c-0.6,1.2-1.7,1.9-3,1.9c-2,0-3.2-1.5-3.2-3.4
			c0-2,1.1-3.6,3.2-3.6c2.1,0,3.2,1.8,3.1,3.7H445.9z M449.9,297c-0.2-1-1-1.7-1.9-1.7c-1,0-1.9,0.8-2,1.7H449.9z"/>
		<path d="M460.2,298.4l3.4-8.5l3.4,8.5l2.8-7.9h1.3l-4.1,11.1l-3.4-8.5l-3.4,8.5l-4.1-11.1h1.3L460.2,298.4z"/>
		<path d="M477.2,301.1h-1.1v-0.9h0c-0.6,0.7-1.3,1.1-2.3,1.1c-1.9,0-3.2-1.6-3.2-3.5c0-1.9,1.2-3.5,3.2-3.5c0.9,0,1.7,0.4,2.3,1.1
			h0v-0.9h1.1V301.1z M471.8,297.7c0,1.3,0.8,2.5,2.2,2.5c1.4,0,2.2-1.2,2.2-2.5c0-1.3-0.8-2.4-2.2-2.4
			C472.6,295.3,471.8,296.5,471.8,297.7z"/>
		<path d="M485.2,300.7c0,1.1,0,2-0.7,2.8c-0.6,0.8-1.6,1.2-2.6,1.2c-1.8,0-3.2-1.2-3.2-3h1.1c0,1.2,0.9,2,2.1,2
			c1.7,0,2.1-1.3,2.1-2.8v-0.8h0c-0.5,0.7-1.4,1.1-2.3,1.1c-1.9,0-3.1-1.6-3.1-3.5c0-1.9,1.2-3.5,3.2-3.5c0.9,0,1.7,0.4,2.2,1.1h0
			v-0.9h1.1V300.7z M479.8,297.7c0,1.3,0.8,2.5,2.2,2.5c1.4,0,2.2-1.2,2.2-2.5c0-1.3-0.8-2.4-2.2-2.4
			C480.6,295.3,479.8,296.5,479.8,297.7z"/>
		<path d="M488,298c0,1.2,0.9,2.2,2.2,2.2c1,0,1.6-0.6,2-1.4l1,0.5c-0.6,1.2-1.7,1.9-3,1.9c-2,0-3.2-1.5-3.2-3.4
			c0-2,1.1-3.6,3.2-3.6c2.1,0,3.2,1.8,3.1,3.7H488z M492,297c-0.2-1-1-1.7-1.9-1.7c-1,0-1.9,0.8-2,1.7H492z"/>
		<path d="M496.6,295.1c0,0.4-0.4,0.8-0.8,0.8c-0.4,0-0.8-0.4-0.8-0.8c0-0.4,0.4-0.8,0.8-0.8C496.2,294.3,496.6,294.6,496.6,295.1z
			 M496.6,300.4c0,0.4-0.4,0.8-0.8,0.8c-0.4,0-0.8-0.4-0.8-0.8c0-0.4,0.4-0.8,0.8-0.8C496.2,299.7,496.6,300,496.6,300.4z"/>
		<path d="M506.4,295.8c-1.3-0.5-2.5-1.2-2.5-2.8c0-1.5,1.1-2.5,2.5-2.7v-1.4h0.9v1.4c1,0.1,1.8,0.8,2.2,1.6l-0.9,0.6
			c-0.3-0.5-0.7-1-1.3-1.1v3.5c1.4,0.6,2.6,1.3,2.6,3c0,1.6-1.1,2.9-2.6,3.2v1.5h-0.9v-1.5c-1.5-0.1-2.8-1.2-3-2.7l1.1-0.3
			c0.1,1,0.9,1.9,1.9,1.9V295.8z M506.4,291.5c-0.7,0.1-1.3,0.8-1.3,1.6c0,0.8,0.7,1.2,1.3,1.5V291.5z M507.3,300
			c0.9-0.3,1.4-1.1,1.4-2c0-0.9-0.7-1.4-1.4-1.8V300z"/>
		<path d="M518.4,300v1.1h-6.9l5-5.9c0.4-0.5,0.7-1.1,0.7-1.8c0-1.2-1-2-2.1-2c-1.3,0-2.1,0.9-2.1,2.2h-1.2c0-1.9,1.4-3.3,3.3-3.3
			c1.8,0,3.3,1.3,3.3,3.1c0,0.9-0.3,1.6-0.8,2.2l-3.7,4.3H518.4z"/>
		<path d="M522.1,300.6l2.4-3.4l0,0c-0.3,0.1-0.6,0.1-0.9,0.1c-1.9,0-3.4-1.6-3.4-3.5c0-2,1.7-3.6,3.6-3.6c2,0,3.7,1.6,3.7,3.6
			c0,1-0.4,1.8-1,2.5l-3.5,4.8L522.1,300.6z M521.4,293.9c0,1.4,1.1,2.4,2.5,2.4c1.4,0,2.5-1.1,2.5-2.4c0-1.4-1.1-2.5-2.5-2.5
			C522.5,291.4,521.4,292.5,521.4,293.9z"/>
		<path d="M531.4,299.9l-1.6,3.6l-0.8-0.3l1.3-3.6L531.4,299.9z"/>
		<path d="M540.6,298.3v1.1h-1.3v1.7h-1.2v-1.7h-5.4l6.6-9.5h0v8.4H540.6z M538.1,293.5L538.1,293.5l-3.4,4.8h3.4V293.5z"/>
		<path d="M545.2,291.6l-0.7,2.3l0.6-0.1c2.1,0,3.5,1.6,3.5,3.7c0,2.2-1.7,3.8-3.9,3.8c-1.4,0-2.5-0.7-3.2-1.9l0.9-0.7
			c0.5,0.9,1.3,1.5,2.3,1.5c1.6,0,2.7-1.2,2.7-2.7c0-1.5-1.2-2.6-2.6-2.6c-0.7,0-1.4,0.3-2,0.7l1.5-5.1h4.2v1.1H545.2z"/>
		<path d="M550.6,291.6v-1.1h7.8l-7.1,10.8l-0.9-0.5l6-9.1H550.6z"/>
	</g>
	<g>
		<g>
			<line class="st32" x1="208.5" y1="232.4" x2="208.5" y2="265.4"/>
			<g>
				<polygon points="208.5,272.5 204.4,262.5 208.5,264.9 212.6,262.5 				"/>
			</g>
		</g>
	</g>
	<g>
		<path d="M315.4,57.3v1.1h-6.9l5-5.9c0.4-0.5,0.7-1.1,0.7-1.8c0-1.2-1-2-2.1-2c-1.3,0-2.1,0.9-2.1,2.2h-1.2c0-1.9,1.4-3.3,3.3-3.3
			c1.8,0,3.3,1.3,3.3,3.1c0,0.9-0.3,1.6-0.8,2.2l-3.7,4.3H315.4z"/>
		<path d="M324.7,53.1c0,2.6-1.4,5.5-3.8,5.5c-2.4,0-3.8-2.8-3.8-5.5c0-2.2,1.1-5.5,3.8-5.5C323.6,47.6,324.7,50.9,324.7,53.1z
			 M318.3,53.2c0,1.5,0.7,4.3,2.6,4.3c2,0,2.6-2.8,2.6-4.3c0-1.5-0.6-4.5-2.6-4.5C318.9,48.7,318.3,51.7,318.3,53.2z"/>
		<path d="M327.5,48.9l0.6-1.1h2.3v10.6h-1.2v-9.5H327.5z"/>
		<path d="M337.9,48.9l-0.7,2.3l0.6-0.1c2.1,0,3.5,1.6,3.5,3.7c0,2.2-1.7,3.8-3.9,3.8c-1.4,0-2.5-0.7-3.2-1.9l0.9-0.7
			c0.5,0.9,1.3,1.5,2.3,1.5c1.6,0,2.7-1.2,2.7-2.7c0-1.5-1.2-2.6-2.6-2.6c-0.7,0-1.4,0.3-2,0.7l1.5-5.1h4.2v1.1H337.9z"/>
		<path d="M349.5,55.4l-1.3,3h-1.3l4.9-11.1l4.8,11.1h-1.3l-1.2-3H349.5z M351.8,50.1l-1.8,4.2h3.6L351.8,50.1z"/>
		<path d="M362.6,57.5L362.6,57.5c-0.6,0.7-1.4,1.1-2.3,1.1c-1.9,0-3.2-1.6-3.2-3.5c0-1.9,1.2-3.5,3.2-3.5c0.9,0,1.7,0.4,2.3,1.1h0
			v-5.9h1.1v11.6h-1.1V57.5z M358.3,55c0,1.3,0.8,2.5,2.2,2.5c1.4,0,2.2-1.2,2.2-2.5c0-1.3-0.8-2.4-2.2-2.4
			C359.2,52.7,358.3,53.8,358.3,55z"/>
		<path d="M367.4,49.3c0,0.4-0.4,0.8-0.8,0.8s-0.8-0.4-0.8-0.8c0-0.4,0.4-0.8,0.8-0.8S367.4,48.9,367.4,49.3z M367.2,62.1h-1.1V51.8
			h1.1V62.1z"/>
		<path d="M370.6,55.5c0,1.1,0.1,2.1,1.5,2.1s1.5-1,1.5-2.1v-3.7h1.1v3.8c0,1.8-0.7,3-2.6,3s-2.6-1.2-2.6-3v-3.8h1.1V55.5z"/>
		<path d="M379.4,53.3c-0.2-0.4-0.5-0.7-0.9-0.7c-0.4,0-0.8,0.3-0.8,0.7c0,0.6,0.8,0.8,1.5,1.2c0.8,0.3,1.5,0.8,1.5,1.9
			c0,1.2-1,2.1-2.2,2.1c-1.1,0-2-0.6-2.3-1.7l1-0.4c0.3,0.6,0.6,1.1,1.3,1.1c0.6,0,1.1-0.4,1.1-1c0-1.5-3-1-3-3c0-1.1,0.9-1.9,2-1.9
			c0.8,0,1.5,0.5,1.8,1.2L379.4,53.3z"/>
		<path d="M383.5,58.4h-1.1v-5.6h-0.7v-1h0.7v-2.4h1.1v2.4h1.2v1h-1.2V58.4z"/>
		<path d="M386.2,55.3c0,1.2,0.9,2.2,2.2,2.2c1,0,1.6-0.6,2-1.4l1,0.5c-0.6,1.2-1.7,1.9-3,1.9c-2,0-3.2-1.5-3.2-3.4
			c0-2,1.1-3.6,3.2-3.6c2.1,0,3.2,1.8,3.1,3.7H386.2z M390.2,54.4c-0.2-1-1-1.7-1.9-1.7c-1,0-1.9,0.8-2,1.7H390.2z"/>
		<path d="M397.9,57.5L397.9,57.5c-0.6,0.7-1.4,1.1-2.3,1.1c-1.9,0-3.2-1.6-3.2-3.5c0-1.9,1.2-3.5,3.2-3.5c0.9,0,1.7,0.4,2.3,1.1h0
			v-5.9h1.1v11.6h-1.1V57.5z M393.6,55c0,1.3,0.8,2.5,2.2,2.5c1.4,0,2.2-1.2,2.2-2.5c0-1.3-0.8-2.4-2.2-2.4
			C394.4,52.7,393.6,53.8,393.6,55z"/>
		<path d="M407,55.4l-1.3,3h-1.3l4.9-11.1l4.8,11.1h-1.3l-1.2-3H407z M409.3,50.1l-1.8,4.2h3.6L409.3,50.1z"/>
		<path d="M416.8,56.2l2-4.4h1.3l-3.2,7l-3.2-7h1.3L416.8,56.2z"/>
		<path d="M421.7,55.3c0,1.2,0.9,2.2,2.2,2.2c1,0,1.6-0.6,2-1.4l1,0.5c-0.6,1.2-1.7,1.9-3,1.9c-2,0-3.2-1.5-3.2-3.4
			c0-2,1.1-3.6,3.2-3.6c2.1,0,3.2,1.8,3.1,3.7H421.7z M425.7,54.4c-0.2-1-1-1.7-1.9-1.7c-1,0-1.9,0.8-2,1.7H425.7z"/>
		<path d="M429.5,52.5L429.5,52.5c0.4-0.5,0.8-0.9,1.5-0.9c0.4,0,0.7,0.1,1,0.3l-0.5,1c-0.2-0.2-0.4-0.3-0.7-0.3
			c-1.2,0-1.3,1.6-1.3,2.4v3.3h-1.1v-6.6h1.1V52.5z"/>
		<path d="M439.2,58.4H438v-0.9h0c-0.6,0.7-1.3,1.1-2.3,1.1c-1.9,0-3.2-1.6-3.2-3.5c0-1.9,1.2-3.5,3.2-3.5c0.9,0,1.7,0.4,2.3,1.1h0
			v-0.9h1.1V58.4z M433.7,55c0,1.3,0.8,2.5,2.2,2.5c1.4,0,2.2-1.2,2.2-2.5c0-1.3-0.8-2.4-2.2-2.4C434.6,52.7,433.7,53.8,433.7,55z"
			/>
		<path d="M447.2,58.1c0,1.1,0,2-0.7,2.8c-0.6,0.8-1.6,1.2-2.6,1.2c-1.8,0-3.2-1.2-3.2-3h1.1c0,1.2,0.9,2,2.1,2
			c1.7,0,2.1-1.3,2.1-2.8v-0.8h0c-0.5,0.7-1.4,1.1-2.3,1.1c-1.9,0-3.1-1.6-3.1-3.5c0-1.9,1.2-3.5,3.2-3.5c0.9,0,1.7,0.4,2.2,1.1h0
			v-0.9h1.1V58.1z M441.8,55c0,1.3,0.8,2.5,2.2,2.5c1.4,0,2.2-1.2,2.2-2.5c0-1.3-0.8-2.4-2.2-2.4C442.6,52.7,441.8,53.8,441.8,55z"
			/>
		<path d="M449.9,55.3c0,1.2,0.9,2.2,2.2,2.2c1,0,1.6-0.6,2-1.4l1,0.5c-0.6,1.2-1.7,1.9-3,1.9c-2,0-3.2-1.5-3.2-3.4
			c0-2,1.1-3.6,3.2-3.6c2.1,0,3.2,1.8,3.1,3.7H449.9z M453.9,54.4c-0.2-1-1-1.7-1.9-1.7c-1,0-1.9,0.8-2,1.7H453.9z"/>
		<path d="M464.2,55.7l3.4-8.5l3.4,8.5l2.8-7.9h1.3L471,58.9l-3.4-8.5l-3.4,8.5l-4.1-11.1h1.3L464.2,55.7z"/>
		<path d="M481.2,58.4h-1.1v-0.9h0c-0.6,0.7-1.3,1.1-2.3,1.1c-1.9,0-3.2-1.6-3.2-3.5c0-1.9,1.2-3.5,3.2-3.5c0.9,0,1.7,0.4,2.3,1.1h0
			v-0.9h1.1V58.4z M475.8,55c0,1.3,0.8,2.5,2.2,2.5c1.4,0,2.2-1.2,2.2-2.5c0-1.3-0.8-2.4-2.2-2.4C476.6,52.7,475.8,53.8,475.8,55z"
			/>
		<path d="M489.2,58.1c0,1.1,0,2-0.7,2.8c-0.6,0.8-1.6,1.2-2.6,1.2c-1.8,0-3.2-1.2-3.2-3h1.1c0,1.2,0.9,2,2.1,2
			c1.7,0,2.1-1.3,2.1-2.8v-0.8h0c-0.5,0.7-1.4,1.1-2.3,1.1c-1.9,0-3.1-1.6-3.1-3.5c0-1.9,1.2-3.5,3.2-3.5c0.9,0,1.7,0.4,2.2,1.1h0
			v-0.9h1.1V58.1z M483.8,55c0,1.3,0.8,2.5,2.2,2.5c1.4,0,2.2-1.2,2.2-2.5c0-1.3-0.8-2.4-2.2-2.4C484.6,52.7,483.8,53.8,483.8,55z"
			/>
		<path d="M492,55.3c0,1.2,0.9,2.2,2.2,2.2c1,0,1.6-0.6,2-1.4l1,0.5c-0.6,1.2-1.7,1.9-3,1.9c-2,0-3.2-1.5-3.2-3.4
			c0-2,1.1-3.6,3.2-3.6c2.1,0,3.2,1.8,3.1,3.7H492z M496,54.4c-0.2-1-1-1.7-1.9-1.7c-1,0-1.9,0.8-2,1.7H496z"/>
		<path d="M500.6,52.4c0,0.4-0.4,0.8-0.8,0.8c-0.4,0-0.8-0.4-0.8-0.8c0-0.4,0.4-0.8,0.8-0.8C500.2,51.6,500.6,52,500.6,52.4z
			 M500.6,57.8c0,0.4-0.4,0.8-0.8,0.8c-0.4,0-0.8-0.4-0.8-0.8c0-0.4,0.4-0.8,0.8-0.8C500.2,57,500.6,57.4,500.6,57.8z"/>
		<path d="M510.4,53.1c-1.3-0.5-2.5-1.2-2.5-2.8c0-1.5,1.1-2.5,2.5-2.7v-1.4h0.9v1.4c1,0.1,1.8,0.8,2.2,1.6l-0.9,0.6
			c-0.3-0.5-0.7-1-1.3-1.1v3.5c1.4,0.6,2.6,1.3,2.6,3c0,1.6-1.1,2.9-2.6,3.2V60h-0.9v-1.5c-1.5-0.1-2.8-1.2-3-2.7l1.1-0.3
			c0.1,1,0.9,1.9,1.9,1.9V53.1z M510.4,48.8c-0.7,0.1-1.3,0.8-1.3,1.6s0.7,1.2,1.3,1.5V48.8z M511.3,57.3c0.9-0.3,1.4-1.1,1.4-2
			c0-0.9-0.7-1.4-1.4-1.8V57.3z"/>
		<path d="M518.8,52.3c1.1,0,2.1-0.4,2.1-1.7c0-1.1-0.7-1.9-1.9-1.9c-1.1,0-1.6,0.7-1.7,1.7h-1.2c0.2-1.7,1.2-2.8,2.9-2.8
			c1.7,0,3,1.2,3,2.9c0,0.9-0.5,1.9-1.4,2.3c1,0.5,1.5,1.5,1.5,2.6c0,1.9-1.5,3.1-3.3,3.1c-1.7,0-3.1-1.2-3.1-2.9h1.2
			c0.1,1.1,1,1.8,2,1.8c1.2,0,2.1-1,2.1-2.1c0-1.3-1-2-2.2-2V52.3z"/>
		<path d="M530.9,50.6c0,0.9-0.5,1.9-1.3,2.3c1,0.4,1.6,1.5,1.6,2.5c0,1.8-1.4,3.1-3.2,3.1c-1.8,0-3.2-1.3-3.2-3.1
			c0-1.1,0.6-2.1,1.6-2.5c-0.8-0.5-1.3-1.4-1.3-2.3c0-1.7,1.3-2.9,3-2.9C529.6,47.6,530.9,48.9,530.9,50.6z M525.9,55.4
			c0,1.1,0.9,2,2,2c1.2,0,2-0.9,2-2s-0.9-2-2-2C526.8,53.4,525.9,54.3,525.9,55.4z M526.1,50.5c0,1,0.8,1.9,1.8,1.9
			c1,0,1.8-0.8,1.8-1.9c0-1-0.8-1.8-1.8-1.8C526.9,48.7,526.1,49.5,526.1,50.5z"/>
		<path d="M535.4,57.2l-1.6,3.6l-0.8-0.3l1.3-3.6L535.4,57.2z"/>
		<path d="M544,57.3v1.1h-6.9l5-5.9c0.4-0.5,0.7-1.1,0.7-1.8c0-1.2-1-2-2.1-2c-1.3,0-2.1,0.9-2.1,2.2h-1.2c0-1.9,1.4-3.3,3.3-3.3
			c1.8,0,3.3,1.3,3.3,3.1c0,0.9-0.3,1.6-0.8,2.2l-3.7,4.3H544z"/>
		<path d="M549,52.3c1.1,0,2.1-0.4,2.1-1.7c0-1.1-0.7-1.9-1.9-1.9c-1.1,0-1.6,0.7-1.7,1.7h-1.2c0.2-1.7,1.2-2.8,2.9-2.8
			c1.7,0,3,1.2,3,2.9c0,0.9-0.5,1.9-1.4,2.3c1,0.5,1.5,1.5,1.5,2.6c0,1.9-1.5,3.1-3.3,3.1c-1.7,0-3.1-1.2-3.1-2.9h1.2
			c0.1,1.1,1,1.8,2,1.8c1.2,0,2.1-1,2.1-2.1c0-1.3-1-2-2.2-2V52.3z"/>
		<path d="M556.1,48.9l0.6-1.1h2.3v10.6h-1.2v-9.5H556.1z"/>
	</g>
	<g>
		<g>
			<line class="st32" x1="553.9" y1="61.7" x2="553.9" y2="71.2"/>
			<g>
				<polygon points="553.9,78.2 549.9,68.3 553.9,70.7 558,68.3 				"/>
			</g>
		</g>
	</g>
	<g>
		<g>
			<line class="st32" x1="553.9" y1="288.4" x2="554" y2="283.5"/>
			<g>
				<polygon points="554,276.4 558,286.4 554,284 549.9,286.4 				"/>
			</g>
		</g>
	</g>
</g>
<g id="Workspace">
	<g>
	</g>
	<g>
	</g>
	<g>
	</g>
	<g>
	</g>
	<g>
	</g>
	<g>
	</g>
	<g>
	</g>
</g>
</svg>
