<?xml version="1.0" encoding="utf-8"?>
<!-- Generator: Adobe Illustrator 20.1.0, SVG Export Plug-In . SVG Version: 6.00 Build 0)  -->
<svg version="1.1" id="Layer_1" xmlns="http://www.w3.org/2000/svg" xmlns:xlink="http://www.w3.org/1999/xlink" x="0px" y="0px"
	 viewBox="0 0 582.5 360" style="enable-background:new 0 0 582.5 360;" xml:space="preserve">
<style type="text/css">
	.st0{fill-rule:evenodd;clip-rule:evenodd;fill:#F3F3F3;}
	.st1{fill:none;stroke:#C0BFBF;stroke-width:0.72;stroke-linejoin:round;stroke-miterlimit:10;}
	.st2{fill-rule:evenodd;clip-rule:evenodd;fill:#A7A6A6;}
	.st3{fill:none;stroke:#A7A6A6;stroke-width:0.72;stroke-linejoin:round;stroke-miterlimit:10;}
	.st4{fill-rule:evenodd;clip-rule:evenodd;fill:none;}
	.st5{fill:none;stroke:#010101;stroke-width:0.72;stroke-linejoin:round;stroke-miterlimit:10;}
	.st6{fill:none;stroke:#963836;stroke-width:2.16;stroke-linecap:round;stroke-linejoin:round;stroke-miterlimit:10;}
	
		.st7{fill:none;stroke:#010101;stroke-width:2.28;stroke-linecap:round;stroke-linejoin:round;stroke-miterlimit:10;stroke-dasharray:0,57912;}
	.st8{fill:none;stroke:#000000;stroke-width:2;stroke-miterlimit:10;}
	.st9{fill:none;stroke:#000000;stroke-width:2;stroke-miterlimit:10;stroke-dasharray:3.0073,3.0073;}
	.st10{fill:#010101;}
	.st11{fill:#010101;stroke:#010101;stroke-width:0.4011;stroke-miterlimit:10;}
	.st12{fill:#595A5A;}
	.st13{fill:none;}
	.st14{fill:none;stroke:#000000;stroke-miterlimit:10;}
</style>
<g>
	<polygon class="st0" points="0,0 582.5,0 582.5,360 0,360 0,0 	"/>
	<path class="st1" d="M46,255h515.3 M46,200.9h515.3 M46,146.6h515.3 M46,92.4h515.3 M46,38.3h515.3"/>
	<g>
		<polygon class="st2" points="57,38.3 58.6,38.3 58.6,309.2 57,309.2 57,38.3 		"/>
		<polygon class="st3" points="57,38.3 58.6,38.3 58.6,309.2 57,309.2 57,38.3 		"/>
		<polygon class="st2" points="58.6,38.3 60.2,38.3 60.2,309.2 58.6,309.2 58.6,38.3 		"/>
		<polygon class="st3" points="58.6,38.3 60.2,38.3 60.2,309.2 58.6,309.2 58.6,38.3 		"/>
		<polygon class="st2" points="60.2,38.3 61.8,38.3 61.8,309.2 60.2,309.2 60.2,38.3 		"/>
		<polygon class="st3" points="60.2,38.3 61.8,38.3 61.8,309.2 60.2,309.2 60.2,38.3 		"/>
		<polygon class="st2" points="61.8,38.3 63.4,38.3 63.4,309.2 61.8,309.2 61.8,38.3 		"/>
		<polygon class="st3" points="61.8,38.3 63.4,38.3 63.4,309.2 61.8,309.2 61.8,38.3 		"/>
		<polygon class="st2" points="63.4,38.3 64.9,38.3 64.9,309.2 63.4,309.2 63.4,38.3 		"/>
		<polygon class="st3" points="63.4,38.3 64.9,38.3 64.9,309.2 63.4,309.2 63.4,38.3 		"/>
		<polygon class="st2" points="64.9,38.3 66.5,38.3 66.5,309.2 64.9,309.2 64.9,38.3 		"/>
		<polygon class="st3" points="64.9,38.3 66.5,38.3 66.5,309.2 64.9,309.2 64.9,38.3 		"/>
		<polygon class="st2" points="66.5,38.3 68.2,38.3 68.2,309.2 66.5,309.2 66.5,38.3 		"/>
		<polygon class="st3" points="66.5,38.3 68.2,38.3 68.2,309.2 66.5,309.2 66.5,38.3 		"/>
		<polygon class="st2" points="68.2,38.3 69.7,38.3 69.7,309.2 68.2,309.2 68.2,38.3 		"/>
		<polygon class="st3" points="68.2,38.3 69.7,38.3 69.7,309.2 68.2,309.2 68.2,38.3 		"/>
		<polygon class="st2" points="69.7,38.3 71.3,38.3 71.3,309.2 69.7,309.2 69.7,38.3 		"/>
		<polygon class="st3" points="69.7,38.3 71.3,38.3 71.3,309.2 69.7,309.2 69.7,38.3 		"/>
		<polygon class="st2" points="259.9,38.3 261.6,38.3 261.6,309.2 259.9,309.2 259.9,38.3 		"/>
		<polygon class="st3" points="259.9,38.3 261.6,38.3 261.6,309.2 259.9,309.2 259.9,38.3 		"/>
		<polygon class="st2" points="261.6,38.3 263.2,38.3 263.2,309.2 261.6,309.2 261.6,38.3 		"/>
		<polygon class="st3" points="261.6,38.3 263.2,38.3 263.2,309.2 261.6,309.2 261.6,38.3 		"/>
		<polygon class="st2" points="263.2,38.3 264.7,38.3 264.7,309.2 263.2,309.2 263.2,38.3 		"/>
		<polygon class="st3" points="263.2,38.3 264.7,38.3 264.7,309.2 263.2,309.2 263.2,38.3 		"/>
		<polygon class="st2" points="264.7,38.3 266.3,38.3 266.3,309.2 264.7,309.2 264.7,38.3 		"/>
		<polygon class="st3" points="264.7,38.3 266.3,38.3 266.3,309.2 264.7,309.2 264.7,38.3 		"/>
		<polygon class="st2" points="266.3,38.3 268,38.3 268,309.2 266.3,309.2 266.3,38.3 		"/>
		<polygon class="st3" points="266.3,38.3 268,38.3 268,309.2 266.3,309.2 266.3,38.3 		"/>
		<polygon class="st2" points="268,38.3 269.5,38.3 269.5,309.2 268,309.2 268,38.3 		"/>
		<polygon class="st3" points="268,38.3 269.5,38.3 269.5,309.2 268,309.2 268,38.3 		"/>
		<polygon class="st2" points="269.5,38.3 271.1,38.3 271.1,309.2 269.5,309.2 269.5,38.3 		"/>
		<polygon class="st3" points="269.5,38.3 271.1,38.3 271.1,309.2 269.5,309.2 269.5,38.3 		"/>
		<polygon class="st2" points="271.1,38.3 272.6,38.3 272.6,309.2 271.1,309.2 271.1,38.3 		"/>
		<polygon class="st3" points="271.1,38.3 272.6,38.3 272.6,309.2 271.1,309.2 271.1,38.3 		"/>
		<polygon class="st2" points="272.6,38.3 274.2,38.3 274.2,309.2 272.6,309.2 272.6,38.3 		"/>
		<polygon class="st3" points="272.6,38.3 274.2,38.3 274.2,309.2 272.6,309.2 272.6,38.3 		"/>
		<polygon class="st2" points="388.4,38.3 390,38.3 390,309.2 388.4,309.2 388.4,38.3 		"/>
		<polygon class="st3" points="388.4,38.3 390,38.3 390,309.2 388.4,309.2 388.4,38.3 		"/>
		<polygon class="st2" points="390,38.3 391.6,38.3 391.6,309.2 390,309.2 390,38.3 		"/>
		<polygon class="st3" points="390,38.3 391.6,38.3 391.6,309.2 390,309.2 390,38.3 		"/>
		<polygon class="st2" points="391.6,38.3 393.1,38.3 393.1,309.2 391.6,309.2 391.6,38.3 		"/>
		<polygon class="st3" points="391.6,38.3 393.1,38.3 393.1,309.2 391.6,309.2 391.6,38.3 		"/>
		<polygon class="st2" points="393.1,38.3 394.8,38.3 394.8,309.2 393.1,309.2 393.1,38.3 		"/>
		<polygon class="st3" points="393.1,38.3 394.8,38.3 394.8,309.2 393.1,309.2 393.1,38.3 		"/>
		<polygon class="st2" points="394.8,38.3 396.4,38.3 396.4,309.2 394.8,309.2 394.8,38.3 		"/>
		<polygon class="st3" points="394.8,38.3 396.4,38.3 396.4,309.2 394.8,309.2 394.8,38.3 		"/>
		<polygon class="st2" points="396.4,38.3 397.9,38.3 397.9,309.2 396.4,309.2 396.4,38.3 		"/>
		<polygon class="st3" points="396.4,38.3 397.9,38.3 397.9,309.2 396.4,309.2 396.4,38.3 		"/>
		<polygon class="st2" points="397.9,38.3 399.5,38.3 399.5,309.2 397.9,309.2 397.9,38.3 		"/>
		<polygon class="st3" points="397.9,38.3 399.5,38.3 399.5,309.2 397.9,309.2 397.9,38.3 		"/>
		<polygon class="st2" points="399.5,38.3 401,38.3 401,309.2 399.5,309.2 399.5,38.3 		"/>
		<polygon class="st3" points="399.5,38.3 401,38.3 401,309.2 399.5,309.2 399.5,38.3 		"/>
		<polygon class="st2" points="401,38.3 402.7,38.3 402.7,309.2 401,309.2 401,38.3 		"/>
		<polygon class="st3" points="401,38.3 402.7,38.3 402.7,309.2 401,309.2 401,38.3 		"/>
		<polygon class="st2" points="402.7,38.3 404.3,38.3 404.3,309.2 402.7,309.2 402.7,38.3 		"/>
		<polygon class="st3" points="402.7,38.3 404.3,38.3 404.3,309.2 402.7,309.2 402.7,38.3 		"/>
		<polygon class="st2" points="404.3,38.3 405.8,38.3 405.8,309.2 404.3,309.2 404.3,38.3 		"/>
		<polygon class="st3" points="404.3,38.3 405.8,38.3 405.8,309.2 404.3,309.2 404.3,38.3 		"/>
		<polygon class="st2" points="405.8,38.3 407.4,38.3 407.4,309.2 405.8,309.2 405.8,38.3 		"/>
		<polygon class="st3" points="405.8,38.3 407.4,38.3 407.4,309.2 405.8,309.2 405.8,38.3 		"/>
		<polygon class="st2" points="407.4,38.3 409.1,38.3 409.1,309.2 407.4,309.2 407.4,38.3 		"/>
		<polygon class="st3" points="407.4,38.3 409.1,38.3 409.1,309.2 407.4,309.2 407.4,38.3 		"/>
		<polygon class="st2" points="409.1,38.3 410.6,38.3 410.6,309.2 409.1,309.2 409.1,38.3 		"/>
		<polygon class="st3" points="409.1,38.3 410.6,38.3 410.6,309.2 409.1,309.2 409.1,38.3 		"/>
		<polygon class="st2" points="410.6,38.3 412.2,38.3 412.2,309.2 410.6,309.2 410.6,38.3 		"/>
		<polygon class="st3" points="410.6,38.3 412.2,38.3 412.2,309.2 410.6,309.2 410.6,38.3 		"/>
		<polygon class="st2" points="412.2,38.3 413.8,38.3 413.8,309.2 412.2,309.2 412.2,38.3 		"/>
		<polygon class="st3" points="412.2,38.3 413.8,38.3 413.8,309.2 412.2,309.2 412.2,38.3 		"/>
		<polygon class="st2" points="413.8,38.3 415.3,38.3 415.3,309.2 413.8,309.2 413.8,38.3 		"/>
		<polygon class="st3" points="413.8,38.3 415.3,38.3 415.3,309.2 413.8,309.2 413.8,38.3 		"/>
		<polygon class="st2" points="415.3,38.3 417,38.3 417,309.2 415.3,309.2 415.3,38.3 		"/>
		<polygon class="st3" points="415.3,38.3 417,38.3 417,309.2 415.3,309.2 415.3,38.3 		"/>
		<polygon class="st2" points="417,38.3 418.6,38.3 418.6,309.2 417,309.2 417,38.3 		"/>
		<polygon class="st3" points="417,38.3 418.6,38.3 418.6,309.2 417,309.2 417,38.3 		"/>
		<polygon class="st4" points="45.8,310 562,310 562,38.2 45.8,38.2 45.8,310 		"/>
	</g>
	<g>
		<line class="st5" x1="46" y1="309.2" x2="561.2" y2="309.2"/>
		<polygon class="st4" points="0,360 582.4,360 582.4,0 0,0 0,360 		"/>
	</g>
	<g>
		<path class="st5" d="M46,306.2v6 M141,306.2v6 M236.2,306.2v6 M331.3,306.2v6 M426.5,306.2v6 M521.6,306.2v6"/>
		<polygon class="st4" points="0,360 582.4,360 582.4,0 0,0 0,360 		"/>
	</g>
	<g>
		<polyline class="st6" points="49.9,257.2 51.5,259.1 53,257.8 54.6,254 56.2,252.5 57.8,261.2 59.4,254.5 61,262.2 62.5,252.4 
			64.2,250.1 65.8,253.7 67.3,259 68.9,259.8 70.4,258.6 72.1,253.7 73.7,248 75.2,256.1 76.8,267 78.4,265.7 80,276.5 81.6,265.2 
			83.2,256.7 84.7,257.3 86.4,263.9 88,254.8 89.5,268 91.1,259.1 92.6,253.1 94.3,254.2 95.9,263.5 97.4,265.4 99,268.8 
			100.6,265.2 102.2,254 103.8,253.3 105.4,254.8 106.9,262.9 108.6,262.2 110.2,252.4 111.7,252.1 113.3,245.5 114.8,248.2 
			116.5,249.7 118.1,250.3 119.6,237.8 121.2,233.6 122.8,228.1 124.4,229.2 126,257.5 127.6,253.9 129.1,253 130.8,254.4 
			132.4,251.3 133.9,266 135.5,256.2 137,260.3 138.7,243.1 140.3,236.6 141.8,235.4 143.4,241.1 145,245.5 146.6,242 148.2,241 
			149.8,242.9 151.3,240.5 153,263.8 154.6,257.2 156.1,256 157.7,244.2 159.2,235.3 160.9,236.8 162.5,243.5 164,252.5 
			165.6,249.7 167.2,242.2 168.8,245.3 170.4,237.1 172,244.3 173.5,243 175.1,243.2 176.8,236 178.3,223.9 179.9,226 181.4,231.8 
			183.1,231 184.7,228.6 186.2,220.2 187.8,217 189.4,219.2 191,234.4 192.6,232.6 194.2,236.6 195.7,237.1 197.3,232.4 199,229.2 
			200.5,233.3 202.1,223.7 203.6,226 205.3,224.6 206.9,221.6 208.4,224.3 210,237.1 211.6,221.5 213.2,230.5 214.8,222.6 
			216.4,220.8 217.9,216.6 219.5,217 221.2,223.1 222.7,218.2 224.3,212.8 225.8,207.4 227.5,207.6 229.1,208.7 230.6,206.9 
			232.2,215.3 233.8,209.4 235.4,195 237,199 238.6,204.5 240.1,223.9 241.7,220.4 243.4,219.4 244.9,213.8 246.5,217.7 248,217.8 
			249.7,225.5 251.3,228.4 252.8,225 254.4,219.5 256,219.6 257.6,221.3 259.2,226 260.8,220.8 262.3,218.6 263.9,218 265.6,221.8 
			267.1,219 268.7,229.6 270.2,231 271.9,228.5 273.5,225.7 275,224.4 276.6,227.3 278.2,231.5 279.8,229.6 281.4,226.4 283,218.2 
			284.5,219.2 286.1,229.7 287.8,236.8 289.3,238 290.9,225 292.4,218.6 294.1,215.6 295.7,221.2 297.2,194.5 298.8,195.1 
			300.4,192.7 302,189.4 303.6,195.2 305.2,186.1 306.7,203.8 308.3,208.3 310,199.4 311.5,194.2 313.1,192.7 314.6,207.5 
			316.3,212.4 317.9,209.5 319.4,208.6 321,211.2 322.6,214.7 324.2,209.3 325.8,214.7 327.4,211.1 328.9,203.2 330.5,196.3 
			332.2,194.4 333.7,198.7 335.3,192.6 336.8,192.2 338.5,189.8 340.1,183.7 341.6,178.1 343.2,180.4 344.8,180.6 346.4,169 
			348,165.6 349.6,157.3 351.1,153 352.7,153 354.4,143.5 355.9,144.1 357.5,141 359,133.9 360.7,140 362.3,135.6 363.8,138.6 
			365.4,123.2 367,126.8 		"/>
		<polyline class="st6" points="367,126.8 368.6,116.2 370.2,116.3 371.8,120.7 373.3,129.8 374.9,126.1 376.6,123.7 378.1,140.9 
			379.7,149 381.2,136.2 382.8,133.1 384.5,127.7 386,124.4 387.6,125.9 389.2,123.4 390.8,125.4 392.4,134.5 394,131.3 
			395.5,127.9 397.1,122.9 398.8,124.4 400.3,131.8 401.9,124.6 403.4,127 405,122.6 406.7,116.2 408.2,113.4 409.8,116.8 
			411.4,127.8 413,125.5 414.6,122.3 416.2,122.8 417.7,124.7 419.3,131.6 421,123.7 422.5,119.8 424.1,115.6 425.6,118 
			427.2,115.6 428.9,125.5 430.4,128.2 432,124.6 433.6,121.8 435.2,120.8 436.8,136.4 438.4,139.3 439.9,135.1 441.5,129 
			443.2,122.3 444.7,123.6 446.3,133.9 447.8,145.3 449.4,152.9 451.1,151.6 452.6,141.1 454.2,137.4 455.8,137.5 457.4,148 
			459,135.8 460.6,124.8 462.1,127.9 463.7,125.2 465.4,114 466.9,109 468.5,111.6 470,113.8 471.6,100.4 473.3,100.6 474.8,105.4 
			476.4,111.8 478,104.8 479.6,102.7 481.2,92.8 482.8,98 484.3,94.9 485.9,106.1 487.6,112.2 489.1,117.6 490.7,115.4 492.2,113.6 
			493.8,121 495.5,135.5 497,132.7 498.6,126 500.2,127.4 501.8,132.1 503.4,132.1 505,131.9 506.5,129.4 508.1,131.6 509.8,131 
			511.3,138.2 512.9,128.9 514.4,143.2 516,139.1 517.7,138.1 519.2,134.4 520.8,125.8 522.4,124.8 524,122.9 525.6,118 
			527.2,110.6 528.7,104.2 530.3,105.6 532,102.2 533.5,116 535.1,122.5 536.6,113.5 538.2,106.7 539.9,100.9 541.4,95.6 543,95.9 
			544.6,96.2 546.2,94.9 547.8,90.8 549.4,92.8 550.9,99.1 552.5,114.8 554.2,117.4 555.7,105.2 557.3,99.4 		"/>
		<polygon class="st4" points="45.8,310 562,310 562,38.2 45.8,38.2 45.8,310 		"/>
	</g>
	<g>
		<polyline class="st7" points="205.3,223.7 206.8,223.7 208.4,223.7 210.1,223.7 211.6,223.7 213.2,223.7 214.7,223.7 216.4,223.7 
			218,223.7 219.5,223.7 221.1,223.7 222.7,223.7 224.3,223.7 225.9,223.7 227.5,223.7 229,223.7 230.6,223.7 232.3,223.7 
			233.8,223.7 235.4,223.7 236.9,223.7 238.6,223.7 240.2,223.7 241.7,223.7 243.3,223.7 244.9,223.7 246.5,223.7 248.1,223.7 
			249.7,223.7 251.2,223.7 252.8,223.7 254.5,223.7 256,223.7 257.6,223.7 259.1,223.7 260.8,223.7 262.4,223.7 263.9,223.7 
			265.5,223.7 267.1,223.7 268.7,223.7 270.3,223.7 271.9,223.7 273.4,223.7 275,223.7 276.7,223.7 278.2,223.7 279.8,223.7 
			281.3,223.7 283,223.7 284.6,223.7 286.1,223.7 287.7,223.7 289.3,223.7 290.9,223.7 292.5,223.7 294.1,223.7 295.6,223.7 
			297.2,223.7 298.9,223.7 300.4,223.7 302,223.7 303.5,223.7 305.2,223.7 306.8,223.7 308.3,223.7 309.9,223.7 311.5,223.7 
			313.1,223.7 314.7,223.7 316.3,223.7 317.8,223.7 319.4,223.7 321.1,223.7 322.6,223.7 324.2,223.7 325.7,223.7 327.4,223.7 
			329,223.7 330.5,223.7 332.1,223.7 333.7,223.7 335.3,223.7 336.9,223.7 338.5,223.7 340,223.7 341.6,223.7 343.3,223.7 
			344.8,223.7 346.4,223.7 347.9,223.7 349.6,223.7 351.2,223.7 352.7,223.7 354.3,223.7 355.9,223.7 357.5,223.7 359.1,223.7 
			360.7,223.7 362.2,223.7 363.8,223.7 365.5,223.7 367,223.7 368.6,223.7 370.1,223.7 371.8,223.7 373.4,223.7 374.9,223.7 
			376.5,223.7 378.1,223.7 379.7,223.7 381.3,223.7 382.9,223.7 384.4,223.7 386,223.7 387.7,223.7 389.2,223.7 390.8,223.7 
			392.3,223.7 393.9,223.7 395.6,223.7 397.1,223.7 398.7,223.7 400.3,223.7 401.9,223.7 403.5,223.7 405.1,223.7 406.6,223.7 
			408.2,223.7 409.9,223.7 411.4,223.7 413,223.7 414.5,223.7 416.1,223.7 417.8,223.7 419.3,223.7 420.9,223.7 422.5,223.7 
			424.1,223.7 425.7,223.7 427.3,223.7 428.8,223.7 430.4,223.7 432.1,223.7 433.6,223.7 435.2,223.7 436.7,223.7 438.3,223.7 
			440,223.7 441.5,223.7 443.1,223.7 444.7,223.7 446.3,223.7 447.9,223.7 449.5,223.7 451,223.7 452.6,223.7 454.3,223.7 
			455.8,223.7 457.4,223.7 458.9,223.7 460.5,223.7 462.2,223.7 463.7,223.7 465.3,223.7 466.9,223.7 468.5,223.7 470.1,223.7 
			471.7,223.7 473.2,223.7 474.8,223.7 476.5,223.7 478,223.7 479.6,223.7 481.1,223.7 482.7,223.7 484.4,223.7 485.9,223.7 
			487.5,223.7 489.1,223.7 490.7,223.7 492.3,223.7 493.9,223.7 495.4,223.7 497,223.7 498.7,223.7 500.2,223.7 501.8,223.7 
			503.3,223.7 504.9,223.7 506.6,223.7 508.1,223.7 509.7,223.7 511.3,223.7 512.9,223.7 514.5,223.7 516.1,223.7 517.6,223.7 
			519.2,223.7 520.9,223.7 522.4,223.7 524,223.7 525.5,223.7 527.1,223.7 528.8,223.7 530.3,223.7 531.9,223.7 533.5,223.7 
			535.1,223.7 536.7,223.7 538.3,223.7 539.8,223.7 541.4,223.7 543.1,223.7 544.6,223.7 546.2,223.7 547.7,223.7 549.3,223.7 
			551,223.7 552.5,223.7 554.1,223.7 555.7,223.7 		"/>
		<polygon class="st4" points="45.8,310 562,310 562,38.2 45.8,38.2 45.8,310 		"/>
		<g>
			<g>
				<line class="st8" x1="206.8" y1="223.7" x2="208.3" y2="223.7"/>
				<line class="st9" x1="211.3" y1="223.7" x2="552.7" y2="223.7"/>
				<line class="st8" x1="554.2" y1="223.7" x2="555.7" y2="223.7"/>
			</g>
		</g>
	</g>
	<g>
		<polygon class="st10" points="206.8,220.7 209.8,223.7 206.8,226.7 203.8,223.7 206.8,220.7 		"/>
		<polygon class="st5" points="206.8,220.7 209.8,223.7 206.8,226.7 203.8,223.7 206.8,220.7 		"/>
		<polygon class="st4" points="0,360 582.4,360 582.4,0 0,0 0,360 		"/>
	</g>
	<g>
		<g>
			<path class="st10" d="M8,305.6l0.4-0.7h1.5v6.8H9.1v-6.1H8z"/>
			<path class="st10" d="M17.3,308.3c0,1.7-0.9,3.5-2.4,3.5c-1.5,0-2.4-1.8-2.4-3.5c0-1.4,0.7-3.5,2.4-3.5
				C16.6,304.8,17.3,306.9,17.3,308.3z M13.2,308.4c0,1,0.4,2.8,1.7,2.8s1.7-1.8,1.7-2.8c0-1-0.4-2.9-1.7-2.9S13.2,307.4,13.2,308.4
				z"/>
			<path class="st10" d="M19.6,311l-1,2.3l-0.5-0.2l0.8-2.3L19.6,311z"/>
			<path class="st10" d="M25.7,308.3c0,1.7-0.9,3.5-2.4,3.5c-1.5,0-2.4-1.8-2.4-3.5c0-1.4,0.7-3.5,2.4-3.5
				C25,304.8,25.7,306.9,25.7,308.3z M21.6,308.4c0,1,0.4,2.8,1.7,2.8s1.7-1.8,1.7-2.8c0-1-0.4-2.9-1.7-2.9S21.6,307.4,21.6,308.4z"
				/>
			<path class="st10" d="M31.2,308.3c0,1.7-0.9,3.5-2.4,3.5s-2.4-1.8-2.4-3.5c0-1.4,0.7-3.5,2.4-3.5
				C30.5,304.8,31.2,306.9,31.2,308.3z M27.1,308.4c0,1,0.4,2.8,1.7,2.8s1.7-1.8,1.7-2.8c0-1-0.4-2.9-1.7-2.9S27.1,307.4,27.1,308.4
				z"/>
			<path class="st10" d="M36.7,308.3c0,1.7-0.9,3.5-2.4,3.5c-1.5,0-2.4-1.8-2.4-3.5c0-1.4,0.7-3.5,2.4-3.5
				C36,304.8,36.7,306.9,36.7,308.3z M32.6,308.4c0,1,0.4,2.8,1.7,2.8s1.7-1.8,1.7-2.8c0-1-0.4-2.9-1.7-2.9S32.6,307.4,32.6,308.4z"
				/>
		</g>
		<rect class="st4" width="582.4" height="360"/>
	</g>
	<g>
		<g>
			<path class="st10" d="M8,251.4l0.4-0.7h1.5v6.8H9.1v-6.1H8z"/>
			<path class="st10" d="M16.8,256.8v0.7h-4.4l3.2-3.8c0.3-0.3,0.5-0.7,0.5-1.1c0-0.8-0.6-1.3-1.4-1.3c-0.8,0-1.4,0.6-1.4,1.4h-0.8
				c0-1.2,0.9-2.1,2.1-2.1c1.1,0,2.1,0.8,2.1,2c0,0.5-0.2,1-0.5,1.4l-2.4,2.8H16.8z"/>
			<path class="st10" d="M19.6,256.8l-1,2.3l-0.5-0.2l0.8-2.3L19.6,256.8z"/>
			<path class="st10" d="M25.7,254.1c0,1.7-0.9,3.5-2.4,3.5c-1.5,0-2.4-1.8-2.4-3.5c0-1.4,0.7-3.5,2.4-3.5
				C25,250.6,25.7,252.7,25.7,254.1z M21.6,254.2c0,1,0.4,2.8,1.7,2.8s1.7-1.8,1.7-2.8c0-1-0.4-2.9-1.7-2.9S21.6,253.2,21.6,254.2z"
				/>
			<path class="st10" d="M31.2,254.1c0,1.7-0.9,3.5-2.4,3.5s-2.4-1.8-2.4-3.5c0-1.4,0.7-3.5,2.4-3.5
				C30.5,250.6,31.2,252.7,31.2,254.1z M27.1,254.2c0,1,0.4,2.8,1.7,2.8s1.7-1.8,1.7-2.8c0-1-0.4-2.9-1.7-2.9S27.1,253.2,27.1,254.2
				z"/>
			<path class="st10" d="M36.7,254.1c0,1.7-0.9,3.5-2.4,3.5c-1.5,0-2.4-1.8-2.4-3.5c0-1.4,0.7-3.5,2.4-3.5
				C36,250.6,36.7,252.7,36.7,254.1z M32.6,254.2c0,1,0.4,2.8,1.7,2.8s1.7-1.8,1.7-2.8c0-1-0.4-2.9-1.7-2.9S32.6,253.2,32.6,254.2z"
				/>
		</g>
		<rect class="st4" width="582.4" height="360"/>
	</g>
	<g>
		<g>
			<path class="st10" d="M8,197.2l0.4-0.7h1.5v6.8H9.1v-6.1H8z"/>
			<path class="st10" d="M17.2,201.5v0.7h-0.8v1.1h-0.8v-1.1h-3.5l4.2-6.1h0v5.4H17.2z M15.6,198.4L15.6,198.4l-2.2,3.1h2.2V198.4z"
				/>
			<path class="st10" d="M19.6,202.6l-1,2.3l-0.5-0.2l0.8-2.3L19.6,202.6z"/>
			<path class="st10" d="M25.7,199.9c0,1.7-0.9,3.5-2.4,3.5c-1.5,0-2.4-1.8-2.4-3.5c0-1.4,0.7-3.5,2.4-3.5
				C25,196.4,25.7,198.5,25.7,199.9z M21.6,200c0,1,0.4,2.8,1.7,2.8s1.7-1.8,1.7-2.8c0-1-0.4-2.9-1.7-2.9S21.6,199,21.6,200z"/>
			<path class="st10" d="M31.2,199.9c0,1.7-0.9,3.5-2.4,3.5s-2.4-1.8-2.4-3.5c0-1.4,0.7-3.5,2.4-3.5
				C30.5,196.4,31.2,198.5,31.2,199.9z M27.1,200c0,1,0.4,2.8,1.7,2.8s1.7-1.8,1.7-2.8c0-1-0.4-2.9-1.7-2.9S27.1,199,27.1,200z"/>
			<path class="st10" d="M36.7,199.9c0,1.7-0.9,3.5-2.4,3.5c-1.5,0-2.4-1.8-2.4-3.5c0-1.4,0.7-3.5,2.4-3.5
				C36,196.4,36.7,198.5,36.7,199.9z M32.6,200c0,1,0.4,2.8,1.7,2.8s1.7-1.8,1.7-2.8c0-1-0.4-2.9-1.7-2.9S32.6,199,32.6,200z"/>
		</g>
		<rect class="st4" width="582.4" height="360"/>
	</g>
	<g>
		<g>
			<path class="st10" d="M8,143l0.4-0.7h1.5v6.8H9.1V143H8z"/>
			<path class="st10" d="M15.9,142.6l-1.6,2.1l0,0c0.1,0,0.2-0.1,0.3-0.1s0.2,0,0.3,0c1.2,0,2.2,1,2.2,2.2c0,1.3-1.1,2.3-2.3,2.3
				c-1.3,0-2.3-1-2.3-2.3c0-0.6,0.3-1.2,0.6-1.6l2.3-3.1L15.9,142.6z M16.4,146.9c0-0.9-0.7-1.6-1.6-1.6c-0.9,0-1.6,0.7-1.6,1.6
				s0.7,1.6,1.6,1.6S16.4,147.8,16.4,146.9z"/>
			<path class="st10" d="M19.6,148.4l-1,2.3l-0.5-0.2l0.8-2.3L19.6,148.4z"/>
			<path class="st10" d="M25.7,145.7c0,1.7-0.9,3.5-2.4,3.5c-1.5,0-2.4-1.8-2.4-3.5c0-1.4,0.7-3.5,2.4-3.5
				C25,142.2,25.7,144.3,25.7,145.7z M21.6,145.8c0,1,0.4,2.8,1.7,2.8s1.7-1.8,1.7-2.8c0-1-0.4-2.9-1.7-2.9S21.6,144.8,21.6,145.8z"
				/>
			<path class="st10" d="M31.2,145.7c0,1.7-0.9,3.5-2.4,3.5s-2.4-1.8-2.4-3.5c0-1.4,0.7-3.5,2.4-3.5
				C30.5,142.2,31.2,144.3,31.2,145.7z M27.1,145.8c0,1,0.4,2.8,1.7,2.8s1.7-1.8,1.7-2.8c0-1-0.4-2.9-1.7-2.9S27.1,144.8,27.1,145.8
				z"/>
			<path class="st10" d="M36.7,145.7c0,1.7-0.9,3.5-2.4,3.5c-1.5,0-2.4-1.8-2.4-3.5c0-1.4,0.7-3.5,2.4-3.5
				C36,142.2,36.7,144.3,36.7,145.7z M32.6,145.8c0,1,0.4,2.8,1.7,2.8s1.7-1.8,1.7-2.8c0-1-0.4-2.9-1.7-2.9S32.6,144.8,32.6,145.8z"
				/>
		</g>
		<rect class="st4" width="582.4" height="360"/>
	</g>
	<g>
		<g>
			<path class="st10" d="M8,88.8l0.4-0.7h1.5v6.8H9.1v-6.1H8z"/>
			<path class="st10" d="M16.7,89.9c0,0.6-0.3,1.2-0.8,1.5c0.6,0.3,1,0.9,1,1.6c0,1.2-0.9,2-2.1,2s-2.1-0.8-2.1-2
				c0-0.7,0.4-1.3,1-1.6c-0.5-0.3-0.8-0.9-0.8-1.5c0-1.1,0.8-1.9,1.9-1.9C15.9,88,16.7,88.8,16.7,89.9z M13.5,93
				c0,0.7,0.6,1.3,1.3,1.3s1.3-0.6,1.3-1.3s-0.6-1.3-1.3-1.3S13.5,92.3,13.5,93z M13.7,89.9c0,0.7,0.5,1.2,1.2,1.2
				c0.6,0,1.2-0.5,1.2-1.2c0-0.6-0.5-1.2-1.2-1.2C14.2,88.7,13.7,89.2,13.7,89.9z"/>
			<path class="st10" d="M19.6,94.2l-1,2.3l-0.5-0.2l0.8-2.3L19.6,94.2z"/>
			<path class="st10" d="M25.7,91.5c0,1.7-0.9,3.5-2.4,3.5c-1.5,0-2.4-1.8-2.4-3.5c0-1.4,0.7-3.5,2.4-3.5C25,88,25.7,90.1,25.7,91.5
				z M21.6,91.6c0,1,0.4,2.8,1.7,2.8s1.7-1.8,1.7-2.8c0-1-0.4-2.9-1.7-2.9S21.6,90.6,21.6,91.6z"/>
			<path class="st10" d="M31.2,91.5c0,1.7-0.9,3.5-2.4,3.5s-2.4-1.8-2.4-3.5c0-1.4,0.7-3.5,2.4-3.5C30.5,88,31.2,90.1,31.2,91.5z
				 M27.1,91.6c0,1,0.4,2.8,1.7,2.8s1.7-1.8,1.7-2.8c0-1-0.4-2.9-1.7-2.9S27.1,90.6,27.1,91.6z"/>
			<path class="st10" d="M36.7,91.5c0,1.7-0.9,3.5-2.4,3.5c-1.5,0-2.4-1.8-2.4-3.5c0-1.4,0.7-3.5,2.4-3.5C36,88,36.7,90.1,36.7,91.5
				z M32.6,91.6c0,1,0.4,2.8,1.7,2.8s1.7-1.8,1.7-2.8c0-1-0.4-2.9-1.7-2.9S32.6,90.6,32.6,91.6z"/>
		</g>
		<rect class="st4" width="582.4" height="360"/>
	</g>
	<g>
		<g>
			<path class="st10" d="M11.3,40v0.7H6.9l3.2-3.8c0.3-0.3,0.5-0.7,0.5-1.1c0-0.8-0.6-1.3-1.4-1.3c-0.8,0-1.4,0.6-1.4,1.4H7.1
				c0-1.2,0.9-2.1,2.1-2.1c1.1,0,2.1,0.8,2.1,2c0,0.5-0.2,1-0.5,1.4L8.5,40H11.3z"/>
			<path class="st10" d="M17.3,37.3c0,1.7-0.9,3.5-2.4,3.5c-1.5,0-2.4-1.8-2.4-3.5c0-1.4,0.7-3.5,2.4-3.5
				C16.6,33.8,17.3,35.9,17.3,37.3z M13.2,37.4c0,1,0.4,2.8,1.7,2.8s1.7-1.8,1.7-2.8c0-1-0.4-2.9-1.7-2.9S13.2,36.4,13.2,37.4z"/>
			<path class="st10" d="M19.6,39.9l-1,2.3l-0.5-0.2l0.8-2.3L19.6,39.9z"/>
			<path class="st10" d="M25.7,37.3c0,1.7-0.9,3.5-2.4,3.5c-1.5,0-2.4-1.8-2.4-3.5c0-1.4,0.7-3.5,2.4-3.5
				C25,33.8,25.7,35.9,25.7,37.3z M21.6,37.4c0,1,0.4,2.8,1.7,2.8s1.7-1.8,1.7-2.8c0-1-0.4-2.9-1.7-2.9S21.6,36.4,21.6,37.4z"/>
			<path class="st10" d="M31.2,37.3c0,1.7-0.9,3.5-2.4,3.5s-2.4-1.8-2.4-3.5c0-1.4,0.7-3.5,2.4-3.5C30.5,33.8,31.2,35.9,31.2,37.3z
				 M27.1,37.4c0,1,0.4,2.8,1.7,2.8s1.7-1.8,1.7-2.8c0-1-0.4-2.9-1.7-2.9S27.1,36.4,27.1,37.4z"/>
			<path class="st10" d="M36.7,37.3c0,1.7-0.9,3.5-2.4,3.5c-1.5,0-2.4-1.8-2.4-3.5c0-1.4,0.7-3.5,2.4-3.5
				C36,33.8,36.7,35.9,36.7,37.3z M32.6,37.4c0,1,0.4,2.8,1.7,2.8s1.7-1.8,1.7-2.8c0-1-0.4-2.9-1.7-2.9S32.6,36.4,32.6,37.4z"/>
		</g>
		<rect class="st4" width="582.4" height="360"/>
	</g>
	<g>
		<g>
			<path class="st10" d="M37,321.2l0.4-0.7h1.5v6.8h-0.8v-6.1H37z"/>
			<path class="st10" d="M42.8,327l1.6-2.2l0,0c-0.2,0.1-0.4,0.1-0.6,0.1c-1.2,0-2.2-1-2.2-2.2c0-1.3,1.1-2.3,2.3-2.3
				c1.3,0,2.3,1,2.3,2.3c0,0.6-0.3,1.1-0.6,1.6l-2.3,3.1L42.8,327z M42.3,322.7c0,0.9,0.7,1.6,1.6,1.6c0.9,0,1.6-0.7,1.6-1.6
				c0-0.9-0.7-1.6-1.6-1.6C43,321.1,42.3,321.8,42.3,322.7z"/>
			<path class="st10" d="M48.3,327l1.6-2.2l0,0c-0.2,0.1-0.4,0.1-0.6,0.1c-1.2,0-2.2-1-2.2-2.2c0-1.3,1.1-2.3,2.3-2.3
				c1.3,0,2.3,1,2.3,2.3c0,0.6-0.3,1.1-0.6,1.6l-2.3,3.1L48.3,327z M47.8,322.7c0,0.9,0.7,1.6,1.6,1.6c0.9,0,1.6-0.7,1.6-1.6
				c0-0.9-0.7-1.6-1.6-1.6C48.5,321.1,47.8,321.8,47.8,322.7z"/>
			<path class="st10" d="M57.5,323.9c0,1.7-0.9,3.5-2.4,3.5c-1.5,0-2.4-1.8-2.4-3.5c0-1.4,0.7-3.5,2.4-3.5
				C56.8,320.4,57.5,322.5,57.5,323.9z M53.4,323.9c0,1,0.4,2.8,1.7,2.8s1.7-1.8,1.7-2.8c0-1-0.4-2.9-1.7-2.9S53.4,323,53.4,323.9z"
				/>
		</g>
		<rect class="st4" width="582.4" height="360"/>
	</g>
	<g>
		<g>
			<path class="st10" d="M132.2,321.2l0.4-0.7h1.5v6.8h-0.8v-6.1H132.2z"/>
			<path class="st10" d="M137.9,327l1.6-2.2l0,0c-0.2,0.1-0.4,0.1-0.6,0.1c-1.2,0-2.2-1-2.2-2.2c0-1.3,1.1-2.3,2.3-2.3
				c1.3,0,2.3,1,2.3,2.3c0,0.6-0.3,1.1-0.6,1.6l-2.3,3.1L137.9,327z M137.4,322.7c0,0.9,0.7,1.6,1.6,1.6c0.9,0,1.6-0.7,1.6-1.6
				c0-0.9-0.7-1.6-1.6-1.6C138.1,321.1,137.4,321.8,137.4,322.7z"/>
			<path class="st10" d="M143.4,327l1.6-2.2l0,0c-0.2,0.1-0.4,0.1-0.6,0.1c-1.2,0-2.2-1-2.2-2.2c0-1.3,1.1-2.3,2.3-2.3
				c1.3,0,2.3,1,2.3,2.3c0,0.6-0.3,1.1-0.6,1.6l-2.3,3.1L143.4,327z M143,322.7c0,0.9,0.7,1.6,1.6,1.6c0.9,0,1.6-0.7,1.6-1.6
				c0-0.9-0.7-1.6-1.6-1.6C143.7,321.1,143,321.8,143,322.7z"/>
			<path class="st10" d="M150,321.2l-0.4,1.4l0.4,0c1.3,0,2.3,1.1,2.3,2.4c0,1.4-1.1,2.4-2.5,2.4c-0.9,0-1.6-0.5-2.1-1.2l0.6-0.4
				c0.3,0.5,0.9,0.9,1.5,0.9c1,0,1.7-0.7,1.7-1.7c0-1-0.7-1.6-1.7-1.6c-0.5,0-0.9,0.2-1.3,0.4l1-3.3h2.7v0.7H150z"/>
		</g>
		<rect class="st4" width="582.4" height="360"/>
	</g>
	<g>
		<g>
			<path class="st10" d="M230.6,326.6v0.7h-4.4l3.2-3.8c0.3-0.3,0.5-0.7,0.5-1.1c0-0.8-0.6-1.3-1.4-1.3c-0.8,0-1.4,0.6-1.4,1.4h-0.8
				c0-1.2,0.9-2.1,2.1-2.1c1.1,0,2.1,0.8,2.1,2c0,0.5-0.2,1-0.5,1.4l-2.3,2.8H230.6z"/>
			<path class="st10" d="M236.6,323.9c0,1.7-0.9,3.5-2.4,3.5c-1.5,0-2.4-1.8-2.4-3.5c0-1.4,0.7-3.5,2.4-3.5
				C235.9,320.4,236.6,322.5,236.6,323.9z M232.5,323.9c0,1,0.4,2.8,1.7,2.8s1.7-1.8,1.7-2.8c0-1-0.4-2.9-1.7-2.9
				S232.5,323,232.5,323.9z"/>
			<path class="st10" d="M242.1,323.9c0,1.7-0.9,3.5-2.4,3.5s-2.4-1.8-2.4-3.5c0-1.4,0.7-3.5,2.4-3.5
				C241.4,320.4,242.1,322.5,242.1,323.9z M238,323.9c0,1,0.4,2.8,1.7,2.8s1.7-1.8,1.7-2.8c0-1-0.4-2.9-1.7-2.9S238,323,238,323.9z"
				/>
			<path class="st10" d="M247.8,323.9c0,1.7-0.9,3.5-2.4,3.5c-1.5,0-2.4-1.8-2.4-3.5c0-1.4,0.7-3.5,2.4-3.5
				C247.1,320.4,247.8,322.5,247.8,323.9z M243.7,323.9c0,1,0.4,2.8,1.7,2.8s1.7-1.8,1.7-2.8c0-1-0.4-2.9-1.7-2.9
				S243.7,323,243.7,323.9z"/>
		</g>
		<rect class="st4" width="582.4" height="360"/>
	</g>
	<g>
		<g>
			<path class="st10" d="M325.8,326.6v0.7h-4.4l3.2-3.8c0.3-0.3,0.5-0.7,0.5-1.1c0-0.8-0.6-1.3-1.3-1.3c-0.8,0-1.4,0.6-1.4,1.4h-0.8
				c0-1.2,0.9-2.1,2.1-2.1c1.1,0,2.1,0.8,2.1,2c0,0.5-0.2,1-0.5,1.4l-2.3,2.8H325.8z"/>
			<path class="st10" d="M331.8,323.9c0,1.7-0.9,3.5-2.4,3.5c-1.5,0-2.4-1.8-2.4-3.5c0-1.4,0.7-3.5,2.4-3.5
				C331,320.4,331.8,322.5,331.8,323.9z M327.7,323.9c0,1,0.4,2.8,1.7,2.8c1.3,0,1.7-1.8,1.7-2.8c0-1-0.4-2.9-1.7-2.9
				S327.6,323,327.7,323.9z"/>
			<path class="st10" d="M337.3,323.9c0,1.7-0.9,3.5-2.4,3.5c-1.5,0-2.4-1.8-2.4-3.5c0-1.4,0.7-3.5,2.4-3.5
				C336.6,320.4,337.3,322.5,337.3,323.9z M333.2,323.9c0,1,0.4,2.8,1.7,2.8c1.3,0,1.7-1.8,1.7-2.8c0-1-0.4-2.9-1.7-2.9
				S333.2,323,333.2,323.9z"/>
			<path class="st10" d="M340.3,321.2l-0.4,1.4l0.4,0c1.3,0,2.3,1.1,2.3,2.4c0,1.4-1.1,2.4-2.5,2.4c-0.9,0-1.6-0.5-2.1-1.2l0.6-0.4
				c0.3,0.5,0.9,0.9,1.5,0.9c1,0,1.7-0.7,1.7-1.7c0-1-0.7-1.6-1.7-1.6c-0.5,0-0.9,0.2-1.3,0.4l1-3.3h2.7v0.7H340.3z"/>
		</g>
		<rect class="st4" width="582.4" height="360"/>
	</g>
	<g>
		<g>
			<path class="st10" d="M420.9,326.6v0.7h-4.4l3.2-3.8c0.3-0.3,0.5-0.7,0.5-1.1c0-0.8-0.6-1.3-1.3-1.3c-0.8,0-1.4,0.6-1.4,1.4h-0.8
				c0-1.2,0.9-2.1,2.1-2.1c1.1,0,2.1,0.8,2.1,2c0,0.5-0.2,1-0.5,1.4l-2.3,2.8H420.9z"/>
			<path class="st10" d="M426.9,323.9c0,1.7-0.9,3.5-2.4,3.5c-1.5,0-2.4-1.8-2.4-3.5c0-1.4,0.7-3.5,2.4-3.5
				C426.2,320.4,426.9,322.5,426.9,323.9z M422.8,323.9c0,1,0.4,2.8,1.7,2.8c1.3,0,1.7-1.8,1.7-2.8c0-1-0.4-2.9-1.7-2.9
				S422.8,323,422.8,323.9z"/>
			<path class="st10" d="M428.6,321.2l0.4-0.7h1.5v6.8h-0.8v-6.1H428.6z"/>
			<path class="st10" d="M438.1,323.9c0,1.7-0.9,3.5-2.4,3.5c-1.5,0-2.4-1.8-2.4-3.5c0-1.4,0.7-3.5,2.4-3.5
				C437.3,320.4,438.1,322.5,438.1,323.9z M434,323.9c0,1,0.4,2.8,1.7,2.8c1.3,0,1.7-1.8,1.7-2.8c0-1-0.4-2.9-1.7-2.9
				S433.9,323,434,323.9z"/>
		</g>
		<rect class="st4" width="582.4" height="360"/>
	</g>
	<g>
		<g>
			<path class="st10" d="M516.1,326.6v0.7h-4.4l3.2-3.8c0.3-0.3,0.5-0.7,0.5-1.1c0-0.8-0.6-1.3-1.3-1.3c-0.8,0-1.4,0.6-1.4,1.4h-0.8
				c0-1.2,0.9-2.1,2.1-2.1c1.1,0,2.1,0.8,2.1,2c0,0.5-0.2,1-0.5,1.4l-2.3,2.8H516.1z"/>
			<path class="st10" d="M522,323.9c0,1.7-0.9,3.5-2.4,3.5c-1.5,0-2.4-1.8-2.4-3.5c0-1.4,0.7-3.5,2.4-3.5
				C521.3,320.4,522,322.5,522,323.9z M517.9,323.9c0,1,0.4,2.8,1.7,2.8c1.3,0,1.7-1.8,1.7-2.8c0-1-0.4-2.9-1.7-2.9
				S517.9,323,517.9,323.9z"/>
			<path class="st10" d="M523.8,321.2l0.4-0.7h1.5v6.8h-0.8v-6.1H523.8z"/>
			<path class="st10" d="M530.5,321.2l-0.4,1.4l0.4,0c1.3,0,2.3,1.1,2.3,2.4c0,1.4-1.1,2.4-2.5,2.4c-0.9,0-1.6-0.5-2.1-1.2l0.6-0.4
				c0.3,0.5,0.9,0.9,1.5,0.9c1,0,1.7-0.7,1.7-1.7c0-1-0.7-1.6-1.7-1.6c-0.5,0-0.9,0.2-1.3,0.4l1-3.3h2.7v0.7H530.5z"/>
		</g>
		<rect class="st4" width="582.4" height="360"/>
	</g>
	<g>
		<g>
			<path class="st11" d="M191.2,18.6l-1.3,3h-1.3l4.9-11.1l4.8,11.1H197l-1.2-3H191.2z M193.5,13.2l-1.8,4.2h3.6L193.5,13.2z"/>
			<path class="st11" d="M204.7,20.7L204.7,20.7c-0.6,0.7-1.4,1.1-2.3,1.1c-1.9,0-3.2-1.6-3.2-3.5c0-1.9,1.2-3.5,3.2-3.5
				c0.9,0,1.7,0.4,2.3,1.1h0V10h1.1v11.6h-1.1V20.7z M200.4,18.2c0,1.3,0.8,2.5,2.2,2.5c1.4,0,2.2-1.2,2.2-2.5
				c0-1.3-0.8-2.4-2.2-2.4C201.3,15.8,200.4,17,200.4,18.2z"/>
			<path class="st11" d="M214.4,21.6h-1.1v-0.9h0c-0.6,0.7-1.3,1.1-2.3,1.1c-1.9,0-3.2-1.6-3.2-3.5c0-1.9,1.2-3.5,3.2-3.5
				c0.9,0,1.7,0.4,2.3,1.1h0V15h1.1V21.6z M208.9,18.2c0,1.3,0.8,2.5,2.2,2.5c1.4,0,2.2-1.2,2.2-2.5c0-1.3-0.8-2.4-2.2-2.4
				C209.8,15.8,208.9,17,208.9,18.2z"/>
			<path class="st11" d="M223,18.6l-1.3,3h-1.3l4.9-11.1l4.8,11.1h-1.3l-1.2-3H223z M225.3,13.2l-1.8,4.2h3.6L225.3,13.2z"/>
			<path class="st11" d="M236.5,20.7L236.5,20.7c-0.6,0.7-1.4,1.1-2.3,1.1c-1.9,0-3.2-1.6-3.2-3.5c0-1.9,1.2-3.5,3.2-3.5
				c0.9,0,1.7,0.4,2.3,1.1h0V10h1.1v11.6h-1.1V20.7z M232.2,18.2c0,1.3,0.8,2.5,2.2,2.5c1.4,0,2.2-1.2,2.2-2.5
				c0-1.3-0.8-2.4-2.2-2.4C233,15.8,232.2,17,232.2,18.2z"/>
			<path class="st11" d="M241.7,12.5c0,0.4-0.4,0.8-0.8,0.8s-0.8-0.4-0.8-0.8c0-0.4,0.4-0.8,0.8-0.8S241.7,12.1,241.7,12.5z
				 M241.4,25.3h-1.1V15h1.1V25.3z"/>
			<path class="st11" d="M245.2,18.7c0,1.1,0.1,2.1,1.5,2.1s1.5-1,1.5-2.1V15h1.1v3.8c0,1.8-0.7,3-2.6,3s-2.6-1.2-2.6-3V15h1.1V18.7
				z"/>
			<path class="st11" d="M254.4,16.5c-0.2-0.4-0.5-0.7-0.9-0.7c-0.4,0-0.8,0.3-0.8,0.7c0,0.6,0.8,0.8,1.5,1.2
				c0.8,0.3,1.5,0.8,1.5,1.9c0,1.2-1,2.1-2.2,2.1c-1.1,0-2-0.6-2.3-1.7l1-0.4c0.3,0.6,0.6,1.1,1.3,1.1c0.6,0,1.1-0.4,1.1-1
				c0-1.5-3-1-3-3c0-1.1,0.9-1.9,2-1.9c0.8,0,1.5,0.5,1.8,1.2L254.4,16.5z"/>
			<path class="st11" d="M258.9,21.6h-1.1V16h-0.7v-1h0.7v-2.4h1.1V15h1.2v1h-1.2V21.6z"/>
			<path class="st11" d="M262,18.5c0,1.2,0.9,2.2,2.2,2.2c1,0,1.6-0.6,2-1.4l1,0.5c-0.6,1.2-1.7,1.9-3,1.9c-2,0-3.2-1.5-3.2-3.4
				c0-2,1.1-3.6,3.2-3.6c2.1,0,3.2,1.8,3.1,3.7H262z M266,17.6c-0.2-1-1-1.7-1.9-1.7c-1,0-1.9,0.8-2,1.7H266z"/>
			<path class="st11" d="M274,20.7L274,20.7c-0.6,0.7-1.4,1.1-2.3,1.1c-1.9,0-3.2-1.6-3.2-3.5c0-1.9,1.2-3.5,3.2-3.5
				c0.9,0,1.7,0.4,2.3,1.1h0V10h1.1v11.6H274V20.7z M269.7,18.2c0,1.3,0.8,2.5,2.2,2.5c1.4,0,2.2-1.2,2.2-2.5c0-1.3-0.8-2.4-2.2-2.4
				C270.5,15.8,269.7,17,269.7,18.2z"/>
			<path class="st11" d="M282.1,11h5.5v1.1h-4.3v3.1h4.2v1.1h-4.2v4.2h4.3v1.1h-5.5V11z"/>
			<path class="st11" d="M291.1,15.7L291.1,15.7c0.4-0.5,0.9-0.9,1.6-0.9c0.8,0,1.5,0.4,1.8,1.1c0.4-0.7,1.2-1.1,2-1.1
				c1.7,0,2.1,1.4,2.1,2.8v4h-1.1v-3.8c0-0.9-0.1-1.9-1.2-1.9c-1.3,0-1.4,1.2-1.4,2.2v3.5h-1.1v-3.7c0-0.8-0.1-2-1.2-2
				c-1.3,0-1.5,1.3-1.5,2.3v3.4H290V15h1.1V15.7z"/>
			<path class="st11" d="M302.2,15.9L302.2,15.9c0.6-0.7,1.4-1.1,2.3-1.1c1.9,0,3.2,1.7,3.2,3.5c0,1.9-1.2,3.5-3.2,3.5
				c-0.9,0-1.7-0.4-2.3-1.1h0v4.6h-1.1V15h1.1V15.9z M302.1,18.2c0,1.3,0.8,2.5,2.2,2.5c1.4,0,2.2-1.2,2.2-2.5
				c0-1.3-0.8-2.4-2.2-2.4C303,15.8,302.1,17,302.1,18.2z"/>
			<path class="st11" d="M310.7,21.6h-1.1V10h1.1V21.6z"/>
			<path class="st11" d="M312.6,18.3c0-1.9,1.5-3.5,3.5-3.5c1.9,0,3.5,1.6,3.5,3.5c0,1.9-1.5,3.5-3.5,3.5
				C314.2,21.8,312.6,20.2,312.6,18.3z M313.8,18.3c0,1.3,1,2.4,2.3,2.4s2.3-1.1,2.3-2.4c0-1.3-1-2.4-2.3-2.4S313.8,16.9,313.8,18.3
				z"/>
			<path class="st11" d="M320.4,15h1.3l2.3,4.7l2.1-4.7h1.3l-4.9,10.3h-1.3l2.1-4.3L320.4,15z"/>
			<path class="st11" d="M329.9,15.7L329.9,15.7c0.4-0.5,0.9-0.9,1.6-0.9c0.8,0,1.5,0.4,1.8,1.1c0.4-0.7,1.2-1.1,2-1.1
				c1.7,0,2.1,1.4,2.1,2.8v4h-1.1v-3.8c0-0.9-0.1-1.9-1.2-1.9c-1.3,0-1.4,1.2-1.4,2.2v3.5h-1.1v-3.7c0-0.8-0.1-2-1.2-2
				c-1.3,0-1.5,1.3-1.5,2.3v3.4h-1.1V15h1.1V15.7z"/>
			<path class="st11" d="M340.5,18.5c0,1.2,0.9,2.2,2.2,2.2c1,0,1.6-0.6,2-1.4l1,0.5c-0.6,1.2-1.7,1.9-3,1.9c-2,0-3.2-1.5-3.2-3.4
				c0-2,1.1-3.6,3.2-3.6c2.1,0,3.2,1.8,3.1,3.7H340.5z M344.5,17.6c-0.2-1-1-1.7-1.9-1.7c-1,0-1.9,0.8-2,1.7H344.5z"/>
			<path class="st11" d="M348.8,15.8L348.8,15.8c0.5-0.6,1.1-1,1.9-1c1.8,0,2.2,1.3,2.2,2.9v3.9h-1.1v-3.7c0-1.1-0.1-2-1.4-2
				c-1.5,0-1.6,1.4-1.6,2.6v3.1h-1.1V15h1.1V15.8z"/>
			<path class="st11" d="M356.6,21.6h-1.1V16h-0.7v-1h0.7v-2.4h1.1V15h1.2v1h-1.2V21.6z"/>
			<path class="st11" d="M364.6,20.5h2.9v1.1h-4.1V11h1.2V20.5z"/>
			<path class="st11" d="M369.6,18.5c0,1.2,0.9,2.2,2.2,2.2c1,0,1.6-0.6,2-1.4l1,0.5c-0.6,1.2-1.7,1.9-3,1.9c-2,0-3.2-1.5-3.2-3.4
				c0-2,1.1-3.6,3.2-3.6c2.1,0,3.2,1.8,3.1,3.7H369.6z M373.6,17.6c-0.2-1-1-1.7-1.9-1.7c-1,0-1.9,0.8-2,1.7H373.6z"/>
			<path class="st11" d="M379,19.4l2-4.4h1.3l-3.2,7l-3.2-7h1.3L379,19.4z"/>
			<path class="st11" d="M384.2,18.5c0,1.2,0.9,2.2,2.2,2.2c1,0,1.6-0.6,2-1.4l1,0.5c-0.6,1.2-1.7,1.9-3,1.9c-2,0-3.2-1.5-3.2-3.4
				c0-2,1.1-3.6,3.2-3.6c2.1,0,3.2,1.8,3.1,3.7H384.2z M388.2,17.6c-0.2-1-1-1.7-1.9-1.7c-1,0-1.9,0.8-2,1.7H388.2z"/>
			<path class="st11" d="M392.4,21.6h-1.1V10h1.1V21.6z"/>
		</g>
		<rect y="6" class="st4" width="582.4" height="180"/>
	</g>
	<g>
		<polygon class="st2" points="176.2,342.6 201.4,342.6 201.4,347.9 176.2,347.9 176.2,342.6 		"/>
		<polygon class="st3" points="176.2,342.6 201.4,342.6 201.4,347.9 176.2,347.9 176.2,342.6 		"/>
		<polygon class="st4" points="0,360 582.4,360 582.4,0 0,0 0,360 		"/>
	</g>
	<g>
		<g>
			<path class="st12" d="M205.6,347.7h-0.8v-6.8h1c1.3,0,2.5,0.3,2.5,1.9c0,1-0.7,1.8-1.7,1.9l2.2,3h-0.9l-2.1-3h-0.2V347.7z
				 M205.6,344.1h0.2c0.9,0,1.7-0.2,1.7-1.2c0-1.1-0.8-1.2-1.7-1.2h-0.2V344.1z"/>
			<path class="st12" d="M210.1,345.8c0,0.8,0.6,1.4,1.4,1.4c0.6,0,1-0.4,1.3-0.9l0.6,0.4c-0.4,0.8-1.1,1.2-2,1.2
				c-1.3,0-2.1-1-2.1-2.2c0-1.3,0.7-2.3,2.1-2.3c1.4,0,2.1,1.1,2,2.4H210.1z M212.7,345.2c-0.1-0.6-0.6-1.1-1.2-1.1
				c-0.6,0-1.2,0.5-1.3,1.1H212.7z"/>
			<path class="st12" d="M217.6,344.8L217.6,344.8c-0.4-0.4-0.8-0.7-1.3-0.7c-0.9,0-1.5,0.7-1.5,1.6c0,0.8,0.6,1.6,1.5,1.6
				c0.6,0,1-0.3,1.4-0.7h0v1c-0.4,0.3-0.8,0.4-1.3,0.4c-1.3,0-2.3-1-2.3-2.2c0-1.3,1-2.2,2.3-2.2c0.5,0,0.9,0.2,1.3,0.4V344.8z"/>
			<path class="st12" d="M219,345.8c0,0.8,0.6,1.4,1.4,1.4c0.6,0,1-0.4,1.3-0.9l0.6,0.4c-0.4,0.8-1.1,1.2-2,1.2
				c-1.3,0-2.1-1-2.1-2.2c0-1.3,0.7-2.3,2.1-2.3c1.4,0,2.1,1.1,2,2.4H219z M221.6,345.2c-0.1-0.6-0.6-1.1-1.2-1.1
				c-0.6,0-1.2,0.5-1.3,1.1H221.6z"/>
			<path class="st12" d="M225,344.5c-0.1-0.2-0.3-0.4-0.6-0.4c-0.3,0-0.5,0.2-0.5,0.5c0,0.4,0.5,0.5,1,0.7s1,0.5,1,1.2
				c0,0.8-0.6,1.4-1.4,1.4c-0.7,0-1.3-0.4-1.5-1.1l0.6-0.3c0.2,0.4,0.4,0.7,0.9,0.7c0.4,0,0.7-0.3,0.7-0.6c0-0.9-1.9-0.6-1.9-2
				c0-0.7,0.6-1.2,1.3-1.2c0.5,0,0.9,0.3,1.1,0.8L225,344.5z"/>
			<path class="st12" d="M228.6,344.5c-0.1-0.2-0.3-0.4-0.6-0.4c-0.3,0-0.5,0.2-0.5,0.5c0,0.4,0.5,0.5,1,0.7s1,0.5,1,1.2
				c0,0.8-0.6,1.4-1.4,1.4c-0.7,0-1.3-0.4-1.5-1.1l0.6-0.3c0.2,0.4,0.4,0.7,0.9,0.7c0.4,0,0.7-0.3,0.7-0.6c0-0.9-1.9-0.6-1.9-2
				c0-0.7,0.6-1.2,1.3-1.2c0.5,0,0.9,0.3,1.1,0.8L228.6,344.5z"/>
			<path class="st12" d="M231.5,341.9c0,0.3-0.2,0.5-0.5,0.5c-0.3,0-0.5-0.2-0.5-0.5c0-0.3,0.2-0.5,0.5-0.5
				C231.3,341.4,231.5,341.6,231.5,341.9z M231.4,347.7h-0.7v-4.2h0.7V347.7z"/>
			<path class="st12" d="M232.6,345.6c0-1.2,1-2.2,2.2-2.2s2.2,1,2.2,2.2s-1,2.2-2.2,2.2S232.6,346.9,232.6,345.6z M233.3,345.6
				c0,0.9,0.6,1.6,1.5,1.6s1.5-0.7,1.5-1.6c0-0.9-0.6-1.6-1.5-1.6S233.3,344.8,233.3,345.6z"/>
			<path class="st12" d="M238.7,344L238.7,344c0.3-0.4,0.7-0.6,1.2-0.6c1.2,0,1.4,0.8,1.4,1.8v2.5h-0.7v-2.4c0-0.7-0.1-1.3-0.9-1.3
				c-1,0-1.1,0.9-1.1,1.7v2H238v-4.2h0.7V344z"/>
		</g>
		<rect class="st4" width="582.4" height="360"/>
	</g>
	<g>
		<line class="st6" x1="256.3" y1="345.2" x2="281.5" y2="345.2"/>
		<polygon class="st4" points="0,360 582.4,360 582.4,0 0,0 0,360 		"/>
	</g>
	<g>
		<g>
			<path class="st12" d="M286,345.8l-0.8,1.9h-0.8l3.1-7.1l3.1,7.1h-0.8l-0.8-1.9H286z M287.5,342.4l-1.2,2.7h2.3L287.5,342.4z"/>
			<path class="st12" d="M294.4,347.2L294.4,347.2c-0.4,0.5-0.9,0.7-1.5,0.7c-1.2,0-2-1.1-2-2.2c0-1.2,0.8-2.2,2-2.2
				c0.6,0,1.1,0.3,1.5,0.7h0v-3.8h0.7v7.4h-0.7V347.2z M291.7,345.6c0,0.8,0.5,1.6,1.4,1.6c0.9,0,1.4-0.7,1.4-1.6
				c0-0.8-0.5-1.5-1.4-1.5C292.2,344.1,291.7,344.8,291.7,345.6z"/>
			<path class="st12" d="M300.4,347.7h-0.7v-0.6h0c-0.4,0.5-0.9,0.7-1.5,0.7c-1.2,0-2-1.1-2-2.2c0-1.2,0.8-2.2,2-2.2
				c0.6,0,1.1,0.3,1.5,0.7h0v-0.6h0.7V347.7z M296.9,345.6c0,0.8,0.5,1.6,1.4,1.6c0.9,0,1.4-0.7,1.4-1.6c0-0.8-0.5-1.5-1.4-1.5
				C297.5,344.1,296.9,344.8,296.9,345.6z"/>
			<path class="st12" d="M304.5,340.9h3.5v0.7h-2.8v2h2.7v0.7h-2.7v2.7h2.8v0.7h-3.5V340.9z"/>
			<path class="st12" d="M310,344L310,344c0.2-0.4,0.6-0.6,1-0.6c0.5,0,0.9,0.3,1.2,0.7c0.3-0.5,0.8-0.7,1.3-0.7
				c1.1,0,1.3,0.9,1.3,1.8v2.6h-0.7v-2.5c0-0.5,0-1.2-0.8-1.2c-0.8,0-0.9,0.8-0.9,1.4v2.2h-0.7v-2.4c0-0.5-0.1-1.3-0.8-1.3
				c-0.8,0-0.9,0.9-0.9,1.5v2.2h-0.7v-4.2h0.7V344z"/>
			<path class="st12" d="M316.9,344.1L316.9,344.1c0.4-0.5,0.9-0.7,1.5-0.7c1.2,0,2,1.1,2,2.2c0,1.2-0.8,2.2-2,2.2
				c-0.6,0-1.1-0.3-1.4-0.7h0v3h-0.7v-6.6h0.7V344.1z M316.9,345.6c0,0.8,0.5,1.6,1.4,1.6c0.9,0,1.4-0.7,1.4-1.6
				c0-0.8-0.5-1.5-1.4-1.5C317.4,344.1,316.9,344.8,316.9,345.6z"/>
			<path class="st12" d="M322.1,347.7h-0.7v-7.4h0.7V347.7z"/>
			<path class="st12" d="M323.1,345.6c0-1.2,1-2.2,2.2-2.2c1.2,0,2.2,1,2.2,2.2s-1,2.2-2.2,2.2S323.1,346.9,323.1,345.6z
				 M323.8,345.6c0,0.9,0.6,1.6,1.5,1.6c0.9,0,1.5-0.7,1.5-1.6c0-0.9-0.6-1.6-1.5-1.6C324.4,344.1,323.8,344.8,323.8,345.6z"/>
			<path class="st12" d="M327.8,343.5h0.8l1.5,3l1.4-3h0.8l-3.1,6.6h-0.8l1.4-2.8L327.8,343.5z"/>
			<path class="st12" d="M333.4,345.8c0,0.8,0.6,1.4,1.4,1.4c0.6,0,1-0.4,1.3-0.9l0.6,0.4c-0.4,0.8-1.1,1.2-2,1.2
				c-1.3,0-2.1-1-2.1-2.2c0-1.3,0.7-2.3,2.1-2.3c1.4,0,2.1,1.1,2,2.4H333.4z M336,345.2c-0.1-0.6-0.6-1.1-1.2-1.1
				c-0.6,0-1.2,0.5-1.3,1.1H336z"/>
			<path class="st12" d="M340.8,347.2L340.8,347.2c-0.4,0.5-0.9,0.7-1.5,0.7c-1.2,0-2-1.1-2-2.2c0-1.2,0.8-2.2,2-2.2
				c0.6,0,1.1,0.3,1.5,0.7h0v-3.8h0.7v7.4h-0.7V347.2z M338,345.6c0,0.8,0.5,1.6,1.4,1.6c0.9,0,1.4-0.7,1.4-1.6
				c0-0.8-0.5-1.5-1.4-1.5C338.5,344.1,338,344.8,338,345.6z"/>
		</g>
		<rect class="st4" width="582.4" height="360"/>
	</g>
	<polygon class="st13" points="0,0 582.5,0 582.5,360 0,360 0,0 	"/>
</g>
<g>
	<path d="M401.9,64.5v0.9h-5.9l4.2-5c0.4-0.4,0.6-0.9,0.6-1.5c0-1-0.8-1.8-1.8-1.8c-1.1,0-1.8,0.8-1.8,1.9h-1c0-1.6,1.2-2.8,2.8-2.8
		c1.5,0,2.8,1.1,2.8,2.7c0,0.7-0.2,1.4-0.7,1.9l-3.1,3.7H401.9z"/>
	<path d="M409.9,60.9c0,2.2-1.2,4.7-3.2,4.7c-2.1,0-3.2-2.4-3.2-4.7c0-1.9,0.9-4.7,3.2-4.7C409,56.2,409.9,59.1,409.9,60.9z
		 M404.4,61c0,1.3,0.6,3.7,2.2,3.7s2.2-2.4,2.2-3.7c0-1.3-0.5-3.8-2.2-3.8S404.4,59.7,404.4,61z"/>
	<path d="M412.3,57.3l0.5-0.9h2v9h-1v-8.1H412.3z"/>
	<path d="M421.1,57.3l-0.6,1.9l0.5,0c1.8,0,3,1.4,3,3.2c0,1.9-1.5,3.2-3.3,3.2c-1.2,0-2.2-0.6-2.8-1.6l0.8-0.6
		c0.4,0.7,1.1,1.3,2,1.3c1.3,0,2.3-1,2.3-2.3c0-1.3-1-2.2-2.3-2.2c-0.6,0-1.2,0.2-1.7,0.6l1.3-4.3h3.6v0.9H421.1z"/>
	<path d="M429.8,56.4h4.7v0.9h-3.7V60h3.6V61h-3.6v3.5h3.7v0.9h-4.7V56.4z"/>
	<path d="M437.1,60.4L437.1,60.4c0.3-0.5,0.8-0.8,1.4-0.8c0.7,0,1.3,0.3,1.6,0.9c0.3-0.6,1-0.9,1.7-0.9c1.4,0,1.8,1.2,1.8,2.4v3.4
		h-1v-3.3c0-0.7,0-1.6-1-1.6c-1.1,0-1.2,1.1-1.2,1.9v3h-1v-3.2c0-0.7-0.1-1.7-1-1.7c-1.1,0-1.2,1.1-1.2,2v2.9h-1v-5.6h1V60.4z"/>
	<path d="M446.3,60.6L446.3,60.6c0.5-0.6,1.2-1,2-1c1.7,0,2.7,1.4,2.7,3c0,1.6-1,3-2.7,3c-0.8,0-1.5-0.3-1.9-0.9h0v4h-1v-8.8h1V60.6
		z M446.2,62.6c0,1.1,0.6,2.1,1.8,2.1c1.2,0,1.9-1,1.9-2.1c0-1.1-0.7-2-1.9-2C447,60.5,446.2,61.5,446.2,62.6z"/>
	<path d="M453.2,65.4h-1v-9.9h1V65.4z"/>
	<path d="M454.5,62.6c0-1.7,1.3-3,3-3s3,1.3,3,3c0,1.7-1.3,3-3,3S454.5,64.3,454.5,62.6z M455.5,62.6c0,1.2,0.8,2.1,2,2.1
		s2-0.9,2-2.1c0-1.1-0.8-2.1-2-2.1S455.5,61.5,455.5,62.6z"/>
	<path d="M460.8,59.8h1.1l2,4l1.8-4h1.1l-4.2,8.8h-1.1l1.8-3.7L460.8,59.8z"/>
	<path d="M468.7,60.4L468.7,60.4c0.3-0.5,0.8-0.8,1.4-0.8c0.7,0,1.3,0.3,1.6,0.9c0.3-0.6,1-0.9,1.7-0.9c1.4,0,1.8,1.2,1.8,2.4v3.4
		h-1v-3.3c0-0.7,0-1.6-1-1.6c-1.1,0-1.2,1.1-1.2,1.9v3h-1v-3.2c0-0.7-0.1-1.7-1-1.7c-1.1,0-1.2,1.1-1.2,2v2.9h-1v-5.6h1V60.4z"/>
	<path d="M477.4,62.8c0,1,0.8,1.9,1.8,1.9c0.8,0,1.3-0.5,1.7-1.2l0.8,0.5c-0.5,1-1.5,1.6-2.6,1.6c-1.7,0-2.8-1.3-2.8-2.9
		c0-1.7,1-3,2.7-3c1.8,0,2.8,1.5,2.7,3.2H477.4z M480.9,62c-0.1-0.8-0.8-1.5-1.7-1.5c-0.8,0-1.6,0.7-1.7,1.5H480.9z"/>
	<path d="M484.2,60.5L484.2,60.5c0.4-0.5,0.9-0.8,1.6-0.8c1.6,0,1.9,1.1,1.9,2.4v3.3h-1v-3.2c0-0.9-0.1-1.7-1.2-1.7
		c-1.3,0-1.4,1.2-1.4,2.2v2.7h-1v-5.6h1V60.5z"/>
	<path d="M490.5,65.4h-1v-4.7H489v-0.9h0.6v-2h1v2h1v0.9h-1V65.4z"/>
	<path d="M497.1,64.5h2.5v0.9h-3.5v-9h1V64.5z"/>
	<path d="M501.1,62.8c0,1,0.8,1.9,1.8,1.9c0.8,0,1.3-0.5,1.7-1.2l0.8,0.5c-0.5,1-1.5,1.6-2.6,1.6c-1.7,0-2.8-1.3-2.8-2.9
		c0-1.7,1-3,2.7-3c1.8,0,2.8,1.5,2.7,3.2H501.1z M504.5,62c-0.1-0.8-0.8-1.5-1.7-1.5c-0.8,0-1.6,0.7-1.7,1.5H504.5z"/>
	<path d="M508.7,63.6l1.7-3.8h1.1l-2.8,6l-2.8-6h1.1L508.7,63.6z"/>
	<path d="M512.9,62.8c0,1,0.8,1.9,1.8,1.9c0.8,0,1.3-0.5,1.7-1.2l0.8,0.5c-0.5,1-1.5,1.6-2.6,1.6c-1.7,0-2.8-1.3-2.8-2.9
		c0-1.7,1-3,2.7-3c1.8,0,2.8,1.5,2.7,3.2H512.9z M516.3,62c-0.1-0.8-0.8-1.5-1.7-1.5c-0.8,0-1.6,0.7-1.7,1.5H516.3z"/>
	<path d="M519.5,65.4h-1v-9.9h1V65.4z"/>
	<path d="M522.9,60.3c0,0.4-0.3,0.7-0.7,0.7c-0.4,0-0.7-0.3-0.7-0.7c0-0.4,0.3-0.7,0.7-0.7C522.6,59.6,522.9,59.9,522.9,60.3z
		 M522.9,64.9c0,0.4-0.3,0.7-0.7,0.7c-0.4,0-0.7-0.3-0.7-0.7c0-0.4,0.3-0.7,0.7-0.7C522.6,64.3,522.9,64.6,522.9,64.9z"/>
	<path d="M529.7,57.3l0.5-0.9h2v9h-1v-8.1H529.7z"/>
	<path d="M535.8,57.3v-0.9h6.7l-6.1,9.2l-0.8-0.5l5.1-7.8H535.8z"/>
	<path d="M545.3,64.4l-1.4,3.1l-0.6-0.3l1.1-3.1L545.3,64.4z"/>
	<path d="M546.9,57.3v-0.9h6.7l-6.1,9.2l-0.8-0.5l5.1-7.8H546.9z"/>
	<path d="M560.5,63V64h-1.1v1.5h-1V64h-4.6l5.6-8.1h0V63H560.5z M558.4,59L558.4,59l-2.9,4.1h2.9V59z"/>
	<path d="M566.2,56.8l-2.1,2.8l0,0c0.1,0,0.3-0.1,0.4-0.1c0.1,0,0.3,0,0.4,0c1.6,0,2.9,1.4,2.9,3c0,1.7-1.4,3.1-3.1,3.1
		c-1.7,0-3.1-1.4-3.1-3.1c0-0.8,0.4-1.5,0.8-2.2l3-4.1L566.2,56.8z M566.8,62.5c0-1.2-0.9-2.1-2.1-2.1c-1.2,0-2.1,0.9-2.1,2.1
		s0.9,2.1,2.1,2.1C565.9,64.7,566.8,63.7,566.8,62.5z"/>
</g>
<g>
	<path d="M394.2,261.8l0.5-0.9h2v9h-1v-8.1H394.2z"/>
	<path d="M401.9,269.6l2.1-2.9l0,0c-0.2,0.1-0.5,0.1-0.8,0.1c-1.7,0-2.9-1.3-2.9-3c0-1.7,1.4-3.1,3.1-3.1s3.1,1.4,3.1,3.1
		c0,0.8-0.4,1.5-0.8,2.2l-3,4.1L401.9,269.6z M401.3,263.8c0,1.2,0.9,2.1,2.1,2.1c1.2,0,2.1-0.9,2.1-2.1c0-1.2-0.9-2.1-2.1-2.1
		C402.2,261.7,401.3,262.6,401.3,263.8z"/>
	<path d="M409.3,269.6l2.1-2.9l0,0c-0.2,0.1-0.5,0.1-0.8,0.1c-1.7,0-2.9-1.3-2.9-3c0-1.7,1.4-3.1,3.1-3.1s3.1,1.4,3.1,3.1
		c0,0.8-0.4,1.5-0.8,2.2l-3,4.1L409.3,269.6z M408.7,263.8c0,1.2,0.9,2.1,2.1,2.1c1.2,0,2.1-0.9,2.1-2.1c0-1.2-0.9-2.1-2.1-2.1
		C409.6,261.7,408.7,262.6,408.7,263.8z"/>
	<path d="M420.7,263.3c0,0.8-0.4,1.6-1.1,2c0.9,0.4,1.3,1.2,1.3,2.2c0,1.6-1.2,2.7-2.8,2.7c-1.6,0-2.8-1.1-2.8-2.7
		c0-0.9,0.5-1.8,1.3-2.2c-0.7-0.4-1.1-1.2-1.1-2c0-1.5,1.1-2.5,2.5-2.5C419.6,260.7,420.7,261.8,420.7,263.3z M416.5,267.4
		c0,1,0.8,1.7,1.8,1.7s1.8-0.8,1.8-1.7c0-1-0.8-1.7-1.8-1.7S416.5,266.5,416.5,267.4z M416.6,263.2c0,0.9,0.7,1.6,1.6,1.6
		c0.9,0,1.6-0.7,1.6-1.6c0-0.9-0.7-1.6-1.6-1.6C417.3,261.7,416.6,262.4,416.6,263.2z"/>
	<path d="M426.5,260.9h4.7v0.9h-3.7v2.7h3.6v0.9h-3.6v3.5h3.7v0.9h-4.7V260.9z"/>
	<path d="M433.9,264.9L433.9,264.9c0.3-0.5,0.8-0.8,1.4-0.8c0.7,0,1.3,0.3,1.6,0.9c0.3-0.6,1-0.9,1.7-0.9c1.4,0,1.8,1.2,1.8,2.4v3.4
		h-1v-3.3c0-0.7,0-1.6-1-1.6c-1.1,0-1.2,1.1-1.2,1.9v3h-1v-3.2c0-0.7-0.1-1.7-1-1.7c-1.1,0-1.2,1.1-1.2,2v2.9h-1v-5.6h1V264.9z"/>
	<path d="M443.1,265.1L443.1,265.1c0.5-0.6,1.2-1,2-1c1.7,0,2.7,1.4,2.7,3c0,1.6-1,3-2.7,3c-0.8,0-1.5-0.3-1.9-0.9h0v4h-1v-8.8h1
		V265.1z M443,267.1c0,1.1,0.6,2.1,1.8,2.1c1.2,0,1.9-1,1.9-2.1c0-1.1-0.7-2-1.9-2C443.7,265,443,266,443,267.1z"/>
	<path d="M450,269.9h-1V260h1V269.9z"/>
	<path d="M451.3,267.1c0-1.7,1.3-3,3-3s3,1.3,3,3s-1.3,3-3,3S451.3,268.8,451.3,267.1z M452.2,267.1c0,1.2,0.8,2.1,2,2.1
		s2-0.9,2-2.1c0-1.1-0.8-2.1-2-2.1S452.2,266,452.2,267.1z"/>
	<path d="M457.6,264.3h1.1l2,4l1.8-4h1.1l-4.2,8.8h-1.1l1.8-3.7L457.6,264.3z"/>
	<path d="M465.5,264.9L465.5,264.9c0.3-0.5,0.8-0.8,1.4-0.8c0.7,0,1.3,0.3,1.6,0.9c0.3-0.6,1-0.9,1.7-0.9c1.4,0,1.8,1.2,1.8,2.4v3.4
		h-1v-3.3c0-0.7,0-1.6-1-1.6c-1.1,0-1.2,1.1-1.2,1.9v3h-1v-3.2c0-0.7-0.1-1.7-1-1.7c-1.1,0-1.2,1.1-1.2,2v2.9h-1v-5.6h1V264.9z"/>
	<path d="M474.2,267.3c0,1,0.8,1.9,1.8,1.9c0.8,0,1.3-0.5,1.7-1.2l0.8,0.5c-0.5,1-1.5,1.6-2.6,1.6c-1.7,0-2.8-1.3-2.8-2.9
		c0-1.7,1-3,2.7-3c1.8,0,2.8,1.5,2.7,3.2H474.2z M477.6,266.5c-0.1-0.8-0.8-1.5-1.7-1.5c-0.8,0-1.6,0.7-1.7,1.5H477.6z"/>
	<path d="M480.9,265L480.9,265c0.4-0.5,0.9-0.8,1.6-0.8c1.6,0,1.9,1.1,1.9,2.4v3.3h-1v-3.2c0-0.9-0.1-1.7-1.2-1.7
		c-1.3,0-1.4,1.2-1.4,2.2v2.7h-1v-5.6h1V265z"/>
	<path d="M487.3,269.9h-1v-4.7h-0.6v-0.9h0.6v-2h1v2h1v0.9h-1V269.9z"/>
	<path d="M493.9,269h2.5v0.9h-3.5v-9h1V269z"/>
	<path d="M497.8,267.3c0,1,0.8,1.9,1.8,1.9c0.8,0,1.3-0.5,1.7-1.2l0.8,0.5c-0.5,1-1.5,1.6-2.6,1.6c-1.7,0-2.8-1.3-2.8-2.9
		c0-1.7,1-3,2.7-3c1.8,0,2.8,1.5,2.7,3.2H497.8z M501.3,266.5c-0.1-0.8-0.8-1.5-1.7-1.5c-0.8,0-1.6,0.7-1.7,1.5H501.3z"/>
	<path d="M505.5,268.1l1.7-3.8h1.1l-2.8,6l-2.8-6h1.1L505.5,268.1z"/>
	<path d="M509.6,267.3c0,1,0.8,1.9,1.8,1.9c0.8,0,1.3-0.5,1.7-1.2l0.8,0.5c-0.5,1-1.5,1.6-2.6,1.6c-1.7,0-2.8-1.3-2.8-2.9
		c0-1.7,1-3,2.7-3c1.8,0,2.8,1.5,2.7,3.2H509.6z M513,266.5c-0.1-0.8-0.8-1.5-1.7-1.5c-0.8,0-1.6,0.7-1.7,1.5H513z"/>
	<path d="M516.3,269.9h-1V260h1V269.9z"/>
	<path d="M519.7,264.8c0,0.4-0.3,0.7-0.7,0.7c-0.4,0-0.7-0.3-0.7-0.7c0-0.4,0.3-0.7,0.7-0.7C519.4,264.1,519.7,264.4,519.7,264.8z
		 M519.7,269.4c0,0.4-0.3,0.7-0.7,0.7c-0.4,0-0.7-0.3-0.7-0.7c0-0.4,0.3-0.7,0.7-0.7C519.4,268.8,519.7,269.1,519.7,269.4z"/>
	<path d="M526.5,261.8l0.5-0.9h2v9h-1v-8.1H526.5z"/>
	<path d="M535.2,264.7c1,0,1.8-0.3,1.8-1.5c0-1-0.6-1.6-1.6-1.6c-0.9,0-1.4,0.6-1.5,1.5h-1c0.1-1.4,1-2.4,2.5-2.4
		c1.5,0,2.6,1,2.6,2.5c0,0.8-0.4,1.6-1.2,2c0.9,0.4,1.3,1.3,1.3,2.2c0,1.6-1.3,2.7-2.8,2.7c-1.5,0-2.7-1-2.7-2.5h1
		c0,0.9,0.8,1.6,1.7,1.6c1,0,1.8-0.8,1.8-1.8c0-1.2-0.8-1.7-1.9-1.7V264.7z"/>
	<path d="M542.1,268.9l-1.4,3.1l-0.6-0.3l1.1-3.1L542.1,268.9z"/>
	<path d="M545,261.8l0.5-0.9h2v9h-1v-8.1H545z"/>
	<path d="M553.8,261.8l-0.6,1.9l0.5,0c1.8,0,3,1.4,3,3.2c0,1.9-1.5,3.2-3.3,3.2c-1.2,0-2.2-0.6-2.8-1.6l0.8-0.6
		c0.4,0.7,1.1,1.3,2,1.3c1.3,0,2.3-1,2.3-2.3c0-1.3-1-2.2-2.3-2.2c-0.6,0-1.2,0.2-1.7,0.6l1.3-4.3h3.6v0.9H553.8z"/>
	<path d="M563,261.3l-2.1,2.8l0,0c0.1,0,0.3-0.1,0.4-0.1c0.1,0,0.3,0,0.4,0c1.6,0,2.9,1.4,2.9,3c0,1.7-1.4,3.1-3.1,3.1
		c-1.7,0-3.1-1.4-3.1-3.1c0-0.8,0.4-1.5,0.8-2.2l3-4.1L563,261.3z M563.6,267c0-1.2-0.9-2.1-2.1-2.1c-1.2,0-2.1,0.9-2.1,2.1
		c0,1.2,0.9,2.1,2.1,2.1C562.7,269.2,563.6,268.2,563.6,267z"/>
</g>
<g>
	<path d="M160.6,178.9h-1v-9h1.5c0.8,0,1.6,0,2.2,0.5c0.7,0.5,1,1.3,1,2.1c0,0.7-0.3,1.5-0.9,1.9c-0.6,0.5-1.4,0.6-2.1,0.6h-0.7
		V178.9z M160.6,174h0.7c1.1,0,2.1-0.3,2.1-1.6c0-1.5-1.2-1.6-2.4-1.6h-0.4V174z"/>
	<path d="M166.5,173.9L166.5,173.9c0.4-0.4,0.6-0.8,1.3-0.8c0.3,0,0.6,0.1,0.9,0.3l-0.5,0.9c-0.2-0.1-0.3-0.3-0.6-0.3
		c-1.1,0-1.1,1.4-1.1,2.1v2.8h-1v-5.6h1V173.9z"/>
	<path d="M169.1,176.1c0-1.7,1.3-3,3-3s3,1.3,3,3c0,1.7-1.3,3-3,3S169.1,177.8,169.1,176.1z M170.1,176.1c0,1.2,0.8,2.1,2,2.1
		s2-0.9,2-2.1c0-1.1-0.8-2.1-2-2.1S170.1,175,170.1,176.1z"/>
	<path d="M177.3,174.1L177.3,174.1c0.5-0.6,1.2-1,2-1c1.7,0,2.7,1.4,2.7,3c0,1.6-1,3-2.7,3c-0.8,0-1.5-0.3-1.9-0.9h0v4h-1v-8.8h1
		V174.1z M177.3,176.1c0,1.1,0.6,2.1,1.8,2.1c1.2,0,1.9-1,1.9-2.1c0-1.1-0.7-2-1.9-2C178,174,177.3,175,177.3,176.1z"/>
	<path d="M192.4,178v0.9h-5.9l4.2-5c0.4-0.4,0.6-0.9,0.6-1.5c0-1-0.8-1.8-1.8-1.8c-1.1,0-1.8,0.8-1.8,1.9h-1c0-1.6,1.2-2.8,2.8-2.8
		c1.5,0,2.8,1.1,2.8,2.7c0,0.7-0.2,1.4-0.7,1.9l-3.1,3.7H192.4z"/>
	<path d="M206.5,174.4c0,1.2-0.1,2.2-0.9,3.2s-2.1,1.5-3.3,1.5c-2.5,0-4.7-2.1-4.7-4.7c0-2.6,2.1-4.7,4.7-4.7c1.6,0,2.9,0.7,3.8,2
		l-0.7,0.7c-0.8-1.1-1.8-1.7-3.1-1.7c-2.1,0-3.7,1.7-3.7,3.8c0,1,0.4,1.9,1.1,2.6c0.7,0.7,1.6,1.2,2.6,1.2c1.6,0,3.2-1.2,3.2-2.8
		h-2.7v-0.9H206.5z"/>
	<path d="M207.4,176.1c0-1.7,1.3-3,3-3s3,1.3,3,3c0,1.7-1.3,3-3,3S207.4,177.8,207.4,176.1z M208.4,176.1c0,1.2,0.8,2.1,2,2.1
		s2-0.9,2-2.1c0-1.1-0.8-2.1-2-2.1S208.4,175,208.4,176.1z"/>
	<path d="M215.2,176.3c0,1,0.8,1.9,1.8,1.9c0.8,0,1.3-0.5,1.7-1.2l0.8,0.5c-0.5,1-1.5,1.6-2.6,1.6c-1.7,0-2.8-1.3-2.8-2.9
		c0-1.7,1-3,2.7-3c1.8,0,2.8,1.5,2.7,3.2H215.2z M218.6,175.5c-0.1-0.8-0.8-1.5-1.7-1.5c-0.8,0-1.6,0.7-1.7,1.5H218.6z"/>
	<path d="M223.2,174.6c-0.1-0.3-0.4-0.6-0.8-0.6c-0.3,0-0.7,0.3-0.7,0.6c0,0.5,0.6,0.7,1.3,1s1.3,0.7,1.3,1.6c0,1.1-0.9,1.8-1.9,1.8
		c-0.9,0-1.7-0.5-2-1.4l0.9-0.4c0.2,0.5,0.5,0.9,1.2,0.9c0.5,0,0.9-0.3,0.9-0.9c0-1.3-2.5-0.8-2.5-2.6c0-0.9,0.8-1.6,1.7-1.6
		c0.6,0,1.2,0.5,1.5,1L223.2,174.6z"/>
	<path d="M230.4,178.9h-1v-9h1V178.9z"/>
	<path d="M233.2,174L233.2,174c0.4-0.5,0.9-0.8,1.6-0.8c1.6,0,1.9,1.1,1.9,2.4v3.3h-1v-3.2c0-0.9-0.1-1.7-1.2-1.7
		c-1.3,0-1.4,1.2-1.4,2.2v2.7h-1v-5.6h1V174z"/>
	<path d="M239.6,178.9h-1v-4.7h-0.6v-0.9h0.6v-2h1v2h1v0.9h-1V178.9z"/>
	<path d="M241,176.1c0-1.7,1.3-3,3-3s3,1.3,3,3c0,1.7-1.3,3-3,3S241,177.8,241,176.1z M241.9,176.1c0,1.2,0.8,2.1,2,2.1s2-0.9,2-2.1
		c0-1.1-0.8-2.1-2-2.1S241.9,175,241.9,176.1z"/>
	<path d="M251.9,169.9h4.7v0.9h-3.7v2.7h3.6v0.9h-3.6v3.5h3.7v0.9h-4.7V169.9z"/>
	<path d="M259.4,178.9h-1v-4.7h-0.5v-0.9h0.5v-2.2c0-0.5,0-1.1,0.3-1.5c0.3-0.5,0.9-0.7,1.5-0.7c0.2,0,0.5,0,0.7,0.1v1
		c-0.2-0.1-0.4-0.1-0.6-0.1c-0.8,0-0.8,0.6-0.8,1.5v1.9h1.4v0.9h-1.4V178.9z"/>
	<path d="M262.7,178.9h-1v-4.7h-0.5v-0.9h0.5v-2.2c0-0.5,0-1.1,0.3-1.5c0.3-0.5,0.9-0.7,1.5-0.7c0.2,0,0.5,0,0.7,0.1v1
		c-0.2-0.1-0.4-0.1-0.6-0.1c-0.8,0-0.8,0.6-0.8,1.5v1.9h1.4v0.9h-1.4V178.9z"/>
	<path d="M265.4,176.3c0,1,0.8,1.9,1.8,1.9c0.8,0,1.3-0.5,1.7-1.2l0.8,0.5c-0.5,1-1.5,1.6-2.6,1.6c-1.7,0-2.8-1.3-2.8-2.9
		c0-1.7,1-3,2.7-3c1.8,0,2.8,1.5,2.7,3.2H265.4z M268.8,175.5c-0.1-0.8-0.8-1.5-1.7-1.5c-0.8,0-1.6,0.7-1.7,1.5H268.8z"/>
	<path d="M275.3,175L275.3,175c-0.5-0.6-1-0.9-1.8-0.9c-1.2,0-2,1-2,2.1c0,1.1,0.8,2.1,1.9,2.1c0.8,0,1.4-0.4,1.8-1h0v1.3
		c-0.6,0.4-1.1,0.6-1.8,0.6c-1.7,0-3-1.3-3-3c0-1.7,1.4-3,3-3c0.6,0,1.2,0.2,1.7,0.6V175z"/>
	<path d="M277.8,178.9h-1v-4.7h-0.6v-0.9h0.6v-2h1v2h1v0.9h-1V178.9z"/>
</g>
<g>
	<g>
		<line class="st14" x1="557.3" y1="92.3" x2="557.3" y2="69.4"/>
		<g>
			<polygon points="557.3,99.4 561.3,89.4 557.3,91.8 553.2,89.4 			"/>
		</g>
	</g>
</g>
<g>
	<g>
		<line class="st14" x1="555.7" y1="233.7" x2="555.7" y2="256.6"/>
		<g>
			<polygon points="555.7,226.7 551.6,236.6 555.7,234.3 559.7,236.6 			"/>
		</g>
	</g>
</g>
<g>
	<g>
		<line class="st14" x1="206.8" y1="210.9" x2="206.8" y2="185.9"/>
		<g>
			<polygon points="206.8,217.9 210.8,208 206.8,210.4 202.7,208 			"/>
		</g>
	</g>
</g>
<g>
</g>
<g>
</g>
<g>
</g>
<g>
</g>
<g>
</g>
<g>
</g>
<g>
</g>
</svg>
