<svg id="Layer_1" data-name="Layer 1" xmlns="http://www.w3.org/2000/svg" viewBox="0 0 804.8 212.7"><defs><style>.cls-1{fill:#0b2a49;}.cls-2{fill:#18607d;}.cls-3{fill:#82a73f;}.cls-4{fill:#babe44;}</style></defs><title>progresslogo</title><path d="M51.1,116.4H41.2v-89H55.8c7.7,0,15.6.2,22.1,4.7s10,12.4,10,20.3-3,14.5-8.5,19.1-13.7,5.9-21.1,5.9H51.1Zm0-48.1h6.6c11,0,20.3-3.3,20.3-16,0-14.5-11.7-15.6-23.2-15.6H51.1Z" transform="translate(-24.7 -19.1)"/><path d="M109.5,67h.2c3.3-4.4,6.1-7.6,12.3-7.6a16.7,16.7,0,0,1,8.5,2.6L126,70.6c-1.9-1.3-3.2-2.5-5.7-2.5-10.4,0-10.9,13.3-10.9,20.5v27.7H100V61h9.4Z" transform="translate(-24.7 -19.1)"/><path d="M135.1,88.8A29.1,29.1,0,1,1,164.2,118,29.1,29.1,0,0,1,135.1,88.8Zm9.4-.1c0,11.3,8,20.5,19.7,20.5s19.7-9.2,19.7-20.5-8-20.5-19.7-20.5S144.5,77.5,144.5,88.7Z" transform="translate(-24.7 -19.1)"/><path d="M256.4,113.7c0,8.8,0,16.5-5.7,23.8s-13.2,9.8-21.5,9.8c-15.5,0-26.9-9.8-27.3-25.5h9.4c.1,10.3,7.6,16.8,17.7,16.8,14.6,0,17.8-10.7,17.8-23.2v-6.6h-.2a24.6,24.6,0,0,1-19.2,9.2c-16.2,0-26.4-13.6-26.4-29s10.4-29.5,26.8-29.5a23.1,23.1,0,0,1,18.9,9.4h.2V61h9.4ZM210.7,88.1c0,10.9,6.4,21.1,18.2,21.1s18.5-9.8,18.5-21-7-20.1-18.6-20.1S210.7,77.7,210.7,88.1Z" transform="translate(-24.7 -19.1)"/><path d="M283.8,67h.2c3.3-4.4,6.1-7.6,12.3-7.6a16.7,16.7,0,0,1,8.5,2.6l-4.5,8.6c-1.9-1.3-3.2-2.5-5.7-2.5-10.4,0-10.9,13.3-10.9,20.5v27.7h-9.4V61h9.4Z" transform="translate(-24.7 -19.1)"/><path d="M319,90.7c.1,10.3,7.4,18.5,18.2,18.5,8,0,13.2-4.8,16.9-11.4l8,4.6c-5.3,9.9-14.3,15.6-25.6,15.6-16.5,0-27.1-12.6-27.1-28.6s9.6-30,26.9-30,27.3,14.7,26.3,31.3Zm33.6-8c-1.3-8-8-14.5-16.3-14.5a17.5,17.5,0,0,0-16.9,14.5Z" transform="translate(-24.7 -19.1)"/><path d="M398,73.8c-1.3-2.9-4.1-5.7-7.6-5.7s-6.8,2.6-6.8,6.1c0,5.1,6.4,7,12.9,9.7s12.9,6.6,12.9,15.9S400.8,118,390.6,118a19.9,19.9,0,0,1-19.6-14l8.4-3.5c2.4,5.2,5.1,8.8,11.3,8.8s9-3.4,9-8.5c0-12.4-25-8.1-25-25.6,0-9.3,7.6-15.7,16.5-15.7,6.4,0,12.3,4.5,14.7,10.3Z" transform="translate(-24.7 -19.1)"/><path d="M445.1,73.8c-1.3-2.9-4.1-5.7-7.6-5.7s-6.8,2.6-6.8,6.1c0,5.1,6.4,7,12.9,9.7s12.9,6.6,12.9,15.9S447.9,118,437.6,118a19.9,19.9,0,0,1-19.6-14l8.4-3.5c2.4,5.2,5.1,8.8,11.3,8.8s9-3.4,9-8.5c0-12.4-25-8.1-25-25.6,0-9.3,7.6-15.7,16.5-15.7,6.4,0,12.3,4.5,14.8,10.3Z" transform="translate(-24.7 -19.1)"/><path d="M564.2,92.8V102h-11v14.4h-9.9V102H497.8L553,22.5h.2V92.8ZM543.4,52.6h-.2l-28,40.2h28.2Z" transform="translate(-24.7 -19.1)"/><path d="M628.4,91.2l-10.7,25.3H606.8l41.1-93.2,40,93.2h-11L666.4,91.2Zm19.2-44.8L632.4,82h30.1Z" transform="translate(-24.7 -19.1)"/><path d="M738.8,108.8h-.2a23.6,23.6,0,0,1-19.1,9.2c-16.3,0-26.5-13.8-26.5-29.1s10-29.4,26.7-29.4a24,24,0,0,1,19,9.4h.2V19.1h9.4v97.3h-9.4ZM702.5,88.1c0,10.9,6.4,21.1,18.2,21.1s18.5-9.8,18.5-21-7-20.1-18.6-20.1S702.5,77.7,702.5,88.1Z" transform="translate(-24.7 -19.1)"/><path d="M816.3,116.4h-9.4v-7.7h-.2a23.3,23.3,0,0,1-19.1,9.2c-16.3,0-26.5-13.8-26.5-29.1s10-29.4,26.7-29.4a24,24,0,0,1,19,9.4h.2V61h9.4ZM770.6,88.1c0,10.9,6.4,21.1,18.2,21.1s18.5-9.8,18.5-21-7-20.1-18.6-20.1S770.6,77.7,770.6,88.1Z" transform="translate(-24.7 -19.1)"/><rect class="cls-1" x="30.2" y="136.9" width="62" height="36.27"/><polygon class="cls-1" points="122.3 155 92.2 173.2 92.1 136.9 122.3 155"/><polygon class="cls-1" points="30.2 136.9 30.2 155 0 136.9 30.2 136.9"/><polygon class="cls-1" points="30.2 155 0 173.2 30.2 173.2 30.2 155"/><rect class="cls-2" x="127.7" y="136.9" width="62" height="36.27"/><polygon class="cls-2" points="219.8 155 189.7 173.2 189.6 136.9 219.8 155"/><polyline class="cls-2" points="127.7 136.9 127.7 155 97.5 136.9"/><polygon class="cls-2" points="127.7 155 97.5 173.2 127.7 173.2 127.7 155"/><rect class="cls-3" x="225.2" y="136.9" width="62" height="36.27"/><polygon class="cls-3" points="317.3 155 287.2 173.2 287.1 136.9 317.3 155"/><polyline class="cls-3" points="225.2 136.9 225.2 155 195 136.9"/><polygon class="cls-3" points="225.2 155 195 173.2 225.2 173.2 225.2 155"/><rect class="cls-4" x="322.7" y="136.9" width="62" height="36.27"/><polygon class="cls-4" points="414.8 155 384.7 173.2 384.6 136.9 414.8 155"/><polyline class="cls-4" points="322.7 136.9 322.7 155 292.5 136.9"/><polygon class="cls-4" points="322.7 155 292.5 173.2 322.7 173.2 322.7 155"/><rect class="cls-1" x="420.2" y="136.9" width="62" height="36.27"/><polygon class="cls-1" points="512.3 155 482.2 173.2 482.1 136.9 512.3 155"/><polyline class="cls-1" points="420.2 136.9 420.2 155 390 136.9"/><polygon class="cls-1" points="420.2 155 390 173.2 420.2 173.2 420.2 155"/><rect class="cls-2" x="517.7" y="136.9" width="62" height="36.27"/><polygon class="cls-2" points="609.8 155 579.7 173.2 579.6 136.9 609.8 155"/><polyline class="cls-2" points="517.7 136.9 517.7 155 487.5 136.9"/><polygon class="cls-2" points="517.7 155 487.5 173.2 517.7 173.2 517.7 155"/><rect class="cls-3" x="615.2" y="136.9" width="62" height="36.27"/><polygon class="cls-3" points="707.3 155 677.2 173.2 677.1 136.9 707.3 155"/><polyline class="cls-3" points="615.2 136.9 615.2 155 585 136.9"/><polygon class="cls-3" points="615.2 155 585 173.2 615.2 173.2 615.2 155"/><rect class="cls-4" x="712.7" y="136.9" width="62" height="36.27"/><polygon class="cls-4" points="804.8 155 774.7 173.2 774.6 136.9 804.8 155"/><polyline class="cls-4" points="712.7 136.9 712.7 155 682.5 136.9"/><polygon class="cls-4" points="712.7 155 682.5 173.2 712.7 173.2 712.7 155"/><line x1="105.3" y1="212.7" x2="193.8" y2="206.9"/></svg>