<?xml version="1.0" encoding="utf-8"?>
<!-- Generator: Adobe Illustrator 20.1.0, SVG Export Plug-In . SVG Version: 6.00 Build 0)  -->
<svg version="1.1" id="Layer_1" xmlns="http://www.w3.org/2000/svg" xmlns:xlink="http://www.w3.org/1999/xlink" x="0px" y="0px"
	 viewBox="0 0 576 359.9" style="enable-background:new 0 0 576 359.9;" xml:space="preserve">
<style type="text/css">
	.st0{fill-rule:evenodd;clip-rule:evenodd;fill:#F3F3F3;}
	.st1{fill:none;stroke:#C0BFBF;stroke-width:0.72;stroke-linejoin:round;stroke-miterlimit:10;}
	.st2{clip-path:url(#SVGID_2_);fill:#A7A6A6;}
	.st3{clip-path:url(#SVGID_4_);fill:none;stroke:#010101;stroke-width:0.72;stroke-linejoin:round;stroke-miterlimit:10;}
	.st4{clip-path:url(#SVGID_6_);fill:none;stroke:#010101;stroke-width:0.72;stroke-linejoin:round;stroke-miterlimit:10;}
	
		.st5{clip-path:url(#SVGID_8_);fill:none;stroke:#186734;stroke-width:2.16;stroke-linecap:round;stroke-linejoin:round;stroke-miterlimit:10;}
	.st6{clip-path:url(#SVGID_10_);fill:#010101;}
	.st7{clip-path:url(#SVGID_10_);fill:none;stroke:#010101;stroke-width:0.72;stroke-linejoin:round;stroke-miterlimit:10;}
	
		.st8{clip-path:url(#SVGID_12_);fill:none;stroke:#010101;stroke-width:2.28;stroke-linecap:square;stroke-linejoin:round;stroke-miterlimit:10;stroke-dasharray:0,57912;}
	.st9{clip-path:url(#SVGID_14_);}
	.st10{fill:#010101;}
	.st11{clip-path:url(#SVGID_16_);}
	.st12{clip-path:url(#SVGID_18_);}
	.st13{clip-path:url(#SVGID_20_);}
	.st14{clip-path:url(#SVGID_22_);}
	.st15{clip-path:url(#SVGID_24_);}
	.st16{clip-path:url(#SVGID_26_);}
	.st17{clip-path:url(#SVGID_28_);}
	.st18{clip-path:url(#SVGID_30_);}
	.st19{clip-path:url(#SVGID_32_);}
	.st20{clip-path:url(#SVGID_34_);}
	.st21{clip-path:url(#SVGID_36_);}
	.st22{fill:#010101;stroke:#010101;stroke-width:0.4011;stroke-miterlimit:10;}
	.st23{clip-path:url(#SVGID_38_);fill-rule:evenodd;clip-rule:evenodd;fill:#A7A6A6;}
	.st24{clip-path:url(#SVGID_40_);}
	.st25{fill:#595A5A;}
	
		.st26{clip-path:url(#SVGID_42_);fill:none;stroke:#186734;stroke-width:2.16;stroke-linecap:round;stroke-linejoin:round;stroke-miterlimit:10;}
	.st27{clip-path:url(#SVGID_44_);}
	.st28{fill:none;stroke:#D9D9D8;stroke-width:0.72;stroke-linejoin:round;stroke-miterlimit:10;}
	
		.st29{fill:none;stroke:#010101;stroke-width:2;stroke-linecap:square;stroke-linejoin:round;stroke-miterlimit:10;stroke-dasharray:1,5;}
	.st30{fill:none;stroke:#010101;stroke-miterlimit:10;}
</style>
<g>
	<polygon class="st0" points="0,0 576,0 576,359.9 0,359.9 0,0 	"/>
	<path class="st1" d="M70.9,257.9h483 M70.9,202.9h483 M70.9,148h483 M70.9,93.1h483 M70.9,38.2h483"/>
	<g>
		<defs>
			<polygon id="SVGID_1_" points="80.3,313.6 564.1,313.6 564.1,38 80.3,38 80.3,313.6 			"/>
		</defs>
		<clipPath id="SVGID_2_">
			<use xlink:href="#SVGID_1_"  style="overflow:visible;"/>
		</clipPath>
		<path class="st2" d="M220,38.2h21.5v274.7H220V38.2L220,38.2z M370.2,38.2h43v274.7h-43V38.2L370.2,38.2z"/>
	</g>
	<g>
		<defs>
			<polygon id="SVGID_3_" points="0,359.9 576,359.9 576,-0.1 0,-0.1 0,359.9 			"/>
		</defs>
		<clipPath id="SVGID_4_">
			<use xlink:href="#SVGID_3_"  style="overflow:visible;"/>
		</clipPath>
		<line class="st3" x1="70.9" y1="312.8" x2="553.9" y2="312.8"/>
	</g>
	<g>
		<defs>
			<polygon id="SVGID_5_" points="0,359.9 576,359.9 576,-0.1 0,-0.1 0,359.9 			"/>
		</defs>
		<clipPath id="SVGID_6_">
			<use xlink:href="#SVGID_5_"  style="overflow:visible;"/>
		</clipPath>
		<path class="st4" d="M70.9,309.8v6 M178.2,309.8v6 M285.6,309.8v6 M392.9,309.8v6 M500.3,309.8v6"/>
	</g>
	<g>
		<defs>
			<polygon id="SVGID_7_" points="70.8,313.6 554.6,313.6 554.6,38 70.8,38 70.8,313.6 			"/>
		</defs>
		<clipPath id="SVGID_8_">
			<use xlink:href="#SVGID_7_"  style="overflow:visible;"/>
		</clipPath>
		<polyline class="st5" points="70.9,260.2 92.3,250.8 113.8,237 135.2,228.5 156.7,222.5 178.2,212 199.7,200.2 221.2,180.4 
			242.6,179.3 264.1,167.6 285.6,165.7 307.1,153.6 328.6,123.6 350,103 371.5,79.4 392.9,94 414.4,100.4 435.8,97.4 457.3,73.2 
			478.8,81.7 500.3,58.8 521.8,60 543.2,59.9 		"/>
	</g>
	<g>
		<defs>
			<polygon id="SVGID_9_" points="0,359.9 576,359.9 576,-0.1 0,-0.1 0,359.9 			"/>
		</defs>
		<clipPath id="SVGID_10_">
			<use xlink:href="#SVGID_9_"  style="overflow:visible;"/>
		</clipPath>
		<polygon class="st6" points="156.7,217.9 161.2,222.4 156.7,226.8 152.3,222.4 156.7,217.9 		"/>
		<polygon class="st7" points="156.7,217.9 161.2,222.4 156.7,226.8 152.3,222.4 156.7,217.9 		"/>
	</g>
	<g>
		<defs>
			<polygon id="SVGID_11_" points="70.8,313.6 554.6,313.6 554.6,38 70.8,38 70.8,313.6 			"/>
		</defs>
		<clipPath id="SVGID_12_">
			<use xlink:href="#SVGID_11_"  style="overflow:visible;"/>
		</clipPath>
		<polyline class="st8" points="156.8,222.4 178.3,222.4 199.7,222.4 221.2,222.4 242.6,222.4 264.1,222.4 285.5,222.4 307,222.4 
			328.5,222.4 350,222.4 371.5,222.4 392.9,222.4 414.4,222.4 435.9,222.4 457.4,222.4 478.9,222.4 500.3,222.4 521.8,222.4 
			543.2,222.4 		"/>
	</g>
	<g>
		<defs>
			<rect id="SVGID_13_" y="-0.1" width="576" height="360"/>
		</defs>
		<clipPath id="SVGID_14_">
			<use xlink:href="#SVGID_13_"  style="overflow:visible;"/>
		</clipPath>
		<g class="st9">
			<path class="st10" d="M14.7,312c-0.8-0.3-1.6-0.8-1.6-1.8c0-0.9,0.7-1.6,1.6-1.7v-0.9h0.6v0.9c0.6,0.1,1.2,0.5,1.4,1l-0.6,0.4
				c-0.2-0.3-0.5-0.6-0.8-0.7v2.2c0.9,0.4,1.7,0.8,1.7,1.9c0,1-0.7,1.8-1.7,2v1h-0.6v-0.9c-1,0-1.8-0.8-1.9-1.7l0.7-0.2
				c0.1,0.6,0.6,1.2,1.2,1.2V312z M14.7,309.2c-0.5,0.1-0.8,0.5-0.8,1s0.4,0.8,0.8,1V309.2z M15.3,314.6c0.6-0.2,0.9-0.7,0.9-1.3
				c0-0.6-0.5-0.9-0.9-1.1V314.6z"/>
			<path class="st10" d="M21.5,308.8l-1.6,2.1l0,0c0.1,0,0.2-0.1,0.3-0.1c0.1,0,0.2,0,0.3,0c1.2,0,2.2,1,2.2,2.2
				c0,1.3-1.1,2.3-2.3,2.3c-1.3,0-2.3-1-2.3-2.3c0-0.6,0.3-1.2,0.6-1.6l2.3-3.1L21.5,308.8z M21.9,313.1c0-0.9-0.7-1.6-1.6-1.6
				c-0.9,0-1.6,0.7-1.6,1.6c0,0.9,0.7,1.6,1.6,1.6S21.9,314,21.9,313.1z"/>
			<path class="st10" d="M25.2,314.6l-1,2.3l-0.5-0.2l0.8-2.3L25.2,314.6z"/>
			<path class="st10" d="M31.2,311.9c0,1.7-0.9,3.5-2.4,3.5s-2.4-1.8-2.4-3.5c0-1.4,0.7-3.5,2.4-3.5
				C30.5,308.4,31.2,310.5,31.2,311.9z M27.1,312c0,1,0.4,2.8,1.7,2.8s1.7-1.8,1.7-2.8c0-1-0.4-2.9-1.7-2.9S27.1,311,27.1,312z"/>
			<path class="st10" d="M36.8,311.9c0,1.7-0.9,3.5-2.4,3.5s-2.4-1.8-2.4-3.5c0-1.4,0.7-3.5,2.4-3.5
				C36.1,308.4,36.8,310.5,36.8,311.9z M32.7,312c0,1,0.4,2.8,1.7,2.8s1.7-1.8,1.7-2.8c0-1-0.4-2.9-1.7-2.9S32.6,311,32.7,312z"/>
			<path class="st10" d="M42.3,311.9c0,1.7-0.9,3.5-2.4,3.5c-1.5,0-2.4-1.8-2.4-3.5c0-1.4,0.7-3.5,2.4-3.5
				C41.6,308.4,42.3,310.5,42.3,311.9z M38.2,312c0,1,0.4,2.8,1.7,2.8s1.7-1.8,1.7-2.8c0-1-0.4-2.9-1.7-2.9S38.2,311,38.2,312z"/>
			<path class="st10" d="M44.6,314.6l-1,2.3l-0.5-0.2l0.8-2.3L44.6,314.6z"/>
			<path class="st10" d="M50.6,311.9c0,1.7-0.9,3.5-2.4,3.5s-2.4-1.8-2.4-3.5c0-1.4,0.7-3.5,2.4-3.5
				C49.9,308.4,50.6,310.5,50.6,311.9z M46.5,312c0,1,0.4,2.8,1.7,2.8s1.7-1.8,1.7-2.8c0-1-0.4-2.9-1.7-2.9S46.5,311,46.5,312z"/>
			<path class="st10" d="M56.1,311.9c0,1.7-0.9,3.5-2.4,3.5s-2.4-1.8-2.4-3.5c0-1.4,0.7-3.5,2.4-3.5
				C55.4,308.4,56.1,310.5,56.1,311.9z M52,312c0,1,0.4,2.8,1.7,2.8s1.7-1.8,1.7-2.8c0-1-0.4-2.9-1.7-2.9S52,311,52,312z"/>
			<path class="st10" d="M61.7,311.9c0,1.7-0.9,3.5-2.4,3.5s-2.4-1.8-2.4-3.5c0-1.4,0.7-3.5,2.4-3.5C61,308.4,61.7,310.5,61.7,311.9
				z M57.6,312c0,1,0.4,2.8,1.7,2.8s1.7-1.8,1.7-2.8c0-1-0.4-2.9-1.7-2.9S57.6,311,57.6,312z"/>
		</g>
	</g>
	<g>
		<defs>
			<rect id="SVGID_15_" y="-0.1" width="576" height="360"/>
		</defs>
		<clipPath id="SVGID_16_">
			<use xlink:href="#SVGID_15_"  style="overflow:visible;"/>
		</clipPath>
		<g class="st11">
			<path class="st10" d="M14.7,257c-0.8-0.3-1.6-0.8-1.6-1.8c0-0.9,0.7-1.6,1.6-1.7v-0.9h0.6v0.9c0.6,0.1,1.2,0.5,1.4,1l-0.6,0.4
				c-0.2-0.3-0.5-0.6-0.8-0.7v2.2c0.9,0.4,1.7,0.8,1.7,1.9c0,1-0.7,1.8-1.7,2v1h-0.6v-0.9c-1,0-1.8-0.8-1.9-1.7l0.7-0.2
				c0.1,0.6,0.6,1.2,1.2,1.2V257z M14.7,254.2c-0.5,0.1-0.8,0.5-0.8,1s0.4,0.8,0.8,1V254.2z M15.3,259.7c0.6-0.2,0.9-0.7,0.9-1.3
				c0-0.6-0.5-0.9-0.9-1.1V259.7z"/>
			<path class="st10" d="M22.3,255.4c0,0.6-0.3,1.2-0.8,1.5c0.6,0.3,1,0.9,1,1.6c0,1.2-0.9,2-2.1,2s-2.1-0.8-2.1-2
				c0-0.7,0.4-1.3,1-1.6c-0.5-0.3-0.8-0.9-0.8-1.5c0-1.1,0.8-1.9,1.9-1.9C21.5,253.5,22.3,254.3,22.3,255.4z M19.1,258.5
				c0,0.7,0.6,1.3,1.3,1.3s1.3-0.6,1.3-1.3c0-0.7-0.6-1.3-1.3-1.3S19.1,257.8,19.1,258.5z M19.2,255.3c0,0.7,0.5,1.2,1.2,1.2
				c0.6,0,1.2-0.5,1.2-1.2c0-0.6-0.5-1.2-1.2-1.2C19.8,254.2,19.2,254.7,19.2,255.3z"/>
			<path class="st10" d="M25.2,259.6l-1,2.3l-0.5-0.2l0.8-2.3L25.2,259.6z"/>
			<path class="st10" d="M31.2,257c0,1.7-0.9,3.5-2.4,3.5s-2.4-1.8-2.4-3.5c0-1.4,0.7-3.5,2.4-3.5C30.5,253.5,31.2,255.6,31.2,257z
				 M27.1,257c0,1,0.4,2.8,1.7,2.8s1.7-1.8,1.7-2.8c0-1-0.4-2.9-1.7-2.9S27.1,256.1,27.1,257z"/>
			<path class="st10" d="M36.8,257c0,1.7-0.9,3.5-2.4,3.5s-2.4-1.8-2.4-3.5c0-1.4,0.7-3.5,2.4-3.5C36.1,253.5,36.8,255.6,36.8,257z
				 M32.7,257c0,1,0.4,2.8,1.7,2.8S36,258,36,257c0-1-0.4-2.9-1.7-2.9S32.6,256.1,32.7,257z"/>
			<path class="st10" d="M42.3,257c0,1.7-0.9,3.5-2.4,3.5c-1.5,0-2.4-1.8-2.4-3.5c0-1.4,0.7-3.5,2.4-3.5
				C41.6,253.5,42.3,255.6,42.3,257z M38.2,257c0,1,0.4,2.8,1.7,2.8s1.7-1.8,1.7-2.8c0-1-0.4-2.9-1.7-2.9S38.2,256.1,38.2,257z"/>
			<path class="st10" d="M44.6,259.6l-1,2.3l-0.5-0.2l0.8-2.3L44.6,259.6z"/>
			<path class="st10" d="M50.6,257c0,1.7-0.9,3.5-2.4,3.5s-2.4-1.8-2.4-3.5c0-1.4,0.7-3.5,2.4-3.5C49.9,253.5,50.6,255.6,50.6,257z
				 M46.5,257c0,1,0.4,2.8,1.7,2.8s1.7-1.8,1.7-2.8c0-1-0.4-2.9-1.7-2.9S46.5,256.1,46.5,257z"/>
			<path class="st10" d="M56.1,257c0,1.7-0.9,3.5-2.4,3.5s-2.4-1.8-2.4-3.5c0-1.4,0.7-3.5,2.4-3.5C55.4,253.5,56.1,255.6,56.1,257z
				 M52,257c0,1,0.4,2.8,1.7,2.8s1.7-1.8,1.7-2.8c0-1-0.4-2.9-1.7-2.9S52,256.1,52,257z"/>
			<path class="st10" d="M61.7,257c0,1.7-0.9,3.5-2.4,3.5s-2.4-1.8-2.4-3.5c0-1.4,0.7-3.5,2.4-3.5C61,253.5,61.7,255.6,61.7,257z
				 M57.6,257c0,1,0.4,2.8,1.7,2.8S61,258,61,257c0-1-0.4-2.9-1.7-2.9S57.6,256.1,57.6,257z"/>
		</g>
	</g>
	<g>
		<defs>
			<rect id="SVGID_17_" y="-0.1" width="576" height="360"/>
		</defs>
		<clipPath id="SVGID_18_">
			<use xlink:href="#SVGID_17_"  style="overflow:visible;"/>
		</clipPath>
		<g class="st12">
			<path class="st10" d="M9.2,202.1c-0.8-0.3-1.6-0.8-1.6-1.8c0-0.9,0.7-1.6,1.6-1.7v-0.9h0.6v0.9c0.6,0.1,1.2,0.5,1.4,1l-0.6,0.4
				c-0.2-0.3-0.5-0.6-0.8-0.7v2.2c0.9,0.4,1.7,0.8,1.7,1.9c0,1-0.7,1.8-1.7,2v1H9.2v-0.9c-1,0-1.8-0.8-1.9-1.7l0.7-0.2
				c0.1,0.6,0.6,1.2,1.2,1.2V202.1z M9.2,199.3c-0.5,0.1-0.8,0.5-0.8,1s0.4,0.8,0.8,1V199.3z M9.8,204.7c0.6-0.2,0.9-0.7,0.9-1.3
				c0-0.6-0.5-0.9-0.9-1.1V204.7z"/>
			<path class="st10" d="M13.5,199.3l0.4-0.7h1.5v6.8h-0.8v-6.1H13.5z"/>
			<path class="st10" d="M22.8,202c0,1.7-0.9,3.5-2.4,3.5S18,203.7,18,202c0-1.4,0.7-3.5,2.4-3.5C22.1,198.5,22.8,200.7,22.8,202z
				 M18.7,202.1c0,1,0.4,2.8,1.7,2.8s1.7-1.8,1.7-2.8c0-1-0.4-2.9-1.7-2.9S18.7,201.1,18.7,202.1z"/>
			<path class="st10" d="M25.3,204.7l-1,2.3l-0.5-0.2l0.8-2.3L25.3,204.7z"/>
			<path class="st10" d="M31.2,202c0,1.7-0.9,3.5-2.4,3.5c-1.5,0-2.4-1.8-2.4-3.5c0-1.4,0.7-3.5,2.4-3.5
				C30.5,198.5,31.2,200.7,31.2,202z M27.1,202.1c0,1,0.4,2.8,1.7,2.8s1.7-1.8,1.7-2.8c0-1-0.4-2.9-1.7-2.9S27.1,201.1,27.1,202.1z"
				/>
			<path class="st10" d="M36.7,202c0,1.7-0.9,3.5-2.4,3.5s-2.4-1.8-2.4-3.5c0-1.4,0.7-3.5,2.4-3.5C36,198.5,36.7,200.7,36.7,202z
				 M32.6,202.1c0,1,0.4,2.8,1.7,2.8s1.7-1.8,1.7-2.8c0-1-0.4-2.9-1.7-2.9S32.6,201.1,32.6,202.1z"/>
			<path class="st10" d="M42.3,202c0,1.7-0.9,3.5-2.4,3.5c-1.5,0-2.4-1.8-2.4-3.5c0-1.4,0.7-3.5,2.4-3.5
				C41.6,198.5,42.3,200.7,42.3,202z M38.2,202.1c0,1,0.4,2.8,1.7,2.8s1.7-1.8,1.7-2.8c0-1-0.4-2.9-1.7-2.9S38.1,201.1,38.2,202.1z"
				/>
			<path class="st10" d="M44.6,204.7l-1,2.3l-0.5-0.2l0.8-2.3L44.6,204.7z"/>
			<path class="st10" d="M50.6,202c0,1.7-0.9,3.5-2.4,3.5c-1.5,0-2.4-1.8-2.4-3.5c0-1.4,0.7-3.5,2.4-3.5
				C49.8,198.5,50.6,200.7,50.6,202z M46.5,202.1c0,1,0.4,2.8,1.7,2.8s1.7-1.8,1.7-2.8c0-1-0.4-2.9-1.7-2.9S46.4,201.1,46.5,202.1z"
				/>
			<path class="st10" d="M56.2,202c0,1.7-0.9,3.5-2.4,3.5c-1.5,0-2.4-1.8-2.4-3.5c0-1.4,0.7-3.5,2.4-3.5
				C55.5,198.5,56.2,200.7,56.2,202z M52.1,202.1c0,1,0.4,2.8,1.7,2.8s1.7-1.8,1.7-2.8c0-1-0.4-2.9-1.7-2.9S52.1,201.1,52.1,202.1z"
				/>
			<path class="st10" d="M61.7,202c0,1.7-0.9,3.5-2.4,3.5c-1.5,0-2.4-1.8-2.4-3.5c0-1.4,0.7-3.5,2.4-3.5
				C61,198.5,61.7,200.7,61.7,202z M57.6,202.1c0,1,0.4,2.8,1.7,2.8s1.7-1.8,1.7-2.8c0-1-0.4-2.9-1.7-2.9S57.6,201.1,57.6,202.1z"/>
		</g>
	</g>
	<g>
		<defs>
			<rect id="SVGID_19_" y="-0.1" width="576" height="360"/>
		</defs>
		<clipPath id="SVGID_20_">
			<use xlink:href="#SVGID_19_"  style="overflow:visible;"/>
		</clipPath>
		<g class="st13">
			<path class="st10" d="M9.2,147.1c-0.8-0.3-1.6-0.8-1.6-1.8c0-0.9,0.7-1.6,1.6-1.7v-0.9h0.6v0.9c0.6,0.1,1.2,0.5,1.4,1l-0.6,0.4
				c-0.2-0.3-0.5-0.6-0.8-0.7v2.2c0.9,0.4,1.7,0.8,1.7,1.9c0,1-0.7,1.8-1.7,2v1H9.2v-0.9c-1,0-1.8-0.8-1.9-1.7l0.7-0.2
				c0.1,0.6,0.6,1.2,1.2,1.2V147.1z M9.2,144.4c-0.5,0.1-0.8,0.5-0.8,1s0.4,0.8,0.8,1V144.4z M9.8,149.8c0.6-0.2,0.9-0.7,0.9-1.3
				c0-0.6-0.5-0.9-0.9-1.1V149.8z"/>
			<path class="st10" d="M13.5,144.4l0.4-0.7h1.5v6.8h-0.8v-6.1H13.5z"/>
			<path class="st10" d="M22.4,149.8v0.7H18l3.2-3.8c0.3-0.3,0.5-0.7,0.5-1.1c0-0.8-0.6-1.3-1.4-1.3c-0.8,0-1.4,0.6-1.4,1.4h-0.8
				c0-1.2,0.9-2.1,2.1-2.1c1.1,0,2.1,0.8,2.1,2c0,0.5-0.2,1-0.5,1.4l-2.3,2.8H22.4z"/>
			<path class="st10" d="M25.3,149.7l-1,2.3l-0.5-0.2l0.8-2.3L25.3,149.7z"/>
			<path class="st10" d="M31.2,147.1c0,1.7-0.9,3.5-2.4,3.5c-1.5,0-2.4-1.8-2.4-3.5c0-1.4,0.7-3.5,2.4-3.5
				C30.5,143.6,31.2,145.7,31.2,147.1z M27.1,147.1c0,1,0.4,2.8,1.7,2.8s1.7-1.8,1.7-2.8c0-1-0.4-2.9-1.7-2.9S27.1,146.2,27.1,147.1
				z"/>
			<path class="st10" d="M36.7,147.1c0,1.7-0.9,3.5-2.4,3.5s-2.4-1.8-2.4-3.5c0-1.4,0.7-3.5,2.4-3.5C36,143.6,36.7,145.7,36.7,147.1
				z M32.6,147.1c0,1,0.4,2.8,1.7,2.8s1.7-1.8,1.7-2.8c0-1-0.4-2.9-1.7-2.9S32.6,146.2,32.6,147.1z"/>
			<path class="st10" d="M42.3,147.1c0,1.7-0.9,3.5-2.4,3.5c-1.5,0-2.4-1.8-2.4-3.5c0-1.4,0.7-3.5,2.4-3.5
				C41.6,143.6,42.3,145.7,42.3,147.1z M38.2,147.1c0,1,0.4,2.8,1.7,2.8s1.7-1.8,1.7-2.8c0-1-0.4-2.9-1.7-2.9S38.1,146.2,38.2,147.1
				z"/>
			<path class="st10" d="M44.6,149.7l-1,2.3l-0.5-0.2l0.8-2.3L44.6,149.7z"/>
			<path class="st10" d="M50.6,147.1c0,1.7-0.9,3.5-2.4,3.5c-1.5,0-2.4-1.8-2.4-3.5c0-1.4,0.7-3.5,2.4-3.5
				C49.8,143.6,50.6,145.7,50.6,147.1z M46.5,147.1c0,1,0.4,2.8,1.7,2.8s1.7-1.8,1.7-2.8c0-1-0.4-2.9-1.7-2.9S46.4,146.2,46.5,147.1
				z"/>
			<path class="st10" d="M56.2,147.1c0,1.7-0.9,3.5-2.4,3.5c-1.5,0-2.4-1.8-2.4-3.5c0-1.4,0.7-3.5,2.4-3.5
				C55.5,143.6,56.2,145.7,56.2,147.1z M52.1,147.1c0,1,0.4,2.8,1.7,2.8s1.7-1.8,1.7-2.8c0-1-0.4-2.9-1.7-2.9S52.1,146.2,52.1,147.1
				z"/>
			<path class="st10" d="M61.7,147.1c0,1.7-0.9,3.5-2.4,3.5c-1.5,0-2.4-1.8-2.4-3.5c0-1.4,0.7-3.5,2.4-3.5
				C61,143.6,61.7,145.7,61.7,147.1z M57.6,147.1c0,1,0.4,2.8,1.7,2.8s1.7-1.8,1.7-2.8c0-1-0.4-2.9-1.7-2.9S57.6,146.2,57.6,147.1z"
				/>
		</g>
	</g>
	<g>
		<defs>
			<rect id="SVGID_21_" y="-0.1" width="576" height="360"/>
		</defs>
		<clipPath id="SVGID_22_">
			<use xlink:href="#SVGID_21_"  style="overflow:visible;"/>
		</clipPath>
		<g class="st14">
			<path class="st10" d="M9.2,92.2c-0.8-0.3-1.6-0.8-1.6-1.8c0-0.9,0.7-1.6,1.6-1.7v-0.9h0.6v0.9c0.6,0.1,1.2,0.5,1.4,1l-0.6,0.4
				c-0.2-0.3-0.5-0.6-0.8-0.7v2.2c0.9,0.4,1.7,0.8,1.7,1.9c0,1-0.7,1.8-1.7,2v1H9.2v-0.9c-1,0-1.8-0.8-1.9-1.7L8,93.7
				c0.1,0.6,0.6,1.2,1.2,1.2V92.2z M9.2,89.4c-0.5,0.1-0.8,0.5-0.8,1s0.4,0.8,0.8,1V89.4z M9.8,94.9c0.6-0.2,0.9-0.7,0.9-1.3
				c0-0.6-0.5-0.9-0.9-1.1V94.9z"/>
			<path class="st10" d="M13.5,89.5l0.4-0.7h1.5v6.8h-0.8v-6.1H13.5z"/>
			<path class="st10" d="M22.7,93.8v0.7h-0.8v1.1h-0.8v-1.1h-3.5l4.2-6.1h0v5.4H22.7z M21.1,90.7L21.1,90.7L19,93.8h2.2V90.7z"/>
			<path class="st10" d="M25.3,94.8l-1,2.3l-0.5-0.2l0.8-2.3L25.3,94.8z"/>
			<path class="st10" d="M31.2,92.2c0,1.7-0.9,3.5-2.4,3.5c-1.5,0-2.4-1.8-2.4-3.5c0-1.4,0.7-3.5,2.4-3.5
				C30.5,88.7,31.2,90.8,31.2,92.2z M27.1,92.2c0,1,0.4,2.8,1.7,2.8s1.7-1.8,1.7-2.8c0-1-0.4-2.9-1.7-2.9S27.1,91.2,27.1,92.2z"/>
			<path class="st10" d="M36.7,92.2c0,1.7-0.9,3.5-2.4,3.5s-2.4-1.8-2.4-3.5c0-1.4,0.7-3.5,2.4-3.5C36,88.7,36.7,90.8,36.7,92.2z
				 M32.6,92.2c0,1,0.4,2.8,1.7,2.8s1.7-1.8,1.7-2.8c0-1-0.4-2.9-1.7-2.9S32.6,91.2,32.6,92.2z"/>
			<path class="st10" d="M42.3,92.2c0,1.7-0.9,3.5-2.4,3.5c-1.5,0-2.4-1.8-2.4-3.5c0-1.4,0.7-3.5,2.4-3.5
				C41.6,88.7,42.3,90.8,42.3,92.2z M38.2,92.2c0,1,0.4,2.8,1.7,2.8s1.7-1.8,1.7-2.8c0-1-0.4-2.9-1.7-2.9S38.1,91.2,38.2,92.2z"/>
			<path class="st10" d="M44.6,94.8l-1,2.3l-0.5-0.2l0.8-2.3L44.6,94.8z"/>
			<path class="st10" d="M50.6,92.2c0,1.7-0.9,3.5-2.4,3.5c-1.5,0-2.4-1.8-2.4-3.5c0-1.4,0.7-3.5,2.4-3.5
				C49.8,88.7,50.6,90.8,50.6,92.2z M46.5,92.2c0,1,0.4,2.8,1.7,2.8s1.7-1.8,1.7-2.8c0-1-0.4-2.9-1.7-2.9S46.4,91.2,46.5,92.2z"/>
			<path class="st10" d="M56.2,92.2c0,1.7-0.9,3.5-2.4,3.5c-1.5,0-2.4-1.8-2.4-3.5c0-1.4,0.7-3.5,2.4-3.5
				C55.5,88.7,56.2,90.8,56.2,92.2z M52.1,92.2c0,1,0.4,2.8,1.7,2.8s1.7-1.8,1.7-2.8c0-1-0.4-2.9-1.7-2.9S52.1,91.2,52.1,92.2z"/>
			<path class="st10" d="M61.7,92.2c0,1.7-0.9,3.5-2.4,3.5c-1.5,0-2.4-1.8-2.4-3.5c0-1.4,0.7-3.5,2.4-3.5
				C61,88.7,61.7,90.8,61.7,92.2z M57.6,92.2c0,1,0.4,2.8,1.7,2.8s1.7-1.8,1.7-2.8c0-1-0.4-2.9-1.7-2.9S57.6,91.2,57.6,92.2z"/>
		</g>
	</g>
	<g>
		<defs>
			<rect id="SVGID_23_" y="-0.1" width="576" height="360"/>
		</defs>
		<clipPath id="SVGID_24_">
			<use xlink:href="#SVGID_23_"  style="overflow:visible;"/>
		</clipPath>
		<g class="st15">
			<path class="st10" d="M9.2,37.2c-0.8-0.3-1.6-0.8-1.6-1.8c0-0.9,0.7-1.6,1.6-1.7v-0.9h0.6v0.9c0.6,0.1,1.2,0.5,1.4,1l-0.6,0.4
				c-0.2-0.3-0.5-0.6-0.8-0.7v2.2c0.9,0.4,1.7,0.8,1.7,1.9c0,1-0.7,1.8-1.7,2v1H9.2v-0.9c-1,0-1.8-0.8-1.9-1.7L8,38.7
				C8,39.4,8.5,39.9,9.2,40V37.2z M9.2,34.5c-0.5,0.1-0.8,0.5-0.8,1s0.4,0.8,0.8,1V34.5z M9.8,39.9c0.6-0.2,0.9-0.7,0.9-1.3
				c0-0.6-0.5-0.9-0.9-1.1V39.9z"/>
			<path class="st10" d="M13.5,34.5l0.4-0.7h1.5v6.8h-0.8v-6.1H13.5z"/>
			<path class="st10" d="M21.4,34.1l-1.6,2.1l0,0c0.1,0,0.2-0.1,0.3-0.1s0.2,0,0.3,0c1.2,0,2.2,1,2.2,2.2c0,1.3-1.1,2.3-2.3,2.3
				c-1.3,0-2.3-1-2.3-2.3c0-0.6,0.3-1.2,0.6-1.6l2.3-3.1L21.4,34.1z M21.9,38.4c0-0.9-0.7-1.6-1.6-1.6c-0.9,0-1.6,0.7-1.6,1.6
				s0.7,1.6,1.6,1.6S21.9,39.3,21.9,38.4z"/>
			<path class="st10" d="M25.3,39.8l-1,2.3L23.8,42l0.8-2.3L25.3,39.8z"/>
			<path class="st10" d="M31.2,37.2c0,1.7-0.9,3.5-2.4,3.5c-1.5,0-2.4-1.8-2.4-3.5c0-1.4,0.7-3.5,2.4-3.5
				C30.5,33.7,31.2,35.8,31.2,37.2z M27.1,37.3c0,1,0.4,2.8,1.7,2.8s1.7-1.8,1.7-2.8c0-1-0.4-2.9-1.7-2.9S27.1,36.3,27.1,37.3z"/>
			<path class="st10" d="M36.7,37.2c0,1.7-0.9,3.5-2.4,3.5s-2.4-1.8-2.4-3.5c0-1.4,0.7-3.5,2.4-3.5C36,33.7,36.7,35.8,36.7,37.2z
				 M32.6,37.3c0,1,0.4,2.8,1.7,2.8s1.7-1.8,1.7-2.8c0-1-0.4-2.9-1.7-2.9S32.6,36.3,32.6,37.3z"/>
			<path class="st10" d="M42.3,37.2c0,1.7-0.9,3.5-2.4,3.5c-1.5,0-2.4-1.8-2.4-3.5c0-1.4,0.7-3.5,2.4-3.5
				C41.6,33.7,42.3,35.8,42.3,37.2z M38.2,37.3c0,1,0.4,2.8,1.7,2.8s1.7-1.8,1.7-2.8c0-1-0.4-2.9-1.7-2.9S38.1,36.3,38.2,37.3z"/>
			<path class="st10" d="M44.6,39.8l-1,2.3L43.1,42l0.8-2.3L44.6,39.8z"/>
			<path class="st10" d="M50.6,37.2c0,1.7-0.9,3.5-2.4,3.5c-1.5,0-2.4-1.8-2.4-3.5c0-1.4,0.7-3.5,2.4-3.5
				C49.8,33.7,50.6,35.8,50.6,37.2z M46.5,37.3c0,1,0.4,2.8,1.7,2.8s1.7-1.8,1.7-2.8c0-1-0.4-2.9-1.7-2.9S46.4,36.3,46.5,37.3z"/>
			<path class="st10" d="M56.2,37.2c0,1.7-0.9,3.5-2.4,3.5c-1.5,0-2.4-1.8-2.4-3.5c0-1.4,0.7-3.5,2.4-3.5
				C55.5,33.7,56.2,35.8,56.2,37.2z M52.1,37.3c0,1,0.4,2.8,1.7,2.8s1.7-1.8,1.7-2.8c0-1-0.4-2.9-1.7-2.9S52.1,36.3,52.1,37.3z"/>
			<path class="st10" d="M61.7,37.2c0,1.7-0.9,3.5-2.4,3.5c-1.5,0-2.4-1.8-2.4-3.5c0-1.4,0.7-3.5,2.4-3.5
				C61,33.7,61.7,35.8,61.7,37.2z M57.6,37.3c0,1,0.4,2.8,1.7,2.8s1.7-1.8,1.7-2.8c0-1-0.4-2.9-1.7-2.9S57.6,36.3,57.6,37.3z"/>
		</g>
	</g>
	<g>
		<defs>
			<rect id="SVGID_25_" y="-0.1" width="576" height="360"/>
		</defs>
		<clipPath id="SVGID_26_">
			<use xlink:href="#SVGID_25_"  style="overflow:visible;"/>
		</clipPath>
		<g class="st16">
			<path class="st10" d="M61.2,321.8l0.4-0.7h1.5v6.8h-0.8v-6.1H61.2z"/>
			<path class="st10" d="M66.9,327.6l1.6-2.2l0,0c-0.2,0.1-0.4,0.1-0.6,0.1c-1.2,0-2.2-1-2.2-2.2c0-1.3,1.1-2.3,2.3-2.3
				c1.3,0,2.3,1,2.3,2.3c0,0.6-0.3,1.1-0.6,1.6l-2.3,3.1L66.9,327.6z M66.5,323.3c0,0.9,0.7,1.6,1.6,1.6c0.9,0,1.6-0.7,1.6-1.6
				c0-0.9-0.7-1.6-1.6-1.6C67.2,321.7,66.5,322.4,66.5,323.3z"/>
			<path class="st10" d="M72.5,327.6l1.6-2.2l0,0c-0.2,0.1-0.4,0.1-0.6,0.1c-1.2,0-2.2-1-2.2-2.2c0-1.3,1.1-2.3,2.3-2.3
				c1.3,0,2.3,1,2.3,2.3c0,0.6-0.3,1.1-0.6,1.6L73,328L72.5,327.6z M72,323.3c0,0.9,0.7,1.6,1.6,1.6c0.9,0,1.6-0.7,1.6-1.6
				c0-0.9-0.7-1.6-1.6-1.6C72.7,321.7,72,322.4,72,323.3z"/>
			<path class="st10" d="M81.6,326.1v0.7h-0.8v1.1H80v-1.1h-3.5l4.2-6.1h0v5.4H81.6z M80,323L80,323l-2.2,3.1H80V323z"/>
		</g>
	</g>
	<g>
		<defs>
			<rect id="SVGID_27_" y="-0.1" width="576" height="360"/>
		</defs>
		<clipPath id="SVGID_28_">
			<use xlink:href="#SVGID_27_"  style="overflow:visible;"/>
		</clipPath>
		<g class="st17">
			<path class="st10" d="M168.6,321.8l0.4-0.7h1.5v6.8h-0.8v-6.1H168.6z"/>
			<path class="st10" d="M174.3,327.6l1.6-2.2l0,0c-0.2,0.1-0.4,0.1-0.6,0.1c-1.2,0-2.2-1-2.2-2.2c0-1.3,1.1-2.3,2.3-2.3
				c1.3,0,2.3,1,2.3,2.3c0,0.6-0.3,1.1-0.6,1.6l-2.3,3.1L174.3,327.6z M173.8,323.3c0,0.9,0.7,1.6,1.6,1.6c0.9,0,1.6-0.7,1.6-1.6
				c0-0.9-0.7-1.6-1.6-1.6C174.5,321.7,173.8,322.4,173.8,323.3z"/>
			<path class="st10" d="M179.8,327.6l1.6-2.2l0,0c-0.2,0.1-0.4,0.1-0.6,0.1c-1.2,0-2.2-1-2.2-2.2c0-1.3,1.1-2.3,2.3-2.3
				c1.3,0,2.3,1,2.3,2.3c0,0.6-0.3,1.1-0.6,1.6l-2.3,3.1L179.8,327.6z M179.3,323.3c0,0.9,0.7,1.6,1.6,1.6c0.9,0,1.6-0.7,1.6-1.6
				c0-0.9-0.7-1.6-1.6-1.6C180,321.7,179.3,322.4,179.3,323.3z"/>
			<path class="st10" d="M185.5,327.6l1.6-2.2l0,0c-0.2,0.1-0.4,0.1-0.6,0.1c-1.2,0-2.2-1-2.2-2.2c0-1.3,1.1-2.3,2.3-2.3
				c1.3,0,2.3,1,2.3,2.3c0,0.6-0.3,1.1-0.6,1.6L186,328L185.5,327.6z M185,323.3c0,0.9,0.7,1.6,1.6,1.6c0.9,0,1.6-0.7,1.6-1.6
				c0-0.9-0.7-1.6-1.6-1.6C185.7,321.7,185,322.4,185,323.3z"/>
		</g>
	</g>
	<g>
		<defs>
			<rect id="SVGID_29_" y="-0.1" width="576" height="360"/>
		</defs>
		<clipPath id="SVGID_30_">
			<use xlink:href="#SVGID_29_"  style="overflow:visible;"/>
		</clipPath>
		<g class="st18">
			<path class="st10" d="M279.3,327.2v0.7h-4.4l3.2-3.8c0.3-0.3,0.5-0.7,0.5-1.1c0-0.8-0.6-1.3-1.4-1.3c-0.8,0-1.4,0.6-1.4,1.4H275
				c0-1.2,0.9-2.1,2.1-2.1c1.1,0,2.1,0.8,2.1,2c0,0.5-0.2,1-0.5,1.4l-2.3,2.8H279.3z"/>
			<path class="st10" d="M285.2,324.5c0,1.7-0.9,3.5-2.4,3.5c-1.5,0-2.4-1.8-2.4-3.5c0-1.4,0.7-3.5,2.4-3.5
				C284.5,321,285.2,323.1,285.2,324.5z M281.1,324.5c0,1,0.4,2.8,1.7,2.8s1.7-1.8,1.7-2.8c0-1-0.4-2.9-1.7-2.9
				S281.1,323.6,281.1,324.5z"/>
			<path class="st10" d="M290.7,324.5c0,1.7-0.9,3.5-2.4,3.5c-1.5,0-2.4-1.8-2.4-3.5c0-1.4,0.7-3.5,2.4-3.5
				C290,321,290.7,323.1,290.7,324.5z M286.6,324.5c0,1,0.4,2.8,1.7,2.8c1.3,0,1.7-1.8,1.7-2.8c0-1-0.4-2.9-1.7-2.9
				C287,321.7,286.6,323.6,286.6,324.5z"/>
			<path class="st10" d="M296.3,326.1v0.7h-0.8v1.1h-0.8v-1.1h-3.5l4.2-6.1h0v5.4H296.3z M294.7,323L294.7,323l-2.2,3.1h2.2V323z"/>
		</g>
	</g>
	<g>
		<defs>
			<rect id="SVGID_31_" y="-0.1" width="576" height="360"/>
		</defs>
		<clipPath id="SVGID_32_">
			<use xlink:href="#SVGID_31_"  style="overflow:visible;"/>
		</clipPath>
		<g class="st19">
			<path class="st10" d="M386.6,327.2v0.7h-4.4l3.2-3.8c0.3-0.3,0.5-0.7,0.5-1.1c0-0.8-0.6-1.3-1.3-1.3c-0.8,0-1.4,0.6-1.4,1.4h-0.8
				c0-1.2,0.9-2.1,2.1-2.1c1.1,0,2.1,0.8,2.1,2c0,0.5-0.2,1-0.5,1.4l-2.3,2.8H386.6z"/>
			<path class="st10" d="M392.6,324.5c0,1.7-0.9,3.5-2.4,3.5c-1.5,0-2.4-1.8-2.4-3.5c0-1.4,0.7-3.5,2.4-3.5
				C391.9,321,392.6,323.1,392.6,324.5z M388.5,324.5c0,1,0.4,2.8,1.7,2.8c1.3,0,1.7-1.8,1.7-2.8c0-1-0.4-2.9-1.7-2.9
				S388.5,323.6,388.5,324.5z"/>
			<path class="st10" d="M398.1,324.5c0,1.7-0.9,3.5-2.4,3.5c-1.5,0-2.4-1.8-2.4-3.5c0-1.4,0.7-3.5,2.4-3.5
				C397.4,321,398.1,323.1,398.1,324.5z M394,324.5c0,1,0.4,2.8,1.7,2.8c1.3,0,1.7-1.8,1.7-2.8c0-1-0.4-2.9-1.7-2.9
				S394,323.6,394,324.5z"/>
			<path class="st10" d="M400.2,327.6l1.6-2.2l0,0c-0.2,0.1-0.4,0.1-0.6,0.1c-1.2,0-2.2-1-2.2-2.2c0-1.3,1.1-2.3,2.3-2.3
				s2.3,1,2.3,2.3c0,0.6-0.3,1.1-0.6,1.6l-2.3,3.1L400.2,327.6z M399.7,323.3c0,0.9,0.7,1.6,1.6,1.6c0.9,0,1.6-0.7,1.6-1.6
				c0-0.9-0.7-1.6-1.6-1.6C400.4,321.7,399.7,322.4,399.7,323.3z"/>
		</g>
	</g>
	<g>
		<defs>
			<rect id="SVGID_33_" y="-0.1" width="576" height="360"/>
		</defs>
		<clipPath id="SVGID_34_">
			<use xlink:href="#SVGID_33_"  style="overflow:visible;"/>
		</clipPath>
		<g class="st20">
			<path class="st10" d="M494,327.2v0.7h-4.4l3.2-3.8c0.3-0.3,0.5-0.7,0.5-1.1c0-0.8-0.6-1.3-1.3-1.3c-0.8,0-1.4,0.6-1.4,1.4h-0.8
				c0-1.2,0.9-2.1,2.1-2.1c1.1,0,2.1,0.8,2.1,2c0,0.5-0.2,1-0.5,1.4l-2.3,2.8H494z"/>
			<path class="st10" d="M499.9,324.5c0,1.7-0.9,3.5-2.4,3.5c-1.5,0-2.4-1.8-2.4-3.5c0-1.4,0.7-3.5,2.4-3.5
				C499.2,321,499.9,323.1,499.9,324.5z M495.8,324.5c0,1,0.4,2.8,1.7,2.8c1.3,0,1.7-1.8,1.7-2.8c0-1-0.4-2.9-1.7-2.9
				S495.8,323.6,495.8,324.5z"/>
			<path class="st10" d="M501.7,321.8l0.4-0.7h1.5v6.8h-0.8v-6.1H501.7z"/>
			<path class="st10" d="M511,326.1v0.7h-0.8v1.1h-0.8v-1.1h-3.5l4.2-6.1h0v5.4H511z M509.4,323L509.4,323l-2.2,3.1h2.2V323z"/>
		</g>
	</g>
	<g>
		<defs>
			<rect id="SVGID_35_" y="-0.1" width="576" height="360"/>
		</defs>
		<clipPath id="SVGID_36_">
			<use xlink:href="#SVGID_35_"  style="overflow:visible;"/>
		</clipPath>
		<g class="st21">
			<path class="st22" d="M175.2,18.5l-1.3,3h-1.3l4.9-11.1l4.8,11.1h-1.3l-1.2-3H175.2z M177.4,13.2l-1.8,4.2h3.6L177.4,13.2z"/>
			<path class="st22" d="M188.7,20.6L188.7,20.6c-0.6,0.7-1.4,1.1-2.3,1.1c-1.9,0-3.2-1.6-3.2-3.5c0-1.9,1.2-3.5,3.2-3.5
				c0.9,0,1.7,0.4,2.3,1.1h0V9.9h1.1v11.6h-1.1V20.6z M184.4,18.1c0,1.3,0.8,2.5,2.2,2.5c1.4,0,2.2-1.2,2.2-2.5
				c0-1.3-0.8-2.4-2.2-2.4C185.2,15.8,184.4,16.9,184.4,18.1z"/>
			<path class="st22" d="M198.3,21.5h-1.1v-0.9h0c-0.6,0.7-1.3,1.1-2.3,1.1c-1.9,0-3.2-1.6-3.2-3.5c0-1.9,1.2-3.5,3.2-3.5
				c0.9,0,1.7,0.4,2.3,1.1h0v-0.9h1.1V21.5z M192.9,18.1c0,1.3,0.8,2.5,2.2,2.5c1.4,0,2.2-1.2,2.2-2.5c0-1.3-0.8-2.4-2.2-2.4
				C193.7,15.8,192.9,16.9,192.9,18.1z"/>
			<path class="st22" d="M202.9,20.3l-1.6,3.6l-0.8-0.3l1.3-3.6L202.9,20.3z"/>
			<path class="st22" d="M220.5,16.2c0,3-2.5,5.5-5.5,5.5s-5.5-2.4-5.5-5.5c0-3,2.5-5.5,5.5-5.5S220.5,13.2,220.5,16.2z M210.6,16.2
				c0,2.4,1.9,4.4,4.3,4.4c2.4,0,4.3-2,4.3-4.4c0-2.4-1.9-4.4-4.3-4.4C212.6,11.8,210.6,13.8,210.6,16.2z"/>
			<path class="st22" d="M228.2,10.9h1.6l-5,4.9l5.1,5.7h-1.6l-4.3-4.9l-0.3,0.3v4.6h-1.2V10.9h1.2v4.5L228.2,10.9z"/>
			<path class="st22" d="M237.6,18.5l-1.3,3H235l4.9-11.1l4.8,11.1h-1.3l-1.2-3H237.6z M239.9,13.2l-1.8,4.2h3.6L239.9,13.2z"/>
			<path class="st22" d="M247.3,15.7L247.3,15.7c0.5-0.6,1.1-1,1.9-1c1.8,0,2.2,1.3,2.2,2.9v3.9h-1.1v-3.7c0-1.1-0.1-2-1.4-2
				c-1.5,0-1.6,1.4-1.6,2.6v3.1h-1.1v-6.6h1.1V15.7z"/>
			<path class="st22" d="M255.1,15.7L255.1,15.7c0.5-0.6,1.1-1,1.9-1c1.8,0,2.2,1.3,2.2,2.9v3.9h-1.1v-3.7c0-1.1-0.1-2-1.4-2
				c-1.5,0-1.6,1.4-1.6,2.6v3.1H254v-6.6h1.1V15.7z"/>
			<path class="st22" d="M262.8,18.6c0,1.1,0.1,2.1,1.5,2.1s1.5-1,1.5-2.1v-3.7h1.1v3.8c0,1.8-0.7,3-2.6,3s-2.6-1.2-2.6-3v-3.8h1.1
				V18.6z"/>
			<path class="st22" d="M275.4,21.5h-1.1v-0.9h0c-0.6,0.7-1.3,1.1-2.3,1.1c-1.9,0-3.2-1.6-3.2-3.5c0-1.9,1.2-3.5,3.2-3.5
				c0.9,0,1.7,0.4,2.3,1.1h0v-0.9h1.1V21.5z M269.9,18.1c0,1.3,0.8,2.5,2.2,2.5c1.4,0,2.2-1.2,2.2-2.5c0-1.3-0.8-2.4-2.2-2.4
				C270.8,15.8,269.9,16.9,269.9,18.1z"/>
			<path class="st22" d="M279,21.5h-1.1V9.9h1.1V21.5z"/>
			<path class="st22" d="M290.7,13c-0.4-0.7-0.9-1.2-1.8-1.2c-0.9,0-1.8,0.7-1.8,1.6c0,0.9,0.9,1.3,1.7,1.7l0.7,0.3
				c1.4,0.6,2.5,1.3,2.5,3c0,1.9-1.5,3.3-3.3,3.3c-1.7,0-3-1.1-3.3-2.7l1.2-0.3c0.2,1.1,1,2,2.1,2c1.1,0,2.2-0.9,2.2-2.1
				c0-1.2-1-1.7-2-2.1l-0.6-0.3c-1.2-0.6-2.3-1.2-2.3-2.7c0-1.6,1.4-2.7,3-2.7c1.2,0,2.2,0.6,2.7,1.6L290.7,13z"/>
			<path class="st22" d="M300.2,21.5h-1.1v-0.9h0c-0.6,0.7-1.3,1.1-2.3,1.1c-1.9,0-3.2-1.6-3.2-3.5c0-1.9,1.2-3.5,3.2-3.5
				c0.9,0,1.7,0.4,2.3,1.1h0v-0.9h1.1V21.5z M294.7,18.1c0,1.3,0.8,2.5,2.2,2.5c1.4,0,2.2-1.2,2.2-2.5c0-1.3-0.8-2.4-2.2-2.4
				C295.6,15.8,294.7,16.9,294.7,18.1z"/>
			<path class="st22" d="M303.8,21.5h-1.1V9.9h1.1V21.5z"/>
			<path class="st22" d="M306.8,18.4c0,1.2,0.9,2.2,2.2,2.2c1,0,1.6-0.6,2-1.4l1,0.5c-0.6,1.2-1.7,1.9-3,1.9c-2,0-3.2-1.5-3.2-3.4
				c0-2,1.1-3.6,3.2-3.6c2.1,0,3.2,1.8,3.1,3.7H306.8z M310.8,17.5c-0.2-1-1-1.7-1.9-1.7c-1,0-1.9,0.8-2,1.7H310.8z"/>
			<path class="st22" d="M316.6,16.4c-0.2-0.4-0.5-0.7-0.9-0.7c-0.4,0-0.8,0.3-0.8,0.7c0,0.6,0.8,0.8,1.5,1.2
				c0.8,0.3,1.5,0.8,1.5,1.9c0,1.2-1,2.1-2.2,2.1c-1.1,0-2-0.6-2.3-1.7l1-0.4c0.3,0.6,0.6,1.1,1.3,1.1c0.6,0,1.1-0.4,1.1-1
				c0-1.5-3-1-3-3c0-1.1,0.9-1.9,2-1.9c0.8,0,1.5,0.5,1.8,1.2L316.6,16.4z"/>
			<path class="st22" d="M327.2,21.5H326V12h-2.6v-1.1h6.3V12h-2.6V21.5z"/>
			<path class="st22" d="M335.9,21.5h-1.1v-0.9h0c-0.6,0.7-1.3,1.1-2.3,1.1c-1.9,0-3.2-1.6-3.2-3.5c0-1.9,1.2-3.5,3.2-3.5
				c0.9,0,1.7,0.4,2.3,1.1h0v-0.9h1.1V21.5z M330.5,18.1c0,1.3,0.8,2.5,2.2,2.5c1.4,0,2.2-1.2,2.2-2.5c0-1.3-0.8-2.4-2.2-2.4
				C331.3,15.8,330.5,16.9,330.5,18.1z"/>
			<path class="st22" d="M337.8,14.9h1.4l1.7,2.2l1.7-2.2h1.4l-2.4,3.1l2.7,3.5H343l-2.1-2.7l-2.1,2.7h-1.4l2.8-3.5L337.8,14.9z"/>
			<path class="st22" d="M350.4,10.9h2c1.6,0,2.9,0.2,4.1,1.3c1.2,1,1.8,2.5,1.8,4c0,1.5-0.6,2.9-1.7,3.9c-1.3,1.1-2.5,1.3-4.2,1.3
				h-2V10.9z M352.4,20.4c1.3,0,2.4-0.2,3.3-1.1c0.9-0.8,1.3-1.9,1.3-3.1c0-1.2-0.5-2.4-1.4-3.2c-1-0.9-2-1-3.3-1h-0.9v8.4H352.4z"
				/>
			<path class="st22" d="M360.8,18.4c0,1.2,0.9,2.2,2.2,2.2c1,0,1.6-0.6,2-1.4l1,0.5c-0.6,1.2-1.7,1.9-3,1.9c-2,0-3.2-1.5-3.2-3.4
				c0-2,1.1-3.6,3.2-3.6c2.1,0,3.2,1.8,3.1,3.7H360.8z M364.8,17.5c-0.2-1-1-1.7-1.9-1.7c-1,0-1.9,0.8-2,1.7H364.8z"/>
			<path class="st22" d="M369,15.8L369,15.8c0.6-0.7,1.4-1.1,2.3-1.1c1.9,0,3.2,1.7,3.2,3.5c0,1.9-1.2,3.5-3.2,3.5
				c-0.9,0-1.7-0.4-2.3-1.1h0v4.6h-1.1V14.9h1.1V15.8z M368.9,18.1c0,1.3,0.8,2.5,2.2,2.5c1.4,0,2.2-1.2,2.2-2.5
				c0-1.3-0.8-2.4-2.2-2.4C369.8,15.8,368.9,16.9,368.9,18.1z"/>
			<path class="st22" d="M375.8,18.2c0-1.9,1.5-3.5,3.5-3.5c1.9,0,3.5,1.6,3.5,3.5c0,1.9-1.5,3.5-3.5,3.5
				C377.4,21.7,375.8,20.1,375.8,18.2z M376.9,18.2c0,1.3,1,2.4,2.3,2.4c1.4,0,2.3-1.1,2.3-2.4c0-1.3-1-2.4-2.3-2.4
				C377.9,15.8,376.9,16.9,376.9,18.2z"/>
			<path class="st22" d="M387.4,16.4c-0.2-0.4-0.5-0.7-0.9-0.7c-0.4,0-0.8,0.3-0.8,0.7c0,0.6,0.8,0.8,1.5,1.2
				c0.8,0.3,1.5,0.8,1.5,1.9c0,1.2-1,2.1-2.2,2.1c-1.1,0-2-0.6-2.3-1.7l1-0.4c0.3,0.6,0.6,1.1,1.3,1.1c0.6,0,1.1-0.4,1.1-1
				c0-1.5-3-1-3-3c0-1.1,0.9-1.9,2-1.9c0.8,0,1.5,0.5,1.8,1.2L387.4,16.4z"/>
			<path class="st22" d="M392.3,12.4c0,0.4-0.4,0.8-0.8,0.8c-0.4,0-0.8-0.4-0.8-0.8c0-0.4,0.4-0.8,0.8-0.8
				C391.9,11.6,392.3,12,392.3,12.4z M392,21.5h-1.1v-6.6h1.1V21.5z"/>
			<path class="st22" d="M395.9,21.5h-1.1v-5.6h-0.7v-1h0.7v-2.4h1.1v2.4h1.2v1h-1.2V21.5z"/>
			<path class="st22" d="M401.1,16.4c-0.2-0.4-0.5-0.7-0.9-0.7c-0.4,0-0.8,0.3-0.8,0.7c0,0.6,0.8,0.8,1.5,1.2
				c0.8,0.3,1.5,0.8,1.5,1.9c0,1.2-1,2.1-2.2,2.1c-1.1,0-2-0.6-2.3-1.7l1-0.4c0.3,0.6,0.6,1.1,1.3,1.1c0.6,0,1.1-0.4,1.1-1
				c0-1.5-3-1-3-3c0-1.1,0.9-1.9,2-1.9c0.8,0,1.5,0.5,1.8,1.2L401.1,16.4z"/>
		</g>
	</g>
	<g>
		<defs>
			<polygon id="SVGID_37_" points="0,359.9 576,359.9 576,-0.1 0,-0.1 0,359.9 			"/>
		</defs>
		<clipPath id="SVGID_38_">
			<use xlink:href="#SVGID_37_"  style="overflow:visible;"/>
		</clipPath>
		<polygon class="st23" points="154.9,343.1 180.1,343.1 180.1,348 154.9,348 154.9,343.1 		"/>
	</g>
	<g>
		<defs>
			<rect id="SVGID_39_" y="-0.1" width="576" height="360"/>
		</defs>
		<clipPath id="SVGID_40_">
			<use xlink:href="#SVGID_39_"  style="overflow:visible;"/>
		</clipPath>
		<g class="st24">
			<path class="st25" d="M187.4,347.9C187.4,347.9,187.4,348,187.4,347.9c0,0.1,0,0.1-0.1,0.1s-0.1,0-0.1,0s-0.1,0-0.2,0
				c-0.1,0-0.1,0-0.2,0c0,0-0.1,0-0.1,0c0,0-0.1,0-0.1-0.1c0,0,0-0.1,0-0.1l-0.5-1.3c-0.1-0.2-0.1-0.3-0.2-0.4
				c-0.1-0.1-0.1-0.2-0.2-0.3c-0.1-0.1-0.2-0.2-0.3-0.2c-0.1-0.1-0.3-0.1-0.4-0.1h-0.5v2.4c0,0,0,0,0,0.1c0,0,0,0-0.1,0
				c0,0-0.1,0-0.1,0c0,0-0.1,0-0.2,0s-0.1,0-0.2,0c0,0-0.1,0-0.1,0c0,0,0,0-0.1,0s0,0,0-0.1v-5.3c0-0.1,0-0.2,0.1-0.2
				c0.1,0,0.1-0.1,0.2-0.1h1.2c0.1,0,0.3,0,0.4,0c0.1,0,0.2,0,0.3,0c0.2,0,0.4,0.1,0.6,0.2c0.2,0.1,0.3,0.2,0.4,0.3s0.2,0.3,0.3,0.4
				c0.1,0.2,0.1,0.3,0.1,0.5c0,0.2,0,0.4-0.1,0.5c-0.1,0.2-0.1,0.3-0.2,0.4c-0.1,0.1-0.2,0.2-0.3,0.3s-0.3,0.2-0.5,0.2
				c0.1,0,0.2,0.1,0.3,0.2c0.1,0.1,0.1,0.1,0.2,0.2c0.1,0.1,0.1,0.2,0.2,0.3s0.1,0.2,0.2,0.4l0.5,1.3
				C187.4,347.7,187.4,347.8,187.4,347.9C187.4,347.9,187.4,347.9,187.4,347.9z M186.3,343.9c0-0.2,0-0.4-0.1-0.6
				c-0.1-0.2-0.3-0.3-0.5-0.3c-0.1,0-0.2,0-0.2,0c-0.1,0-0.2,0-0.4,0h-0.6v1.9h0.7c0.2,0,0.4,0,0.5-0.1c0.1,0,0.3-0.1,0.4-0.2
				c0.1-0.1,0.2-0.2,0.2-0.3S186.3,344.1,186.3,343.9z"/>
			<path class="st25" d="M191.8,345.8c0,0.1,0,0.2-0.1,0.2c-0.1,0-0.1,0.1-0.2,0.1H189c0,0.2,0,0.4,0.1,0.6c0,0.2,0.1,0.3,0.2,0.5
				s0.2,0.2,0.4,0.3c0.2,0.1,0.4,0.1,0.6,0.1c0.2,0,0.4,0,0.5,0c0.1,0,0.3-0.1,0.4-0.1s0.2-0.1,0.3-0.1c0.1,0,0.1,0,0.2,0
				c0,0,0,0,0.1,0c0,0,0,0,0,0s0,0,0,0.1c0,0,0,0.1,0,0.1c0,0,0,0.1,0,0.1c0,0,0,0.1,0,0.1c0,0,0,0,0,0.1s0,0,0,0.1
				c0,0-0.1,0-0.1,0.1c-0.1,0-0.2,0.1-0.3,0.1s-0.3,0.1-0.4,0.1c-0.2,0-0.3,0-0.5,0c-0.3,0-0.6,0-0.9-0.1s-0.5-0.2-0.6-0.4
				s-0.3-0.4-0.4-0.7s-0.1-0.6-0.1-0.9c0-0.3,0-0.6,0.1-0.9c0.1-0.3,0.2-0.5,0.4-0.7c0.2-0.2,0.4-0.3,0.6-0.4
				c0.2-0.1,0.5-0.2,0.8-0.2c0.3,0,0.6,0,0.8,0.1c0.2,0.1,0.4,0.2,0.5,0.4c0.1,0.2,0.2,0.4,0.3,0.6c0.1,0.2,0.1,0.5,0.1,0.7V345.8z
				 M191.1,345.6c0-0.4-0.1-0.7-0.3-0.9c-0.2-0.2-0.4-0.3-0.8-0.3c-0.2,0-0.3,0-0.5,0.1s-0.2,0.2-0.3,0.3c-0.1,0.1-0.2,0.2-0.2,0.4
				c-0.1,0.1-0.1,0.3-0.1,0.5H191.1z"/>
			<path class="st25" d="M195.8,347.3c0,0,0,0.1,0,0.1c0,0,0,0.1,0,0.1c0,0,0,0,0,0.1c0,0,0,0-0.1,0.1c0,0-0.1,0.1-0.2,0.1
				c-0.1,0.1-0.2,0.1-0.3,0.1c-0.1,0-0.2,0.1-0.4,0.1s-0.3,0-0.4,0c-0.3,0-0.5,0-0.8-0.1c-0.2-0.1-0.4-0.2-0.6-0.4
				c-0.1-0.2-0.3-0.4-0.3-0.7c-0.1-0.3-0.1-0.6-0.1-0.9c0-0.4,0-0.7,0.1-1c0.1-0.3,0.2-0.5,0.4-0.7c0.2-0.2,0.4-0.3,0.6-0.4
				c0.2-0.1,0.5-0.1,0.7-0.1c0.1,0,0.2,0,0.4,0c0.1,0,0.2,0.1,0.3,0.1s0.2,0.1,0.3,0.1s0.1,0.1,0.2,0.1s0.1,0.1,0.1,0.1
				c0,0,0,0,0,0.1c0,0,0,0.1,0,0.1s0,0.1,0,0.1c0,0.1,0,0.2,0,0.2c0,0-0.1,0.1-0.1,0.1c0,0-0.1,0-0.2-0.1c-0.1,0-0.1-0.1-0.2-0.2
				s-0.2-0.1-0.3-0.2c-0.1,0-0.3-0.1-0.4-0.1c-0.3,0-0.6,0.1-0.8,0.4c-0.2,0.3-0.3,0.7-0.3,1.2c0,0.3,0,0.5,0.1,0.7
				c0,0.2,0.1,0.4,0.2,0.5c0.1,0.1,0.2,0.2,0.3,0.3c0.1,0.1,0.3,0.1,0.5,0.1c0.2,0,0.3,0,0.4-0.1s0.2-0.1,0.3-0.2
				c0.1-0.1,0.2-0.1,0.2-0.2c0.1-0.1,0.1-0.1,0.1-0.1c0,0,0,0,0.1,0s0,0,0,0.1c0,0,0,0.1,0,0.1C195.8,347.2,195.8,347.3,195.8,347.3
				z"/>
			<path class="st25" d="M200.1,345.8c0,0.1,0,0.2-0.1,0.2c-0.1,0-0.1,0.1-0.2,0.1h-2.6c0,0.2,0,0.4,0.1,0.6c0,0.2,0.1,0.3,0.2,0.5
				s0.2,0.2,0.4,0.3c0.2,0.1,0.4,0.1,0.6,0.1c0.2,0,0.4,0,0.5,0c0.1,0,0.3-0.1,0.4-0.1s0.2-0.1,0.3-0.1c0.1,0,0.1,0,0.2,0
				c0,0,0,0,0.1,0c0,0,0,0,0,0s0,0,0,0.1c0,0,0,0.1,0,0.1c0,0,0,0.1,0,0.1c0,0,0,0.1,0,0.1c0,0,0,0,0,0.1s0,0,0,0.1
				c0,0-0.1,0-0.1,0.1c-0.1,0-0.2,0.1-0.3,0.1s-0.3,0.1-0.4,0.1c-0.2,0-0.3,0-0.5,0c-0.3,0-0.6,0-0.9-0.1s-0.5-0.2-0.6-0.4
				s-0.3-0.4-0.4-0.7s-0.1-0.6-0.1-0.9c0-0.3,0-0.6,0.1-0.9c0.1-0.3,0.2-0.5,0.4-0.7c0.2-0.2,0.4-0.3,0.6-0.4
				c0.2-0.1,0.5-0.2,0.8-0.2c0.3,0,0.6,0,0.8,0.1c0.2,0.1,0.4,0.2,0.5,0.4c0.1,0.2,0.2,0.4,0.3,0.6c0.1,0.2,0.1,0.5,0.1,0.7V345.8z
				 M199.4,345.6c0-0.4-0.1-0.7-0.3-0.9c-0.2-0.2-0.4-0.3-0.8-0.3c-0.2,0-0.3,0-0.5,0.1s-0.2,0.2-0.3,0.3c-0.1,0.1-0.2,0.2-0.2,0.4
				c-0.1,0.1-0.1,0.3-0.1,0.5H199.4z"/>
			<path class="st25" d="M203.7,346.8c0,0.2,0,0.4-0.1,0.5c-0.1,0.2-0.2,0.3-0.3,0.4s-0.3,0.2-0.5,0.2s-0.4,0.1-0.6,0.1
				c-0.1,0-0.3,0-0.4,0c-0.1,0-0.2,0-0.3-0.1c-0.1,0-0.2-0.1-0.3-0.1c-0.1,0-0.1-0.1-0.2-0.1s-0.1-0.1-0.1-0.1s0-0.1,0-0.2
				c0-0.1,0-0.1,0-0.1c0,0,0-0.1,0-0.1s0,0,0-0.1c0,0,0,0,0.1,0c0,0,0.1,0,0.1,0.1c0.1,0,0.1,0.1,0.2,0.1c0.1,0,0.2,0.1,0.3,0.1
				c0.1,0,0.3,0.1,0.4,0.1c0.1,0,0.2,0,0.3,0s0.2-0.1,0.3-0.1c0.1-0.1,0.1-0.1,0.2-0.2c0-0.1,0.1-0.2,0.1-0.3c0-0.1,0-0.2-0.1-0.3
				c-0.1-0.1-0.1-0.1-0.2-0.2c-0.1-0.1-0.2-0.1-0.3-0.2c-0.1,0-0.2-0.1-0.4-0.1c-0.1,0-0.2-0.1-0.4-0.2c-0.1-0.1-0.2-0.1-0.3-0.2
				s-0.2-0.2-0.2-0.3c-0.1-0.1-0.1-0.3-0.1-0.5c0-0.2,0-0.3,0.1-0.4c0.1-0.1,0.1-0.3,0.3-0.4c0.1-0.1,0.3-0.2,0.5-0.3
				c0.2-0.1,0.4-0.1,0.6-0.1c0.1,0,0.2,0,0.3,0s0.2,0,0.3,0.1c0.1,0,0.2,0.1,0.2,0.1c0.1,0,0.1,0.1,0.1,0.1c0,0,0.1,0,0.1,0.1
				s0,0,0,0.1c0,0,0,0,0,0.1c0,0,0,0.1,0,0.1c0,0,0,0.1,0,0.1c0,0,0,0.1,0,0.1c0,0,0,0,0,0.1c0,0,0,0,0,0c0,0-0.1,0-0.1,0
				s-0.1-0.1-0.2-0.1c-0.1,0-0.2-0.1-0.3-0.1c-0.1,0-0.2,0-0.4,0c-0.1,0-0.2,0-0.3,0c-0.1,0-0.2,0.1-0.2,0.1
				c-0.1,0.1-0.1,0.1-0.1,0.2c0,0.1,0,0.1,0,0.2c0,0.1,0,0.2,0.1,0.3c0.1,0.1,0.1,0.1,0.2,0.2s0.2,0.1,0.3,0.2s0.2,0.1,0.4,0.1
				c0.1,0.1,0.2,0.1,0.4,0.2c0.1,0.1,0.2,0.1,0.3,0.2s0.2,0.2,0.2,0.3C203.6,346.5,203.7,346.7,203.7,346.8z"/>
			<path class="st25" d="M207.2,346.8c0,0.2,0,0.4-0.1,0.5c-0.1,0.2-0.2,0.3-0.3,0.4s-0.3,0.2-0.5,0.2s-0.4,0.1-0.6,0.1
				c-0.1,0-0.3,0-0.4,0c-0.1,0-0.2,0-0.3-0.1c-0.1,0-0.2-0.1-0.3-0.1c-0.1,0-0.1-0.1-0.2-0.1s-0.1-0.1-0.1-0.1s0-0.1,0-0.2
				c0-0.1,0-0.1,0-0.1c0,0,0-0.1,0-0.1s0,0,0-0.1c0,0,0,0,0.1,0c0,0,0.1,0,0.1,0.1c0.1,0,0.1,0.1,0.2,0.1c0.1,0,0.2,0.1,0.3,0.1
				c0.1,0,0.3,0.1,0.4,0.1c0.1,0,0.2,0,0.3,0s0.2-0.1,0.3-0.1c0.1-0.1,0.1-0.1,0.2-0.2c0-0.1,0.1-0.2,0.1-0.3c0-0.1,0-0.2-0.1-0.3
				c-0.1-0.1-0.1-0.1-0.2-0.2c-0.1-0.1-0.2-0.1-0.3-0.2c-0.1,0-0.2-0.1-0.4-0.1c-0.1,0-0.2-0.1-0.4-0.2c-0.1-0.1-0.2-0.1-0.3-0.2
				s-0.2-0.2-0.2-0.3c-0.1-0.1-0.1-0.3-0.1-0.5c0-0.2,0-0.3,0.1-0.4c0.1-0.1,0.1-0.3,0.3-0.4c0.1-0.1,0.3-0.2,0.5-0.3
				c0.2-0.1,0.4-0.1,0.6-0.1c0.1,0,0.2,0,0.3,0s0.2,0,0.3,0.1c0.1,0,0.2,0.1,0.2,0.1c0.1,0,0.1,0.1,0.1,0.1c0,0,0.1,0,0.1,0.1
				s0,0,0,0.1c0,0,0,0,0,0.1c0,0,0,0.1,0,0.1c0,0,0,0.1,0,0.1c0,0,0,0.1,0,0.1c0,0,0,0,0,0.1c0,0,0,0,0,0c0,0-0.1,0-0.1,0
				s-0.1-0.1-0.2-0.1c-0.1,0-0.2-0.1-0.3-0.1c-0.1,0-0.2,0-0.4,0c-0.1,0-0.2,0-0.3,0c-0.1,0-0.2,0.1-0.2,0.1
				c-0.1,0.1-0.1,0.1-0.1,0.2c0,0.1,0,0.1,0,0.2c0,0.1,0,0.2,0.1,0.3c0.1,0.1,0.1,0.1,0.2,0.2s0.2,0.1,0.3,0.2s0.2,0.1,0.4,0.1
				c0.1,0.1,0.2,0.1,0.4,0.2c0.1,0.1,0.2,0.1,0.3,0.2s0.2,0.2,0.2,0.3C207.1,346.5,207.2,346.7,207.2,346.8z"/>
			<path class="st25" d="M209.1,342.6c0,0.2,0,0.3-0.1,0.3s-0.2,0.1-0.4,0.1c-0.2,0-0.3,0-0.3-0.1c-0.1-0.1-0.1-0.2-0.1-0.3
				c0-0.2,0-0.3,0.1-0.3s0.2-0.1,0.4-0.1c0.2,0,0.3,0,0.3,0.1C209,342.4,209.1,342.5,209.1,342.6z M209,347.9
				C209,347.9,209,348,209,347.9c0,0.1,0,0.1-0.1,0.1s-0.1,0-0.1,0s-0.1,0-0.2,0c-0.1,0-0.1,0-0.2,0s-0.1,0-0.1,0c0,0,0,0-0.1,0
				c0,0,0,0,0-0.1v-4c0,0,0,0,0-0.1s0,0,0.1,0c0,0,0.1,0,0.1,0s0.1,0,0.2,0c0.1,0,0.1,0,0.2,0s0.1,0,0.1,0s0,0,0.1,0s0,0,0,0.1
				V347.9z"/>
			<path class="st25" d="M214,345.9c0,0.3,0,0.6-0.1,0.9c-0.1,0.3-0.2,0.5-0.4,0.7c-0.2,0.2-0.4,0.3-0.6,0.5
				c-0.3,0.1-0.5,0.2-0.9,0.2c-0.3,0-0.6,0-0.9-0.1c-0.2-0.1-0.4-0.2-0.6-0.4s-0.3-0.4-0.4-0.7s-0.1-0.6-0.1-0.9
				c0-0.3,0-0.6,0.1-0.9c0.1-0.3,0.2-0.5,0.4-0.7s0.4-0.3,0.6-0.5s0.5-0.2,0.9-0.2c0.3,0,0.6,0,0.9,0.1c0.2,0.1,0.4,0.2,0.6,0.4
				c0.2,0.2,0.3,0.4,0.4,0.7S214,345.6,214,345.9z M213.2,345.9c0-0.2,0-0.4-0.1-0.6c0-0.2-0.1-0.4-0.2-0.5s-0.2-0.3-0.4-0.3
				c-0.2-0.1-0.4-0.1-0.6-0.1c-0.2,0-0.4,0-0.6,0.1s-0.3,0.2-0.4,0.3c-0.1,0.1-0.2,0.3-0.2,0.5s-0.1,0.4-0.1,0.6
				c0,0.2,0,0.4,0.1,0.6c0,0.2,0.1,0.4,0.2,0.5c0.1,0.1,0.2,0.3,0.4,0.3c0.2,0.1,0.4,0.1,0.6,0.1c0.2,0,0.4,0,0.6-0.1
				c0.2-0.1,0.3-0.2,0.4-0.3c0.1-0.1,0.2-0.3,0.2-0.5C213.2,346.4,213.2,346.2,213.2,345.9z"/>
			<path class="st25" d="M218.5,347.9C218.5,347.9,218.5,348,218.5,347.9c0,0.1,0,0.1-0.1,0.1s-0.1,0-0.1,0s-0.1,0-0.2,0
				c-0.1,0-0.1,0-0.2,0s-0.1,0-0.1,0s0,0-0.1,0c0,0,0,0,0-0.1v-2.3c0-0.2,0-0.4-0.1-0.5s-0.1-0.3-0.2-0.4s-0.2-0.2-0.3-0.2
				s-0.2-0.1-0.4-0.1c-0.2,0-0.4,0.1-0.5,0.2c-0.2,0.1-0.4,0.3-0.6,0.6v2.8c0,0,0,0,0,0.1c0,0,0,0-0.1,0s-0.1,0-0.1,0s-0.1,0-0.2,0
				c-0.1,0-0.1,0-0.2,0s-0.1,0-0.1,0c0,0,0,0-0.1,0c0,0,0,0,0-0.1v-4c0,0,0,0,0-0.1c0,0,0,0,0.1,0c0,0,0.1,0,0.1,0c0,0,0.1,0,0.2,0
				c0.1,0,0.1,0,0.2,0c0,0,0.1,0,0.1,0c0,0,0,0,0.1,0c0,0,0,0,0,0.1v0.5c0.2-0.2,0.4-0.4,0.7-0.5c0.2-0.1,0.4-0.2,0.7-0.2
				c0.3,0,0.5,0,0.7,0.1c0.2,0.1,0.3,0.2,0.4,0.4s0.2,0.3,0.2,0.5c0,0.2,0.1,0.4,0.1,0.7V347.9z"/>
		</g>
	</g>
	<g>
		<defs>
			<polygon id="SVGID_41_" points="0,359.9 576,359.9 576,-0.1 0,-0.1 0,359.9 			"/>
		</defs>
		<clipPath id="SVGID_42_">
			<use xlink:href="#SVGID_41_"  style="overflow:visible;"/>
		</clipPath>
		<line class="st26" x1="235.1" y1="345.5" x2="260.3" y2="345.5"/>
	</g>
	<g>
		<defs>
			<rect id="SVGID_43_" y="-0.1" width="576" height="360"/>
		</defs>
		<clipPath id="SVGID_44_">
			<use xlink:href="#SVGID_43_"  style="overflow:visible;"/>
		</clipPath>
		<g class="st27">
			<path class="st25" d="M268.1,347.8c0,0.1,0,0.1,0,0.2c0,0,0,0.1,0,0.1s-0.1,0-0.1,0c-0.1,0-0.1,0-0.2,0s-0.2,0-0.2,0
				c-0.1,0-0.1,0-0.1,0c0,0,0,0-0.1,0c0,0,0,0,0-0.1l-0.5-1.4h-2.4l-0.5,1.4c0,0,0,0,0,0.1c0,0,0,0-0.1,0c0,0-0.1,0-0.1,0
				c-0.1,0-0.1,0-0.2,0c-0.1,0-0.2,0-0.2,0c-0.1,0-0.1,0-0.1,0c0,0,0-0.1,0-0.1c0,0,0-0.1,0-0.2l1.9-5.3c0,0,0-0.1,0-0.1s0,0,0.1,0
				c0,0,0.1,0,0.1,0c0.1,0,0.1,0,0.2,0c0.1,0,0.2,0,0.2,0c0.1,0,0.1,0,0.1,0s0.1,0,0.1,0c0,0,0,0,0,0.1L268.1,347.8z M265.6,343.1
				L265.6,343.1l-1,2.8h2L265.6,343.1z"/>
			<path class="st25" d="M272.3,347.9C272.3,347.9,272.3,348,272.3,347.9c0,0.1,0,0.1-0.1,0.1s-0.1,0-0.1,0s-0.1,0-0.2,0
				c-0.1,0-0.1,0-0.2,0s-0.1,0-0.1,0s0,0-0.1,0c0,0,0,0,0-0.1v-2.3c0-0.2,0-0.4-0.1-0.5s-0.1-0.3-0.2-0.4s-0.2-0.2-0.3-0.2
				s-0.2-0.1-0.4-0.1c-0.2,0-0.4,0.1-0.5,0.2c-0.2,0.1-0.4,0.3-0.6,0.6v2.8c0,0,0,0,0,0.1c0,0,0,0-0.1,0s-0.1,0-0.1,0s-0.1,0-0.2,0
				c-0.1,0-0.1,0-0.2,0s-0.1,0-0.1,0c0,0,0,0-0.1,0c0,0,0,0,0-0.1v-4c0,0,0,0,0-0.1c0,0,0,0,0.1,0c0,0,0.1,0,0.1,0c0,0,0.1,0,0.2,0
				c0.1,0,0.1,0,0.2,0c0,0,0.1,0,0.1,0c0,0,0,0,0.1,0c0,0,0,0,0,0.1v0.5c0.2-0.2,0.4-0.4,0.7-0.5c0.2-0.1,0.4-0.2,0.7-0.2
				c0.3,0,0.5,0,0.7,0.1c0.2,0.1,0.3,0.2,0.4,0.4s0.2,0.3,0.2,0.5c0,0.2,0.1,0.4,0.1,0.7V347.9z"/>
			<path class="st25" d="M277.1,347.9C277.1,347.9,277.1,348,277.1,347.9c0,0.1,0,0.1-0.1,0.1s-0.1,0-0.1,0s-0.1,0-0.2,0
				c-0.1,0-0.1,0-0.2,0s-0.1,0-0.1,0s0,0-0.1,0c0,0,0,0,0-0.1v-2.3c0-0.2,0-0.4-0.1-0.5s-0.1-0.3-0.2-0.4s-0.2-0.2-0.3-0.2
				s-0.2-0.1-0.4-0.1c-0.2,0-0.4,0.1-0.5,0.2c-0.2,0.1-0.4,0.3-0.6,0.6v2.8c0,0,0,0,0,0.1c0,0,0,0-0.1,0s-0.1,0-0.1,0s-0.1,0-0.2,0
				c-0.1,0-0.1,0-0.2,0s-0.1,0-0.1,0c0,0,0,0-0.1,0c0,0,0,0,0-0.1v-4c0,0,0,0,0-0.1c0,0,0,0,0.1,0c0,0,0.1,0,0.1,0c0,0,0.1,0,0.2,0
				c0.1,0,0.1,0,0.2,0c0,0,0.1,0,0.1,0c0,0,0,0,0.1,0c0,0,0,0,0,0.1v0.5c0.2-0.2,0.4-0.4,0.7-0.5c0.2-0.1,0.4-0.2,0.7-0.2
				c0.3,0,0.5,0,0.7,0.1c0.2,0.1,0.3,0.2,0.4,0.4s0.2,0.3,0.2,0.5c0,0.2,0.1,0.4,0.1,0.7V347.9z"/>
			<path class="st25" d="M281.8,347.9C281.8,347.9,281.8,348,281.8,347.9c0,0.1,0,0.1-0.1,0.1s-0.1,0-0.1,0s-0.1,0-0.2,0
				c-0.1,0-0.1,0-0.2,0c0,0-0.1,0-0.1,0s0,0-0.1,0c0,0,0,0,0-0.1v-0.5c-0.2,0.2-0.4,0.4-0.7,0.5s-0.4,0.2-0.7,0.2
				c-0.3,0-0.5,0-0.7-0.1c-0.2-0.1-0.3-0.2-0.4-0.4c-0.1-0.2-0.2-0.3-0.2-0.5c0-0.2-0.1-0.4-0.1-0.7V344c0,0,0,0,0-0.1
				c0,0,0,0,0.1,0c0,0,0.1,0,0.1,0c0,0,0.1,0,0.2,0s0.1,0,0.2,0c0,0,0.1,0,0.1,0c0,0,0,0,0.1,0c0,0,0,0,0,0.1v2.3
				c0,0.2,0,0.4,0.1,0.6c0,0.1,0.1,0.3,0.2,0.4c0.1,0.1,0.2,0.2,0.3,0.2c0.1,0.1,0.2,0.1,0.4,0.1c0.2,0,0.4-0.1,0.5-0.2
				c0.2-0.1,0.4-0.3,0.6-0.6V344c0,0,0,0,0-0.1c0,0,0,0,0.1,0c0,0,0.1,0,0.1,0c0,0,0.1,0,0.2,0c0.1,0,0.1,0,0.2,0c0,0,0.1,0,0.1,0
				c0,0,0,0,0.1,0c0,0,0,0,0,0.1V347.9z"/>
			<path class="st25" d="M286.2,347.9C286.2,348,286.1,348,286.2,347.9c-0.1,0.1-0.1,0.1-0.1,0.1c0,0-0.1,0-0.2,0
				c-0.1,0-0.1,0-0.2,0c0,0-0.1,0-0.1,0s0,0,0-0.1v-0.4c-0.2,0.2-0.4,0.3-0.6,0.4c-0.2,0.1-0.4,0.2-0.7,0.2c-0.2,0-0.4,0-0.6-0.1
				c-0.2-0.1-0.3-0.1-0.4-0.2c-0.1-0.1-0.2-0.2-0.3-0.4c-0.1-0.1-0.1-0.3-0.1-0.5c0-0.2,0-0.4,0.1-0.6c0.1-0.2,0.2-0.3,0.4-0.4
				s0.4-0.2,0.6-0.2c0.2-0.1,0.5-0.1,0.8-0.1h0.5v-0.3c0-0.2,0-0.3,0-0.4s-0.1-0.2-0.2-0.3c-0.1-0.1-0.2-0.1-0.3-0.2
				c-0.1,0-0.3-0.1-0.4-0.1c-0.2,0-0.3,0-0.5,0.1c-0.1,0-0.3,0.1-0.4,0.1c-0.1,0.1-0.2,0.1-0.3,0.1c-0.1,0-0.1,0.1-0.2,0.1
				c0,0,0,0-0.1,0c0,0,0,0,0-0.1c0,0,0-0.1,0-0.1c0,0,0-0.1,0-0.1c0-0.1,0-0.1,0-0.2c0,0,0-0.1,0.1-0.1c0,0,0.1-0.1,0.2-0.1
				c0.1-0.1,0.2-0.1,0.3-0.1c0.1,0,0.3-0.1,0.4-0.1c0.1,0,0.3,0,0.5,0c0.3,0,0.5,0,0.7,0.1s0.4,0.2,0.5,0.3c0.1,0.1,0.2,0.3,0.3,0.5
				s0.1,0.4,0.1,0.6V347.9z M285.4,346.1h-0.6c-0.2,0-0.4,0-0.5,0.1c-0.1,0-0.3,0.1-0.4,0.1c-0.1,0.1-0.2,0.1-0.2,0.2
				c0,0.1-0.1,0.2-0.1,0.3c0,0.2,0.1,0.4,0.2,0.5c0.1,0.1,0.3,0.2,0.5,0.2c0.2,0,0.4,0,0.5-0.1c0.2-0.1,0.3-0.2,0.5-0.4V346.1z"/>
			<path class="st25" d="M288.2,347.9C288.2,347.9,288.2,348,288.2,347.9c0,0.1,0,0.1-0.1,0.1c0,0-0.1,0-0.1,0s-0.1,0-0.2,0
				c-0.1,0-0.1,0-0.2,0s-0.1,0-0.1,0c0,0,0,0-0.1,0c0,0,0,0,0-0.1v-5.9c0,0,0,0,0-0.1s0,0,0.1,0c0,0,0.1,0,0.1,0c0,0,0.1,0,0.2,0
				c0.1,0,0.1,0,0.2,0c0,0,0.1,0,0.1,0c0,0,0,0,0.1,0s0,0,0,0.1V347.9z"/>
			<path class="st25" d="M294.7,346.4c0,0.3,0,0.5-0.1,0.7c-0.1,0.2-0.2,0.4-0.4,0.5c-0.2,0.1-0.4,0.3-0.6,0.3
				c-0.2,0.1-0.5,0.1-0.8,0.1c-0.2,0-0.4,0-0.5,0c-0.2,0-0.3-0.1-0.4-0.1c-0.1,0-0.2-0.1-0.3-0.1c-0.1,0-0.1-0.1-0.2-0.1
				c0,0-0.1-0.1-0.1-0.1c0-0.1,0-0.1,0-0.2c0-0.1,0-0.1,0-0.2c0,0,0-0.1,0-0.1c0,0,0,0,0-0.1c0,0,0,0,0.1,0c0,0,0.1,0,0.2,0.1
				c0.1,0,0.2,0.1,0.3,0.2c0.1,0.1,0.3,0.1,0.4,0.2c0.2,0.1,0.4,0.1,0.6,0.1c0.2,0,0.3,0,0.5-0.1c0.1,0,0.3-0.1,0.4-0.2
				c0.1-0.1,0.2-0.2,0.2-0.3s0.1-0.3,0.1-0.4c0-0.2,0-0.3-0.1-0.4s-0.2-0.2-0.3-0.3c-0.1-0.1-0.3-0.2-0.4-0.2
				c-0.2-0.1-0.3-0.1-0.5-0.2c-0.2-0.1-0.3-0.2-0.5-0.2c-0.2-0.1-0.3-0.2-0.4-0.3c-0.1-0.1-0.2-0.3-0.3-0.4
				c-0.1-0.2-0.1-0.4-0.1-0.6c0-0.2,0-0.4,0.1-0.6c0.1-0.2,0.2-0.3,0.4-0.5c0.2-0.1,0.3-0.2,0.5-0.3c0.2-0.1,0.4-0.1,0.7-0.1
				c0.1,0,0.3,0,0.4,0c0.1,0,0.2,0.1,0.4,0.1c0.1,0,0.2,0.1,0.3,0.1c0.1,0,0.1,0.1,0.2,0.1c0,0,0,0,0.1,0.1c0,0,0,0,0,0.1
				c0,0,0,0.1,0,0.1s0,0.1,0,0.1c0,0.1,0,0.1,0,0.1c0,0,0,0.1,0,0.1c0,0,0,0,0,0.1c0,0,0,0-0.1,0c0,0-0.1,0-0.2-0.1
				c-0.1,0-0.2-0.1-0.3-0.1c-0.1-0.1-0.2-0.1-0.4-0.1c-0.1,0-0.3-0.1-0.5-0.1c-0.2,0-0.3,0-0.4,0.1c-0.1,0-0.2,0.1-0.3,0.2
				s-0.1,0.2-0.2,0.3c0,0.1-0.1,0.2-0.1,0.3c0,0.2,0,0.3,0.1,0.4c0.1,0.1,0.2,0.2,0.3,0.3c0.1,0.1,0.3,0.2,0.4,0.2s0.3,0.1,0.5,0.2
				c0.2,0.1,0.3,0.2,0.5,0.2c0.2,0.1,0.3,0.2,0.4,0.3c0.1,0.1,0.2,0.3,0.3,0.4C294.7,346,294.7,346.2,294.7,346.4z"/>
			<path class="st25" d="M298.6,347.9C298.6,348,298.6,348,298.6,347.9c-0.1,0.1-0.1,0.1-0.1,0.1c0,0-0.1,0-0.2,0
				c-0.1,0-0.1,0-0.2,0c0,0-0.1,0-0.1,0s0,0,0-0.1v-0.4c-0.2,0.2-0.4,0.3-0.6,0.4c-0.2,0.1-0.4,0.2-0.7,0.2c-0.2,0-0.4,0-0.6-0.1
				c-0.2-0.1-0.3-0.1-0.4-0.2c-0.1-0.1-0.2-0.2-0.3-0.4c-0.1-0.1-0.1-0.3-0.1-0.5c0-0.2,0-0.4,0.1-0.6c0.1-0.2,0.2-0.3,0.4-0.4
				s0.4-0.2,0.6-0.2c0.2-0.1,0.5-0.1,0.8-0.1h0.5v-0.3c0-0.2,0-0.3,0-0.4s-0.1-0.2-0.2-0.3c-0.1-0.1-0.2-0.1-0.3-0.2
				c-0.1,0-0.3-0.1-0.4-0.1c-0.2,0-0.3,0-0.5,0.1c-0.1,0-0.3,0.1-0.4,0.1c-0.1,0.1-0.2,0.1-0.3,0.1c-0.1,0-0.1,0.1-0.2,0.1
				c0,0,0,0-0.1,0c0,0,0,0,0-0.1c0,0,0-0.1,0-0.1c0,0,0-0.1,0-0.1c0-0.1,0-0.1,0-0.2c0,0,0-0.1,0.1-0.1c0,0,0.1-0.1,0.2-0.1
				c0.1-0.1,0.2-0.1,0.3-0.1c0.1,0,0.3-0.1,0.4-0.1c0.2,0,0.3,0,0.5,0c0.3,0,0.5,0,0.7,0.1s0.4,0.2,0.5,0.3c0.1,0.1,0.2,0.3,0.3,0.5
				s0.1,0.4,0.1,0.6V347.9z M297.9,346.1h-0.6c-0.2,0-0.4,0-0.5,0.1c-0.1,0-0.3,0.1-0.4,0.1c-0.1,0.1-0.2,0.1-0.2,0.2
				c0,0.1-0.1,0.2-0.1,0.3c0,0.2,0.1,0.4,0.2,0.5c0.1,0.1,0.3,0.2,0.5,0.2c0.2,0,0.4,0,0.5-0.1c0.2-0.1,0.3-0.2,0.5-0.4V346.1z"/>
			<path class="st25" d="M300.7,347.9C300.7,347.9,300.7,348,300.7,347.9c0,0.1,0,0.1-0.1,0.1c0,0-0.1,0-0.1,0s-0.1,0-0.2,0
				c-0.1,0-0.1,0-0.2,0c0,0-0.1,0-0.1,0c0,0,0,0-0.1,0c0,0,0,0,0-0.1v-5.9c0,0,0,0,0-0.1c0,0,0,0,0.1,0c0,0,0.1,0,0.1,0
				c0,0,0.1,0,0.2,0c0.1,0,0.1,0,0.2,0c0,0,0.1,0,0.1,0c0,0,0,0,0.1,0s0,0,0,0.1V347.9z"/>
			<path class="st25" d="M305.4,345.8c0,0.1,0,0.2-0.1,0.2c-0.1,0-0.1,0.1-0.2,0.1h-2.6c0,0.2,0,0.4,0.1,0.6s0.1,0.3,0.2,0.5
				c0.1,0.1,0.2,0.2,0.4,0.3c0.2,0.1,0.4,0.1,0.6,0.1c0.2,0,0.4,0,0.5,0c0.1,0,0.3-0.1,0.4-0.1c0.1,0,0.2-0.1,0.3-0.1
				c0.1,0,0.1,0,0.2,0c0,0,0,0,0.1,0c0,0,0,0,0,0s0,0,0,0.1c0,0,0,0.1,0,0.1c0,0,0,0.1,0,0.1c0,0,0,0.1,0,0.1c0,0,0,0,0,0.1
				c0,0,0,0,0,0.1c0,0-0.1,0-0.1,0.1c-0.1,0-0.2,0.1-0.3,0.1c-0.1,0-0.3,0.1-0.4,0.1c-0.2,0-0.3,0-0.5,0c-0.3,0-0.6,0-0.9-0.1
				c-0.2-0.1-0.5-0.2-0.6-0.4s-0.3-0.4-0.4-0.7s-0.1-0.6-0.1-0.9c0-0.3,0-0.6,0.1-0.9c0.1-0.3,0.2-0.5,0.4-0.7
				c0.2-0.2,0.4-0.3,0.6-0.4c0.2-0.1,0.5-0.2,0.8-0.2c0.3,0,0.6,0,0.8,0.1c0.2,0.1,0.4,0.2,0.5,0.4c0.1,0.2,0.2,0.4,0.3,0.6
				c0.1,0.2,0.1,0.5,0.1,0.7V345.8z M304.7,345.6c0-0.4-0.1-0.7-0.3-0.9c-0.2-0.2-0.4-0.3-0.8-0.3c-0.2,0-0.3,0-0.5,0.1
				s-0.2,0.2-0.3,0.3c-0.1,0.1-0.2,0.2-0.2,0.4c0,0.1-0.1,0.3-0.1,0.5H304.7z"/>
			<path class="st25" d="M309,346.8c0,0.2,0,0.4-0.1,0.5c-0.1,0.2-0.2,0.3-0.3,0.4s-0.3,0.2-0.5,0.2s-0.4,0.1-0.6,0.1
				c-0.1,0-0.3,0-0.4,0c-0.1,0-0.2,0-0.3-0.1c-0.1,0-0.2-0.1-0.3-0.1c-0.1,0-0.1-0.1-0.2-0.1s-0.1-0.1-0.1-0.1s0-0.1,0-0.2
				c0-0.1,0-0.1,0-0.1c0,0,0-0.1,0-0.1s0,0,0-0.1c0,0,0,0,0.1,0c0,0,0.1,0,0.1,0.1c0.1,0,0.1,0.1,0.2,0.1c0.1,0,0.2,0.1,0.3,0.1
				c0.1,0,0.3,0.1,0.4,0.1c0.1,0,0.2,0,0.3,0s0.2-0.1,0.3-0.1c0.1-0.1,0.1-0.1,0.2-0.2c0-0.1,0.1-0.2,0.1-0.3c0-0.1,0-0.2-0.1-0.3
				c-0.1-0.1-0.1-0.1-0.2-0.2c-0.1-0.1-0.2-0.1-0.3-0.2c-0.1,0-0.2-0.1-0.4-0.1c-0.1,0-0.2-0.1-0.4-0.2c-0.1-0.1-0.2-0.1-0.3-0.2
				s-0.2-0.2-0.2-0.3c-0.1-0.1-0.1-0.3-0.1-0.5c0-0.2,0-0.3,0.1-0.4c0.1-0.1,0.1-0.3,0.3-0.4c0.1-0.1,0.3-0.2,0.5-0.3
				c0.2-0.1,0.4-0.1,0.6-0.1c0.1,0,0.2,0,0.3,0s0.2,0,0.3,0.1c0.1,0,0.2,0.1,0.2,0.1c0.1,0,0.1,0.1,0.1,0.1c0,0,0.1,0,0.1,0.1
				c0,0,0,0,0,0.1c0,0,0,0,0,0.1c0,0,0,0.1,0,0.1c0,0,0,0.1,0,0.1c0,0,0,0.1,0,0.1c0,0,0,0,0,0.1c0,0,0,0,0,0c0,0-0.1,0-0.1,0
				s-0.1-0.1-0.2-0.1c-0.1,0-0.2-0.1-0.3-0.1c-0.1,0-0.2,0-0.4,0c-0.1,0-0.2,0-0.3,0c-0.1,0-0.2,0.1-0.2,0.1
				c-0.1,0.1-0.1,0.1-0.1,0.2c0,0.1,0,0.1,0,0.2c0,0.1,0,0.2,0.1,0.3c0.1,0.1,0.1,0.1,0.2,0.2s0.2,0.1,0.3,0.2s0.2,0.1,0.4,0.1
				c0.1,0.1,0.2,0.1,0.4,0.2c0.1,0.1,0.2,0.1,0.3,0.2c0.1,0.1,0.2,0.2,0.2,0.3C309,346.5,309,346.7,309,346.8z"/>
			<path class="st25" d="M315.7,342.7c0,0.1,0,0.1,0,0.1c0,0,0,0.1,0,0.1c0,0,0,0,0,0.1c0,0,0,0-0.1,0H314v4.9c0,0,0,0,0,0.1
				s0,0-0.1,0c0,0-0.1,0-0.1,0c0,0-0.1,0-0.2,0c-0.1,0-0.1,0-0.2,0c0,0-0.1,0-0.1,0c0,0-0.1,0-0.1,0s0,0,0-0.1V343h-1.6
				c0,0,0,0-0.1,0c0,0,0,0,0-0.1c0,0,0-0.1,0-0.1c0,0,0-0.1,0-0.1s0-0.1,0-0.1c0,0,0-0.1,0-0.1c0,0,0,0,0-0.1c0,0,0,0,0.1,0h4
				c0,0,0,0,0.1,0c0,0,0,0,0,0.1c0,0,0,0.1,0,0.1C315.7,342.6,315.7,342.6,315.7,342.7z"/>
			<path class="st25" d="M319.5,347.9C319.5,348,319.5,348,319.5,347.9c-0.1,0.1-0.1,0.1-0.1,0.1c0,0-0.1,0-0.2,0
				c-0.1,0-0.1,0-0.2,0c0,0-0.1,0-0.1,0s0,0,0-0.1v-0.4c-0.2,0.2-0.4,0.3-0.6,0.4c-0.2,0.1-0.4,0.2-0.7,0.2c-0.2,0-0.4,0-0.6-0.1
				c-0.2-0.1-0.3-0.1-0.4-0.2c-0.1-0.1-0.2-0.2-0.3-0.4c-0.1-0.1-0.1-0.3-0.1-0.5c0-0.2,0-0.4,0.1-0.6c0.1-0.2,0.2-0.3,0.4-0.4
				s0.4-0.2,0.6-0.2c0.2-0.1,0.5-0.1,0.8-0.1h0.5v-0.3c0-0.2,0-0.3,0-0.4s-0.1-0.2-0.2-0.3c-0.1-0.1-0.2-0.1-0.3-0.2
				c-0.1,0-0.3-0.1-0.4-0.1c-0.2,0-0.3,0-0.5,0.1c-0.1,0-0.3,0.1-0.4,0.1c-0.1,0.1-0.2,0.1-0.3,0.1c-0.1,0-0.1,0.1-0.2,0.1
				c0,0,0,0-0.1,0c0,0,0,0,0-0.1c0,0,0-0.1,0-0.1c0,0,0-0.1,0-0.1c0-0.1,0-0.1,0-0.2c0,0,0-0.1,0.1-0.1c0,0,0.1-0.1,0.2-0.1
				c0.1-0.1,0.2-0.1,0.3-0.1c0.1,0,0.3-0.1,0.4-0.1c0.2,0,0.3,0,0.5,0c0.3,0,0.5,0,0.7,0.1s0.4,0.2,0.5,0.3c0.1,0.1,0.2,0.3,0.3,0.5
				s0.1,0.4,0.1,0.6V347.9z M318.8,346.1h-0.6c-0.2,0-0.4,0-0.5,0.1c-0.1,0-0.3,0.1-0.4,0.1c-0.1,0.1-0.2,0.1-0.2,0.2
				c0,0.1-0.1,0.2-0.1,0.3c0,0.2,0.1,0.4,0.2,0.5c0.1,0.1,0.3,0.2,0.5,0.2c0.2,0,0.4,0,0.5-0.1c0.2-0.1,0.3-0.2,0.5-0.4V346.1z"/>
			<path class="st25" d="M323.7,347.8c0,0,0,0.1,0,0.1c0,0,0,0.1,0,0.1c0,0-0.1,0-0.1,0c-0.1,0-0.1,0-0.2,0c-0.1,0-0.2,0-0.2,0
				c-0.1,0-0.1,0-0.1,0c0,0-0.1,0-0.1,0c0,0,0,0,0-0.1l-0.9-1.6l-0.9,1.6c0,0,0,0,0,0.1c0,0,0,0-0.1,0c0,0-0.1,0-0.1,0
				c0,0-0.1,0-0.2,0c-0.1,0-0.2,0-0.2,0c-0.1,0-0.1,0-0.1,0c0,0,0,0,0-0.1c0,0,0-0.1,0-0.1l1.2-1.9l-1.2-1.9c0,0,0-0.1,0-0.1
				c0,0,0-0.1,0-0.1c0,0,0.1,0,0.1,0c0.1,0,0.1,0,0.2,0c0.1,0,0.2,0,0.2,0c0.1,0,0.1,0,0.1,0s0.1,0,0.1,0s0,0,0,0.1l0.9,1.5l0.9-1.5
				c0,0,0,0,0,0c0,0,0,0,0.1,0c0,0,0.1,0,0.1,0c0,0,0.1,0,0.2,0c0.1,0,0.2,0,0.2,0c0.1,0,0.1,0,0.1,0c0,0,0,0,0,0.1c0,0,0,0.1,0,0.1
				l-1.2,1.8L323.7,347.8z"/>
			<path class="st25" d="M331.2,345.1c0,0.5-0.1,0.9-0.2,1.3c-0.1,0.4-0.3,0.7-0.6,0.9c-0.2,0.2-0.5,0.4-0.9,0.5s-0.8,0.2-1.3,0.2
				h-1.2c-0.1,0-0.1,0-0.2-0.1c-0.1,0-0.1-0.1-0.1-0.2v-5.1c0-0.1,0-0.2,0.1-0.2c0.1,0,0.1-0.1,0.2-0.1h1.3c0.5,0,0.9,0.1,1.2,0.2
				c0.3,0.1,0.6,0.3,0.9,0.5c0.2,0.2,0.4,0.5,0.5,0.9C331.1,344.3,331.2,344.7,331.2,345.1z M330.4,345.1c0-0.3,0-0.6-0.1-0.9
				c-0.1-0.3-0.2-0.5-0.4-0.7c-0.2-0.2-0.4-0.3-0.6-0.5s-0.6-0.2-1-0.2h-0.8v4.4h0.8c0.4,0,0.7,0,0.9-0.1c0.2-0.1,0.5-0.2,0.6-0.4
				s0.3-0.4,0.4-0.7C330.3,345.9,330.4,345.5,330.4,345.1z"/>
			<path class="st25" d="M335.6,345.8c0,0.1,0,0.2-0.1,0.2c-0.1,0-0.1,0.1-0.2,0.1h-2.6c0,0.2,0,0.4,0.1,0.6s0.1,0.3,0.2,0.5
				c0.1,0.1,0.2,0.2,0.4,0.3c0.2,0.1,0.4,0.1,0.6,0.1c0.2,0,0.4,0,0.5,0c0.1,0,0.3-0.1,0.4-0.1c0.1,0,0.2-0.1,0.3-0.1
				c0.1,0,0.1,0,0.2,0c0,0,0,0,0.1,0c0,0,0,0,0,0s0,0,0,0.1c0,0,0,0.1,0,0.1c0,0,0,0.1,0,0.1c0,0,0,0.1,0,0.1c0,0,0,0,0,0.1
				c0,0,0,0,0,0.1c0,0-0.1,0-0.1,0.1c-0.1,0-0.2,0.1-0.3,0.1c-0.1,0-0.3,0.1-0.4,0.1c-0.2,0-0.3,0-0.5,0c-0.3,0-0.6,0-0.9-0.1
				c-0.2-0.1-0.5-0.2-0.6-0.4s-0.3-0.4-0.4-0.7s-0.1-0.6-0.1-0.9c0-0.3,0-0.6,0.1-0.9c0.1-0.3,0.2-0.5,0.4-0.7
				c0.2-0.2,0.4-0.3,0.6-0.4c0.2-0.1,0.5-0.2,0.8-0.2c0.3,0,0.6,0,0.8,0.1c0.2,0.1,0.4,0.2,0.5,0.4c0.1,0.2,0.2,0.4,0.3,0.6
				c0.1,0.2,0.1,0.5,0.1,0.7V345.8z M334.9,345.6c0-0.4-0.1-0.7-0.3-0.9c-0.2-0.2-0.4-0.3-0.8-0.3c-0.2,0-0.3,0-0.5,0.1
				s-0.2,0.2-0.3,0.3c-0.1,0.1-0.2,0.2-0.2,0.4c0,0.1-0.1,0.3-0.1,0.5H334.9z"/>
			<path class="st25" d="M340.3,345.9c0,0.3,0,0.7-0.1,0.9c-0.1,0.3-0.2,0.5-0.3,0.7c-0.1,0.2-0.3,0.3-0.5,0.4
				c-0.2,0.1-0.5,0.2-0.7,0.2c-0.1,0-0.2,0-0.3,0c-0.1,0-0.2-0.1-0.3-0.1c-0.1,0-0.2-0.1-0.3-0.2s-0.2-0.2-0.3-0.3v2c0,0,0,0,0,0.1
				s0,0-0.1,0c0,0-0.1,0-0.1,0s-0.1,0-0.2,0c-0.1,0-0.1,0-0.2,0c0,0-0.1,0-0.1,0c0,0,0,0-0.1,0c0,0,0,0,0-0.1V344c0,0,0,0,0-0.1
				c0,0,0,0,0.1,0s0.1,0,0.1,0c0,0,0.1,0,0.1,0c0.1,0,0.1,0,0.2,0c0,0,0.1,0,0.1,0s0,0,0.1,0c0,0,0,0,0,0.1v0.5
				c0.1-0.1,0.2-0.2,0.3-0.3s0.2-0.2,0.3-0.2c0.1-0.1,0.2-0.1,0.3-0.1c0.1,0,0.2,0,0.4,0c0.3,0,0.5,0.1,0.7,0.2
				c0.2,0.1,0.4,0.3,0.5,0.5c0.1,0.2,0.2,0.4,0.3,0.7C340.3,345.3,340.3,345.6,340.3,345.9z M339.6,346c0-0.2,0-0.4,0-0.6
				c0-0.2-0.1-0.4-0.2-0.5s-0.2-0.3-0.3-0.4c-0.1-0.1-0.3-0.1-0.5-0.1c-0.1,0-0.2,0-0.3,0c-0.1,0-0.2,0.1-0.3,0.1
				c-0.1,0.1-0.2,0.1-0.3,0.2c-0.1,0.1-0.2,0.2-0.3,0.4v1.6c0.2,0.2,0.4,0.4,0.6,0.6c0.2,0.1,0.4,0.2,0.6,0.2c0.2,0,0.3,0,0.5-0.1
				c0.1-0.1,0.2-0.2,0.3-0.4s0.1-0.3,0.2-0.5S339.6,346.2,339.6,346z"/>
			<path class="st25" d="M345.2,345.9c0,0.3,0,0.6-0.1,0.9c-0.1,0.3-0.2,0.5-0.4,0.7c-0.2,0.2-0.4,0.3-0.6,0.5
				c-0.3,0.1-0.5,0.2-0.9,0.2c-0.3,0-0.6,0-0.9-0.1c-0.2-0.1-0.4-0.2-0.6-0.4c-0.2-0.2-0.3-0.4-0.4-0.7c-0.1-0.3-0.1-0.6-0.1-0.9
				c0-0.3,0-0.6,0.1-0.9c0.1-0.3,0.2-0.5,0.4-0.7c0.2-0.2,0.4-0.3,0.6-0.5s0.5-0.2,0.9-0.2c0.3,0,0.6,0,0.9,0.1
				c0.2,0.1,0.4,0.2,0.6,0.4c0.2,0.2,0.3,0.4,0.4,0.7C345.1,345.3,345.2,345.6,345.2,345.9z M344.4,345.9c0-0.2,0-0.4-0.1-0.6
				s-0.1-0.4-0.2-0.5s-0.2-0.3-0.4-0.3c-0.2-0.1-0.4-0.1-0.6-0.1c-0.2,0-0.4,0-0.6,0.1c-0.2,0.1-0.3,0.2-0.4,0.3
				c-0.1,0.1-0.2,0.3-0.2,0.5s-0.1,0.4-0.1,0.6c0,0.2,0,0.4,0.1,0.6c0,0.2,0.1,0.4,0.2,0.5c0.1,0.1,0.2,0.3,0.4,0.3
				c0.2,0.1,0.4,0.1,0.6,0.1c0.2,0,0.4,0,0.6-0.1c0.2-0.1,0.3-0.2,0.4-0.3c0.1-0.1,0.2-0.3,0.2-0.5
				C344.4,346.4,344.4,346.2,344.4,345.9z"/>
			<path class="st25" d="M348.6,346.8c0,0.2,0,0.4-0.1,0.5c-0.1,0.2-0.2,0.3-0.3,0.4s-0.3,0.2-0.5,0.2s-0.4,0.1-0.6,0.1
				c-0.1,0-0.3,0-0.4,0c-0.1,0-0.2,0-0.3-0.1c-0.1,0-0.2-0.1-0.3-0.1c-0.1,0-0.1-0.1-0.2-0.1s-0.1-0.1-0.1-0.1s0-0.1,0-0.2
				c0-0.1,0-0.1,0-0.1c0,0,0-0.1,0-0.1s0,0,0-0.1c0,0,0,0,0.1,0c0,0,0.1,0,0.1,0.1c0.1,0,0.1,0.1,0.2,0.1c0.1,0,0.2,0.1,0.3,0.1
				c0.1,0,0.3,0.1,0.4,0.1c0.1,0,0.2,0,0.3,0s0.2-0.1,0.3-0.1c0.1-0.1,0.1-0.1,0.2-0.2c0-0.1,0.1-0.2,0.1-0.3c0-0.1,0-0.2-0.1-0.3
				c-0.1-0.1-0.1-0.1-0.2-0.2c-0.1-0.1-0.2-0.1-0.3-0.2c-0.1,0-0.2-0.1-0.4-0.1c-0.1,0-0.2-0.1-0.4-0.2c-0.1-0.1-0.2-0.1-0.3-0.2
				s-0.2-0.2-0.2-0.3c-0.1-0.1-0.1-0.3-0.1-0.5c0-0.2,0-0.3,0.1-0.4c0.1-0.1,0.1-0.3,0.3-0.4c0.1-0.1,0.3-0.2,0.5-0.3
				c0.2-0.1,0.4-0.1,0.6-0.1c0.1,0,0.2,0,0.3,0s0.2,0,0.3,0.1c0.1,0,0.2,0.1,0.2,0.1c0.1,0,0.1,0.1,0.1,0.1c0,0,0.1,0,0.1,0.1
				c0,0,0,0,0,0.1c0,0,0,0,0,0.1c0,0,0,0.1,0,0.1c0,0,0,0.1,0,0.1c0,0,0,0.1,0,0.1c0,0,0,0,0,0.1c0,0,0,0,0,0c0,0-0.1,0-0.1,0
				s-0.1-0.1-0.2-0.1c-0.1,0-0.2-0.1-0.3-0.1c-0.1,0-0.2,0-0.4,0c-0.1,0-0.2,0-0.3,0c-0.1,0-0.2,0.1-0.2,0.1
				c-0.1,0.1-0.1,0.1-0.1,0.2c0,0.1,0,0.1,0,0.2c0,0.1,0,0.2,0.1,0.3c0.1,0.1,0.1,0.1,0.2,0.2s0.2,0.1,0.3,0.2s0.2,0.1,0.4,0.1
				c0.1,0.1,0.2,0.1,0.4,0.2c0.1,0.1,0.2,0.1,0.3,0.2c0.1,0.1,0.2,0.2,0.2,0.3C348.6,346.5,348.6,346.7,348.6,346.8z"/>
			<path class="st25" d="M350.6,342.6c0,0.2,0,0.3-0.1,0.3c-0.1,0.1-0.2,0.1-0.4,0.1c-0.2,0-0.3,0-0.3-0.1c-0.1-0.1-0.1-0.2-0.1-0.3
				c0-0.2,0-0.3,0.1-0.3c0.1-0.1,0.2-0.1,0.4-0.1c0.2,0,0.3,0,0.3,0.1C350.5,342.4,350.6,342.5,350.6,342.6z M350.5,347.9
				C350.5,347.9,350.5,348,350.5,347.9c0,0.1,0,0.1-0.1,0.1c0,0-0.1,0-0.1,0s-0.1,0-0.2,0c-0.1,0-0.1,0-0.2,0c0,0-0.1,0-0.1,0
				c0,0,0,0-0.1,0c0,0,0,0,0-0.1v-4c0,0,0,0,0-0.1c0,0,0,0,0.1,0c0,0,0.1,0,0.1,0c0,0,0.1,0,0.2,0c0.1,0,0.1,0,0.2,0s0.1,0,0.1,0
				c0,0,0,0,0.1,0s0,0,0,0.1V347.9z"/>
			<path class="st25" d="M353.9,347.6c0,0.1,0,0.2,0,0.2s0,0.1-0.1,0.1s-0.1,0-0.1,0.1s-0.1,0-0.2,0c-0.1,0-0.1,0-0.2,0
				s-0.1,0-0.2,0c-0.2,0-0.4,0-0.5-0.1c-0.1-0.1-0.3-0.1-0.4-0.2c-0.1-0.1-0.2-0.2-0.2-0.4c0-0.2-0.1-0.4-0.1-0.6v-2.3h-0.6
				c0,0-0.1,0-0.1-0.1s0-0.1,0-0.2c0-0.1,0-0.1,0-0.1c0,0,0-0.1,0-0.1c0,0,0,0,0-0.1c0,0,0,0,0.1,0h0.5v-0.9c0,0,0,0,0-0.1
				c0,0,0,0,0.1,0c0,0,0.1,0,0.1,0c0,0,0.1,0,0.2,0c0.1,0,0.1,0,0.2,0c0,0,0.1,0,0.1,0c0,0,0,0,0.1,0s0,0,0,0.1v0.9h1c0,0,0,0,0.1,0
				c0,0,0,0,0,0.1c0,0,0,0.1,0,0.1c0,0,0,0.1,0,0.1c0,0.1,0,0.2,0,0.2s-0.1,0.1-0.1,0.1h-1v2.2c0,0.3,0,0.5,0.1,0.6
				c0.1,0.1,0.2,0.2,0.4,0.2c0.1,0,0.1,0,0.2,0c0.1,0,0.1,0,0.1,0s0.1,0,0.1,0c0,0,0.1,0,0.1,0c0,0,0,0,0,0c0,0,0,0,0,0
				c0,0,0,0,0,0.1C353.9,347.5,353.9,347.6,353.9,347.6z"/>
			<path class="st25" d="M357.3,346.8c0,0.2,0,0.4-0.1,0.5c-0.1,0.2-0.2,0.3-0.3,0.4s-0.3,0.2-0.5,0.2s-0.4,0.1-0.6,0.1
				c-0.1,0-0.3,0-0.4,0c-0.1,0-0.2,0-0.3-0.1c-0.1,0-0.2-0.1-0.3-0.1c-0.1,0-0.1-0.1-0.2-0.1s-0.1-0.1-0.1-0.1s0-0.1,0-0.2
				c0-0.1,0-0.1,0-0.1c0,0,0-0.1,0-0.1s0,0,0-0.1c0,0,0,0,0.1,0c0,0,0.1,0,0.1,0.1c0.1,0,0.1,0.1,0.2,0.1c0.1,0,0.2,0.1,0.3,0.1
				c0.1,0,0.3,0.1,0.4,0.1c0.1,0,0.2,0,0.3,0s0.2-0.1,0.3-0.1c0.1-0.1,0.1-0.1,0.2-0.2c0-0.1,0.1-0.2,0.1-0.3c0-0.1,0-0.2-0.1-0.3
				c-0.1-0.1-0.1-0.1-0.2-0.2c-0.1-0.1-0.2-0.1-0.3-0.2c-0.1,0-0.2-0.1-0.4-0.1c-0.1,0-0.2-0.1-0.4-0.2c-0.1-0.1-0.2-0.1-0.3-0.2
				s-0.2-0.2-0.2-0.3c-0.1-0.1-0.1-0.3-0.1-0.5c0-0.2,0-0.3,0.1-0.4c0.1-0.1,0.1-0.3,0.3-0.4c0.1-0.1,0.3-0.2,0.5-0.3
				c0.2-0.1,0.4-0.1,0.6-0.1c0.1,0,0.2,0,0.3,0s0.2,0,0.3,0.1c0.1,0,0.2,0.1,0.2,0.1c0.1,0,0.1,0.1,0.1,0.1c0,0,0.1,0,0.1,0.1
				c0,0,0,0,0,0.1c0,0,0,0,0,0.1c0,0,0,0.1,0,0.1c0,0,0,0.1,0,0.1c0,0,0,0.1,0,0.1c0,0,0,0,0,0.1c0,0,0,0,0,0c0,0-0.1,0-0.1,0
				s-0.1-0.1-0.2-0.1c-0.1,0-0.2-0.1-0.3-0.1c-0.1,0-0.2,0-0.4,0c-0.1,0-0.2,0-0.3,0c-0.1,0-0.2,0.1-0.2,0.1
				c-0.1,0.1-0.1,0.1-0.1,0.2c0,0.1,0,0.1,0,0.2c0,0.1,0,0.2,0.1,0.3c0.1,0.1,0.1,0.1,0.2,0.2s0.2,0.1,0.3,0.2s0.2,0.1,0.4,0.1
				c0.1,0.1,0.2,0.1,0.4,0.2c0.1,0.1,0.2,0.1,0.3,0.2c0.1,0.1,0.2,0.2,0.2,0.3C357.3,346.5,357.3,346.7,357.3,346.8z"/>
		</g>
	</g>
	<g>
		<defs>
			<polygon id="SVGID_45_" points="0,359.9 576,359.9 576,-0.1 0,-0.1 0,359.9 			"/>
		</defs>
		<clipPath id="SVGID_46_">
			<use xlink:href="#SVGID_45_"  style="overflow:visible;"/>
		</clipPath>
	</g>
	<g>
		<defs>
			<rect id="SVGID_47_" y="-0.1" width="576" height="360"/>
		</defs>
		<clipPath id="SVGID_48_">
			<use xlink:href="#SVGID_47_"  style="overflow:visible;"/>
		</clipPath>
	</g>
	<polygon class="st28" points="0,0 576,0 576,359.9 0,359.9 0,0 	"/>
</g>
<line class="st29" x1="156.8" y1="222.4" x2="543.2" y2="222.4"/>
<g>
	<path d="M271.3,51.9v0.9h-5.9l4.2-5c0.4-0.4,0.6-0.9,0.6-1.5c0-1-0.8-1.8-1.8-1.8c-1.1,0-1.8,0.8-1.8,1.9h-1c0-1.6,1.2-2.8,2.8-2.8
		c1.5,0,2.8,1.1,2.8,2.7c0,0.7-0.2,1.4-0.7,1.9l-3.1,3.7H271.3z"/>
	<path d="M279.3,48.4c0,2.2-1.2,4.7-3.2,4.7c-2.1,0-3.2-2.4-3.2-4.7c0-1.9,0.9-4.7,3.2-4.7C278.4,43.7,279.3,46.5,279.3,48.4z
		 M273.9,48.4c0,1.3,0.6,3.7,2.2,3.7s2.2-2.4,2.2-3.7c0-1.3-0.5-3.8-2.2-3.8S273.8,47.1,273.9,48.4z"/>
	<path d="M281.7,44.8l0.5-0.9h2v9h-1v-8.1H281.7z"/>
	<path d="M292.3,44.2l-2.1,2.8l0,0c0.1,0,0.3-0.1,0.4-0.1c0.1,0,0.3,0,0.4,0c1.6,0,2.9,1.4,2.9,3c0,1.7-1.4,3.1-3.1,3.1
		c-1.7,0-3.1-1.4-3.1-3.1c0-0.8,0.4-1.5,0.8-2.2l3-4.1L292.3,44.2z M292.9,50c0-1.2-0.9-2.1-2.1-2.1c-1.2,0-2.1,0.9-2.1,2.1
		s0.9,2.1,2.1,2.1C292,52.1,292.9,51.1,292.9,50z"/>
	<path d="M300.2,52.9h-1v-9h1.5c0.8,0,1.6,0,2.2,0.5c0.7,0.5,1,1.3,1,2.1c0,0.7-0.3,1.5-0.9,1.9c-0.6,0.5-1.4,0.6-2.1,0.6h-0.7V52.9
		z M300.2,48h0.7c1.1,0,2.1-0.3,2.1-1.6c0-1.5-1.2-1.6-2.4-1.6h-0.4V48z"/>
	<path d="M306.1,47.9L306.1,47.9c0.4-0.4,0.6-0.8,1.3-0.8c0.3,0,0.6,0.1,0.9,0.3l-0.5,0.9c-0.2-0.1-0.3-0.3-0.6-0.3
		c-1.1,0-1.1,1.4-1.1,2.1v2.8h-1v-5.6h1V47.9z"/>
	<path d="M308.7,50.1c0-1.7,1.3-3,3-3s3,1.3,3,3c0,1.7-1.3,3-3,3C310,53,308.7,51.7,308.7,50.1z M309.7,50.1c0,1.2,0.8,2.1,2,2.1
		s2-0.9,2-2.1c0-1.1-0.8-2.1-2-2.1S309.7,48.9,309.7,50.1z"/>
	<path d="M317.3,45.1c0,0.4-0.3,0.7-0.7,0.7s-0.7-0.3-0.7-0.7c0-0.4,0.3-0.7,0.7-0.7S317.3,44.8,317.3,45.1z M317.1,56h-1v-8.8h1V56
		z"/>
	<path d="M319.6,50.3c0,1,0.8,1.9,1.8,1.9c0.8,0,1.3-0.5,1.7-1.2l0.8,0.5c-0.5,1-1.5,1.6-2.6,1.6c-1.7,0-2.8-1.3-2.8-2.9
		c0-1.7,1-3,2.7-3c1.8,0,2.8,1.5,2.7,3.2H319.6z M323,49.5c-0.1-0.8-0.8-1.5-1.7-1.5c-0.8,0-1.6,0.7-1.7,1.5H323z"/>
	<path d="M329.5,48.9L329.5,48.9c-0.5-0.6-1-0.9-1.8-0.9c-1.2,0-2,1-2,2.1c0,1.1,0.8,2.1,1.9,2.1c0.8,0,1.4-0.4,1.8-1h0v1.3
		c-0.6,0.4-1.1,0.6-1.8,0.6c-1.7,0-3-1.3-3-3c0-1.7,1.4-3,3-3c0.6,0,1.2,0.2,1.7,0.6V48.9z"/>
	<path d="M332.1,52.9h-1v-4.7h-0.6v-0.9h0.6v-2h1v2h1v0.9h-1V52.9z"/>
	<path d="M334.4,50.3c0,1,0.8,1.9,1.8,1.9c0.8,0,1.3-0.5,1.7-1.2l0.8,0.5c-0.5,1-1.5,1.6-2.6,1.6c-1.7,0-2.8-1.3-2.8-2.9
		c0-1.7,1-3,2.7-3c1.8,0,2.8,1.5,2.7,3.2H334.4z M337.8,49.5c-0.1-0.8-0.8-1.5-1.7-1.5c-0.8,0-1.6,0.7-1.7,1.5H337.8z"/>
	<path d="M344.4,52.1L344.4,52.1c-0.5,0.6-1.2,0.9-2,0.9c-1.7,0-2.7-1.4-2.7-3c0-1.6,1-3,2.7-3c0.8,0,1.5,0.4,1.9,1h0V43h1v9.9h-1
		V52.1z M340.7,50c0,1.1,0.6,2.1,1.8,2.1c1.2,0,1.9-1,1.9-2.1c0-1.1-0.7-2-1.9-2C341.4,48,340.7,48.9,340.7,50z"/>
	<path d="M354.9,45.6c-0.4-0.6-0.8-1-1.6-1c-0.8,0-1.5,0.6-1.5,1.4c0,0.8,0.8,1.1,1.4,1.4l0.6,0.3c1.2,0.5,2.2,1.1,2.2,2.5
		c0,1.6-1.3,2.8-2.8,2.8c-1.5,0-2.5-0.9-2.8-2.3l1-0.3c0.1,0.9,0.8,1.7,1.8,1.7s1.9-0.7,1.9-1.8c0-1.1-0.8-1.4-1.7-1.8l-0.6-0.2
		c-1.1-0.5-2-1-2-2.3c0-1.4,1.2-2.3,2.5-2.3c1,0,1.9,0.5,2.3,1.4L354.9,45.6z"/>
	<path d="M362.6,52.9h-1v-0.8h0c-0.5,0.6-1.2,0.9-1.9,0.9c-1.7,0-2.7-1.4-2.7-3c0-1.6,1-3,2.7-3c0.8,0,1.5,0.4,1.9,1h0v-0.8h1V52.9z
		 M358,50c0,1.1,0.6,2.1,1.8,2.1c1.2,0,1.9-1,1.9-2.1c0-1.1-0.7-2-1.9-2C358.7,48,358,48.9,358,50z"/>
	<path d="M365.4,52.9h-1V43h1V52.9z"/>
	<path d="M367.6,50.3c0,1,0.8,1.9,1.8,1.9c0.8,0,1.3-0.5,1.7-1.2l0.8,0.5c-0.5,1-1.5,1.6-2.6,1.6c-1.7,0-2.8-1.3-2.8-2.9
		c0-1.7,1-3,2.7-3c1.8,0,2.8,1.5,2.7,3.2H367.6z M371,49.5c-0.1-0.8-0.8-1.5-1.7-1.5c-0.8,0-1.6,0.7-1.7,1.5H371z"/>
	<path d="M375.6,48.6c-0.1-0.3-0.4-0.6-0.8-0.6c-0.3,0-0.7,0.3-0.7,0.6c0,0.5,0.6,0.7,1.3,1c0.7,0.3,1.3,0.7,1.3,1.6
		c0,1.1-0.9,1.8-1.9,1.8c-0.9,0-1.7-0.5-2-1.4l0.9-0.4c0.2,0.5,0.5,0.9,1.2,0.9c0.5,0,0.9-0.3,0.9-0.9c0-1.3-2.5-0.8-2.5-2.6
		c0-0.9,0.8-1.6,1.7-1.6c0.6,0,1.2,0.5,1.5,1L375.6,48.6z"/>
	<path d="M384.3,52.9h-1v-8.1h-2.2v-0.9h5.4v0.9h-2.2V52.9z"/>
	<path d="M391.4,52.9h-1v-0.8h0c-0.5,0.6-1.2,0.9-1.9,0.9c-1.7,0-2.7-1.4-2.7-3c0-1.6,1-3,2.7-3c0.8,0,1.5,0.4,1.9,1h0v-0.8h1V52.9z
		 M386.8,50c0,1.1,0.6,2.1,1.8,2.1c1.2,0,1.9-1,1.9-2.1c0-1.1-0.7-2-1.9-2C387.5,48,386.8,48.9,386.8,50z"/>
	<path d="M392.7,47.2h1.2l1.5,1.9l1.5-1.9h1.2l-2.1,2.6l2.3,3h-1.2l-1.8-2.3l-1.8,2.3h-1.2l2.4-3L392.7,47.2z"/>
	<path d="M402.9,43.8h1.7c1.4,0,2.5,0.2,3.5,1.1c1,0.9,1.5,2.1,1.5,3.4c0,1.3-0.5,2.5-1.5,3.4c-1.1,1-2.2,1.1-3.6,1.1h-1.7V43.8z
		 M404.6,51.9c1.1,0,2-0.2,2.9-0.9c0.7-0.7,1.1-1.6,1.1-2.7c0-1-0.4-2-1.2-2.7c-0.8-0.7-1.7-0.9-2.8-0.9h-0.7v7.2H404.6z"/>
	<path d="M411.5,50.3c0,1,0.8,1.9,1.8,1.9c0.8,0,1.3-0.5,1.7-1.2l0.8,0.5c-0.5,1-1.5,1.6-2.6,1.6c-1.7,0-2.8-1.3-2.8-2.9
		c0-1.7,1-3,2.7-3c1.8,0,2.8,1.5,2.7,3.2H411.5z M414.9,49.5c-0.1-0.8-0.8-1.5-1.7-1.5c-0.8,0-1.6,0.7-1.7,1.5H414.9z"/>
	<path d="M418.2,48L418.2,48c0.5-0.6,1.2-1,2-1c1.7,0,2.7,1.4,2.7,3c0,1.6-1,3-2.7,3c-0.8,0-1.5-0.3-1.9-0.9h0v4h-1v-8.8h1V48z
		 M418.1,50c0,1.1,0.6,2.1,1.8,2.1c1.2,0,1.9-1,1.9-2.1c0-1.1-0.7-2-1.9-2C418.8,48,418.1,48.9,418.1,50z"/>
	<path d="M423.7,50.1c0-1.7,1.3-3,3-3s3,1.3,3,3c0,1.7-1.3,3-3,3C425,53,423.7,51.7,423.7,50.1z M424.6,50.1c0,1.2,0.8,2.1,2,2.1
		s2-0.9,2-2.1c0-1.1-0.8-2.1-2-2.1S424.6,48.9,424.6,50.1z"/>
	<path d="M433.2,48.6c-0.1-0.3-0.4-0.6-0.8-0.6c-0.3,0-0.7,0.3-0.7,0.6c0,0.5,0.6,0.7,1.3,1c0.7,0.3,1.3,0.7,1.3,1.6
		c0,1.1-0.9,1.8-1.9,1.8c-0.9,0-1.7-0.5-2-1.4l0.9-0.4c0.2,0.5,0.5,0.9,1.2,0.9c0.5,0,0.9-0.3,0.9-0.9c0-1.3-2.5-0.8-2.5-2.6
		c0-0.9,0.8-1.6,1.7-1.6c0.6,0,1.2,0.5,1.5,1L433.2,48.6z"/>
	<path d="M437.1,45.1c0,0.4-0.3,0.7-0.7,0.7s-0.7-0.3-0.7-0.7c0-0.4,0.3-0.7,0.7-0.7S437.1,44.8,437.1,45.1z M436.8,52.9h-1v-5.6h1
		V52.9z"/>
	<path d="M439.9,52.9h-1v-4.7h-0.6v-0.9h0.6v-2h1v2h1v0.9h-1V52.9z"/>
	<path d="M444,48.6c-0.1-0.3-0.4-0.6-0.8-0.6c-0.3,0-0.7,0.3-0.7,0.6c0,0.5,0.6,0.7,1.3,1c0.7,0.3,1.3,0.7,1.3,1.6
		c0,1.1-0.9,1.8-1.9,1.8c-0.9,0-1.7-0.5-2-1.4l0.9-0.4c0.2,0.5,0.5,0.9,1.2,0.9c0.5,0,0.9-0.3,0.9-0.9c0-1.3-2.5-0.8-2.5-2.6
		c0-0.9,0.8-1.6,1.7-1.6c0.6,0,1.2,0.5,1.5,1L444,48.6z"/>
	<path d="M448.3,51.9l-1.4,3.1l-0.6-0.3l1.1-3.1L448.3,51.9z"/>
	<path d="M456.5,48.4c-1.1-0.5-2.1-1-2.1-2.4c0-1.2,0.9-2.1,2.1-2.3v-1.2h0.8v1.2c0.8,0.1,1.5,0.6,1.9,1.4l-0.8,0.5
		c-0.2-0.4-0.6-0.8-1.1-0.9v3c1.2,0.5,2.2,1.1,2.2,2.6c0,1.3-0.9,2.4-2.2,2.7v1.3h-0.8V53c-1.3-0.1-2.4-1.1-2.6-2.3l1-0.3
		c0.1,0.8,0.8,1.6,1.6,1.6V48.4z M456.5,44.7c-0.6,0.1-1.1,0.7-1.1,1.4s0.6,1,1.1,1.3V44.7z M457.3,52c0.8-0.3,1.2-0.9,1.2-1.7
		c0-0.8-0.6-1.2-1.2-1.5V52z"/>
	<path d="M462.3,44.8l0.5-0.9h2v9h-1v-8.1H462.3z"/>
	<path d="M471.2,44.8l-0.6,1.9l0.5,0c1.8,0,3,1.4,3,3.2c0,1.9-1.5,3.2-3.3,3.2c-1.2,0-2.2-0.6-2.8-1.6l0.8-0.6
		c0.4,0.7,1.1,1.3,2,1.3c1.3,0,2.3-1,2.3-2.3c0-1.3-1-2.2-2.3-2.2c-0.6,0-1.2,0.2-1.7,0.6l1.3-4.3h3.6v0.9H471.2z"/>
	<path d="M477.9,51.9l-1.4,3.1l-0.6-0.3l1.1-3.1L477.9,51.9z"/>
	<path d="M485.2,51.9v0.9h-5.9l4.2-5c0.4-0.4,0.6-0.9,0.6-1.5c0-1-0.8-1.8-1.8-1.8c-1.1,0-1.8,0.8-1.8,1.9h-1c0-1.6,1.2-2.8,2.8-2.8
		c1.5,0,2.8,1.1,2.8,2.7c0,0.7-0.2,1.4-0.7,1.9l-3.1,3.7H485.2z"/>
	<path d="M493.2,48.4c0,2.2-1.2,4.7-3.2,4.7c-2.1,0-3.2-2.4-3.2-4.7c0-1.9,0.9-4.7,3.2-4.7C492.2,43.7,493.2,46.5,493.2,48.4z
		 M487.7,48.4c0,1.3,0.6,3.7,2.2,3.7s2.2-2.4,2.2-3.7c0-1.3-0.5-3.8-2.2-3.8S487.7,47.1,487.7,48.4z"/>
	<path d="M494.3,44.8v-0.9h6.7l-6.1,9.2l-0.8-0.5l5.1-7.8H494.3z"/>
	<path d="M503.7,51.9l-1.4,3.1l-0.6-0.3l1.1-3.1L503.7,51.9z"/>
	<path d="M505.4,44.8v-0.9h6.7L506,53l-0.8-0.5l5.1-7.8H505.4z"/>
	<path d="M519,50.5v0.9h-1.1v1.5h-1v-1.5h-4.6l5.6-8.1h0v7.1H519z M516.8,46.4L516.8,46.4l-2.9,4.1h2.9V46.4z"/>
	<path d="M525.9,51.9v0.9H520l4.2-5c0.4-0.4,0.6-0.9,0.6-1.5c0-1-0.8-1.8-1.8-1.8c-1.1,0-1.8,0.8-1.8,1.9h-1c0-1.6,1.2-2.8,2.8-2.8
		c1.5,0,2.8,1.1,2.8,2.7c0,0.7-0.2,1.4-0.7,1.9l-3.1,3.7H525.9z"/>
</g>
<g>
	<path d="M111.9,164.9h-1v-9h1.5c0.8,0,1.6,0,2.2,0.5c0.7,0.5,1,1.3,1,2.1c0,0.7-0.3,1.5-0.9,1.9c-0.6,0.5-1.4,0.6-2.1,0.6h-0.7
		V164.9z M111.9,160h0.7c1.1,0,2.1-0.3,2.1-1.6c0-1.5-1.2-1.6-2.4-1.6h-0.4V160z"/>
	<path d="M117.8,159.9L117.8,159.9c0.4-0.4,0.6-0.8,1.3-0.8c0.3,0,0.6,0.1,0.9,0.3l-0.5,0.9c-0.2-0.1-0.3-0.3-0.6-0.3
		c-1.1,0-1.1,1.4-1.1,2.1v2.8h-1v-5.6h1V159.9z"/>
	<path d="M120.4,162.1c0-1.7,1.3-3,3-3s3,1.3,3,3c0,1.7-1.3,3-3,3S120.4,163.7,120.4,162.1z M121.4,162.1c0,1.2,0.8,2.1,2,2.1
		s2-0.9,2-2.1c0-1.1-0.8-2.1-2-2.1S121.4,160.9,121.4,162.1z"/>
	<path d="M128.6,160.1L128.6,160.1c0.5-0.6,1.2-1,2-1c1.7,0,2.7,1.4,2.7,3c0,1.6-1,3-2.7,3c-0.8,0-1.5-0.3-1.9-0.9h0v4h-1v-8.8h1
		V160.1z M128.5,162c0,1.1,0.6,2.1,1.8,2.1c1.2,0,1.9-1,1.9-2.1c0-1.1-0.7-2-1.9-2C129.2,160,128.5,161,128.5,162z"/>
	<path d="M143.7,163.9v0.9h-5.9l4.2-5c0.4-0.4,0.6-0.9,0.6-1.5c0-1-0.8-1.8-1.8-1.8c-1.1,0-1.8,0.8-1.8,1.9h-1
		c0-1.6,1.2-2.8,2.8-2.8c1.5,0,2.8,1.1,2.8,2.7c0,0.7-0.2,1.4-0.7,1.9l-3.1,3.7H143.7z"/>
	<path d="M157.8,160.3c0,1.2-0.1,2.2-0.9,3.2s-2.1,1.5-3.3,1.5c-2.5,0-4.7-2.1-4.7-4.7c0-2.6,2.1-4.7,4.7-4.7c1.6,0,2.9,0.7,3.8,2
		l-0.7,0.7c-0.8-1.1-1.8-1.7-3.1-1.7c-2.1,0-3.7,1.7-3.7,3.8c0,1,0.4,1.9,1.1,2.6c0.7,0.7,1.6,1.2,2.6,1.2c1.6,0,3.2-1.2,3.2-2.8
		H154v-0.9H157.8z"/>
	<path d="M158.7,162.1c0-1.7,1.3-3,3-3s3,1.3,3,3c0,1.7-1.3,3-3,3S158.7,163.7,158.7,162.1z M159.7,162.1c0,1.2,0.8,2.1,2,2.1
		s2-0.9,2-2.1c0-1.1-0.8-2.1-2-2.1S159.7,160.9,159.7,162.1z"/>
	<path d="M166.4,162.3c0,1,0.8,1.9,1.8,1.9c0.8,0,1.3-0.5,1.7-1.2l0.8,0.5c-0.5,1-1.5,1.6-2.6,1.6c-1.7,0-2.8-1.3-2.8-2.9
		c0-1.7,1-3,2.7-3c1.8,0,2.8,1.5,2.7,3.2H166.4z M169.8,161.5c-0.1-0.8-0.8-1.5-1.7-1.5c-0.8,0-1.6,0.7-1.7,1.5H169.8z"/>
	<path d="M174.5,160.6c-0.1-0.3-0.4-0.6-0.8-0.6c-0.3,0-0.7,0.3-0.7,0.6c0,0.5,0.6,0.7,1.3,1s1.3,0.7,1.3,1.6c0,1.1-0.9,1.8-1.9,1.8
		c-0.9,0-1.7-0.5-2-1.4l0.9-0.4c0.2,0.5,0.5,0.9,1.2,0.9c0.5,0,0.9-0.3,0.9-0.9c0-1.3-2.5-0.8-2.5-2.6c0-0.9,0.8-1.6,1.7-1.6
		c0.6,0,1.2,0.5,1.5,1L174.5,160.6z"/>
	<path d="M182,157.1c0,0.4-0.3,0.7-0.7,0.7c-0.4,0-0.7-0.3-0.7-0.7c0-0.4,0.3-0.7,0.7-0.7C181.7,156.4,182,156.8,182,157.1z
		 M181.8,164.9h-1v-5.6h1V164.9z"/>
	<path d="M184.8,159.9L184.8,159.9c0.4-0.5,0.9-0.8,1.6-0.8c1.6,0,1.9,1.1,1.9,2.4v3.3h-1v-3.2c0-0.9-0.1-1.7-1.2-1.7
		c-1.3,0-1.4,1.2-1.4,2.2v2.7h-1v-5.6h1V159.9z"/>
	<path d="M191.1,164.9h-1v-4.7h-0.6v-0.9h0.6v-2h1v2h1v0.9h-1V164.9z"/>
	<path d="M192.5,162.1c0-1.7,1.3-3,3-3s3,1.3,3,3c0,1.7-1.3,3-3,3S192.5,163.7,192.5,162.1z M193.5,162.1c0,1.2,0.8,2.1,2,2.1
		s2-0.9,2-2.1c0-1.1-0.8-2.1-2-2.1S193.5,160.9,193.5,162.1z"/>
	<path d="M203.5,155.8h4.7v0.9h-3.7v2.7h3.6v0.9h-3.6v3.5h3.7v0.9h-4.7V155.8z"/>
	<path d="M210.9,164.9h-1v-4.7h-0.5v-0.9h0.5V157c0-0.5,0-1.1,0.3-1.5c0.3-0.5,0.9-0.7,1.5-0.7c0.2,0,0.5,0,0.7,0.1v1
		c-0.2-0.1-0.4-0.1-0.6-0.1c-0.8,0-0.8,0.6-0.8,1.5v1.9h1.4v0.9h-1.4V164.9z"/>
	<path d="M214.2,164.9h-1v-4.7h-0.5v-0.9h0.5V157c0-0.5,0-1.1,0.3-1.5c0.3-0.5,0.9-0.7,1.5-0.7c0.2,0,0.5,0,0.7,0.1v1
		c-0.2-0.1-0.4-0.1-0.6-0.1c-0.8,0-0.8,0.6-0.8,1.5v1.9h1.4v0.9h-1.4V164.9z"/>
	<path d="M216.9,162.3c0,1,0.8,1.9,1.8,1.9c0.8,0,1.3-0.5,1.7-1.2l0.8,0.5c-0.5,1-1.5,1.6-2.6,1.6c-1.7,0-2.8-1.3-2.8-2.9
		c0-1.7,1-3,2.7-3c1.8,0,2.8,1.5,2.7,3.2H216.9z M220.3,161.5c-0.1-0.8-0.8-1.5-1.7-1.5c-0.8,0-1.6,0.7-1.7,1.5H220.3z"/>
	<path d="M226.9,160.9L226.9,160.9c-0.5-0.6-1-0.9-1.8-0.9c-1.2,0-2,1-2,2.1c0,1.1,0.8,2.1,1.9,2.1c0.8,0,1.4-0.4,1.8-1h0v1.3
		c-0.6,0.4-1.1,0.6-1.8,0.6c-1.7,0-3-1.3-3-3c0-1.7,1.4-3,3-3c0.6,0,1.2,0.2,1.7,0.6V160.9z"/>
	<path d="M229.4,164.9h-1v-4.7h-0.6v-0.9h0.6v-2h1v2h1v0.9h-1V164.9z"/>
</g>
<g>
	<path d="M349.3,245.3l0.5-0.9h2v9h-1v-8.1H349.3z"/>
	<path d="M357,253l2.1-2.9l0,0c-0.2,0.1-0.5,0.1-0.8,0.1c-1.7,0-2.9-1.3-2.9-3c0-1.7,1.4-3.1,3.1-3.1s3.1,1.4,3.1,3.1
		c0,0.8-0.4,1.5-0.8,2.2l-3,4.1L357,253z M356.4,247.2c0,1.2,0.9,2.1,2.1,2.1c1.2,0,2.1-0.9,2.1-2.1c0-1.2-0.9-2.1-2.1-2.1
		C357.3,245.1,356.4,246.1,356.4,247.2z"/>
	<path d="M364.4,253l2.1-2.9l0,0c-0.2,0.1-0.5,0.1-0.8,0.1c-1.7,0-2.9-1.3-2.9-3c0-1.7,1.4-3.1,3.1-3.1s3.1,1.4,3.1,3.1
		c0,0.8-0.4,1.5-0.8,2.2l-3,4.1L364.4,253z M363.8,247.2c0,1.2,0.9,2.1,2.1,2.1c1.2,0,2.1-0.9,2.1-2.1c0-1.2-0.9-2.1-2.1-2.1
		C364.7,245.1,363.8,246.1,363.8,247.2z"/>
	<path d="M375.8,246.7c0,0.8-0.4,1.6-1.1,2c0.9,0.4,1.3,1.2,1.3,2.2c0,1.6-1.2,2.7-2.8,2.7c-1.6,0-2.8-1.1-2.8-2.7
		c0-0.9,0.5-1.8,1.3-2.2c-0.7-0.4-1.1-1.2-1.1-2c0-1.5,1.1-2.5,2.5-2.5C374.7,244.2,375.8,245.3,375.8,246.7z M371.6,250.9
		c0,1,0.8,1.7,1.8,1.7s1.8-0.8,1.8-1.7c0-1-0.8-1.7-1.8-1.7S371.6,249.9,371.6,250.9z M371.7,246.7c0,0.9,0.7,1.6,1.6,1.6
		c0.9,0,1.6-0.7,1.6-1.6c0-0.9-0.7-1.6-1.6-1.6C372.5,245.1,371.7,245.8,371.7,246.7z"/>
	<path d="M385.7,246.1c-0.4-0.6-0.8-1-1.6-1c-0.8,0-1.5,0.6-1.5,1.4c0,0.8,0.8,1.1,1.4,1.4l0.6,0.3c1.2,0.5,2.2,1.1,2.2,2.5
		c0,1.6-1.3,2.8-2.8,2.8c-1.5,0-2.5-0.9-2.8-2.3l1-0.3c0.1,0.9,0.8,1.7,1.8,1.7s1.9-0.7,1.9-1.8c0-1.1-0.8-1.4-1.7-1.8l-0.6-0.2
		c-1.1-0.5-2-1-2-2.3c0-1.4,1.2-2.3,2.5-2.3c1,0,1.9,0.5,2.3,1.4L385.7,246.1z"/>
	<path d="M393.5,253.4h-1v-0.8h0c-0.5,0.6-1.2,0.9-1.9,0.9c-1.7,0-2.7-1.4-2.7-3c0-1.6,1-3,2.7-3c0.8,0,1.5,0.4,1.9,1h0v-0.8h1
		V253.4z M388.8,250.5c0,1.1,0.6,2.1,1.8,2.1c1.2,0,1.9-1,1.9-2.1c0-1.1-0.7-2-1.9-2C389.6,248.5,388.8,249.5,388.8,250.5z"/>
	<path d="M396.2,253.4h-1v-9.9h1V253.4z"/>
	<path d="M398.5,250.8c0,1,0.8,1.9,1.8,1.9c0.8,0,1.3-0.5,1.7-1.2l0.8,0.5c-0.5,1-1.5,1.6-2.6,1.6c-1.7,0-2.8-1.3-2.8-2.9
		c0-1.7,1-3,2.7-3c1.8,0,2.8,1.5,2.7,3.2H398.5z M401.9,250c-0.1-0.8-0.8-1.5-1.7-1.5c-0.8,0-1.6,0.7-1.7,1.5H401.9z"/>
	<path d="M406.5,249.1c-0.1-0.3-0.4-0.6-0.8-0.6c-0.3,0-0.7,0.3-0.7,0.6c0,0.5,0.6,0.7,1.3,1c0.7,0.3,1.3,0.7,1.3,1.6
		c0,1.1-0.9,1.8-1.9,1.8c-0.9,0-1.7-0.5-2-1.4l0.9-0.4c0.2,0.5,0.5,0.9,1.2,0.9c0.5,0,0.9-0.3,0.9-0.9c0-1.3-2.5-0.8-2.5-2.6
		c0-0.9,0.8-1.6,1.7-1.6c0.6,0,1.2,0.5,1.5,1L406.5,249.1z"/>
	<path d="M415.1,253.4h-1v-8.1h-2.2v-0.9h5.4v0.9h-2.2V253.4z"/>
	<path d="M422.3,253.4h-1v-0.8h0c-0.5,0.6-1.2,0.9-1.9,0.9c-1.7,0-2.7-1.4-2.7-3c0-1.6,1-3,2.7-3c0.8,0,1.5,0.4,1.9,1h0v-0.8h1
		V253.4z M417.6,250.5c0,1.1,0.6,2.1,1.8,2.1c1.2,0,1.9-1,1.9-2.1c0-1.1-0.7-2-1.9-2C418.4,248.5,417.6,249.5,417.6,250.5z"/>
	<path d="M423.5,247.7h1.2l1.5,1.9l1.5-1.9h1.2l-2.1,2.6l2.3,3h-1.2l-1.8-2.3l-1.8,2.3h-1.2l2.4-3L423.5,247.7z"/>
	<path d="M433.7,244.3h1.7c1.4,0,2.5,0.2,3.5,1.1c1,0.9,1.5,2.1,1.5,3.4c0,1.3-0.5,2.5-1.5,3.4c-1.1,1-2.2,1.1-3.6,1.1h-1.7V244.3z
		 M435.5,252.4c1.1,0,2-0.2,2.9-0.9c0.7-0.7,1.1-1.6,1.1-2.7c0-1-0.4-2-1.2-2.7c-0.8-0.7-1.7-0.9-2.8-0.9h-0.7v7.2H435.5z"/>
	<path d="M442.3,250.8c0,1,0.8,1.9,1.8,1.9c0.8,0,1.3-0.5,1.7-1.2l0.8,0.5c-0.5,1-1.5,1.6-2.6,1.6c-1.7,0-2.8-1.3-2.8-2.9
		c0-1.7,1-3,2.7-3c1.8,0,2.8,1.5,2.7,3.2H442.3z M445.8,250c-0.1-0.8-0.8-1.5-1.7-1.5c-0.8,0-1.6,0.7-1.7,1.5H445.8z"/>
	<path d="M449,248.6L449,248.6c0.5-0.6,1.2-1,2-1c1.7,0,2.7,1.4,2.7,3c0,1.6-1,3-2.7,3c-0.8,0-1.5-0.3-1.9-0.9h0v4h-1v-8.8h1V248.6z
		 M448.9,250.5c0,1.1,0.6,2.1,1.8,2.1c1.2,0,1.9-1,1.9-2.1c0-1.1-0.7-2-1.9-2C449.7,248.5,448.9,249.5,448.9,250.5z"/>
	<path d="M454.5,250.6c0-1.7,1.3-3,3-3s3,1.3,3,3s-1.3,3-3,3S454.5,252.2,454.5,250.6z M455.5,250.6c0,1.2,0.8,2.1,2,2.1
		s2-0.9,2-2.1c0-1.1-0.8-2.1-2-2.1S455.5,249.4,455.5,250.6z"/>
	<path d="M464,249.1c-0.1-0.3-0.4-0.6-0.8-0.6c-0.3,0-0.7,0.3-0.7,0.6c0,0.5,0.6,0.7,1.3,1c0.7,0.3,1.3,0.7,1.3,1.6
		c0,1.1-0.9,1.8-1.9,1.8c-0.9,0-1.7-0.5-2-1.4l0.9-0.4c0.2,0.5,0.5,0.9,1.2,0.9c0.5,0,0.9-0.3,0.9-0.9c0-1.3-2.5-0.8-2.5-2.6
		c0-0.9,0.8-1.6,1.7-1.6c0.6,0,1.2,0.5,1.5,1L464,249.1z"/>
	<path d="M467.9,245.6c0,0.4-0.3,0.7-0.7,0.7s-0.7-0.3-0.7-0.7c0-0.4,0.3-0.7,0.7-0.7S467.9,245.3,467.9,245.6z M467.7,253.4h-1
		v-5.6h1V253.4z"/>
	<path d="M470.7,253.4h-1v-4.7h-0.6v-0.9h0.6v-2h1v2h1v0.9h-1V253.4z"/>
	<path d="M474.8,249.1c-0.1-0.3-0.4-0.6-0.8-0.6c-0.3,0-0.7,0.3-0.7,0.6c0,0.5,0.6,0.7,1.3,1c0.7,0.3,1.3,0.7,1.3,1.6
		c0,1.1-0.9,1.8-1.9,1.8c-0.9,0-1.7-0.5-2-1.4l0.9-0.4c0.2,0.5,0.5,0.9,1.2,0.9c0.5,0,0.9-0.3,0.9-0.9c0-1.3-2.5-0.8-2.5-2.6
		c0-0.9,0.8-1.6,1.7-1.6c0.6,0,1.2,0.5,1.5,1L474.8,249.1z"/>
	<path d="M479.1,252.4l-1.4,3.1l-0.6-0.3l1.1-3.1L479.1,252.4z"/>
	<path d="M487.3,248.9c-1.1-0.5-2.1-1-2.1-2.4c0-1.2,0.9-2.1,2.1-2.3V243h0.8v1.2c0.8,0.1,1.5,0.6,1.9,1.4l-0.8,0.5
		c-0.2-0.4-0.6-0.8-1.1-0.9v3c1.2,0.5,2.2,1.1,2.2,2.6c0,1.3-0.9,2.4-2.2,2.7v1.3h-0.8v-1.2c-1.3-0.1-2.4-1.1-2.6-2.3l1-0.3
		c0.1,0.8,0.8,1.6,1.6,1.6V248.9z M487.3,245.2c-0.6,0.1-1.1,0.7-1.1,1.4c0,0.7,0.6,1,1.1,1.3V245.2z M488.1,252.5
		c0.8-0.3,1.2-0.9,1.2-1.7c0-0.8-0.6-1.2-1.2-1.5V252.5z"/>
	<path d="M493.4,253l2.1-2.9l0,0c-0.2,0.1-0.5,0.1-0.8,0.1c-1.7,0-2.9-1.3-2.9-3c0-1.7,1.4-3.1,3.1-3.1s3.1,1.4,3.1,3.1
		c0,0.8-0.4,1.5-0.8,2.2l-3,4.1L493.4,253z M492.8,247.2c0,1.2,0.9,2.1,2.1,2.1c1.2,0,2.1-0.9,2.1-2.1c0-1.2-0.9-2.1-2.1-2.1
		C493.7,245.1,492.8,246.1,492.8,247.2z"/>
	<path d="M501.3,252.4l-1.4,3.1l-0.6-0.3l1.1-3.1L501.3,252.4z"/>
	<path d="M508.7,252.4v0.9h-5.9l4.2-5c0.4-0.4,0.6-0.9,0.6-1.5c0-1-0.8-1.8-1.8-1.8c-1.1,0-1.8,0.8-1.8,1.9h-1
		c0-1.6,1.2-2.8,2.8-2.8c1.5,0,2.8,1.1,2.8,2.7c0,0.7-0.2,1.4-0.7,1.9l-3.1,3.7H508.7z"/>
	<path d="M511.9,253l2.1-2.9l0,0c-0.2,0.1-0.5,0.1-0.8,0.1c-1.7,0-2.9-1.3-2.9-3c0-1.7,1.4-3.1,3.1-3.1c1.7,0,3.1,1.4,3.1,3.1
		c0,0.8-0.4,1.5-0.8,2.2l-3,4.1L511.9,253z M511.3,247.2c0,1.2,0.9,2.1,2.1,2.1c1.2,0,2.1-0.9,2.1-2.1c0-1.2-0.9-2.1-2.1-2.1
		C512.2,245.1,511.3,246.1,511.3,247.2z"/>
	<path d="M524,248.9c0,2.2-1.2,4.7-3.2,4.7c-2.1,0-3.2-2.4-3.2-4.7c0-1.9,0.9-4.7,3.2-4.7C523.1,244.2,524,247,524,248.9z
		 M518.6,248.9c0,1.3,0.6,3.7,2.2,3.7s2.2-2.4,2.2-3.7c0-1.3-0.5-3.8-2.2-3.8S518.5,247.6,518.6,248.9z"/>
	<path d="M527.2,252.4l-1.4,3.1l-0.6-0.3l1.1-3.1L527.2,252.4z"/>
	<path d="M535,251v0.9h-1.1v1.5h-1v-1.5h-4.6l5.6-8.1h0v7.1H535z M532.9,246.9L532.9,246.9L530,251h2.9V246.9z"/>
	<path d="M542.5,248.9c0,2.2-1.2,4.7-3.2,4.7c-2.1,0-3.2-2.4-3.2-4.7c0-1.9,0.9-4.7,3.2-4.7C541.6,244.2,542.5,247,542.5,248.9z
		 M537,248.9c0,1.3,0.6,3.7,2.2,3.7s2.2-2.4,2.2-3.7c0-1.3-0.5-3.8-2.2-3.8S537,247.6,537,248.9z"/>
	<path d="M546.2,248.2c1,0,1.8-0.3,1.8-1.5c0-1-0.6-1.6-1.6-1.6c-0.9,0-1.4,0.6-1.5,1.5h-1c0.1-1.4,1-2.4,2.5-2.4
		c1.5,0,2.6,1,2.6,2.5c0,0.8-0.4,1.6-1.2,2c0.9,0.4,1.3,1.3,1.3,2.2c0,1.6-1.3,2.7-2.8,2.7c-1.5,0-2.7-1-2.7-2.5h1
		c0,0.9,0.8,1.6,1.7,1.6c1,0,1.8-0.8,1.8-1.8c0-1.2-0.8-1.7-1.9-1.7V248.2z"/>
</g>
<g>
	<g>
		<line class="st30" x1="156.8" y1="171.9" x2="156.7" y2="210.9"/>
		<g>
			<polygon class="st10" points="156.7,217.9 152.7,208 156.7,210.3 160.8,208 			"/>
		</g>
	</g>
</g>
<g>
	<g>
		<line class="st30" x1="543.2" y1="45.9" x2="543.2" y2="52.8"/>
		<g>
			<polygon class="st10" points="543.2,59.9 539.1,49.9 543.2,52.3 547.3,49.9 			"/>
		</g>
	</g>
</g>
<g>
	<g>
		<line class="st30" x1="543.2" y1="242.4" x2="543.2" y2="228.9"/>
		<g>
			<polygon class="st10" points="543.2,221.9 547.3,231.8 543.2,229.5 539.1,231.8 			"/>
		</g>
	</g>
</g>
<line class="st30" x1="530.4" y1="45.9" x2="543.2" y2="45.9"/>
<line class="st30" x1="543.2" y1="48.4" x2="543.2" y2="48.4"/>
<g>
	<path d="M296.5,202.9v-0.6l0.8-0.8c2-1.9,2.9-2.9,2.9-4.1c0-0.8-0.4-1.5-1.5-1.5c-0.7,0-1.3,0.4-1.7,0.7l-0.3-0.7
		c0.5-0.5,1.3-0.8,2.2-0.8c1.7,0,2.4,1.2,2.4,2.3c0,1.4-1,2.6-2.7,4.2L298,202v0h3.5v0.9H296.5z"/>
	<path d="M307.8,198.9c0,2.7-1,4.1-2.7,4.1c-1.5,0-2.6-1.4-2.6-4c0-2.6,1.1-4.1,2.7-4.1C306.9,195,307.8,196.5,307.8,198.9z
		 M303.6,199.1c0,2,0.6,3.2,1.6,3.2c1.1,0,1.6-1.3,1.6-3.3c0-1.9-0.5-3.2-1.6-3.2C304.3,195.8,303.6,196.9,303.6,199.1z"/>
	<path d="M314,198.9c0,2.7-1,4.1-2.7,4.1c-1.5,0-2.6-1.4-2.6-4c0-2.6,1.1-4.1,2.7-4.1C313,195,314,196.5,314,198.9z M309.7,199.1
		c0,2,0.6,3.2,1.6,3.2c1.1,0,1.6-1.3,1.6-3.3c0-1.9-0.5-3.2-1.6-3.2C310.4,195.8,309.7,196.9,309.7,199.1z"/>
	<path d="M319.6,196h-3l-0.3,2c0.2,0,0.3,0,0.6,0c0.6,0,1.2,0.1,1.7,0.4c0.6,0.3,1.1,1,1.1,2c0,1.5-1.2,2.7-2.9,2.7
		c-0.9,0-1.6-0.2-1.9-0.5l0.3-0.8c0.3,0.2,1,0.4,1.7,0.4c1,0,1.8-0.6,1.8-1.7c0-1-0.7-1.7-2.2-1.7c-0.4,0-0.8,0-1.1,0.1l0.5-3.7h3.7
		V196z"/>
	<path d="M325.1,194.8v3.4h3.9v-3.4h1.1v8.1H329v-3.8h-3.9v3.8h-1v-8.1H325.1z"/>
	<path d="M337.1,200c0,2.1-1.5,3.1-2.9,3.1c-1.6,0-2.8-1.2-2.8-3c0-1.9,1.3-3.1,2.9-3.1C335.9,197,337.1,198.2,337.1,200z
		 M332.5,200c0,1.3,0.7,2.2,1.8,2.2c1,0,1.8-0.9,1.8-2.3c0-1-0.5-2.2-1.7-2.2C333,197.8,332.5,198.9,332.5,200z"/>
	<path d="M338.4,198.7c0-0.6,0-1.1,0-1.6h0.9l0,0.9h0c0.3-0.6,0.9-1.1,1.8-1.1c0.8,0,1.4,0.5,1.6,1.2h0c0.2-0.3,0.4-0.6,0.6-0.8
		c0.3-0.3,0.7-0.4,1.3-0.4c0.8,0,1.9,0.5,1.9,2.5v3.4h-1v-3.3c0-1.1-0.4-1.8-1.3-1.8c-0.6,0-1.1,0.4-1.2,1c0,0.1-0.1,0.3-0.1,0.5
		v3.6h-1v-3.5c0-0.9-0.4-1.6-1.2-1.6c-0.7,0-1.1,0.5-1.3,1.1c-0.1,0.2-0.1,0.3-0.1,0.5v3.5h-1V198.7z"/>
	<path d="M349,200.2c0,1.4,0.9,2,2,2c0.8,0,1.2-0.1,1.6-0.3l0.2,0.8c-0.4,0.2-1,0.4-1.9,0.4c-1.8,0-2.9-1.2-2.9-2.9s1-3.1,2.7-3.1
		c1.9,0,2.4,1.7,2.4,2.7c0,0.2,0,0.4,0,0.5H349z M352.1,199.5c0-0.7-0.3-1.7-1.5-1.7c-1.1,0-1.5,1-1.6,1.7H352.1z"/>
	<path d="M357,194.9c0.6-0.1,1.4-0.2,2.2-0.2c1.5,0,2.6,0.3,3.3,1c0.7,0.7,1.1,1.6,1.1,2.9c0,1.3-0.4,2.4-1.2,3.1
		c-0.8,0.8-2,1.2-3.6,1.2c-0.7,0-1.4,0-1.9-0.1V194.9z M358,202.1c0.3,0,0.6,0.1,1.1,0.1c2.2,0,3.4-1.2,3.4-3.4
		c0-1.9-1.1-3.1-3.3-3.1c-0.5,0-0.9,0-1.2,0.1V202.1z"/>
	<path d="M365.6,200.2c0,1.4,0.9,2,2,2c0.8,0,1.2-0.1,1.6-0.3l0.2,0.8c-0.4,0.2-1,0.4-1.9,0.4c-1.8,0-2.9-1.2-2.9-2.9s1-3.1,2.7-3.1
		c1.9,0,2.4,1.7,2.4,2.7c0,0.2,0,0.4,0,0.5H365.6z M368.7,199.5c0-0.7-0.3-1.7-1.5-1.7c-1.1,0-1.5,1-1.6,1.7H368.7z"/>
	<path d="M371,199c0-0.7,0-1.3,0-1.9h0.9l0,1h0c0.4-0.7,1.1-1.1,2.1-1.1c1.4,0,2.5,1.2,2.5,3c0,2.1-1.3,3.1-2.6,3.1
		c-0.8,0-1.4-0.3-1.8-0.9h0v3.2h-1V199z M372.1,200.6c0,0.2,0,0.3,0,0.4c0.2,0.7,0.8,1.2,1.6,1.2c1.1,0,1.8-0.9,1.8-2.2
		c0-1.2-0.6-2.2-1.7-2.2c-0.7,0-1.4,0.5-1.6,1.3c0,0.1-0.1,0.3-0.1,0.4V200.6z"/>
	<path d="M383.1,200c0,2.1-1.5,3.1-2.9,3.1c-1.6,0-2.8-1.2-2.8-3c0-1.9,1.3-3.1,2.9-3.1C382,197,383.1,198.2,383.1,200z M378.5,200
		c0,1.3,0.7,2.2,1.8,2.2c1,0,1.8-0.9,1.8-2.3c0-1-0.5-2.2-1.7-2.2C379,197.8,378.5,198.9,378.5,200z"/>
	<path d="M385.7,195.4v1.7h1.5v0.8h-1.5v3.1c0,0.7,0.2,1.1,0.8,1.1c0.3,0,0.5,0,0.6-0.1l0,0.8c-0.2,0.1-0.5,0.1-0.9,0.1
		c-0.5,0-0.9-0.2-1.1-0.4c-0.3-0.3-0.4-0.8-0.4-1.5v-3.2h-0.9v-0.8h0.9v-1.4L385.7,195.4z"/>
	<path d="M397.9,198.8c0,2.8-1.7,4.3-3.8,4.3c-2.1,0-3.6-1.7-3.6-4.1c0-2.6,1.6-4.2,3.8-4.2C396.5,194.7,397.9,196.4,397.9,198.8z
		 M391.6,198.9c0,1.7,0.9,3.3,2.6,3.3c1.7,0,2.6-1.5,2.6-3.4c0-1.6-0.8-3.3-2.6-3.3C392.5,195.6,391.6,197.2,391.6,198.9z"/>
	<path d="M399.2,199c0-0.7,0-1.3,0-1.9h0.9l0,1h0c0.4-0.7,1.1-1.1,2.1-1.1c1.4,0,2.5,1.2,2.5,3c0,2.1-1.3,3.1-2.6,3.1
		c-0.8,0-1.4-0.3-1.8-0.9h0v3.2h-1V199z M400.3,200.6c0,0.2,0,0.3,0,0.4c0.2,0.7,0.8,1.2,1.6,1.2c1.1,0,1.8-0.9,1.8-2.2
		c0-1.2-0.6-2.2-1.7-2.2c-0.7,0-1.4,0.5-1.6,1.3c0,0.1-0.1,0.3-0.1,0.4V200.6z"/>
	<path d="M406.6,200.2c0,1.4,0.9,2,2,2c0.8,0,1.2-0.1,1.6-0.3l0.2,0.8c-0.4,0.2-1,0.4-1.9,0.4c-1.8,0-2.9-1.2-2.9-2.9s1-3.1,2.7-3.1
		c1.9,0,2.4,1.7,2.4,2.7c0,0.2,0,0.4,0,0.5H406.6z M409.7,199.5c0-0.7-0.3-1.7-1.5-1.7c-1.1,0-1.5,1-1.6,1.7H409.7z"/>
	<path d="M412.1,198.7c0-0.6,0-1.1,0-1.6h0.9l0.1,1h0c0.3-0.6,1-1.1,1.9-1.1c0.8,0,2.1,0.5,2.1,2.5v3.5h-1.1v-3.3
		c0-0.9-0.3-1.7-1.3-1.7c-0.7,0-1.2,0.5-1.4,1.1c0,0.1-0.1,0.3-0.1,0.5v3.5h-1.1V198.7z"/>
	<path d="M418.6,201.8c0.3,0.2,0.9,0.4,1.4,0.4c0.8,0,1.1-0.4,1.1-0.9c0-0.5-0.3-0.8-1.1-1.1c-1-0.4-1.5-0.9-1.5-1.6
		c0-0.9,0.8-1.7,2-1.7c0.6,0,1.1,0.2,1.4,0.4l-0.3,0.8c-0.2-0.1-0.6-0.3-1.2-0.3c-0.6,0-1,0.4-1,0.8c0,0.5,0.3,0.7,1.1,1
		c1,0.4,1.5,0.9,1.5,1.8c0,1-0.8,1.7-2.2,1.7c-0.6,0-1.2-0.2-1.6-0.4L418.6,201.8z"/>
</g>
<g>
	<path d="M322.8,161.4v-0.6l0.8-0.8c2-1.9,2.9-2.9,2.9-4.1c0-0.8-0.4-1.5-1.5-1.5c-0.7,0-1.3,0.4-1.7,0.7l-0.3-0.7
		c0.5-0.5,1.3-0.8,2.2-0.8c1.7,0,2.4,1.2,2.4,2.3c0,1.4-1,2.6-2.7,4.2l-0.6,0.6v0h3.5v0.9H322.8z"/>
	<path d="M334.1,157.4c0,2.7-1,4.1-2.7,4.1c-1.5,0-2.6-1.4-2.6-4c0-2.6,1.1-4.1,2.7-4.1C333.2,153.5,334.1,154.9,334.1,157.4z
		 M329.9,157.5c0,2,0.6,3.2,1.6,3.2c1.1,0,1.6-1.3,1.6-3.3c0-1.9-0.5-3.2-1.6-3.2C330.5,154.3,329.9,155.4,329.9,157.5z"/>
	<path d="M340.3,157.4c0,2.7-1,4.1-2.7,4.1c-1.5,0-2.6-1.4-2.6-4c0-2.6,1.1-4.1,2.7-4.1C339.3,153.5,340.3,154.9,340.3,157.4z
		 M336,157.5c0,2,0.6,3.2,1.6,3.2c1.1,0,1.6-1.3,1.6-3.3c0-1.9-0.5-3.2-1.6-3.2C336.7,154.3,336,155.4,336,157.5z"/>
	<path d="M345.7,154.3c-0.2,0-0.5,0-0.8,0c-1.7,0.3-2.5,1.5-2.7,2.8h0c0.4-0.5,1-0.9,1.9-0.9c1.4,0,2.4,1,2.4,2.5
		c0,1.4-1,2.7-2.6,2.7c-1.7,0-2.8-1.3-2.8-3.3c0-1.5,0.6-2.7,1.3-3.5c0.6-0.6,1.5-1,2.5-1.2c0.3,0,0.6-0.1,0.8-0.1V154.3z
		 M345.4,158.8c0-1.1-0.6-1.8-1.6-1.8c-0.6,0-1.2,0.4-1.5,1c-0.1,0.1-0.1,0.3-0.1,0.5c0,1.3,0.6,2.2,1.7,2.2
		C344.8,160.7,345.4,159.9,345.4,158.8z"/>
	<path d="M347,162.9c0.3-0.7,0.6-2,0.7-2.9l1.2-0.1c-0.3,1-0.8,2.4-1.1,2.9L347,162.9z"/>
	<path d="M352.8,153.3h1v7.2h3.5v0.9h-4.5V153.3z"/>
	<path d="M363.5,158.4c0,2.1-1.5,3.1-2.9,3.1c-1.6,0-2.8-1.2-2.8-3c0-1.9,1.3-3.1,2.9-3.1C362.4,155.4,363.5,156.7,363.5,158.4z
		 M358.9,158.5c0,1.3,0.7,2.2,1.8,2.2c1,0,1.8-0.9,1.8-2.3c0-1-0.5-2.2-1.7-2.2C359.4,156.2,358.9,157.4,358.9,158.5z"/>
	<path d="M364.8,157.1c0-0.6,0-1.1,0-1.6h0.9l0.1,1h0c0.3-0.6,1-1.1,1.9-1.1c0.8,0,2.1,0.5,2.1,2.5v3.5h-1.1V158
		c0-0.9-0.3-1.7-1.3-1.7c-0.7,0-1.2,0.5-1.4,1.1c0,0.1-0.1,0.3-0.1,0.5v3.5h-1.1V157.1z"/>
	<path d="M371.5,157.1c0-0.6,0-1.1,0-1.6h0.9l0.1,1h0c0.3-0.6,1-1.1,1.9-1.1c0.8,0,2.1,0.5,2.1,2.5v3.5h-1.1V158
		c0-0.9-0.3-1.7-1.3-1.7c-0.7,0-1.2,0.5-1.4,1.1c0,0.1-0.1,0.3-0.1,0.5v3.5h-1.1V157.1z"/>
	<path d="M379.3,153.9c0,0.4-0.3,0.6-0.7,0.6c-0.4,0-0.6-0.3-0.6-0.6c0-0.4,0.3-0.7,0.7-0.7C379.1,153.3,379.3,153.6,379.3,153.9z
		 M378.2,161.4v-5.8h1.1v5.8H378.2z"/>
	<path d="M381.5,158.7c0,1.4,0.9,2,2,2c0.8,0,1.2-0.1,1.6-0.3l0.2,0.8c-0.4,0.2-1,0.4-1.9,0.4c-1.8,0-2.9-1.2-2.9-2.9s1-3.1,2.7-3.1
		c1.9,0,2.4,1.7,2.4,2.7c0,0.2,0,0.4,0,0.5H381.5z M384.6,157.9c0-0.7-0.3-1.7-1.5-1.7c-1.1,0-1.5,1-1.6,1.7H384.6z"/>
	<path d="M390.9,158.8l-0.8,2.5h-1.1l2.7-8.1h1.3l2.8,8.1h-1.1l-0.9-2.5H390.9z M393.5,158l-0.8-2.3c-0.2-0.5-0.3-1-0.4-1.5h0
		c-0.1,0.5-0.3,1-0.4,1.5l-0.8,2.3H393.5z"/>
	<path d="M396.8,161.4c0-0.4,0-1,0-1.5v-7h1v3.6h0c0.4-0.6,1-1.1,2-1.1c1.4,0,2.5,1.2,2.4,3c0,2.1-1.3,3.1-2.6,3.1
		c-0.8,0-1.5-0.3-1.9-1.1h0l0,1H396.8z M397.9,159.1c0,0.1,0,0.3,0,0.4c0.2,0.7,0.8,1.2,1.6,1.2c1.1,0,1.8-0.9,1.8-2.2
		c0-1.2-0.6-2.2-1.7-2.2c-0.7,0-1.4,0.5-1.6,1.3c0,0.1-0.1,0.3-0.1,0.4V159.1z"/>
	<path d="M403.6,161.4c0-0.4,0-1,0-1.5v-7h1v3.6h0c0.4-0.6,1-1.1,2-1.1c1.4,0,2.5,1.2,2.4,3c0,2.1-1.3,3.1-2.6,3.1
		c-0.8,0-1.5-0.3-1.9-1.1h0l0,1H403.6z M404.7,159.1c0,0.1,0,0.3,0,0.4c0.2,0.7,0.8,1.2,1.6,1.2c1.1,0,1.8-0.9,1.8-2.2
		c0-1.2-0.6-2.2-1.7-2.2c-0.7,0-1.4,0.5-1.6,1.3c0,0.1-0.1,0.3-0.1,0.4V159.1z"/>
	<path d="M415.7,158.4c0,2.1-1.5,3.1-2.9,3.1c-1.6,0-2.8-1.2-2.8-3c0-1.9,1.3-3.1,2.9-3.1C414.6,155.4,415.7,156.7,415.7,158.4z
		 M411.1,158.5c0,1.3,0.7,2.2,1.8,2.2c1,0,1.8-0.9,1.8-2.3c0-1-0.5-2.2-1.7-2.2C411.7,156.2,411.1,157.4,411.1,158.5z"/>
	<path d="M418.3,153.9v1.7h1.5v0.8h-1.5v3.1c0,0.7,0.2,1.1,0.8,1.1c0.3,0,0.5,0,0.6-0.1l0,0.8c-0.2,0.1-0.5,0.1-0.9,0.1
		c-0.5,0-0.9-0.2-1.1-0.4c-0.3-0.3-0.4-0.8-0.4-1.5v-3.2h-0.9v-0.8h0.9v-1.4L418.3,153.9z"/>
	<path d="M423.6,153.4c0.5-0.1,1.2-0.2,1.9-0.2c1,0,1.7,0.2,2.2,0.6c0.4,0.3,0.7,0.8,0.7,1.4c0,0.8-0.5,1.5-1.4,1.8v0
		c0.8,0.2,1.7,0.8,1.7,2c0,0.7-0.3,1.2-0.7,1.6c-0.6,0.5-1.5,0.8-2.8,0.8c-0.7,0-1.3,0-1.6-0.1V153.4z M424.7,156.7h0.9
		c1.1,0,1.8-0.6,1.8-1.4c0-0.9-0.7-1.3-1.8-1.3c-0.5,0-0.8,0-0.9,0.1V156.7z M424.7,160.6c0.2,0,0.5,0,0.9,0c1.1,0,2.1-0.4,2.1-1.6
		c0-1.1-0.9-1.6-2.1-1.6h-0.9V160.6z"/>
	<path d="M430.1,152.9h1.1v8.5h-1.1V152.9z"/>
	<path d="M433.3,155.6l1.1,3.3c0.2,0.5,0.3,1,0.5,1.5h0c0.1-0.5,0.3-1,0.5-1.5l1.1-3.3h1.1l-2.3,5.8h-1l-2.2-5.8H433.3z"/>
	<path d="M443.6,152.9v7c0,0.5,0,1.1,0,1.5h-0.9l0-1h0c-0.3,0.6-1,1.1-2,1.1c-1.4,0-2.5-1.2-2.5-3c0-1.9,1.2-3.1,2.6-3.1
		c0.9,0,1.5,0.4,1.8,0.9h0v-3.5H443.6z M442.5,157.9c0-0.1,0-0.3,0-0.4c-0.2-0.7-0.7-1.2-1.5-1.2c-1.1,0-1.7,1-1.7,2.2
		c0,1.2,0.6,2.1,1.7,2.1c0.7,0,1.4-0.5,1.5-1.3c0-0.1,0-0.3,0-0.5V157.9z"/>
	<path d="M448.8,161.4l-2.1-8.1h1.1l1,4.1c0.2,1,0.5,2,0.6,2.8h0c0.1-0.8,0.4-1.8,0.7-2.8l1.1-4.1h1.1l1,4.1c0.2,1,0.4,1.9,0.6,2.8
		h0c0.2-0.9,0.4-1.8,0.6-2.8l1.1-4.1h1.1l-2.3,8.1h-1.1l-1-4.2c-0.3-1-0.4-1.8-0.5-2.6h0c-0.1,0.8-0.3,1.6-0.6,2.6l-1.2,4.2H448.8z"
		/>
	<path d="M458.6,153.9c0,0.4-0.3,0.6-0.7,0.6c-0.4,0-0.6-0.3-0.6-0.6c0-0.4,0.3-0.7,0.7-0.7C458.3,153.3,458.6,153.6,458.6,153.9z
		 M457.4,161.4v-5.8h1.1v5.8H457.4z"/>
	<path d="M465.2,152.9v7c0,0.5,0,1.1,0,1.5h-0.9l0-1h0c-0.3,0.6-1,1.1-2,1.1c-1.4,0-2.5-1.2-2.5-3c0-1.9,1.2-3.1,2.6-3.1
		c0.9,0,1.5,0.4,1.8,0.9h0v-3.5H465.2z M464.2,157.9c0-0.1,0-0.3,0-0.4c-0.2-0.7-0.7-1.2-1.5-1.2c-1.1,0-1.7,1-1.7,2.2
		c0,1.2,0.6,2.1,1.7,2.1c0.7,0,1.4-0.5,1.5-1.3c0-0.1,0-0.3,0-0.5V157.9z"/>
	<path d="M467.6,158.7c0,1.4,0.9,2,2,2c0.8,0,1.2-0.1,1.6-0.3l0.2,0.8c-0.4,0.2-1,0.4-1.9,0.4c-1.8,0-2.9-1.2-2.9-2.9s1-3.1,2.7-3.1
		c1.9,0,2.4,1.7,2.4,2.7c0,0.2,0,0.4,0,0.5H467.6z M470.7,157.9c0-0.7-0.3-1.7-1.5-1.7c-1.1,0-1.5,1-1.6,1.7H470.7z"/>
	<path d="M473,157.1c0-0.6,0-1.1,0-1.6h0.9l0.1,1h0c0.3-0.6,1-1.1,1.9-1.1c0.8,0,2.1,0.5,2.1,2.5v3.5h-1.1V158
		c0-0.9-0.3-1.7-1.3-1.7c-0.7,0-1.2,0.5-1.4,1.1c0,0.1-0.1,0.3-0.1,0.5v3.5H473V157.1z"/>
	<path d="M480.2,158.7c0,1.4,0.9,2,2,2c0.8,0,1.2-0.1,1.6-0.3l0.2,0.8c-0.4,0.2-1,0.4-1.9,0.4c-1.8,0-2.9-1.2-2.9-2.9s1-3.1,2.7-3.1
		c1.9,0,2.4,1.7,2.4,2.7c0,0.2,0,0.4,0,0.5H480.2z M483.3,157.9c0-0.7-0.3-1.7-1.5-1.7c-1.1,0-1.5,1-1.6,1.7H483.3z"/>
	<path d="M490.7,152.9v7c0,0.5,0,1.1,0,1.5h-0.9l0-1h0c-0.3,0.6-1,1.1-2,1.1c-1.4,0-2.5-1.2-2.5-3c0-1.9,1.2-3.1,2.6-3.1
		c0.9,0,1.5,0.4,1.8,0.9h0v-3.5H490.7z M489.6,157.9c0-0.1,0-0.3,0-0.4c-0.2-0.7-0.7-1.2-1.5-1.2c-1.1,0-1.7,1-1.7,2.2
		c0,1.2,0.6,2.1,1.7,2.1c0.7,0,1.4-0.5,1.5-1.3c0-0.1,0-0.3,0-0.5V157.9z"/>
	<path d="M491.6,162.9c0.3-0.7,0.6-2,0.7-2.9l1.2-0.1c-0.3,1-0.8,2.4-1.1,2.9L491.6,162.9z"/>
	<path d="M323.1,175.8v-8.1h1.1l2.6,4.1c0.6,0.9,1.1,1.8,1.5,2.6l0,0c-0.1-1.1-0.1-2.1-0.1-3.3v-3.4h1v8.1h-1.1l-2.6-4.1
		c-0.6-0.9-1.1-1.8-1.5-2.7l0,0c0.1,1,0.1,2,0.1,3.3v3.5H323.1z"/>
	<path d="M331.6,173.1c0,1.4,0.9,2,2,2c0.8,0,1.2-0.1,1.6-0.3l0.2,0.8c-0.4,0.2-1,0.4-1.9,0.4c-1.8,0-2.9-1.2-2.9-2.9
		c0-1.8,1-3.1,2.7-3.1c1.9,0,2.4,1.7,2.4,2.7c0,0.2,0,0.4,0,0.5H331.6z M334.7,172.3c0-0.7-0.3-1.7-1.5-1.7c-1.1,0-1.5,1-1.6,1.7
		H334.7z"/>
	<path d="M337.4,170l0.8,3c0.2,0.6,0.3,1.2,0.4,1.8h0c0.1-0.6,0.3-1.2,0.5-1.8l0.9-3h0.9l0.9,2.9c0.2,0.7,0.4,1.3,0.5,1.9h0
		c0.1-0.6,0.3-1.2,0.4-1.9l0.8-2.9h1l-1.9,5.8h-1l-0.9-2.8c-0.2-0.6-0.4-1.2-0.5-1.9h0c-0.1,0.7-0.3,1.3-0.5,1.9l-0.9,2.8h-1
		l-1.8-5.8H337.4z"/>
	<path d="M348.4,167.8c0.5-0.1,1.3-0.2,2-0.2c1.1,0,1.8,0.2,2.3,0.7c0.4,0.4,0.6,0.9,0.6,1.5c0,1.1-0.7,1.8-1.5,2.1v0
		c0.6,0.2,1,0.8,1.2,1.6c0.3,1.1,0.5,1.9,0.6,2.2h-1.1c-0.1-0.2-0.3-0.9-0.5-1.9c-0.2-1.1-0.7-1.5-1.6-1.6h-1v3.5h-1V167.8z
		 M349.5,171.5h1.1c1.1,0,1.8-0.6,1.8-1.5c0-1-0.8-1.5-1.9-1.5c-0.5,0-0.9,0-1,0.1V171.5z"/>
	<path d="M355.5,173.1c0,1.4,0.9,2,2,2c0.8,0,1.2-0.1,1.6-0.3l0.2,0.8c-0.4,0.2-1,0.4-1.9,0.4c-1.8,0-2.9-1.2-2.9-2.9
		c0-1.8,1-3.1,2.7-3.1c1.9,0,2.4,1.7,2.4,2.7c0,0.2,0,0.4,0,0.5H355.5z M358.6,172.3c0-0.7-0.3-1.7-1.5-1.7c-1.1,0-1.5,1-1.6,1.7
		H358.6z"/>
	<path d="M360.8,174.7c0.3,0.2,0.9,0.4,1.4,0.4c0.8,0,1.1-0.4,1.1-0.9c0-0.5-0.3-0.8-1.1-1.1c-1-0.4-1.5-0.9-1.5-1.6
		c0-0.9,0.8-1.7,2-1.7c0.6,0,1.1,0.2,1.4,0.4l-0.3,0.8c-0.2-0.1-0.6-0.3-1.2-0.3c-0.6,0-1,0.4-1,0.8c0,0.5,0.3,0.7,1.1,1
		c1,0.4,1.5,0.9,1.5,1.8c0,1-0.8,1.7-2.2,1.7c-0.6,0-1.2-0.2-1.6-0.4L360.8,174.7z"/>
	<path d="M366.9,168.3v1.7h1.5v0.8h-1.5v3.1c0,0.7,0.2,1.1,0.8,1.1c0.3,0,0.5,0,0.6-0.1l0,0.8c-0.2,0.1-0.5,0.1-0.9,0.1
		c-0.5,0-0.9-0.2-1.1-0.4c-0.3-0.3-0.4-0.8-0.4-1.5v-3.2H365V170h0.9v-1.4L366.9,168.3z"/>
	<path d="M372.8,175.8l-0.1-0.7h0c-0.3,0.5-0.9,0.9-1.8,0.9c-1.2,0-1.8-0.8-1.8-1.7c0-1.4,1.2-2.2,3.5-2.2V172
		c0-0.5-0.1-1.3-1.3-1.3c-0.5,0-1.1,0.2-1.5,0.4l-0.2-0.7c0.5-0.3,1.2-0.5,1.9-0.5c1.8,0,2.2,1.2,2.2,2.4v2.2c0,0.5,0,1,0.1,1.4
		H372.8z M372.7,172.8c-1.2,0-2.5,0.2-2.5,1.3c0,0.7,0.5,1,1,1c0.8,0,1.2-0.5,1.4-1c0-0.1,0.1-0.2,0.1-0.3V172.8z"/>
	<path d="M380.3,174.2c0,0.6,0,1.1,0,1.6h-0.9l-0.1-0.9h0c-0.3,0.5-0.9,1.1-1.9,1.1c-0.9,0-2-0.5-2-2.5V170h1.1v3.2
		c0,1.1,0.3,1.8,1.3,1.8c0.7,0,1.2-0.5,1.4-1c0.1-0.2,0.1-0.3,0.1-0.5V170h1.1V174.2z"/>
	<path d="M382,171.8c0-0.7,0-1.3,0-1.8h0.9l0,1.1h0c0.3-0.8,0.9-1.3,1.6-1.3c0.1,0,0.2,0,0.3,0v1c-0.1,0-0.2,0-0.4,0
		c-0.7,0-1.3,0.6-1.4,1.4c0,0.1,0,0.3,0,0.5v3.1h-1V171.8z"/>
	<path d="M389.1,175.8l-0.1-0.7h0c-0.3,0.5-0.9,0.9-1.8,0.9c-1.2,0-1.8-0.8-1.8-1.7c0-1.4,1.2-2.2,3.5-2.2V172
		c0-0.5-0.1-1.3-1.3-1.3c-0.5,0-1.1,0.2-1.5,0.4l-0.2-0.7c0.5-0.3,1.2-0.5,1.9-0.5c1.8,0,2.2,1.2,2.2,2.4v2.2c0,0.5,0,1,0.1,1.4
		H389.1z M388.9,172.8c-1.2,0-2.5,0.2-2.5,1.3c0,0.7,0.5,1,1,1c0.8,0,1.2-0.5,1.4-1c0-0.1,0.1-0.2,0.1-0.3V172.8z"/>
	<path d="M391.7,171.5c0-0.6,0-1.1,0-1.6h0.9l0.1,1h0c0.3-0.6,1-1.1,1.9-1.1c0.8,0,2.1,0.5,2.1,2.5v3.5h-1.1v-3.3
		c0-0.9-0.3-1.7-1.3-1.7c-0.7,0-1.2,0.5-1.4,1.1c0,0.1-0.1,0.3-0.1,0.5v3.5h-1.1V171.5z"/>
	<path d="M399.5,168.3v1.7h1.5v0.8h-1.5v3.1c0,0.7,0.2,1.1,0.8,1.1c0.3,0,0.5,0,0.6-0.1l0,0.8c-0.2,0.1-0.5,0.1-0.9,0.1
		c-0.5,0-0.9-0.2-1.1-0.4c-0.3-0.3-0.4-0.8-0.4-1.5v-3.2h-0.9V170h0.9v-1.4L399.5,168.3z"/>
	<path d="M402.1,174.7c0.3,0.2,0.9,0.4,1.4,0.4c0.8,0,1.1-0.4,1.1-0.9c0-0.5-0.3-0.8-1.1-1.1c-1-0.4-1.5-0.9-1.5-1.6
		c0-0.9,0.8-1.7,2-1.7c0.6,0,1.1,0.2,1.4,0.4l-0.3,0.8c-0.2-0.1-0.6-0.3-1.2-0.3c-0.6,0-1,0.4-1,0.8c0,0.5,0.3,0.7,1.1,1
		c1,0.4,1.5,0.9,1.5,1.8c0,1-0.8,1.7-2.2,1.7c-0.6,0-1.2-0.2-1.6-0.4L402.1,174.7z"/>
	<path d="M416.5,171.7c0,2.8-1.7,4.3-3.8,4.3c-2.1,0-3.6-1.7-3.6-4.1c0-2.6,1.6-4.2,3.8-4.2C415.1,167.6,416.5,169.3,416.5,171.7z
		 M410.2,171.8c0,1.7,0.9,3.3,2.6,3.3c1.7,0,2.6-1.5,2.6-3.4c0-1.6-0.8-3.3-2.6-3.3C411.1,168.4,410.2,170,410.2,171.8z"/>
	<path d="M417.8,171.9c0-0.7,0-1.3,0-1.9h0.9l0,1h0c0.4-0.7,1.1-1.1,2.1-1.1c1.4,0,2.5,1.2,2.5,3c0,2.1-1.3,3.1-2.6,3.1
		c-0.8,0-1.4-0.3-1.8-0.9h0v3.2h-1V171.9z M418.9,173.4c0,0.2,0,0.3,0,0.4c0.2,0.7,0.8,1.2,1.6,1.2c1.1,0,1.8-0.9,1.8-2.2
		c0-1.2-0.6-2.2-1.7-2.2c-0.7,0-1.4,0.5-1.6,1.3c0,0.1-0.1,0.3-0.1,0.4V173.4z"/>
	<path d="M425.2,173.1c0,1.4,0.9,2,2,2c0.8,0,1.2-0.1,1.6-0.3l0.2,0.8c-0.4,0.2-1,0.4-1.9,0.4c-1.8,0-2.9-1.2-2.9-2.9
		c0-1.8,1-3.1,2.7-3.1c1.9,0,2.4,1.7,2.4,2.7c0,0.2,0,0.4,0,0.5H425.2z M428.3,172.3c0-0.7-0.3-1.7-1.5-1.7c-1.1,0-1.5,1-1.6,1.7
		H428.3z"/>
	<path d="M430.7,171.5c0-0.6,0-1.1,0-1.6h0.9l0.1,1h0c0.3-0.6,1-1.1,1.9-1.1c0.8,0,2.1,0.5,2.1,2.5v3.5h-1.1v-3.3
		c0-0.9-0.3-1.7-1.3-1.7c-0.7,0-1.2,0.5-1.4,1.1c0,0.1-0.1,0.3-0.1,0.5v3.5h-1.1V171.5z"/>
	<path d="M436.6,177.3c0.3-0.7,0.6-2,0.7-2.9l1.2-0.1c-0.3,1-0.8,2.4-1.1,2.9L436.6,177.3z"/>
	<path d="M443.3,175.8l-2.1-8.1h1.1l1,4.1c0.2,1,0.5,2,0.6,2.8h0c0.1-0.8,0.4-1.8,0.7-2.8l1.1-4.1h1.1l1,4.1c0.2,1,0.4,1.9,0.6,2.8
		h0c0.2-0.9,0.4-1.8,0.6-2.8l1.1-4.1h1.1l-2.3,8.1h-1.1l-1-4.2c-0.3-1-0.4-1.8-0.5-2.6h0c-0.1,0.8-0.3,1.6-0.6,2.6l-1.2,4.2H443.3z"
		/>
	<path d="M454.9,175.8l-0.1-0.7h0c-0.3,0.5-0.9,0.9-1.8,0.9c-1.2,0-1.8-0.8-1.8-1.7c0-1.4,1.2-2.2,3.5-2.2V172
		c0-0.5-0.1-1.3-1.3-1.3c-0.5,0-1.1,0.2-1.5,0.4l-0.2-0.7c0.5-0.3,1.2-0.5,1.9-0.5c1.8,0,2.2,1.2,2.2,2.4v2.2c0,0.5,0,1,0.1,1.4
		H454.9z M454.7,172.8c-1.2,0-2.5,0.2-2.5,1.3c0,0.7,0.5,1,1,1c0.8,0,1.2-0.5,1.4-1c0-0.1,0.1-0.2,0.1-0.3V172.8z"/>
	<path d="M457.4,167.3h1.1v8.5h-1.1V167.3z"/>
	<path d="M460.3,171.5c0-0.6,0-1.1,0-1.6h0.9l0,0.9h0c0.3-0.6,0.9-1.1,1.8-1.1c0.8,0,1.4,0.5,1.6,1.2h0c0.2-0.3,0.4-0.6,0.6-0.8
		c0.3-0.3,0.7-0.4,1.3-0.4c0.8,0,1.9,0.5,1.9,2.5v3.4h-1v-3.3c0-1.1-0.4-1.8-1.3-1.8c-0.6,0-1.1,0.4-1.2,1c0,0.1-0.1,0.3-0.1,0.5
		v3.6h-1v-3.5c0-0.9-0.4-1.6-1.2-1.6c-0.7,0-1.1,0.5-1.3,1.1c-0.1,0.2-0.1,0.3-0.1,0.5v3.5h-1V171.5z"/>
	<path d="M473.5,175.8l-0.1-0.7h0c-0.3,0.5-0.9,0.9-1.8,0.9c-1.2,0-1.8-0.8-1.8-1.7c0-1.4,1.2-2.2,3.5-2.2V172
		c0-0.5-0.1-1.3-1.3-1.3c-0.5,0-1.1,0.2-1.5,0.4l-0.2-0.7c0.5-0.3,1.2-0.5,1.9-0.5c1.8,0,2.2,1.2,2.2,2.4v2.2c0,0.5,0,1,0.1,1.4
		H473.5z M473.3,172.8c-1.2,0-2.5,0.2-2.5,1.3c0,0.7,0.5,1,1,1c0.8,0,1.2-0.5,1.4-1c0-0.1,0.1-0.2,0.1-0.3V172.8z"/>
	<path d="M476.1,171.8c0-0.7,0-1.3,0-1.8h0.9l0,1.1h0c0.3-0.8,0.9-1.3,1.6-1.3c0.1,0,0.2,0,0.3,0v1c-0.1,0-0.2,0-0.4,0
		c-0.7,0-1.3,0.6-1.4,1.4c0,0.1,0,0.3,0,0.5v3.1h-1V171.8z"/>
	<path d="M481.6,168.3v1.7h1.5v0.8h-1.5v3.1c0,0.7,0.2,1.1,0.8,1.1c0.3,0,0.5,0,0.6-0.1l0,0.8c-0.2,0.1-0.5,0.1-0.9,0.1
		c-0.5,0-0.9-0.2-1.1-0.4c-0.3-0.3-0.4-0.8-0.4-1.5v-3.2h-0.9V170h0.9v-1.4L481.6,168.3z"/>
	<path d="M486.8,167.8c0.5-0.1,1.3-0.2,2-0.2c1.1,0,1.8,0.2,2.3,0.7c0.4,0.4,0.6,0.9,0.6,1.5c0,1.1-0.7,1.8-1.5,2.1v0
		c0.6,0.2,1,0.8,1.2,1.6c0.3,1.1,0.5,1.9,0.6,2.2H491c-0.1-0.2-0.3-0.9-0.5-1.9c-0.2-1.1-0.7-1.5-1.6-1.6h-1v3.5h-1V167.8z
		 M487.9,171.5h1.1c1.1,0,1.8-0.6,1.8-1.5c0-1-0.8-1.5-1.9-1.5c-0.5,0-0.9,0-1,0.1V171.5z"/>
	<path d="M493.9,173.1c0,1.4,0.9,2,2,2c0.8,0,1.2-0.1,1.6-0.3l0.2,0.8c-0.4,0.2-1,0.4-1.9,0.4c-1.8,0-2.9-1.2-2.9-2.9
		c0-1.8,1-3.1,2.7-3.1c1.9,0,2.4,1.7,2.4,2.7c0,0.2,0,0.4,0,0.5H493.9z M497,172.3c0-0.7-0.3-1.7-1.5-1.7c-1.1,0-1.5,1-1.6,1.7H497z
		"/>
	<path d="M499.3,171.5c0-0.6,0-1.1,0-1.6h0.9l0,0.9h0c0.3-0.6,0.9-1.1,1.8-1.1c0.8,0,1.4,0.5,1.6,1.2h0c0.2-0.3,0.4-0.6,0.6-0.8
		c0.3-0.3,0.7-0.4,1.3-0.4c0.8,0,1.9,0.5,1.9,2.5v3.4h-1v-3.3c0-1.1-0.4-1.8-1.3-1.8c-0.6,0-1.1,0.4-1.2,1c0,0.1-0.1,0.3-0.1,0.5
		v3.6h-1v-3.5c0-0.9-0.4-1.6-1.2-1.6c-0.7,0-1.1,0.5-1.3,1.1c-0.1,0.2-0.1,0.3-0.1,0.5v3.5h-1V171.5z"/>
	<path d="M514.6,172.8c0,2.1-1.5,3.1-2.9,3.1c-1.6,0-2.8-1.2-2.8-3c0-1.9,1.3-3.1,2.9-3.1C513.4,169.8,514.6,171.1,514.6,172.8z
		 M510,172.9c0,1.3,0.7,2.2,1.8,2.2c1,0,1.8-0.9,1.8-2.3c0-1-0.5-2.2-1.7-2.2C510.5,170.6,510,171.8,510,172.9z"/>
	<path d="M520.9,167.3v7c0,0.5,0,1.1,0,1.5H520l0-1h0c-0.3,0.6-1,1.1-2,1.1c-1.4,0-2.5-1.2-2.5-3c0-1.9,1.2-3.1,2.6-3.1
		c0.9,0,1.5,0.4,1.8,0.9h0v-3.5H520.9z M519.9,172.3c0-0.1,0-0.3,0-0.4c-0.2-0.7-0.7-1.2-1.5-1.2c-1.1,0-1.7,1-1.7,2.2
		c0,1.2,0.6,2.1,1.7,2.1c0.7,0,1.4-0.5,1.5-1.3c0-0.1,0-0.3,0-0.5V172.3z"/>
	<path d="M523.3,173.1c0,1.4,0.9,2,2,2c0.8,0,1.2-0.1,1.6-0.3l0.2,0.8c-0.4,0.2-1,0.4-1.9,0.4c-1.8,0-2.9-1.2-2.9-2.9
		c0-1.8,1-3.1,2.7-3.1c1.9,0,2.4,1.7,2.4,2.7c0,0.2,0,0.4,0,0.5H523.3z M526.4,172.3c0-0.7-0.3-1.7-1.5-1.7c-1.1,0-1.5,1-1.6,1.7
		H526.4z"/>
	<path d="M528.7,167.3h1.1v8.5h-1.1V167.3z"/>
</g>
<g>
</g>
<g>
</g>
<g>
</g>
<g>
</g>
<g>
</g>
<g>
</g>
<g>
</g>
</svg>
